<?xml version="1.0" encoding="UTF-8"?>
<svg width="1440px" height="100px" viewBox="0 0 1440 100" version="1.1" xmlns="http://www.w3.org/2000/svg" xmlns:xlink="http://www.w3.org/1999/xlink">
    <!-- Generator: Sketch 46.2 (44496) - http://www.bohemiancoding.com/sketch -->
    <title>bg-setup-header-skinny</title>
    <desc>Created with Sketch.</desc>
    <defs>
        <rect id="path-1" x="0" y="0" width="1440" height="100"></rect>
        <radialGradient cx="6.17757161%" cy="53.1103134%" fx="6.17757161%" fy="53.1103134%" r="93.3912501%" gradientTransform="translate(0.061776,0.531103),scale(0.069444,1.000000),rotate(0.359598),translate(-0.061776,-0.531103)" id="radialGradient-3">
            <stop stop-color="#E9E5E5" offset="0%"></stop>
            <stop stop-color="#E8E8E8" offset="37%"></stop>
            <stop stop-color="#E4E4E2" offset="100%"></stop>
        </radialGradient>
        <linearGradient x1="-93.3476395%" y1="-139.196676%" x2="296.781116%" y2="376.869806%" id="linearGradient-4">
            <stop stop-color="#51AFE3" offset="0%"></stop>
            <stop stop-color="#55B5E6" offset="100%"></stop>
        </linearGradient>
        <linearGradient x1="-167.956989%" y1="-106.293706%" x2="250.107527%" y2="250.34965%" id="linearGradient-5">
            <stop stop-color="#5BBEEC" offset="0%"></stop>
            <stop stop-color="#57B8E9" offset="100%"></stop>
        </linearGradient>
        <linearGradient x1="-24.5539507%" y1="-69.7193756%" x2="132.965166%" y2="128.502491%" id="linearGradient-6">
            <stop stop-color="#58BAEA" offset="0%"></stop>
            <stop stop-color="#5ABAEA" offset="100%"></stop>
        </linearGradient>
        <linearGradient x1="-29.0908503%" y1="10206%" x2="-21.5583884%" y2="10188%" id="linearGradient-7">
            <stop stop-color="#58BAEA" offset="0%"></stop>
            <stop stop-color="#5ABAEA" offset="100%"></stop>
        </linearGradient>
        <linearGradient x1="-405.418719%" y1="-706%" x2="525.615764%" y2="716%" id="linearGradient-8">
            <stop stop-color="#57B3E5" offset="0%"></stop>
            <stop stop-color="#59B8E8" offset="100%"></stop>
        </linearGradient>
        <linearGradient x1="-46.031746%" y1="-10.7035478%" x2="168.253968%" y2="145.159351%" id="linearGradient-9">
            <stop stop-color="#59B5E6" offset="0%"></stop>
            <stop stop-color="#5CBAEA" offset="100%"></stop>
        </linearGradient>
        <linearGradient x1="-150.126582%" y1="-269.291339%" x2="469.620253%" y2="793.700787%" id="linearGradient-10">
            <stop stop-color="#55B3E5" offset="0%"></stop>
            <stop stop-color="#5BB6E7" offset="100%"></stop>
        </linearGradient>
        <linearGradient x1="-10.4036384%" y1="12.0615089%" x2="89.880614%" y2="112.397886%" id="linearGradient-11">
            <stop stop-color="#66C7F2" offset="0%"></stop>
            <stop stop-color="#5CC3F0" offset="100%"></stop>
        </linearGradient>
        <linearGradient x1="9.51604133%" y1="-7.08860759%" x2="111.310495%" y2="107.974684%" id="linearGradient-12">
            <stop stop-color="#5AB9E9" offset="0%"></stop>
            <stop stop-color="#54B1E4" offset="100%"></stop>
        </linearGradient>
        <linearGradient x1="-9.50259837%" y1="14.6711636%" x2="93.3927246%" y2="154.300169%" id="linearGradient-13">
            <stop stop-color="#5DB9E9" offset="0%"></stop>
            <stop stop-color="#51B3E5" offset="100%"></stop>
        </linearGradient>
        <linearGradient x1="-612.5%" y1="-136.436597%" x2="206.5%" y2="100.481541%" id="linearGradient-14">
            <stop stop-color="#63C6F1" offset="0%"></stop>
            <stop stop-color="#5BBBEB" offset="100%"></stop>
        </linearGradient>
        <linearGradient x1="-64.2007926%" y1="-31.7380353%" x2="152.179657%" y2="99.5801847%" id="linearGradient-15">
            <stop stop-color="#53B0E4" offset="0%"></stop>
            <stop stop-color="#51AFE3" offset="100%"></stop>
        </linearGradient>
        <linearGradient x1="34.8774142%" y1="10269%" x2="39.7280549%" y2="10251%" id="linearGradient-16">
            <stop stop-color="#58BAEA" offset="0%"></stop>
            <stop stop-color="#5ABAEA" offset="100%"></stop>
        </linearGradient>
        <linearGradient x1="-46.3244613%" y1="-102.09205%" x2="85.9949303%" y2="128.870293%" id="linearGradient-17">
            <stop stop-color="#5DB6E7" offset="0%"></stop>
            <stop stop-color="#58B4E6" offset="100%"></stop>
        </linearGradient>
        <linearGradient x1="14.9638803%" y1="-17.0608108%" x2="115.273478%" y2="83.277027%" id="linearGradient-18">
            <stop stop-color="#4FAFE3" offset="0%"></stop>
            <stop stop-color="#50ABE0" offset="100%"></stop>
        </linearGradient>
        <linearGradient x1="-52%" y1="2508.50526%" x2="-34%" y2="2504.13112%" id="linearGradient-19">
            <stop stop-color="#66C7F2" offset="0%"></stop>
            <stop stop-color="#5CC3F0" offset="100%"></stop>
        </linearGradient>
        <linearGradient x1="-16.2116041%" y1="16.3851351%" x2="84.1296928%" y2="116.722973%" id="linearGradient-20">
            <stop stop-color="#58B7E8" offset="0%"></stop>
            <stop stop-color="#59B9E9" offset="100%"></stop>
        </linearGradient>
        <linearGradient x1="-272%" y1="5074.09973%" x2="-254%" y2="5065.168%" id="linearGradient-21">
            <stop stop-color="#4FAFE3" offset="0%"></stop>
            <stop stop-color="#50ABE0" offset="100%"></stop>
        </linearGradient>
        <linearGradient x1="16.3416899%" y1="-15.8097069%" x2="111.049211%" y2="84.5266699%" id="linearGradient-22">
            <stop stop-color="#56BAEA" offset="0%"></stop>
            <stop stop-color="#52B1E4" offset="100%"></stop>
        </linearGradient>
        <linearGradient x1="22.1311475%" y1="-33.0708661%" x2="628.278689%" y2="1029.92126%" id="linearGradient-23">
            <stop stop-color="#53B3E6" offset="0%"></stop>
            <stop stop-color="#54B0E4" offset="100%"></stop>
        </linearGradient>
        <linearGradient x1="36.6006942%" y1="10386%" x2="38.4141341%" y2="10368%" id="linearGradient-24">
            <stop stop-color="#4FAFE3" offset="0%"></stop>
            <stop stop-color="#50ABE0" offset="100%"></stop>
        </linearGradient>
        <linearGradient x1="-10.455192%" y1="10.0358423%" x2="136.770982%" y2="232.616487%" id="linearGradient-25">
            <stop stop-color="#59B8E9" offset="0%"></stop>
            <stop stop-color="#59B5E7" offset="100%"></stop>
        </linearGradient>
    </defs>
    <g id="Page-1" stroke="none" stroke-width="1" fill="none" fill-rule="evenodd">
        <g id="Desktop-HD">
            <g id="bg-setup-header-skinny">
                <g id="Group">
                    <mask id="mask-2" fill="white">
                        <use xlink:href="#path-1"></use>
                    </mask>
                    <use id="Mask" fill="#D8D8D8" xlink:href="#path-1"></use>
                    <g mask="url(#mask-2)">
                        <g transform="translate(0.000000, -34.000000)">
                            <rect id="Background" fill="url(#radialGradient-3)" fill-rule="nonzero" x="0" y="34" width="1440" height="100"></rect>
                            <g id="Grey-Clouds" stroke-width="1" fill="none" fill-rule="evenodd" transform="translate(28.785781, 30.500000)">
                                <path d="M157.33372,83.1457691 C155.037517,63.8464111 140.397083,48.3151107 121.266827,44.8842133 C102.13657,41.453316 83.0112944,50.9289379 74.151467,68.2275283 C63.5940581,64.492935 51.8848782,66.0625726 42.6837863,72.4458301 C33.4826943,78.8290877 27.9121733,89.2472425 27.7133632,100.443963 L25.9719343,100.443963 C11.5317924,101.065182 0.131085532,112.928574 0.084511665,127.381997 C0.0379377984,141.83542 11.3619529,153.772038 25.7977914,154.486306 L151.587005,154.486306 C164.621175,156.060452 177.471927,150.3769 185.076604,139.674732 C192.681281,128.972564 193.820842,114.967351 188.046349,103.17656 C182.271856,91.3857696 170.508967,83.6994806 157.391768,83.1457691 L157.33372,83.1457691 Z" id="Shape" fill="#FFFFFF" fill-rule="nonzero" opacity="0.39"></path>
                                <path d="M496.506021,13.8949468 C495.649103,7.05216508 490.420086,1.57353601 483.624668,0.398689661 C476.82925,-0.77615669 470.064356,2.62886889 466.959778,8.78675541 C463.175536,7.36926615 458.935657,7.90957344 455.627861,10.2308337 C452.320065,12.552094 450.370104,16.3555342 450.416203,20.3962814 L449.777679,20.3962814 C444.471944,20.3962814 440.170796,24.6974293 440.170796,30.0031641 C440.170796,35.3088989 444.471944,39.6100468 449.777679,39.6100468 L494.416306,39.6100468 L495.983592,39.6100468 C503.004474,39.7382821 508.799979,34.1506881 508.928214,27.1298064 C509.056449,20.1089247 503.468855,14.3134203 496.447973,14.185185 L496.506021,13.8949468 Z" id="Shape" fill="#FFFFFF" fill-rule="nonzero" opacity="0.17"></path>
                                <path d="M197.792918,28.2327114 C196.95941,21.4041868 191.770498,15.9173871 184.999077,14.7043964 C178.227657,13.4914057 171.456778,16.8358018 168.304722,22.9503771 C164.520481,21.5328878 160.280602,22.0731951 156.972806,24.3944554 C153.66501,26.7157157 151.715049,30.5191558 151.761148,34.559903 L151.122624,34.559903 C145.816889,34.559903 141.515741,38.8610509 141.515741,44.1667858 C141.515741,49.4725206 145.816889,53.7736685 151.122624,53.7736685 L195.761251,53.7736685 L197.27049,53.7736685 C204.291371,53.9179332 210.09987,48.3433336 210.244135,41.3224519 C210.3884,34.3015702 204.8138,28.4930713 197.792918,28.3488066 L197.792918,28.2327114 Z" id="Shape" fill="#FFFFFF" fill-rule="nonzero" opacity="0.21"></path>
                                <path d="M406.706338,59.810622 C404.71233,42.7979451 391.822543,29.0928325 374.963962,26.0604253 C358.105381,23.0280182 341.24769,31.3823563 333.450229,46.63381 C324.125164,43.1656628 313.694274,44.4677623 305.507951,50.1218754 C297.321627,55.7759885 292.410683,65.0701563 292.352507,75.019101 L290.785221,75.019101 C277.609046,75.0191014 266.927646,85.7005018 266.927646,98.8766768 C266.927646,112.052852 277.609046,122.734252 290.785221,122.734253 L401.656194,122.734253 C402.932095,122.810805 404.211437,122.810805 405.487338,122.734253 C422.454035,122.412427 436.132711,108.738551 436.460492,91.7719682 C436.788274,74.805385 423.647945,60.6133869 406.706338,59.6364791 L406.706338,59.810622 Z" id="Shape" fill="#FFFFFF" fill-rule="nonzero" opacity="0.31"></path>
                            </g>
                            <g id="Grey-Clouds-Copy" stroke-width="1" fill="none" fill-rule="evenodd" transform="translate(776.024062, 93.000000) scale(-1, 1) translate(-776.024062, -93.000000) translate(503.024062, 0.500000)">
                                <path d="M157.33372,83.1457691 C155.037517,63.8464111 140.397083,48.3151107 121.266827,44.8842133 C102.13657,41.453316 83.0112944,50.9289379 74.151467,68.2275283 C63.5940581,64.492935 51.8848782,66.0625726 42.6837863,72.4458301 C33.4826943,78.8290877 27.9121733,89.2472425 27.7133632,100.443963 L25.9719343,100.443963 C11.5317924,101.065182 0.131085532,112.928574 0.084511665,127.381997 C0.0379377984,141.83542 11.3619529,153.772038 25.7977914,154.486306 L151.587005,154.486306 C164.621175,156.060452 177.471927,150.3769 185.076604,139.674732 C192.681281,128.972564 193.820842,114.967351 188.046349,103.17656 C182.271856,91.3857696 170.508967,83.6994806 157.391768,83.1457691 L157.33372,83.1457691 Z" id="Shape" fill="#FFFFFF" fill-rule="nonzero" opacity="0.39"></path>
                                <path d="M519.55093,132.60235 C517.897246,118.584297 507.265216,107.299505 493.370429,104.814476 C479.475642,102.329447 465.591308,109.229581 459.181395,121.805491 C451.528335,118.978375 442.979188,120.041677 436.251828,124.657361 C429.524469,129.273046 425.455922,136.866823 425.339627,145.024542 L424.062579,145.024542 C413.625179,145.592052 405.452809,154.220847 405.452809,164.673665 C405.452809,175.126483 413.625179,183.755278 424.062579,184.322788 L515.429548,184.322788 C516.473429,184.386674 517.52024,184.386674 518.56412,184.322788 C527.89641,184.499064 536.613843,179.683234 541.432648,171.689372 C546.251452,163.695511 546.439537,153.738077 541.926053,145.567939 C537.412568,137.397801 528.883219,132.256198 519.55093,132.079921 L519.55093,132.60235 Z" id="Shape" fill="#FFFFFF" fill-rule="nonzero" opacity="0.47"></path>
                                <path d="M496.506021,13.8949468 C495.649103,7.05216508 490.420086,1.57353601 483.624668,0.398689661 C476.82925,-0.77615669 470.064356,2.62886889 466.959778,8.78675541 C463.175536,7.36926615 458.935657,7.90957344 455.627861,10.2308337 C452.320065,12.552094 450.370104,16.3555342 450.416203,20.3962814 L449.777679,20.3962814 C444.471944,20.3962814 440.170796,24.6974293 440.170796,30.0031641 C440.170796,35.3088989 444.471944,39.6100468 449.777679,39.6100468 L494.416306,39.6100468 L495.983592,39.6100468 C503.004474,39.7382821 508.799979,34.1506881 508.928214,27.1298064 C509.056449,20.1089247 503.468855,14.3134203 496.447973,14.185185 L496.506021,13.8949468 Z" id="Shape" fill="#FFFFFF" fill-rule="nonzero" opacity="0.17"></path>
                                <path d="M237.792918,48.2327114 C236.95941,41.4041868 231.770498,35.9173871 224.999077,34.7043964 C218.227657,33.4914057 211.456778,36.8358018 208.304722,42.9503771 C204.520481,41.5328878 200.280602,42.0731951 196.972806,44.3944554 C193.66501,46.7157157 191.715049,50.5191558 191.761148,54.559903 L191.122624,54.559903 C185.816889,54.559903 181.515741,58.8610509 181.515741,64.1667858 C181.515741,69.4725206 185.816889,73.7736685 191.122624,73.7736685 L235.761251,73.7736685 L237.27049,73.7736685 C244.291371,73.9179332 250.09987,68.3433336 250.244135,61.3224519 C250.3884,54.3015702 244.8138,48.4930713 237.792918,48.3488066 L237.792918,48.2327114 Z" id="Shape" fill="#FFFFFF" fill-rule="nonzero" opacity="0.21"></path>
                                <path d="M406.706338,59.810622 C404.71233,42.7979451 391.822543,29.0928325 374.963962,26.0604253 C358.105381,23.0280182 341.24769,31.3823563 333.450229,46.63381 C324.125164,43.1656628 313.694274,44.4677623 305.507951,50.1218754 C297.321627,55.7759885 292.410683,65.0701563 292.352507,75.019101 L290.785221,75.019101 C277.609046,75.0191014 266.927646,85.7005018 266.927646,98.8766768 C266.927646,112.052852 277.609046,122.734252 290.785221,122.734253 L401.656194,122.734253 C402.932095,122.810805 404.211437,122.810805 405.487338,122.734253 C422.454035,122.412427 436.132711,108.738551 436.460492,91.7719682 C436.788274,74.805385 423.647945,60.6133869 406.706338,59.6364791 L406.706338,59.810622 Z" id="Shape" fill="#FFFFFF" fill-rule="nonzero" opacity="0.31"></path>
                            </g>
                            <g id="Grey-Clouds-Copy-2" stroke-width="1" fill="none" fill-rule="evenodd" transform="translate(1103.024062, 30.500000)">
                                <path d="M157.33372,83.1457691 C155.037517,63.8464111 140.397083,48.3151107 121.266827,44.8842133 C102.13657,41.453316 83.0112944,50.9289379 74.151467,68.2275283 C63.5940581,64.492935 51.8848782,66.0625726 42.6837863,72.4458301 C33.4826943,78.8290877 27.9121733,89.2472425 27.7133632,100.443963 L25.9719343,100.443963 C11.5317924,101.065182 0.131085532,112.928574 0.084511665,127.381997 C0.0379377984,141.83542 11.3619529,153.772038 25.7977914,154.486306 L151.587005,154.486306 C164.621175,156.060452 177.471927,150.3769 185.076604,139.674732 C192.681281,128.972564 193.820842,114.967351 188.046349,103.17656 C182.271856,91.3857696 170.508967,83.6994806 157.391768,83.1457691 L157.33372,83.1457691 Z" id="Shape" fill="#FFFFFF" fill-rule="nonzero" opacity="0.39"></path>
                                <path d="M197.792918,28.2327114 C196.95941,21.4041868 191.770498,15.9173871 184.999077,14.7043964 C178.227657,13.4914057 171.456778,16.8358018 168.304722,22.9503771 C164.520481,21.5328878 160.280602,22.0731951 156.972806,24.3944554 C153.66501,26.7157157 151.715049,30.5191558 151.761148,34.559903 L151.122624,34.559903 C145.816889,34.559903 141.515741,38.8610509 141.515741,44.1667858 C141.515741,49.4725206 145.816889,53.7736685 151.122624,53.7736685 L195.761251,53.7736685 L197.27049,53.7736685 C204.291371,53.9179332 210.09987,48.3433336 210.244135,41.3224519 C210.3884,34.3015702 204.8138,28.4930713 197.792918,28.3488066 L197.792918,28.2327114 Z" id="Shape" fill="#FFFFFF" fill-rule="nonzero" opacity="0.21"></path>
                                <path d="M406.706338,59.810622 C404.71233,42.7979451 391.822543,29.0928325 374.963962,26.0604253 C358.105381,23.0280182 341.24769,31.3823563 333.450229,46.63381 C324.125164,43.1656628 313.694274,44.4677623 305.507951,50.1218754 C297.321627,55.7759885 292.410683,65.0701563 292.352507,75.019101 L290.785221,75.019101 C277.609046,75.0191014 266.927646,85.7005018 266.927646,98.8766768 C266.927646,112.052852 277.609046,122.734252 290.785221,122.734253 L401.656194,122.734253 C402.932095,122.810805 404.211437,122.810805 405.487338,122.734253 C422.454035,122.412427 436.132711,108.738551 436.460492,91.7719682 C436.788274,74.805385 423.647945,60.6133869 406.706338,59.6364791 L406.706338,59.810622 Z" id="Shape" fill="#FFFFFF" fill-rule="nonzero" opacity="0.31"></path>
                            </g>
                            <g id="Blue-Cloud" stroke-width="1" fill="none" fill-rule="evenodd" transform="translate(28.785781, 49.000000)">
                                <path d="M123.948392,51.2909366 L114.795138,65.4725885 C120.130833,62.687224 123.607744,57.3002505 123.948392,51.2909366 L123.948392,51.2909366 Z" id="Shape" stroke="#53B2E4" fill="url(#linearGradient-4)" fill-rule="nonzero"></path>
                                <path d="M81.2070149,13.4797454 C80.1022931,10.9752374 78.5515475,8.69238004 76.6303876,6.74247865 L72.0734025,15.1689727 L81.2070149,13.4797454 Z" id="Shape" stroke="#59BBEB" fill="url(#linearGradient-5)" fill-rule="nonzero"></path>
                                <path d="M76.6303876,6.74247865 C70.627545,0.610397953 61.6502799,-1.55573907 53.511545,1.16410032 L72.0734025,15.1689727 L76.6303876,6.74247865 Z" id="Shape" stroke="#59BAEA" fill="url(#linearGradient-6)" fill-rule="nonzero"></path>
                                <path d="M106.623992,35.9700384 L106.859698,34.0058206 L106.506139,34.0058206 C106.506139,33.7308301 106.506139,33.4558397 106.506139,33.1808492 C106.479457,27.4675048 103.553285,22.1586695 98.7368676,19.0853745 C93.9204505,16.0120794 87.872955,15.5949307 82.6801782,17.977804 C82.3560171,16.4312909 81.8687863,14.923509 81.226657,13.4797454 L72.0930446,15.1689727 L106.623992,35.9700384 Z" id="Shape" stroke="#5ABAEA" fill="url(#linearGradient-7)" fill-rule="nonzero"></path>
                                <path d="M110.630996,34.3200955 C109.602261,34.1166792 108.556529,34.0114482 107.50789,34.0058206 L106.87934,34.0058206 L106.643634,35.9700384 L110.630996,34.3200955 Z" id="Shape" stroke="#58B6E7" fill="url(#linearGradient-8)" fill-rule="nonzero"></path>
                                <path d="M110.630996,34.3200955 L106.702561,35.9503962 L110.39529,66.9850362 L110.532785,66.9850362 C112.045796,66.6853437 113.507771,66.1693526 114.873707,65.4529464 L124.026961,51.2712944 C124.026961,51.0159461 124.026961,50.7605978 124.026961,50.5052495 C124.025268,42.5941903 118.402312,35.8004723 110.630996,34.3200955 Z" id="Shape" stroke="#5BB7E8" fill="url(#linearGradient-9)" fill-rule="nonzero"></path>
                                <polygon id="Shape" stroke="#57B4E5" fill="url(#linearGradient-10)" fill-rule="nonzero" points="33.8497256 67.0046784 41.6083856 67.0046784 39.66381 64.5101219"></polygon>
                                <polygon id="Shape" stroke="#60C5F1" fill="url(#linearGradient-11)" fill-rule="nonzero" points="74.1947576 56.0443435 106.623992 35.9700384 72.0734025 15.1689727"></polygon>
                                <polygon id="Shape" stroke="#58B6E7" fill="url(#linearGradient-12)" fill-rule="nonzero" points="74.1947576 56.0443435 100.063505 67.0046784 110.316722 67.0046784 106.623992 35.9700384"></polygon>
                                <polygon id="Shape" stroke="#55B5E6" fill="url(#linearGradient-13)" fill-rule="nonzero" points="14.9735933 43.7090562 13.2057973 67.0046784 33.8497256 67.0046784 39.66381 64.5101219"></polygon>
                                <path d="M13.5789987,32.159456 C11.8825274,35.4882578 10.9879106,39.1676218 10.9665891,42.9037269 C10.9665891,43.4144235 10.9665891,43.9054779 10.9665891,44.3965324 L14.8950246,43.7090562 L13.5789987,32.159456 Z" id="Shape" stroke="#5DBEED" fill="url(#linearGradient-14)" fill-rule="nonzero"></path>
                                <path d="M11.1040844,44.4947433 C11.1040844,44.7304494 11.1040844,44.9857977 11.1040844,45.2215038 L10.9665891,45.2215038 C4.92421138,45.2215038 0.0258964092,50.1198188 0.0258964092,56.1621965 C0.0258964092,62.2045743 4.92421138,67.1028892 10.9665891,67.1028892 L13.1468708,67.1028892 L14.8950246,43.7090562 L11.1040844,44.4947433 Z" id="Shape" stroke="#52AFE3" fill="url(#linearGradient-15)" fill-rule="nonzero"></path>
                                <path d="M13.5789987,32.159456 L14.8950246,43.7090562 L52.961564,29.6059729 L22.0644193,22.6722844 C18.4387879,25.0193632 15.5086224,28.2954511 13.5789987,32.159456 Z" id="Shape" stroke="#5ABAEA" fill="url(#linearGradient-16)" fill-rule="nonzero"></path>
                                <path d="M39.21204,15.4636053 C38.8241306,16.603454 38.5285446,17.7726608 38.328142,18.9599129 C32.6452832,18.1503931 26.8623264,19.4424788 22.0644193,22.5937157 L53.0597749,29.5470464 L39.21204,15.4636053 Z" id="Shape" stroke="#59B4E6" fill="url(#linearGradient-17)" fill-rule="nonzero"></path>
                                <polygon id="Shape" stroke="#50ADE2" fill="url(#linearGradient-18)" fill-rule="nonzero" points="14.9735933 43.7090562 39.66381 64.5101219 53.0401327 29.6256151"></polygon>
                                <path d="M52.0580239,1.6944391 C45.9800379,4.1910809 41.2904215,9.21054803 39.21204,15.4439632 L52.961564,29.5863308 L52.0580239,1.6944391 Z" id="Shape" stroke="#5CC3F0" fill="url(#linearGradient-19)" fill-rule="nonzero"></path>
                                <polygon id="Shape" stroke="#59B8E9" fill="url(#linearGradient-20)" fill-rule="nonzero" points="39.66381 64.5101219 74.1947576 56.0443435 53.0401327 29.6256151"></polygon>
                                <path d="M72.0734025,15.1689727 L53.511545,1.16410032 C53.0204905,1.32123773 52.5294361,1.49801733 52.0383817,1.6944391 L53.0401327,29.6059729 L72.0734025,15.1689727 Z" id="Shape" stroke="#50ABE0" fill="url(#linearGradient-21)" fill-rule="nonzero"></path>
                                <polygon id="Shape" stroke="#54B5E7" fill="url(#linearGradient-22)" fill-rule="nonzero" points="53.0401327 29.6256151 74.1947576 56.0443435 72.0734025 15.1689727"></polygon>
                                <polygon id="Shape" stroke="#53B3E6" fill="url(#linearGradient-23)" fill-rule="nonzero" points="41.6083856 67.0046784 44.4565013 67.0046784 39.66381 64.5101219"></polygon>
                                <polygon id="Shape" stroke="#50ABE0" fill="url(#linearGradient-24)" fill-rule="nonzero" points="39.66381 64.5101219 44.4565013 67.0046784 72.4466038 67.0046784 74.1947576 56.0443435"></polygon>
                                <polygon id="Shape" stroke="#59B6E8" fill="url(#linearGradient-25)" fill-rule="nonzero" points="72.4466038 67.0046784 100.063505 67.0046784 74.1947576 56.0443435"></polygon>
                            </g>
                            <text id="MEDIA-CLOUD-SETUP" fill="none" font-family="Millar-Regular4, Millar" font-size="28" font-weight="normal">
                                <tspan x="184.694" y="91.25" fill="#000000">MEDIA CLOUD SETUP</tspan>
                            </text>
                        </g>
                    </g>
                </g>
            </g>
        </g>
    </g>
</svg>