<?xml version="1.0" encoding="UTF-8"?>
<svg width="1440px" height="320px" viewBox="0 0 1440 320" version="1.1" xmlns="http://www.w3.org/2000/svg" xmlns:xlink="http://www.w3.org/1999/xlink">
    <!-- Generator: Sketch 46.2 (44496) - http://www.bohemiancoding.com/sketch -->
    <title>bg-setup-header</title>
    <desc>Created with Sketch.</desc>
    <defs>
        <radialGradient cx="50%" cy="50%" fx="50%" fy="50%" r="50%" gradientTransform="translate(0.500000,0.500000),scale(0.222222,1.000000),translate(-0.500000,-0.500000)" id="radialGradient-1">
            <stop stop-color="#FFFFFF" offset="0%"></stop>
            <stop stop-color="#E8E8E8" offset="37%"></stop>
            <stop stop-color="#C6C6C5" offset="100%"></stop>
        </radialGradient>
        <linearGradient x1="-93.3476395%" y1="-139.196676%" x2="296.781116%" y2="376.869806%" id="linearGradient-2">
            <stop stop-color="#51AFE3" offset="0%"></stop>
            <stop stop-color="#55B5E6" offset="100%"></stop>
        </linearGradient>
        <linearGradient x1="-167.956989%" y1="-106.293706%" x2="250.107527%" y2="250.34965%" id="linearGradient-3">
            <stop stop-color="#5BBEEC" offset="0%"></stop>
            <stop stop-color="#57B8E9" offset="100%"></stop>
        </linearGradient>
        <linearGradient x1="-24.5539507%" y1="-69.7193756%" x2="132.965166%" y2="128.502491%" id="linearGradient-4">
            <stop stop-color="#58BAEA" offset="0%"></stop>
            <stop stop-color="#5ABAEA" offset="100%"></stop>
        </linearGradient>
        <linearGradient x1="-29.0908503%" y1="10206%" x2="-21.5583884%" y2="10188%" id="linearGradient-5">
            <stop stop-color="#58BAEA" offset="0%"></stop>
            <stop stop-color="#5ABAEA" offset="100%"></stop>
        </linearGradient>
        <linearGradient x1="-405.418719%" y1="-706%" x2="525.615764%" y2="716%" id="linearGradient-6">
            <stop stop-color="#57B3E5" offset="0%"></stop>
            <stop stop-color="#59B8E8" offset="100%"></stop>
        </linearGradient>
        <linearGradient x1="-46.031746%" y1="-10.7035478%" x2="168.253968%" y2="145.159351%" id="linearGradient-7">
            <stop stop-color="#59B5E6" offset="0%"></stop>
            <stop stop-color="#5CBAEA" offset="100%"></stop>
        </linearGradient>
        <linearGradient x1="-150.126582%" y1="-269.291339%" x2="469.620253%" y2="793.700787%" id="linearGradient-8">
            <stop stop-color="#55B3E5" offset="0%"></stop>
            <stop stop-color="#5BB6E7" offset="100%"></stop>
        </linearGradient>
        <linearGradient x1="-10.4036384%" y1="12.0615089%" x2="89.880614%" y2="112.397886%" id="linearGradient-9">
            <stop stop-color="#66C7F2" offset="0%"></stop>
            <stop stop-color="#5CC3F0" offset="100%"></stop>
        </linearGradient>
        <linearGradient x1="9.51604133%" y1="-7.08860759%" x2="111.310495%" y2="107.974684%" id="linearGradient-10">
            <stop stop-color="#5AB9E9" offset="0%"></stop>
            <stop stop-color="#54B1E4" offset="100%"></stop>
        </linearGradient>
        <linearGradient x1="-9.50259837%" y1="14.6711636%" x2="93.3927246%" y2="154.300169%" id="linearGradient-11">
            <stop stop-color="#5DB9E9" offset="0%"></stop>
            <stop stop-color="#51B3E5" offset="100%"></stop>
        </linearGradient>
        <linearGradient x1="-612.5%" y1="-136.436597%" x2="206.5%" y2="100.481541%" id="linearGradient-12">
            <stop stop-color="#63C6F1" offset="0%"></stop>
            <stop stop-color="#5BBBEB" offset="100%"></stop>
        </linearGradient>
        <linearGradient x1="-64.2007926%" y1="-31.7380353%" x2="152.179657%" y2="99.5801847%" id="linearGradient-13">
            <stop stop-color="#53B0E4" offset="0%"></stop>
            <stop stop-color="#51AFE3" offset="100%"></stop>
        </linearGradient>
        <linearGradient x1="34.8774142%" y1="10269%" x2="39.7280549%" y2="10251%" id="linearGradient-14">
            <stop stop-color="#58BAEA" offset="0%"></stop>
            <stop stop-color="#5ABAEA" offset="100%"></stop>
        </linearGradient>
        <linearGradient x1="-46.3244613%" y1="-102.09205%" x2="85.9949303%" y2="128.870293%" id="linearGradient-15">
            <stop stop-color="#5DB6E7" offset="0%"></stop>
            <stop stop-color="#58B4E6" offset="100%"></stop>
        </linearGradient>
        <linearGradient x1="14.9638803%" y1="-17.0608108%" x2="115.273478%" y2="83.277027%" id="linearGradient-16">
            <stop stop-color="#4FAFE3" offset="0%"></stop>
            <stop stop-color="#50ABE0" offset="100%"></stop>
        </linearGradient>
        <linearGradient x1="-52%" y1="2508.50526%" x2="-34%" y2="2504.13112%" id="linearGradient-17">
            <stop stop-color="#66C7F2" offset="0%"></stop>
            <stop stop-color="#5CC3F0" offset="100%"></stop>
        </linearGradient>
        <linearGradient x1="-16.2116041%" y1="16.3851351%" x2="84.1296928%" y2="116.722973%" id="linearGradient-18">
            <stop stop-color="#58B7E8" offset="0%"></stop>
            <stop stop-color="#59B9E9" offset="100%"></stop>
        </linearGradient>
        <linearGradient x1="-272%" y1="5074.09973%" x2="-254%" y2="5065.168%" id="linearGradient-19">
            <stop stop-color="#4FAFE3" offset="0%"></stop>
            <stop stop-color="#50ABE0" offset="100%"></stop>
        </linearGradient>
        <linearGradient x1="16.3416899%" y1="-15.8097069%" x2="111.049211%" y2="84.5266699%" id="linearGradient-20">
            <stop stop-color="#56BAEA" offset="0%"></stop>
            <stop stop-color="#52B1E4" offset="100%"></stop>
        </linearGradient>
        <linearGradient x1="22.1311475%" y1="-33.0708661%" x2="628.278689%" y2="1029.92126%" id="linearGradient-21">
            <stop stop-color="#53B3E6" offset="0%"></stop>
            <stop stop-color="#54B0E4" offset="100%"></stop>
        </linearGradient>
        <linearGradient x1="36.6006942%" y1="10386%" x2="38.4141341%" y2="10368%" id="linearGradient-22">
            <stop stop-color="#4FAFE3" offset="0%"></stop>
            <stop stop-color="#50ABE0" offset="100%"></stop>
        </linearGradient>
        <linearGradient x1="-10.455192%" y1="10.0358423%" x2="136.770982%" y2="232.616487%" id="linearGradient-23">
            <stop stop-color="#59B8E9" offset="0%"></stop>
            <stop stop-color="#59B5E7" offset="100%"></stop>
        </linearGradient>
    </defs>
    <g id="Page-1" stroke="none" stroke-width="1" fill="none" fill-rule="evenodd">
        <g id="Desktop-HD">
            <g id="bg-setup-header" transform="translate(0.000000, -13.000000)">
                <rect id="Background" fill="url(#radialGradient-1)" fill-rule="nonzero" x="0" y="13" width="1440" height="320"></rect>
                <g id="Grey-Clouds" transform="translate(28.785781, 30.500000)" fill-rule="nonzero" fill="#FFFFFF">
                    <path d="M157.33372,83.1457691 C155.037517,63.8464111 140.397083,48.3151107 121.266827,44.8842133 C102.13657,41.453316 83.0112944,50.9289379 74.151467,68.2275283 C63.5940581,64.492935 51.8848782,66.0625726 42.6837863,72.4458301 C33.4826943,78.8290877 27.9121733,89.2472425 27.7133632,100.443963 L25.9719343,100.443963 C11.5317924,101.065182 0.131085532,112.928574 0.084511665,127.381997 C0.0379377984,141.83542 11.3619529,153.772038 25.7977914,154.486306 L151.587005,154.486306 C164.621175,156.060452 177.471927,150.3769 185.076604,139.674732 C192.681281,128.972564 193.820842,114.967351 188.046349,103.17656 C182.271856,91.3857696 170.508967,83.6994806 157.391768,83.1457691 L157.33372,83.1457691 Z" id="Shape" opacity="0.39"></path>
                    <path d="M519.55093,132.60235 C517.897246,118.584297 507.265216,107.299505 493.370429,104.814476 C479.475642,102.329447 465.591308,109.229581 459.181395,121.805491 C451.528335,118.978375 442.979188,120.041677 436.251828,124.657361 C429.524469,129.273046 425.455922,136.866823 425.339627,145.024542 L424.062579,145.024542 C413.625179,145.592052 405.452809,154.220847 405.452809,164.673665 C405.452809,175.126483 413.625179,183.755278 424.062579,184.322788 L515.429548,184.322788 C516.473429,184.386674 517.52024,184.386674 518.56412,184.322788 C527.89641,184.499064 536.613843,179.683234 541.432648,171.689372 C546.251452,163.695511 546.439537,153.738077 541.926053,145.567939 C537.412568,137.397801 528.883219,132.256198 519.55093,132.079921 L519.55093,132.60235 Z" id="Shape" opacity="0.47"></path>
                    <path d="M496.506021,13.8949468 C495.649103,7.05216508 490.420086,1.57353601 483.624668,0.398689661 C476.82925,-0.77615669 470.064356,2.62886889 466.959778,8.78675541 C463.175536,7.36926615 458.935657,7.90957344 455.627861,10.2308337 C452.320065,12.552094 450.370104,16.3555342 450.416203,20.3962814 L449.777679,20.3962814 C444.471944,20.3962814 440.170796,24.6974293 440.170796,30.0031641 C440.170796,35.3088989 444.471944,39.6100468 449.777679,39.6100468 L494.416306,39.6100468 L495.983592,39.6100468 C503.004474,39.7382821 508.799979,34.1506881 508.928214,27.1298064 C509.056449,20.1089247 503.468855,14.3134203 496.447973,14.185185 L496.506021,13.8949468 Z" id="Shape" opacity="0.17"></path>
                    <path d="M197.792918,28.2327114 C196.95941,21.4041868 191.770498,15.9173871 184.999077,14.7043964 C178.227657,13.4914057 171.456778,16.8358018 168.304722,22.9503771 C164.520481,21.5328878 160.280602,22.0731951 156.972806,24.3944554 C153.66501,26.7157157 151.715049,30.5191558 151.761148,34.559903 L151.122624,34.559903 C145.816889,34.559903 141.515741,38.8610509 141.515741,44.1667858 C141.515741,49.4725206 145.816889,53.7736685 151.122624,53.7736685 L195.761251,53.7736685 L197.27049,53.7736685 C204.291371,53.9179332 210.09987,48.3433336 210.244135,41.3224519 C210.3884,34.3015702 204.8138,28.4930713 197.792918,28.3488066 L197.792918,28.2327114 Z" id="Shape" opacity="0.21"></path>
                    <path d="M406.706338,59.810622 C404.71233,42.7979451 391.822543,29.0928325 374.963962,26.0604253 C358.105381,23.0280182 341.24769,31.3823563 333.450229,46.63381 C324.125164,43.1656628 313.694274,44.4677623 305.507951,50.1218754 C297.321627,55.7759885 292.410683,65.0701563 292.352507,75.019101 L290.785221,75.019101 C277.609046,75.0191014 266.927646,85.7005018 266.927646,98.8766768 C266.927646,112.052852 277.609046,122.734252 290.785221,122.734253 L401.656194,122.734253 C402.932095,122.810805 404.211437,122.810805 405.487338,122.734253 C422.454035,122.412427 436.132711,108.738551 436.460492,91.7719682 C436.788274,74.805385 423.647945,60.6133869 406.706338,59.6364791 L406.706338,59.810622 Z" id="Shape" opacity="0.31"></path>
                </g>
                <g id="Grey-Clouds-Copy" transform="translate(1136.024062, 93.000000) scale(-1, 1) translate(-1136.024062, -93.000000) translate(863.024062, 0.500000)" fill-rule="nonzero" fill="#FFFFFF">
                    <path d="M157.33372,83.1457691 C155.037517,63.8464111 140.397083,48.3151107 121.266827,44.8842133 C102.13657,41.453316 83.0112944,50.9289379 74.151467,68.2275283 C63.5940581,64.492935 51.8848782,66.0625726 42.6837863,72.4458301 C33.4826943,78.8290877 27.9121733,89.2472425 27.7133632,100.443963 L25.9719343,100.443963 C11.5317924,101.065182 0.131085532,112.928574 0.084511665,127.381997 C0.0379377984,141.83542 11.3619529,153.772038 25.7977914,154.486306 L151.587005,154.486306 C164.621175,156.060452 177.471927,150.3769 185.076604,139.674732 C192.681281,128.972564 193.820842,114.967351 188.046349,103.17656 C182.271856,91.3857696 170.508967,83.6994806 157.391768,83.1457691 L157.33372,83.1457691 Z" id="Shape" opacity="0.39"></path>
                    <path d="M519.55093,132.60235 C517.897246,118.584297 507.265216,107.299505 493.370429,104.814476 C479.475642,102.329447 465.591308,109.229581 459.181395,121.805491 C451.528335,118.978375 442.979188,120.041677 436.251828,124.657361 C429.524469,129.273046 425.455922,136.866823 425.339627,145.024542 L424.062579,145.024542 C413.625179,145.592052 405.452809,154.220847 405.452809,164.673665 C405.452809,175.126483 413.625179,183.755278 424.062579,184.322788 L515.429548,184.322788 C516.473429,184.386674 517.52024,184.386674 518.56412,184.322788 C527.89641,184.499064 536.613843,179.683234 541.432648,171.689372 C546.251452,163.695511 546.439537,153.738077 541.926053,145.567939 C537.412568,137.397801 528.883219,132.256198 519.55093,132.079921 L519.55093,132.60235 Z" id="Shape" opacity="0.47"></path>
                    <path d="M496.506021,13.8949468 C495.649103,7.05216508 490.420086,1.57353601 483.624668,0.398689661 C476.82925,-0.77615669 470.064356,2.62886889 466.959778,8.78675541 C463.175536,7.36926615 458.935657,7.90957344 455.627861,10.2308337 C452.320065,12.552094 450.370104,16.3555342 450.416203,20.3962814 L449.777679,20.3962814 C444.471944,20.3962814 440.170796,24.6974293 440.170796,30.0031641 C440.170796,35.3088989 444.471944,39.6100468 449.777679,39.6100468 L494.416306,39.6100468 L495.983592,39.6100468 C503.004474,39.7382821 508.799979,34.1506881 508.928214,27.1298064 C509.056449,20.1089247 503.468855,14.3134203 496.447973,14.185185 L496.506021,13.8949468 Z" id="Shape" opacity="0.17"></path>
                    <path d="M197.792918,28.2327114 C196.95941,21.4041868 191.770498,15.9173871 184.999077,14.7043964 C178.227657,13.4914057 171.456778,16.8358018 168.304722,22.9503771 C164.520481,21.5328878 160.280602,22.0731951 156.972806,24.3944554 C153.66501,26.7157157 151.715049,30.5191558 151.761148,34.559903 L151.122624,34.559903 C145.816889,34.559903 141.515741,38.8610509 141.515741,44.1667858 C141.515741,49.4725206 145.816889,53.7736685 151.122624,53.7736685 L195.761251,53.7736685 L197.27049,53.7736685 C204.291371,53.9179332 210.09987,48.3433336 210.244135,41.3224519 C210.3884,34.3015702 204.8138,28.4930713 197.792918,28.3488066 L197.792918,28.2327114 Z" id="Shape" opacity="0.21"></path>
                    <path d="M406.706338,59.810622 C404.71233,42.7979451 391.822543,29.0928325 374.963962,26.0604253 C358.105381,23.0280182 341.24769,31.3823563 333.450229,46.63381 C324.125164,43.1656628 313.694274,44.4677623 305.507951,50.1218754 C297.321627,55.7759885 292.410683,65.0701563 292.352507,75.019101 L290.785221,75.019101 C277.609046,75.0191014 266.927646,85.7005018 266.927646,98.8766768 C266.927646,112.052852 277.609046,122.734252 290.785221,122.734253 L401.656194,122.734253 C402.932095,122.810805 404.211437,122.810805 405.487338,122.734253 C422.454035,122.412427 436.132711,108.738551 436.460492,91.7719682 C436.788274,74.805385 423.647945,60.6133869 406.706338,59.6364791 L406.706338,59.810622 Z" id="Shape" opacity="0.31"></path>
                </g>
                <g id="Blue-Cloud" transform="translate(534.672224, 32.617188)" fill-rule="nonzero">
                    <path d="M369.732742,152.998665 L342.428976,195.301925 C358.345125,186.993302 368.716601,170.924191 369.732742,152.998665 L369.732742,152.998665 Z" id="Shape" stroke="#53B2E4" fill="url(#linearGradient-2)"></path>
                    <path d="M242.237044,40.2095028 C238.941707,32.7386626 234.315899,25.9289971 228.585161,20.1125248 L214.99187,45.2483953 L242.237044,40.2095028 Z" id="Shape" stroke="#59BBEB" fill="url(#linearGradient-3)"></path>
                    <path d="M228.585161,20.1125248 C210.678939,1.82079093 183.900142,-4.64070296 159.622645,3.47246134 L214.99187,45.2483953 L228.585161,20.1125248 Z" id="Shape" stroke="#59BAEA" fill="url(#linearGradient-4)"></path>
                    <path d="M318.054798,107.297083 L318.7579,101.437905 L317.703248,101.437905 C317.703248,100.61762 317.703248,99.7973357 317.703248,98.9770508 C317.623655,81.9343894 308.89501,66.0983613 294.527844,56.9308539 C280.160678,47.7633466 262.121258,46.5190099 246.631427,53.6270188 C245.664469,49.0138363 244.21108,44.5161878 242.295636,40.2095028 L215.050462,45.2483953 L318.054798,107.297083 Z" id="Shape" stroke="#5ABAEA" fill="url(#linearGradient-5)"></path>
                    <path d="M330.00752,102.375374 C326.938847,101.768592 323.819471,101.454692 320.691428,101.437905 L318.816491,101.437905 L318.11339,107.297083 L330.00752,102.375374 Z" id="Shape" stroke="#58B6E7" fill="url(#linearGradient-6)"></path>
                    <path d="M330.00752,102.375374 L318.289165,107.238491 L329.304419,199.813492 L329.714561,199.813492 C334.227808,198.919522 338.588816,197.380342 342.663343,195.243333 L369.967109,152.940074 C369.967109,152.17838 369.967109,151.416687 369.967109,150.654994 C369.962058,127.056644 353.189021,106.791274 330.00752,102.375374 Z" id="Shape" stroke="#5BB7E8" fill="url(#linearGradient-7)"></path>
                    <polygon id="Shape" stroke="#57B4E5" fill="url(#linearGradient-8)" points="100.97228 199.872083 124.116031 199.872083 118.315445 192.430928"></polygon>
                    <polygon id="Shape" stroke="#60C5F1" fill="url(#linearGradient-9)" points="221.319782 167.177874 318.054798 107.297083 214.99187 45.2483953"></polygon>
                    <polygon id="Shape" stroke="#58B6E7" fill="url(#linearGradient-10)" points="221.319782 167.177874 298.485146 199.872083 329.070052 199.872083 318.054798 107.297083"></polygon>
                    <polygon id="Shape" stroke="#55B5E6" fill="url(#linearGradient-11)" points="44.6655869 130.382241 39.3923274 199.872083 100.97228 199.872083 118.315445 192.430928"></polygon>
                    <path d="M40.505571,95.9302787 C35.4450699,105.859952 32.7764662,116.835337 32.7128653,127.979978 C32.7128653,129.503364 32.7128653,130.968159 32.7128653,132.432953 L44.4312198,130.382241 L40.505571,95.9302787 Z" id="Shape" stroke="#5DBEED" fill="url(#linearGradient-12)"></path>
                    <path d="M33.1230077,132.725912 C33.1230077,133.429013 33.1230077,134.190706 33.1230077,134.893808 L32.7128653,134.893808 C14.6887115,134.893808 0.0772478785,149.505271 0.0772478785,167.529425 C0.0772478785,185.553579 14.6887115,200.165042 32.7128653,200.165042 L39.216552,200.165042 L44.4312198,130.382241 L33.1230077,132.725912 Z" id="Shape" stroke="#52AFE3" fill="url(#linearGradient-13)"></path>
                    <path d="M40.505571,95.9302787 L44.4312198,130.382241 L157.982075,88.3133482 L65.8172169,67.6304525 C55.002114,74.6316881 46.2615559,84.4041176 40.505571,95.9302787 Z" id="Shape" stroke="#5ABAEA" fill="url(#linearGradient-14)"></path>
                    <path d="M116.967834,46.1272719 C115.810717,49.5273915 114.928997,53.0150854 114.331205,56.5566074 C97.3794805,54.1418445 80.1291681,57.996081 65.8172169,67.3960854 L158.275034,88.1375729 L116.967834,46.1272719 Z" id="Shape" stroke="#59B4E6" fill="url(#linearGradient-15)"></path>
                    <polygon id="Shape" stroke="#50ADE2" fill="url(#linearGradient-16)" points="44.6655869 130.382241 118.315445 192.430928 158.216442 88.37194"></polygon>
                    <path d="M155.286854,5.05443921 C137.156482,12.5018147 123.167557,27.47467 116.967834,46.0686801 L157.982075,88.2547564 L155.286854,5.05443921 Z" id="Shape" stroke="#5CC3F0" fill="url(#linearGradient-17)"></path>
                    <polygon id="Shape" stroke="#59B8E9" fill="url(#linearGradient-18)" points="118.315445 192.430928 221.319782 167.177874 158.216442 88.37194"></polygon>
                    <path d="M214.99187,45.2483953 L159.622645,3.47246134 C158.157851,3.94119553 156.693056,4.46852148 155.228262,5.05443921 L158.216442,88.3133482 L214.99187,45.2483953 Z" id="Shape" stroke="#50ABE0" fill="url(#linearGradient-19)"></path>
                    <polygon id="Shape" stroke="#54B5E7" fill="url(#linearGradient-20)" points="158.216442 88.37194 221.319782 167.177874 214.99187 45.2483953"></polygon>
                    <polygon id="Shape" stroke="#53B3E6" fill="url(#linearGradient-21)" points="124.116031 199.872083 132.611838 199.872083 118.315445 192.430928"></polygon>
                    <polygon id="Shape" stroke="#50ABE0" fill="url(#linearGradient-22)" points="118.315445 192.430928 132.611838 199.872083 216.105114 199.872083 221.319782 167.177874"></polygon>
                    <polygon id="Shape" stroke="#59B6E8" fill="url(#linearGradient-23)" points="216.105114 199.872083 298.485146 199.872083 221.319782 167.177874"></polygon>
                </g>
                <text id="MEDIA-CLOUD-SETUP" font-family="Millar-Regular4, Millar" font-size="36" font-weight="normal" fill="#000000">
                    <tspan x="533.178" y="293.25">MEDIA CLOUD SETUP</tspan>
                </text>
            </g>
        </g>
    </g>
</svg>