<?xml version="1.0" encoding="UTF-8"?>
<svg width="51px" height="80px" viewBox="0 0 51 80" version="1.1" xmlns="http://www.w3.org/2000/svg" xmlns:xlink="http://www.w3.org/1999/xlink">
    <!-- Generator: Sketch 46.2 (44496) - http://www.bohemiancoding.com/sketch -->
    <title>icon-service-minio</title>
    <desc>Created with Sketch.</desc>
    <defs></defs>
    <g id="Page-1" stroke="none" stroke-width="1" fill="none" fill-rule="evenodd">
        <g id="icon-service-minio" transform="translate(0.758214, 0.000000)" fill-rule="nonzero">
            <path d="M25.9337655,76.3102352 L20.6593061,79.6471381 L20.6593061,45.2016888 C20.121096,44.9864047 19.5828858,44.8787627 19.0446757,44.6634786 C11.6173757,42.187712 6.88112637,37.9896728 5.69706405,32.8228554 C4.72828579,28.6248163 6.2352742,24.2114931 9.89510319,20.7669481 C13.2320061,17.5376873 17.7529713,13.8778583 21.5204423,10.9715235 C22.8121467,9.89510319 23.996209,9.03396696 24.9649873,8.17283072 C25.8261235,7.41933652 25.6108395,6.34291623 25.1802713,5.91234811 C24.5344192,5.1588539 23.4579989,5.26649593 22.7045047,5.80470608 C22.7045047,5.80470608 20.5516641,7.41933652 20.5516641,7.41933652 L17.3224032,3.11365535 C17.3224032,3.11365535 19.3676018,1.60666694 19.4752438,1.49902491 C22.5968626,-0.761457702 26.7949018,-0.330889585 29.1630264,2.46780317 C30.3470887,3.86714955 30.8852989,5.69706405 30.7776569,7.52697855 C30.5623728,9.35689304 29.7012366,11.0791655 28.3018902,12.2632278 C27.3331119,13.016722 26.1490496,13.9855003 24.8573452,15.0619206 C21.1975163,17.9682554 16.7841931,21.5204423 13.6625742,24.5344192 C11.4020916,26.6872597 10.4333133,29.2706684 10.9715235,31.6387931 C11.7250177,34.868054 15.1695626,37.6667467 20.7669481,39.6043033 L20.7669481,22.3815786 C35.6215482,27.548396 46.2781091,45.2016888 49.722654,54.9971134 C49.722654,54.9971134 34.2222018,49.722654 25.9337655,46.9239612 L25.9337655,76.3102352 Z M25.9337655,41.4342177 C30.5623728,42.9412062 35.9444743,44.8787627 40.0348714,46.170467 C35.6215482,38.3125989 29.7012366,33.4687076 25.9337655,30.9929409 L25.9337655,41.4342177 Z" id="Shape" fill="#4D4D4D"></path>
            <polygon id="Shape" fill="#000000" points="25.9337655 50.4761482 20.6593061 48.6462337 20.6593061 45.2016888 25.9337655 47.0316033"></polygon>
            <path d="M0.422604619,20.33638 C0.31496259,20.4440221 0.207320561,20.33638 0.0996785315,20.33638 C-0.00796349767,20.228738 0.0996785315,20.121096 0.0996785315,20.0134539 C1.92959303,18.2911815 9.24925101,11.1868075 17.3224032,3.22129738 L20.5516641,7.52697855 C20.5516641,7.41933652 0.637888678,20.121096 0.422604619,20.33638 Z" id="Shape" fill="#F15A24"></path>
        </g>
    </g>
</svg>