<?xml version="1.0" encoding="UTF-8"?>
<svg width="90px" height="80px" viewBox="0 0 90 80" version="1.1" xmlns="http://www.w3.org/2000/svg" xmlns:xlink="http://www.w3.org/1999/xlink">
    <!-- Generator: Sketch 46.2 (44496) - http://www.bohemiancoding.com/sketch -->
    <title>icon-service-google</title>
    <desc>Created with Sketch.</desc>
    <defs>
        <linearGradient x1="11.9490566%" y1="60.0703252%" x2="40.8358491%" y2="42.0617886%" id="linearGradient-1">
            <stop stop-color="#2D3079" stop-opacity="0.2" offset="0%"></stop>
            <stop stop-color="#2D3079" stop-opacity="0" offset="66%"></stop>
        </linearGradient>
        <linearGradient x1="-16.04%" y1="9.71692308%" x2="84.3555556%" y2="79.22%" id="linearGradient-2">
            <stop stop-color="#2D3079" stop-opacity="0.2" offset="0%"></stop>
            <stop stop-color="#2D3079" stop-opacity="0.04" offset="100%"></stop>
        </linearGradient>
        <linearGradient x1="79.6328571%" y1="74.2134884%" x2="52.5389286%" y2="53.5544186%" id="linearGradient-3">
            <stop stop-color="#BE3A26" stop-opacity="0.15" offset="0%"></stop>
            <stop stop-color="#BE3A26" stop-opacity="0" offset="66%"></stop>
        </linearGradient>
        <linearGradient x1="50.1225664%" y1="0.830894309%" x2="50.1225664%" y2="36.5943089%" id="linearGradient-4">
            <stop stop-color="#A52822" stop-opacity="0.2" offset="0%"></stop>
            <stop stop-color="#A52822" stop-opacity="0" offset="66%"></stop>
        </linearGradient>
        <linearGradient x1="-10.3154839%" y1="36.1589431%" x2="62.6574194%" y2="82.1378049%" id="linearGradient-5">
            <stop stop-color="#3E2723" stop-opacity="0.15" offset="0%"></stop>
            <stop stop-color="#3E2723" stop-opacity="0" offset="100%"></stop>
        </linearGradient>
        <linearGradient x1="50.3103774%" y1="0.29516129%" x2="50.3103774%" y2="99.0064516%" id="linearGradient-6">
            <stop stop-color="#3E2723" stop-opacity="0.15" offset="0%"></stop>
            <stop stop-color="#462823" stop-opacity="0.1447" offset="3.546852%"></stop>
            <stop stop-color="#712E24" stop-opacity="0.1122" offset="25.22%"></stop>
            <stop stop-color="#923325" stop-opacity="0.08062769" offset="46.25%"></stop>
            <stop stop-color="#AA3726" stop-opacity="0.05071827" offset="66.19%"></stop>
            <stop stop-color="#B93926" stop-opacity="0.02311477" offset="84.59%"></stop>
            <stop stop-color="#BE3A26" stop-opacity="0" offset="100%"></stop>
        </linearGradient>
        <radialGradient cx="6391.5702%" cy="-14841.8403%" fx="6391.5702%" fy="-14841.8403%" r="99.9063584%" gradientTransform="translate(63.915702,-148.418403),scale(0.890173,1.000000),translate(-63.915702,148.418403)" id="radialGradient-7">
            <stop stop-color="#FFFFFF" stop-opacity="0.1" offset="0%"></stop>
            <stop stop-color="#FFFFFF" stop-opacity="0" offset="100%"></stop>
        </radialGradient>
    </defs>
    <g id="Page-1" stroke="none" stroke-width="1" fill="none" fill-rule="evenodd">
        <g id="icon-service-google" transform="translate(-0.164062, 0.000000)" fill-rule="nonzero">
            <g id="Group">
                <path d="M31.1982126,16.0065299 L76.8942736,16.0065299 L69.4073483,3.09803804 C68.374669,1.29084918 66.5674801,0 64.2439516,0 L25.5184762,0 C23.4531175,0 21.3877588,1.03267935 20.3550794,3.09803804 L8.47926697,24.0097948 L31.1982126,63.5097797 L31.1982126,16.0065299 Z" id="Shape" fill="#547DBF"></path>
                <path d="M31.1982126,16.0065299 L76.8942736,16.0065299 L69.4073483,3.09803804 C68.374669,1.29084918 66.5674801,0 64.2439516,0 L25.5184762,0 C23.4531175,0 21.3877588,1.03267935 20.3550794,3.09803804 L8.47926697,24.0097948 L31.1982126,63.5097797 L31.1982126,16.0065299 Z" id="Shape" fill="url(#linearGradient-1)"></path>
                <polygon id="Shape" fill="url(#linearGradient-2)" points="8.47926697 24.0097948 20.0969096 35.3692676 18.0315509 40.7908341"></polygon>
                <polygon id="Shape" fill-opacity="0.1" fill="#2D3079" points="18.5478906 40.5326643 9.77011615 25.300644 8.47926697 24.0097948 18.0315509 40.7908341"></polygon>
                <path d="M31.1982126,63.5097797 L8.47926697,24.0097948 L0.992341719,36.9182866 C-0.0403376264,38.7254754 -0.0403376264,41.049004 0.992341719,42.8561928 L20.3550794,76.4182715 C21.3877588,78.2254604 23.4531175,79.5163096 25.5184762,79.5163096 L49.5282709,79.5163096 L72.5053864,39.7581548 L31.1982126,63.5097797 Z" id="Shape" fill="#FFCE40"></path>
                <path d="M31.1982126,63.5097797 L8.47926697,24.0097948 L0.992341719,36.9182866 C-0.0403376264,38.7254754 -0.0403376264,41.049004 0.992341719,42.8561928 L20.3550794,76.4182715 C21.3877588,78.2254604 23.4531175,79.5163096 25.5184762,79.5163096 L49.5282709,79.5163096 L72.5053864,39.7581548 L31.1982126,63.5097797 Z" id="Shape" fill="url(#linearGradient-3)"></path>
                <path d="M76.8942736,16.0065299 L31.1982126,16.0065299 L72.2472165,39.7581548 L49.2701011,79.5163096 L64.2439516,79.5163096 C66.3093103,79.5163096 68.374669,78.4836302 69.4073483,76.4182715 L88.7700861,42.598023 C89.8027654,40.7908341 89.8027654,38.4673056 88.7700861,36.6601168 L76.8942736,16.0065299 Z" id="Shape" fill="#DB4436"></path>
                <path d="M76.8942736,16.0065299 L31.1982126,16.0065299 L72.2472165,39.7581548 L49.2701011,79.5163096 L64.2439516,79.5163096 C66.3093103,79.5163096 68.374669,78.4836302 69.4073483,76.4182715 L88.7700861,42.598023 C89.8027654,40.7908341 89.8027654,38.4673056 88.7700861,36.6601168 L76.8942736,16.0065299 Z" id="Shape" fill="url(#linearGradient-4)"></path>
                <polygon id="Shape" fill="url(#linearGradient-5)" points="58.5642152 16.0065299 89.5445956 46.9869102 89.5445956 79.5163096 49.5282709 79.5163096 58.5642152 63.5097797"></polygon>
                <rect id="Rectangle-path" fill-opacity="0.05" fill="#3E2723" x="58.3060454" y="16.0065299" width="19.3627377" height="1"></rect>
            </g>
            <g id="Group" transform="translate(8.342110, 0.000000)">
                <polyline id="Shape" fill="#EEEEEE" points="50.2221052 16.0065299 63.9051065 39.7581548 50.2221052 63.5097797 22.8561026 63.5097797 9.17310123 39.7581548 22.8561026 16.0065299 50.2221052 16.0065299"></polyline>
                <path d="M22.8561026,16.0065299 L68.5521636,16.0065299 L61.0652383,3.09803804 C60.032559,1.29084918 58.2253701,0 55.9018416,0 L17.1763662,0 C15.1110075,0 13.0456488,1.03267935 12.0129694,3.09803804 L0.137156957,24.0097948 L22.8561026,63.5097797 L22.8561026,16.0065299 Z" id="Shape" fill="#547DBF"></path>
            </g>
            <polyline id="Shape" fill="#EEEEEE" points="58.5642152 16.0065299 72.2472165 39.7581548 58.5642152 63.5097797 31.1982126 63.5097797 17.5152112 39.7581548 31.1982126 16.0065299 58.5642152 16.0065299"></polyline>
            <g id="Group" transform="translate(17.281235, 15.788698)">
                <polyline id="Shape" fill="#EEEEEE" points="41.2829803 0.21783221 54.9659816 23.9694571 41.2829803 47.7210821 13.9169776 47.7210821 0.233976288 23.9694571 13.9169776 0.21783221 41.2829803 0.21783221"></polyline>
                <polygon id="Shape" fill-opacity="0.4" fill="#FFFFFF" points="41.2829803 0.734171883 54.7078117 23.9694571 55.2241514 23.9694571 41.2829803 0.21783221 13.9169776 0.21783221 0.233976288 23.9694571 0.492146124 23.9694571 13.9169776 0.734171883"></polygon>
                <polygon id="Shape" fill-opacity="0.05" fill="#262626" points="54.7078117 23.9694571 41.2829803 47.2047424 13.9169776 47.2047424 0.492146124 23.9694571 0.233976288 23.9694571 13.9169776 47.7210821 41.2829803 47.7210821 55.2241514 23.9694571"></polygon>
                <polygon id="Shape" fill-opacity="0.05" fill="#BE3A26" points="55.2241514 23.9694571 41.2829803 47.7210821 13.9169776 47.7210821 0.233976288 23.9694571 0.233976288 24.4857968 13.9169776 48.2374218 41.2829803 48.2374218 55.2241514 24.4857968"></polygon>
                <path d="M27.3418091,11.577305 C20.8875632,11.577305 15.4659966,16.9988716 15.4659966,23.4531175 L39.2176216,23.4531175 C39.4757914,16.9988716 34.0542248,11.577305 27.3418091,11.577305 Z M15.4659966,24.4857968 C15.4659966,30.9400427 20.8875632,36.3616093 27.3418091,36.3616093 C33.796055,36.3616093 39.2176216,30.9400427 39.2176216,24.4857968 L15.4659966,24.4857968 Z" id="Shape" fill-opacity="0.1" fill="#262626"></path>
            </g>
            <polygon id="Shape" fill="url(#linearGradient-6)" points="31.1982126 63.5097797 47.2047424 79.5163096 49.5282709 79.5163096 58.5642152 63.5097797"></polygon>
            <path d="M8.47926697,24.5261344 L20.3550794,3.61437771 C21.3877588,1.80718885 23.4531175,0.516339673 25.5184762,0.516339673 L64.2439516,0.516339673 C66.3093103,0.516339673 68.374669,1.54901902 69.4073483,3.61437771 L76.8942736,16.5228695 L88.7700861,37.4346263 C89.2864257,38.2091358 89.5445956,39.2418151 89.5445956,40.2744945 C89.5445956,39.2418151 89.2864257,37.9509659 88.7700861,37.1764564 L76.8942736,16.2646997 L69.4073483,3.35620787 C68.374669,1.29084918 66.5674801,0 64.2439516,0 L25.5184762,0 C23.4531175,0 21.3877588,1.03267935 20.3550794,3.09803804 L8.47926697,24.0097948 L0.992341719,36.9182866 C0.476002046,37.9509659 0.21783221,38.9836453 0.21783221,40.0163246 C0.21783221,38.9836453 0.476002046,38.2091358 0.992341719,37.1764564 L8.47926697,24.5261344 Z M25.5184762,78.9999699 C23.4531175,78.9999699 21.3877588,77.9672906 20.3550794,75.9019319 L8.47926697,54.9901751 L0.992341719,42.0816833 C0.476002046,41.3071738 0.21783221,40.2744945 0.21783221,39.2418151 C0.21783221,40.2744945 0.476002046,41.5653436 0.992341719,42.3398532 L8.47926697,55.248345 L20.3550794,76.4182715 C21.3877588,78.2254604 23.4531175,79.5163096 25.5184762,79.5163096 L49.5282709,79.5163096 L49.7864408,78.9999699 L25.5184762,78.9999699 Z M89.5445956,39.499985 C89.5445956,40.5326643 89.2864257,41.3071738 88.7700861,42.3398532 L76.8942736,63.2516099 L69.4073483,76.1601017 C68.374669,77.9672906 66.3093103,79.2581397 64.2439516,79.2581397 L49.7864408,79.2581397 L49.5282709,79.7744794 L64.2439516,79.7744794 C66.3093103,79.7744794 68.374669,78.7418001 69.4073483,76.6764414 L76.8942736,63.7679496 L88.7700861,42.8561928 C89.2864257,41.8235135 89.5445956,40.5326643 89.5445956,39.499985 Z" id="Shape" fill-opacity="0.2" fill="#FFFFFF"></path>
            <path d="M88.7700861,36.6601168 L76.8942736,15.74836 L69.4073483,2.8398682 C68.374669,1.29084918 66.5674801,0 64.2439516,0 L25.5184762,0 C23.4531175,0 21.3877588,1.03267935 20.3550794,3.09803804 L8.47926697,24.0097948 L0.992341719,36.9182866 C-0.0403376264,38.7254754 -0.0403376264,41.049004 0.992341719,42.8561928 L20.3550794,76.4182715 C21.3877588,78.2254604 23.4531175,79.5163096 25.5184762,79.5163096 L64.2439516,79.5163096 C66.3093103,79.5163096 68.374669,78.4836302 69.4073483,76.4182715 L88.7700861,42.598023 C89.8027654,40.7908341 89.8027654,38.7254754 88.7700861,36.6601168 Z M44.6230441,51.6339673 C38.1687981,51.6339673 32.7472316,46.2124007 32.7472316,39.7581548 C32.7472316,33.3039089 38.1687981,27.8823423 44.6230441,27.8823423 C51.07729,27.8823423 56.4988565,33.3039089 56.4988565,39.7581548 C56.4988565,46.2124007 51.3354598,51.6339673 44.6230441,51.6339673 Z" id="Shape" fill="url(#radialGradient-7)"></path>
        </g>
    </g>
</svg>