<?xml version="1.0" encoding="UTF-8"?>
<svg width="78px" height="80px" viewBox="0 0 78 80" version="1.1" xmlns="http://www.w3.org/2000/svg" xmlns:xlink="http://www.w3.org/1999/xlink">
    <!-- Generator: Sketch 46.2 (44496) - http://www.bohemiancoding.com/sketch -->
    <title>icon-service-other-s3</title>
    <desc>Created with Sketch.</desc>
    <defs></defs>
    <g id="Page-1" stroke="none" stroke-width="1" fill="none" fill-rule="evenodd">
        <g id="icon-service-other-s3" transform="translate(0.449279, 0.000000)" fill-rule="nonzero">
            <g id="ceph" transform="translate(18.967136, 0.000000)" fill="#F05C56">
                <path d="M21.1558726,0.16811202 C23.7374172,0.479734301 26.2402362,1.35309675 28.4675154,2.69389261 C31.2122517,4.34877094 33.5215368,6.72366074 35.0935892,9.51678045 C36.559854,12.1130861 37.3864731,15.0603768 37.4758595,18.04129 C37.5701663,20.7146811 37.0748509,23.4052935 36.0374767,25.8703897 C34.8615126,28.6741702 32.9204338,31.1712487 30.6029481,33.1254485 C29.8329131,32.7006581 29.0136745,32.1585993 28.5724829,31.3738032 C28.2354388,30.783361 28.2395391,30.0912315 28.489657,29.4696271 C28.8890256,28.4379933 29.6533202,27.7983476 30.2749247,26.9110441 C32.209443,24.251594 33.1549706,20.9123152 32.9081329,17.6329008 C32.7301802,15.0956393 31.8412366,12.6215224 30.3716916,10.5467741 C28.7668368,8.26619103 26.4788732,6.48010333 23.8719068,5.48701232 C21.8873649,4.71861738 19.7494721,4.4447178 17.6312606,4.60380917 C15.1292617,4.79078254 12.6871271,5.6657851 10.6353404,7.11072842 C8.38673965,8.68196076 6.61213277,10.9141604 5.60182053,13.4653628 C4.7341985,15.636878 4.43405704,18.0199684 4.71205691,20.3399143 C5.0335199,23.0534883 6.16356069,25.6571745 7.93160711,27.7409435 C8.46136499,28.364188 8.99850339,29.0325358 9.19121717,29.846034 C9.33472743,30.4258154 9.21581893,31.0260984 8.88369518,31.5189536 C8.40478094,32.2299444 7.68640958,32.7072186 6.95491728,33.1254485 C5.12290629,31.5870185 3.55495418,29.7189249 2.3789901,27.6351559 C0.334583923,23.971954 -0.37230662,19.6289235 0.33622404,15.4982881 C0.854501097,12.44767 2.15429403,9.5356418 4.07815159,7.11318859 C6.08893536,4.56936671 8.76314656,2.56104311 11.776862,1.36129733 C14.741374,0.161551551 17.986346,-0.216495479 21.1558726,0.16811202 Z" id="Shape"></path>
                <path d="M22.4876479,8.17352441 C25.1831806,9.09527031 27.4727843,11.1011337 28.7504357,13.6465957 C29.6697214,15.4531849 30.0707301,17.4951309 29.9108186,19.5165754 C29.7599278,21.5560613 29.0202349,23.5397831 27.8147488,25.1897411 C27.468684,25.663735 27.0701355,26.0811448 26.6806077,26.517416 C26.0614634,27.2267667 25.5407262,28.0755274 25.2947086,28.9898928 C24.9871866,30.1174734 25.104455,31.3360805 25.5784489,32.4005166 C26.0524427,33.4756135 26.8839822,34.349796 27.9074154,34.9197368 C26.5838407,35.6495889 25.1758001,36.2203498 23.7160957,36.6139779 C21.6339668,35.0927691 20.4079792,32.5087644 20.5924924,29.92968 C20.6974599,27.8172089 21.4773356,25.7596818 22.783689,24.098243 C23.3462493,23.3864321 24.0744613,22.6910224 24.5287738,21.9029461 C25.2840478,20.6236546 25.5554872,19.0975255 25.3250507,17.6329008 C25.1077352,16.2281403 24.4164258,14.9053857 23.3880722,13.9245956 C22.3457777,12.9159235 20.9606987,12.2721775 19.5173955,12.1319474 C18.5612071,12.0409209 17.5976382,12.1155463 16.6832729,12.418968 C15.2965537,12.8617996 14.0828669,13.7876458 13.2693688,14.992312 C12.5198352,16.1026713 12.1229268,17.4393669 12.153269,18.7793427 C12.1721303,20.0332124 12.5682186,21.2756012 13.2857699,22.3047748 C13.818808,23.0477479 14.4928962,23.6873936 15.0201939,24.4270865 C16.098571,25.916313 16.7701991,27.6909199 16.9342108,29.5229309 C17.0432786,30.6349304 16.950612,31.7584107 16.5938865,32.8203867 C16.0903705,34.3153535 15.1243414,35.6840314 13.8442299,36.6123378 C12.3837054,36.2203498 10.9781249,35.6446686 9.65291018,34.9189167 C10.2171105,34.5974537 10.7312873,34.2013654 11.1519774,33.7044099 C12.0802837,32.6301331 12.5518175,31.1827296 12.405847,29.7681284 C12.3131804,28.8365418 11.9507145,27.9705599 11.4193165,27.2054452 C10.9502429,26.5133157 10.3524202,25.999959 9.8489042,25.3348914 C9.0181848,24.2360129 8.3957603,22.9780429 8.02263362,21.6528282 C7.43875187,19.5747996 7.47811469,17.3237386 8.139902,15.2694918 C8.79758903,13.2127847 10.0596593,11.3733932 11.7424196,10.0211165 C13.3726961,8.69836193 15.3810197,7.86764254 17.4647887,7.62736536 C19.1573898,7.44777252 20.8778728,7.60686389 22.4876479,8.17352441 Z" id="Shape"></path>
                <path d="M18.223343,15.1965066 C18.9179326,15.0931792 19.6379441,15.1858458 20.27923,15.4745064 C21.5429403,16.0313262 22.4138426,17.3155381 22.4532054,18.6981569 C22.5138897,20.084056 21.7364742,21.4232118 20.5137667,22.0726982 C19.2279148,22.7722082 17.5787769,22.6131168 16.4536564,21.6774299 C15.3670787,20.8040675 14.867663,19.3353425 15.1981467,17.9789655 C15.5302704,16.5422228 16.7644587,15.4097218 18.223343,15.1965066 Z" id="Shape"></path>
            </g>
            <g id="riak" transform="translate(39.812207, 42.290424)">
                <path d="M18.1443044,0.1606128 C19.0313813,-0.0642451198 20.0098839,0.187793427 20.6473931,0.847541389 C21.7321473,1.94959229 21.5542377,3.84729429 20.2841611,4.72448727 C19.0610329,5.58191253 17.3412404,5.21373857 16.5925377,3.91648134 C15.7524092,2.47343711 16.5258216,0.573264146 18.1443044,0.1606128 Z" id="Shape" fill="#585C60"></path>
                <path d="M8.73486533,5.10748703 C9.5404003,5.55226093 9.8393872,6.30343464 10.071658,7.14850507 C9.95058068,8.17148505 9.72325179,8.74227823 8.98690388,9.46132938 C8.09241413,9.88880652 7.16580183,10.0840128 6.24907339,9.58734865 C5.01853225,8.95972325 4.59599703,7.39560168 5.17914505,6.1749444 C5.81418335,4.88262911 7.48949839,4.39090684 8.73486533,5.10748703 Z" id="Shape" fill="#F68A11"></path>
                <path d="M29.0239684,5.0654806 C30.0049419,4.67753892 31.2008895,4.82826785 31.9322955,5.63133185 C32.9602174,6.68396343 32.8341982,8.53224611 31.6580183,9.42426489 C30.4694836,10.3558191 28.6212009,10.0222387 27.8774401,8.69780084 C27.1312083,7.37089202 27.6328144,5.7005189 29.0239684,5.0654806 Z" id="Shape" fill="#585C60"></path>
                <path d="M10.071658,7.14850507 C14.8505065,8.20854954 19.490981,9.61205831 23.9634297,11.6160119 C27.1806276,13.0615271 30.3286385,14.6553002 33.3728688,16.4368668 C34.2080553,16.1897702 34.9567581,15.9500865 35.8018285,16.3330862 C37.3140598,16.9285891 37.813195,18.9943168 36.8000988,20.2421547 C35.8512478,21.4652829 33.9955523,21.5690635 32.9305659,20.439832 C32.1571534,19.6738325 32.2312824,18.7892266 32.2979985,17.7810724 C26.7333828,14.5416358 20.7363479,11.7272053 14.5193971,10.002471 C17.7242402,12.0163084 21.1292315,14.2599456 23.6891525,17.0743761 C26.4640474,20.0840128 28.5742525,23.5952557 30.2297999,27.3264146 C30.9710897,27.5685693 31.6506054,27.7291821 32.1225599,28.4086978 C33.0615271,29.6441809 32.6538176,31.5492958 31.2453669,32.2312824 C29.7430195,32.989869 27.8181369,32.0929083 27.5735112,30.3978255 C27.3659501,29.2933037 27.8749691,28.54213 28.5866074,27.7810724 C26.5974796,23.3654559 23.8324685,19.1203361 20.1013096,15.9797381 C17.8329627,14.1265135 15.4114159,12.478379 12.8687917,11.0279219 C17.5710403,17.1410922 19.8319743,24.7689647 20.1556709,32.4141339 C20.7487027,32.9651594 21.2651347,33.4914752 21.3417346,34.3464295 C21.5517667,35.9673832 20.148258,37.3832468 18.5223622,37.1880405 C16.8396343,37.0249568 15.8117124,35.2730418 16.424512,33.7089202 C16.7704472,32.7427724 17.5463306,32.409192 18.4259946,32.0360761 C18.2209044,26.2935508 16.6666667,20.5683222 13.8522362,15.5547319 C12.5673338,13.2666172 10.9933284,11.166296 8.98690388,9.46132938 C9.72325179,8.74227823 9.95058068,8.17148505 10.071658,7.14850507 Z" id="Shape" fill="#585C60"></path>
                <path d="M2.08796639,16.2095379 C3.29873981,15.8759575 4.6132938,16.4838152 5.10748703,17.6426983 C5.62144799,18.8065234 5.16926118,20.2347418 4.07709414,20.8821349 C2.81195948,21.606128 1.09216704,21.1489993 0.467012602,19.8047937 C-0.190264393,18.3444527 0.511489993,16.6271312 2.08796639,16.2095379 Z" id="Shape" fill="#585C60"></path>
                <path d="M6.78527304,27.5488016 C7.92933037,27.2769953 9.17963924,27.7464789 9.72572276,28.8164072 C10.3805288,30.0815419 9.89127749,31.6975537 8.59402026,32.3152953 C7.07931801,33.0565851 5.14949345,32.115147 4.94934519,30.4101804 C4.74672597,29.1104522 5.52508031,27.9021497 6.78527304,27.5488016 Z" id="Shape" fill="#585C60"></path>
            </g>
            <g id="leofs-logo-blk" transform="translate(0.334314, 42.290424)" stroke="#000000" fill="#000000">
                <g id="layer3" transform="translate(0.045790, 0.073127)">
                    <path d="M15.4678047,0.0506931641 C17.9689556,2.41328422 21.1690786,4.03676096 21.8316286,8.03191382 L21.731025,7.99322012 C20.0845216,2.23132568 12.2187249,0.577205923 9.31034709,1.57780455 C5.14635018,2.4876278 13.4236546,0.336369561 18.7799854,6.94075146 C15.5953762,4.84914377 12.3541327,3.07290686 8.61901964,3.80656171 C4.16955287,4.87650465 1.38269667,8.33267222 1.02989515,13.0956294 C2.87785825,9.84662238 8.03159767,6.52083876 11.5932754,7.64239723 C5.64392022,7.6925129 1.32838236,11.9920562 0.472705856,15.8403026 C-0.0241078058,17.5274511 -0.0444023732,20.971212 0.372102234,21.120703 C3.20348767,12.3273628 9.55922002,11.3154889 12.4135819,10.2039202 C8.63350821,11.8722671 4.7242826,13.8035256 3.15288952,17.2616512 C2.2386067,19.013418 1.70256608,21.1073915 2.0694659,23.0940817 C2.50288769,25.4409754 4.69153514,27.2453169 7.21056893,28.0700916 C4.87693637,20.7591936 7.14838248,15.5990083 13.0507382,12.5616564 C3.27514701,18.8355913 6.52114831,31.2784627 15.8392642,31.2274976 C11.7965323,25.8469947 8.98021037,20.503906 14.2476633,14.6253204 C9.10660319,24.9990483 15.0358047,27.3663335 20.7456254,32.1819422 C22.7611739,33.6905433 22.9043344,35.7970746 23.1884877,35.2877566 C23.6517291,34.2546657 21.7326801,32.4347146 22.0328359,31.3925907 C22.5759014,30.2291341 25.9528681,33.8539038 26.2633471,35.3445073 C26.5218541,36.5855875 27.0509916,39.0112041 26.8024794,36.090006 C25.8039929,27.8395473 16.494111,28.9291512 15.0318556,22.330526 C15.0311127,22.3208342 15.0327636,22.3119638 15.0318556,22.3021506 C17.3153081,26.1100119 22.1430157,27.7352151 25.244413,29.5559297 C26.6035149,30.4465138 28.1537005,32.0142348 27.7595036,33.2266721 C27.4527795,34.1183236 28.4030795,33.3057204 28.4172965,32.2283746 C28.2377825,27.3266905 15.3184218,23.8942154 20.2735623,19.1318468 C20.1033488,20.0623306 19.7012686,21.0543892 19.8737274,21.9203728 C21.2010876,24.6540524 25.477768,25.8914716 26.9185605,26.4372174 C27.3322161,26.5316804 27.7895786,26.7241435 28.1412814,26.2282715 C28.6474074,25.7088546 30.0118963,22.9794146 29.4388102,22.5343128 C29.3721893,22.4906655 28.7758581,22.637496 28.7758581,22.637496 L28.6649362,21.9461686 L28.0587349,22.508517 C28.0587349,22.508517 25.8670015,22.6181133 24.808464,22.3846972 C24.0101686,22.2074895 22.9949193,21.4884537 22.9537459,20.8214717 C22.9775961,20.4949051 23.3767971,19.9315166 23.3767971,19.9315166 C23.3767971,19.9315166 23.9083251,19.2059579 24.3054459,19.0467206 C25.7294723,18.7301917 27.7501775,19.6143694 28.3553866,20.3107148 L28.1799751,21.3631835 L29.095726,21.0691114 C29.5391868,22.0348624 29.1113405,21.0992574 29.4517081,21.8558833 L29.8334859,21.3244898 L30.5222338,21.4018772 C31.2123032,20.7879891 31.9445606,20.3860609 32.3150419,19.4284985 C31.5302066,16.6837873 29.1354334,14.1134475 26.4155424,14.1042452 C25.6871012,14.1766254 24.4857854,14.4138873 24.2512747,13.7198878 C24.1572715,13.4416985 24.538129,13.1212965 24.8445781,13.0749928 C25.5401509,12.9698937 26.5186736,13.1921189 27.1739389,13.0053441 C27.4445059,12.9282234 26.9786502,12.3644857 27.1739389,12.1618215 C27.3131553,12.0173468 27.6273573,12.0053264 27.774981,12.1411848 C28.1930018,12.6527407 27.1505394,13.3085484 27.3751461,13.6373413 C29.949813,14.7873246 31.5870952,16.0021244 32.2815074,18.2986424 C32.6807199,18.4922289 33.4880178,17.0341265 33.702856,16.6941436 C33.6690961,15.8163493 33.0932117,15.1983025 31.9564803,14.5401943 C31.177878,13.9752712 29.7084799,13.5324502 29.4929814,12.8815243 C29.3752006,12.5257585 29.5878554,11.9243243 27.7233894,10.727575 C27.7233894,10.727575 27.010344,10.3571968 26.6244883,10.2632506 C25.9218776,10.0921852 25.1858339,10.105632 24.4628003,10.0955779 C23.7607929,10.0858076 22.531739,10.1748878 22.117962,10.2064998 C22.2827778,9.16681678 24.0840411,9.80799967 24.1945239,9.0173134 C24.7718562,4.88553277 19.3207768,0.222153681 15.4678047,0.0506931641 Z M17.1522704,7.78169456 C18.2990461,7.73902706 19.6035228,8.29786151 20.2245503,9.33460174 C20.3203753,9.55260969 20.4157347,9.90732217 20.2245503,10.0491454 C19.6502936,10.2467214 17.7416694,7.69669389 15.55809,8.9528239 C15.2126309,9.16245089 14.9185093,9.5103962 14.7919547,9.89437061 C14.5388141,10.6624102 14.8928002,11.2846792 15.3826785,11.6330076 C15.7876338,11.9209523 16.5925016,12.502326 16.5925016,12.502326 C14.8010422,12.0472229 14.0340072,10.7608189 14.2631408,9.52033151 C14.4673246,8.41491748 16.0298048,7.82345734 17.1522704,7.78169456 Z M17.1161563,9.53064983 C17.3767368,9.53098001 17.6408619,9.57323973 17.8616549,9.63899219 C18.4631849,9.81813061 19.050635,10.3000234 19.2030366,10.8849294 C19.2170596,11.0018995 19.2066934,11.1829678 19.0843759,11.2151156 C18.75433,11.2065283 18.1828486,9.70235163 16.8453004,9.90210935 C16.6319068,9.93872866 16.4216896,10.0465171 16.2932703,10.2013406 C16.0364044,10.5110264 16.1194825,10.858928 16.3164865,11.1041937 C16.4793426,11.3069412 16.8014475,11.7155541 16.8014475,11.7155541 C15.9470931,11.1955215 15.7600484,10.4695584 16.0817447,9.93822347 C16.2609112,9.64229818 16.6818549,9.53013721 17.1161563,9.53064983 Z M19.6879976,11.6949175 C20.5421572,12.8407554 19.9057051,17.1257548 18.0731805,18.0535823 C17.8761509,18.5376948 19.1113546,14.8250856 17.1832254,15.0870652 C15.8307165,15.5996521 17.2426011,17.7786601 17.8410183,18.7939218 C17.6715609,19.089606 16.291389,17.3723569 15.7180239,17.8859096 C15.2511224,18.3041045 15.2998018,19.3988271 15.8753783,20.3932614 C16.5316639,20.5334684 17.0050965,19.78453 17.1187359,20.0682343 C17.2877772,20.4902503 16.4236187,20.7689638 16.0482102,20.8163125 C16.6855068,21.7493231 17.7008592,22.7550027 18.2227961,23.0631267 C17.1928553,22.5084345 16.1974098,21.671192 15.5709879,20.8962795 C14.7934546,20.6584389 14.0004619,19.9484947 14.0232398,19.9598919 C14.0232398,19.9598919 14.7885199,20.2962816 15.318189,20.4267959 C14.5123802,19.2198174 13.9367764,17.4277696 15.1479367,17.0862398 C15.7432939,16.9183574 17.457961,18.574414 16.8556187,17.4912338 C16.8123453,17.456031 15.7945512,15.5427759 16.4196697,14.6227408 C16.587245,14.4022152 17.8146125,13.6286202 18.6355289,15.6881074 C19.1383564,16.2667786 20.141827,13.114862 19.6879976,11.6949175 Z M25.7087374,13.1317436 C25.0773413,13.2782266 25.3234101,14.1157035 25.7087374,14.1171431 C26.2347282,14.0589255 26.1376923,13.1991792 25.7087374,13.1317436 Z" id="path3072"></path>
                </g>
            </g>
        </g>
    </g>
</svg>