<?xml version="1.0" encoding="UTF-8"?>
<svg width="126px" height="69px" viewBox="0 0 126 69" version="1.1" xmlns="http://www.w3.org/2000/svg" xmlns:xlink="http://www.w3.org/1999/xlink">
    <!-- Generator: Sketch 46.2 (44496) - http://www.bohemiancoding.com/sketch -->
    <title>icon-cloud</title>
    <desc>Created with Sketch.</desc>
    <defs>
        <linearGradient x1="-93.3476395%" y1="-139.196676%" x2="296.781116%" y2="376.869806%" id="linearGradient-1">
            <stop stop-color="#51AFE3" offset="0%"></stop>
            <stop stop-color="#55B5E6" offset="100%"></stop>
        </linearGradient>
        <linearGradient x1="-167.956989%" y1="-106.293706%" x2="250.107527%" y2="250.34965%" id="linearGradient-2">
            <stop stop-color="#5BBEEC" offset="0%"></stop>
            <stop stop-color="#57B8E9" offset="100%"></stop>
        </linearGradient>
        <linearGradient x1="-24.5539507%" y1="-69.7193756%" x2="132.965166%" y2="128.502491%" id="linearGradient-3">
            <stop stop-color="#58BAEA" offset="0%"></stop>
            <stop stop-color="#5ABAEA" offset="100%"></stop>
        </linearGradient>
        <linearGradient x1="-29.0908503%" y1="10206%" x2="-21.5583884%" y2="10188%" id="linearGradient-4">
            <stop stop-color="#58BAEA" offset="0%"></stop>
            <stop stop-color="#5ABAEA" offset="100%"></stop>
        </linearGradient>
        <linearGradient x1="-405.418719%" y1="-706%" x2="525.615764%" y2="716%" id="linearGradient-5">
            <stop stop-color="#57B3E5" offset="0%"></stop>
            <stop stop-color="#59B8E8" offset="100%"></stop>
        </linearGradient>
        <linearGradient x1="-46.031746%" y1="-10.7035478%" x2="168.253968%" y2="145.159351%" id="linearGradient-6">
            <stop stop-color="#59B5E6" offset="0%"></stop>
            <stop stop-color="#5CBAEA" offset="100%"></stop>
        </linearGradient>
        <linearGradient x1="-150.126582%" y1="-269.291339%" x2="469.620253%" y2="793.700787%" id="linearGradient-7">
            <stop stop-color="#55B3E5" offset="0%"></stop>
            <stop stop-color="#5BB6E7" offset="100%"></stop>
        </linearGradient>
        <linearGradient x1="-10.4036384%" y1="12.0615089%" x2="89.880614%" y2="112.397886%" id="linearGradient-8">
            <stop stop-color="#66C7F2" offset="0%"></stop>
            <stop stop-color="#5CC3F0" offset="100%"></stop>
        </linearGradient>
        <linearGradient x1="9.51604133%" y1="-7.08860759%" x2="111.310495%" y2="107.974684%" id="linearGradient-9">
            <stop stop-color="#5AB9E9" offset="0%"></stop>
            <stop stop-color="#54B1E4" offset="100%"></stop>
        </linearGradient>
        <linearGradient x1="-9.50259837%" y1="14.6711636%" x2="93.3927246%" y2="154.300169%" id="linearGradient-10">
            <stop stop-color="#5DB9E9" offset="0%"></stop>
            <stop stop-color="#51B3E5" offset="100%"></stop>
        </linearGradient>
        <linearGradient x1="-612.5%" y1="-136.436597%" x2="206.5%" y2="100.481541%" id="linearGradient-11">
            <stop stop-color="#63C6F1" offset="0%"></stop>
            <stop stop-color="#5BBBEB" offset="100%"></stop>
        </linearGradient>
        <linearGradient x1="-64.2007926%" y1="-31.7380353%" x2="152.179657%" y2="99.5801847%" id="linearGradient-12">
            <stop stop-color="#53B0E4" offset="0%"></stop>
            <stop stop-color="#51AFE3" offset="100%"></stop>
        </linearGradient>
        <linearGradient x1="34.8774142%" y1="10269%" x2="39.7280549%" y2="10251%" id="linearGradient-13">
            <stop stop-color="#58BAEA" offset="0%"></stop>
            <stop stop-color="#5ABAEA" offset="100%"></stop>
        </linearGradient>
        <linearGradient x1="-46.3244613%" y1="-102.09205%" x2="85.9949303%" y2="128.870293%" id="linearGradient-14">
            <stop stop-color="#5DB6E7" offset="0%"></stop>
            <stop stop-color="#58B4E6" offset="100%"></stop>
        </linearGradient>
        <linearGradient x1="14.9638803%" y1="-17.0608108%" x2="115.273478%" y2="83.277027%" id="linearGradient-15">
            <stop stop-color="#4FAFE3" offset="0%"></stop>
            <stop stop-color="#50ABE0" offset="100%"></stop>
        </linearGradient>
        <linearGradient x1="-52%" y1="2508.50526%" x2="-34%" y2="2504.13112%" id="linearGradient-16">
            <stop stop-color="#66C7F2" offset="0%"></stop>
            <stop stop-color="#5CC3F0" offset="100%"></stop>
        </linearGradient>
        <linearGradient x1="-16.2116041%" y1="16.3851351%" x2="84.1296928%" y2="116.722973%" id="linearGradient-17">
            <stop stop-color="#58B7E8" offset="0%"></stop>
            <stop stop-color="#59B9E9" offset="100%"></stop>
        </linearGradient>
        <linearGradient x1="-272%" y1="5074.09973%" x2="-254%" y2="5065.168%" id="linearGradient-18">
            <stop stop-color="#4FAFE3" offset="0%"></stop>
            <stop stop-color="#50ABE0" offset="100%"></stop>
        </linearGradient>
        <linearGradient x1="16.3416899%" y1="-15.8097069%" x2="111.049211%" y2="84.5266699%" id="linearGradient-19">
            <stop stop-color="#56BAEA" offset="0%"></stop>
            <stop stop-color="#52B1E4" offset="100%"></stop>
        </linearGradient>
        <linearGradient x1="22.1311475%" y1="-33.0708661%" x2="628.278689%" y2="1029.92126%" id="linearGradient-20">
            <stop stop-color="#53B3E6" offset="0%"></stop>
            <stop stop-color="#54B0E4" offset="100%"></stop>
        </linearGradient>
        <linearGradient x1="36.6006942%" y1="10386%" x2="38.4141341%" y2="10368%" id="linearGradient-21">
            <stop stop-color="#4FAFE3" offset="0%"></stop>
            <stop stop-color="#50ABE0" offset="100%"></stop>
        </linearGradient>
        <linearGradient x1="-10.455192%" y1="10.0358423%" x2="136.770982%" y2="232.616487%" id="linearGradient-22">
            <stop stop-color="#59B8E9" offset="0%"></stop>
            <stop stop-color="#59B5E7" offset="100%"></stop>
        </linearGradient>
    </defs>
    <g id="Page-1" stroke="none" stroke-width="1" fill="none" fill-rule="evenodd">
        <g id="Desktop-HD" transform="translate(-28.000000, -563.000000)" fill-rule="nonzero">
            <g id="icon-cloud" transform="translate(28.785781, 563.878906)">
                <path d="M123.948392,51.2909366 L114.795138,65.4725885 C120.130833,62.687224 123.607744,57.3002505 123.948392,51.2909366 L123.948392,51.2909366 Z" id="Shape" stroke="#53B2E4" fill="url(#linearGradient-1)"></path>
                <path d="M81.2070149,13.4797454 C80.1022931,10.9752374 78.5515475,8.69238004 76.6303876,6.74247865 L72.0734025,15.1689727 L81.2070149,13.4797454 Z" id="Shape" stroke="#59BBEB" fill="url(#linearGradient-2)"></path>
                <path d="M76.6303876,6.74247865 C70.627545,0.610397953 61.6502799,-1.55573907 53.511545,1.16410032 L72.0734025,15.1689727 L76.6303876,6.74247865 Z" id="Shape" stroke="#59BAEA" fill="url(#linearGradient-3)"></path>
                <path d="M106.623992,35.9700384 L106.859698,34.0058206 L106.506139,34.0058206 C106.506139,33.7308301 106.506139,33.4558397 106.506139,33.1808492 C106.479457,27.4675048 103.553285,22.1586695 98.7368676,19.0853745 C93.9204505,16.0120794 87.872955,15.5949307 82.6801782,17.977804 C82.3560171,16.4312909 81.8687863,14.923509 81.226657,13.4797454 L72.0930446,15.1689727 L106.623992,35.9700384 Z" id="Shape" stroke="#5ABAEA" fill="url(#linearGradient-4)"></path>
                <path d="M110.630996,34.3200955 C109.602261,34.1166792 108.556529,34.0114482 107.50789,34.0058206 L106.87934,34.0058206 L106.643634,35.9700384 L110.630996,34.3200955 Z" id="Shape" stroke="#58B6E7" fill="url(#linearGradient-5)"></path>
                <path d="M110.630996,34.3200955 L106.702561,35.9503962 L110.39529,66.9850362 L110.532785,66.9850362 C112.045796,66.6853437 113.507771,66.1693526 114.873707,65.4529464 L124.026961,51.2712944 C124.026961,51.0159461 124.026961,50.7605978 124.026961,50.5052495 C124.025268,42.5941903 118.402312,35.8004723 110.630996,34.3200955 Z" id="Shape" stroke="#5BB7E8" fill="url(#linearGradient-6)"></path>
                <polygon id="Shape" stroke="#57B4E5" fill="url(#linearGradient-7)" points="33.8497256 67.0046784 41.6083856 67.0046784 39.66381 64.5101219"></polygon>
                <polygon id="Shape" stroke="#60C5F1" fill="url(#linearGradient-8)" points="74.1947576 56.0443435 106.623992 35.9700384 72.0734025 15.1689727"></polygon>
                <polygon id="Shape" stroke="#58B6E7" fill="url(#linearGradient-9)" points="74.1947576 56.0443435 100.063505 67.0046784 110.316722 67.0046784 106.623992 35.9700384"></polygon>
                <polygon id="Shape" stroke="#55B5E6" fill="url(#linearGradient-10)" points="14.9735933 43.7090562 13.2057973 67.0046784 33.8497256 67.0046784 39.66381 64.5101219"></polygon>
                <path d="M13.5789987,32.159456 C11.8825274,35.4882578 10.9879106,39.1676218 10.9665891,42.9037269 C10.9665891,43.4144235 10.9665891,43.9054779 10.9665891,44.3965324 L14.8950246,43.7090562 L13.5789987,32.159456 Z" id="Shape" stroke="#5DBEED" fill="url(#linearGradient-11)"></path>
                <path d="M11.1040844,44.4947433 C11.1040844,44.7304494 11.1040844,44.9857977 11.1040844,45.2215038 L10.9665891,45.2215038 C4.92421138,45.2215038 0.0258964092,50.1198188 0.0258964092,56.1621965 C0.0258964092,62.2045743 4.92421138,67.1028892 10.9665891,67.1028892 L13.1468708,67.1028892 L14.8950246,43.7090562 L11.1040844,44.4947433 Z" id="Shape" stroke="#52AFE3" fill="url(#linearGradient-12)"></path>
                <path d="M13.5789987,32.159456 L14.8950246,43.7090562 L52.961564,29.6059729 L22.0644193,22.6722844 C18.4387879,25.0193632 15.5086224,28.2954511 13.5789987,32.159456 Z" id="Shape" stroke="#5ABAEA" fill="url(#linearGradient-13)"></path>
                <path d="M39.21204,15.4636053 C38.8241306,16.603454 38.5285446,17.7726608 38.328142,18.9599129 C32.6452832,18.1503931 26.8623264,19.4424788 22.0644193,22.5937157 L53.0597749,29.5470464 L39.21204,15.4636053 Z" id="Shape" stroke="#59B4E6" fill="url(#linearGradient-14)"></path>
                <polygon id="Shape" stroke="#50ADE2" fill="url(#linearGradient-15)" points="14.9735933 43.7090562 39.66381 64.5101219 53.0401327 29.6256151"></polygon>
                <path d="M52.0580239,1.6944391 C45.9800379,4.1910809 41.2904215,9.21054803 39.21204,15.4439632 L52.961564,29.5863308 L52.0580239,1.6944391 Z" id="Shape" stroke="#5CC3F0" fill="url(#linearGradient-16)"></path>
                <polygon id="Shape" stroke="#59B8E9" fill="url(#linearGradient-17)" points="39.66381 64.5101219 74.1947576 56.0443435 53.0401327 29.6256151"></polygon>
                <path d="M72.0734025,15.1689727 L53.511545,1.16410032 C53.0204905,1.32123773 52.5294361,1.49801733 52.0383817,1.6944391 L53.0401327,29.6059729 L72.0734025,15.1689727 Z" id="Shape" stroke="#50ABE0" fill="url(#linearGradient-18)"></path>
                <polygon id="Shape" stroke="#54B5E7" fill="url(#linearGradient-19)" points="53.0401327 29.6256151 74.1947576 56.0443435 72.0734025 15.1689727"></polygon>
                <polygon id="Shape" stroke="#53B3E6" fill="url(#linearGradient-20)" points="41.6083856 67.0046784 44.4565013 67.0046784 39.66381 64.5101219"></polygon>
                <polygon id="Shape" stroke="#50ABE0" fill="url(#linearGradient-21)" points="39.66381 64.5101219 44.4565013 67.0046784 72.4466038 67.0046784 74.1947576 56.0443435"></polygon>
                <polygon id="Shape" stroke="#59B6E8" fill="url(#linearGradient-22)" points="72.4466038 67.0046784 100.063505 67.0046784 74.1947576 56.0443435"></polygon>
            </g>
        </g>
    </g>
</svg>