<?xml version="1.0" encoding="UTF-8"?>
<svg width="50px" height="80px" viewBox="0 0 50 80" version="1.1" xmlns="http://www.w3.org/2000/svg" xmlns:xlink="http://www.w3.org/1999/xlink">
    <!-- Generator: Sketch 46.2 (44496) - http://www.bohemiancoding.com/sketch -->
    <title>icon-service-backblaze</title>
    <desc>Created with Sketch.</desc>
    <defs></defs>
    <g id="Page-1" stroke="none" stroke-width="1" fill="none" fill-rule="evenodd">
        <g id="icon-service-backblaze" transform="translate(0.151325, 0.000000)" fill-rule="nonzero" fill="#D0112B">
            <path d="M15.2309524,0.0404761905 C18.1214286,2.70952381 20.7428571,5.74761905 22.7809524,9.12142857 C24.102381,11.2857143 25.1095238,13.7261905 25.5214286,16.2357143 C25.6738095,17.6809524 25.6928571,19.2690476 25.2071429,20.6571429 C24.2166667,23.6880952 22.3761905,26.7833333 21.7047619,30.0238095 C21.4738095,31.1714286 21.2642857,32.4071429 21.3761905,33.5761905 C21.4904762,34.7071429 21.7309524,35.8119048 22.1928571,36.8547619 C23.6690476,40.102381 24.6,43.8238095 24.3595238,47.402381 C24.1904762,49.3214286 23.602381,51.2809524 22.1428571,52.6214286 C20.5904762,54.052381 18.2095238,54.5 16.1642857,54.352381 C13.0738095,54.0619048 9.78571429,53.1928571 7.27857143,51.2880952 C5.04285714,49.6309524 3.47619048,47.2 2.75952381,44.5214286 C1.96666667,41.5238095 2.15,38.4119048 2.9547619,35.4380952 C4.17380952,31.0904762 6.68809524,27.102381 10.0857143,24.1285714 C12.0095238,22.4380952 13.7309524,20.5857143 15.0309524,18.3642857 C16.7285714,15.5785714 17.5571429,12.3047619 17.4642857,9.04761905 C17.3714286,5.87857143 16.4452381,2.93809524 15.2309524,0.0404761905 Z" id="Shape"></path>
            <path d="M35.647619,16.7428571 C34.9738095,18.0880952 34.4809524,19.5095238 34.1,20.9619048 C33.3261905,24.0333333 32.9119048,27.1285714 33.5785714,30.2619048 C34.0761905,32.8166667 35.4261905,35.1785714 37.4047619,36.8714286 C39.3357143,38.5071429 41.3095238,40.1142857 43.15,41.85 C44.8214286,43.4309524 46.3142857,45.0928571 47.3190476,47.1880952 C48.5357143,49.7142857 48.7761905,52.4738095 48.8833333,55.2380952 C48.8380952,57.6380952 48.5238095,60.2666667 47.3857143,62.4166667 C46.2809524,64.5690476 44.4452381,66.2571429 42.2714286,67.297619 C39.6642857,68.5238095 36.9309524,69.2880952 34.0261905,68.9261905 C29.8285714,68.2785714 26.3119048,64.8119048 25.6190476,60.6190476 C25.4714286,59.1357143 25.4761905,57.6952381 26.0380952,56.2928571 C26.5952381,54.8642857 27.5928571,53.6761905 28.1714286,52.247619 C29.2214286,49.8619048 29.4309524,47.247619 29.0547619,44.6857143 C28.5,40.7404762 26.4190476,37.1452381 26.05,33.252381 C25.7285714,29.7547619 27.1571429,26.65 29.0404762,23.8071429 C30.8619048,21.1619048 33.1119048,18.7166667 35.647619,16.7428571 Z" id="Shape"></path>
            <path d="M2.40952381,53.3047619 C6.47380952,57.15 11.9095238,58.6071429 17.3761905,58.8880952 C18.1785714,58.9666667 18.9761905,58.7547619 19.4857143,59.5357143 C20.2,60.7761905 20.3047619,62.3547619 20.8333333,63.6928571 C21.9214286,66.9904762 24.4333333,69.5047619 27.4428571,71.1261905 C30.8380952,72.9095238 34.8833333,73.4714286 38.6404762,72.7452381 C40.4190476,72.4261905 41.8142857,71.3428571 43.5261905,71.5333333 C43.2261905,72.1190476 42.8857143,72.6785714 42.4595238,73.1809524 C41.0595238,74.8285714 39.4071429,76.25 37.5119048,77.3 C33.9928571,79.3261905 29.7285714,80.0214286 25.7142857,79.8690476 C21.102381,79.6166667 16.547619,78.5 12.4357143,76.3714286 C9.01428571,74.5857143 6.07857143,71.852381 4.12857143,68.5142857 C2.6952381,66.1380952 1.72619048,63.4642857 0.878571429,60.8333333 C0.152380952,57.9595238 -0.266666667,54.5357143 0.692857143,51.6785714 C1.38333333,52.0047619 1.82857143,52.8119048 2.40952381,53.3047619 Z" id="Shape"></path>
        </g>
    </g>
</svg>