<?xml version="1.0" encoding="UTF-8"?>
<svg width="21px" height="21px" viewBox="0 0 21 21" version="1.1" xmlns="http://www.w3.org/2000/svg" xmlns:xlink="http://www.w3.org/1999/xlink">
    <!-- Generator: Sketch 46.2 (44496) - http://www.bohemiancoding.com/sketch -->
    <title>ilab-imgix-chaos-black</title>
    <desc>Created with Sketch.</desc>
    <defs></defs>
    <g id="Page-1" stroke="none" stroke-width="1" fill="none" fill-rule="evenodd">
        <g id="Desktop-HD" transform="translate(-421.000000, -501.000000)" fill-rule="nonzero" fill="#000000">
            <path d="M431.160914,501.09801 C431.881355,501.818451 432.606549,502.541268 433.325089,503.263135 C432.834657,503.262185 432.3447,503.261234 431.854743,503.26361 C431.853792,505.276188 431.855693,507.289242 431.853317,509.302295 C433.280893,507.878996 434.705142,506.452846 436.129392,505.027171 C435.780577,504.685484 435.440315,504.334768 435.091025,503.994031 C436.127966,503.99118 437.164907,503.994982 438.202323,503.99213 C438.202323,505.030022 438.20565,506.067913 438.200422,507.105805 C437.862537,506.754138 437.509445,506.416729 437.170135,506.066488 C435.743984,507.490737 434.317359,508.915462 432.894535,510.343038 C434.907113,510.340662 436.919691,510.342562 438.932269,510.341612 C438.93512,509.851655 438.933695,509.360748 438.933219,508.870791 C439.639404,509.574124 440.342262,510.281258 441.049396,510.984591 C441.077435,511.02451 441.160599,511.062528 441.097394,511.111952 C440.379804,511.831918 439.65271,512.557586 438.933219,513.276127 C438.933695,512.78617 438.93512,512.295262 438.932269,511.805305 C436.919691,511.804355 434.907113,511.806256 432.894535,511.803879 C434.317359,513.231455 435.743984,514.65618 437.170135,516.080429 C437.509445,515.730189 437.862537,515.392779 438.200422,515.041112 C438.20565,516.079004 438.202323,517.116895 438.202323,518.154787 C437.164907,518.151935 436.127966,518.155737 435.091025,518.152886 C435.440315,517.812149 435.780577,517.461433 436.129392,517.119747 C434.705142,515.694071 433.280893,514.267921 431.853317,512.844622 C431.855693,514.857675 431.853792,516.870729 431.854743,518.883307 C432.3447,518.885683 432.834657,518.884732 433.325089,518.883782 C432.622231,519.590917 431.914621,520.292824 431.212238,520.999959 C431.171369,521.027522 431.133351,521.115914 431.084878,521.048907 C430.364437,520.328466 429.639244,519.605649 428.920703,518.883782 C429.411136,518.884732 429.901093,518.885683 430.39105,518.883307 C430.392,516.870729 430.390099,514.857675 430.392475,512.844622 C428.964899,514.267921 427.54065,515.694071 426.116401,517.119747 C426.465216,517.461433 426.805477,517.811674 427.154767,518.152886 C426.117826,518.155737 425.080885,518.151935 424.043469,518.154787 C424.043469,517.116895 424.040142,516.079004 424.04537,515.041112 C424.383255,515.392779 424.736347,515.730189 425.075658,516.080429 C426.501808,514.65618 427.928434,513.231455 429.351257,511.803879 C427.338679,511.806256 425.326101,511.804355 423.313523,511.805305 C423.310672,512.295262 423.312098,512.78617 423.312573,513.276127 C422.606388,512.572793 421.903531,511.865659 421.196396,511.162326 C421.167882,511.121456 421.085668,511.085339 421.148398,511.034965 C421.865988,510.314999 422.593082,509.589331 423.312573,508.870791 C423.312098,509.360748 423.310672,509.851655 423.313523,510.341612 C425.326101,510.342562 427.338679,510.340662 429.351257,510.343038 C427.928434,508.915462 426.501808,507.490737 425.075658,506.066488 C424.736347,506.416729 424.383255,506.754138 424.04537,507.105805 C424.040142,506.067913 424.043469,505.030022 424.043469,503.99213 C425.080885,503.994982 426.117826,503.99118 427.154767,503.994031 C426.805477,504.334768 426.465216,504.685484 426.116401,505.027171 C427.54065,506.452846 428.964899,507.878996 430.392475,509.302295 C430.390099,507.289242 430.392,505.276188 430.39105,503.26361 C429.901093,503.261234 429.411136,503.262185 428.920703,503.263135 C429.623561,502.556 430.331171,501.854093 431.033554,501.147433 C431.074423,501.119395 431.111966,501.031003 431.160914,501.09801 Z" id="ilab-imgix-chaos-black"></path>
        </g>
    </g>
</svg>