<?xml version="1.0" encoding="UTF-8"?>
<svg width="21px" height="21px" viewBox="0 0 21 21" version="1.1" xmlns="http://www.w3.org/2000/svg" xmlns:xlink="http://www.w3.org/1999/xlink">
    <!-- Generator: Sketch 46.2 (44496) - http://www.bohemiancoding.com/sketch -->
    <title>ilab-imgix-focalpoint-black</title>
    <desc>Created with Sketch.</desc>
    <defs></defs>
    <g id="Page-1" stroke="none" stroke-width="1" fill="none" fill-rule="evenodd">
        <g id="Desktop-HD" transform="translate(-399.000000, -334.000000)" fill-rule="nonzero" fill="#000000">
            <path d="M409.016147,340.528212 C406.560591,340.528212 404.571702,342.517101 404.571702,344.972656 C404.571702,347.428212 406.560591,349.417101 409.016147,349.417101 C411.471702,349.417101 413.460591,347.428212 413.460591,344.972656 C413.460591,342.517101 411.471702,340.528212 409.016147,340.528212 Z M401.238369,348.30599 L399.016147,348.30599 L399.016147,352.750434 C399.016147,353.978212 400.010591,354.972656 401.238369,354.972656 L405.682814,354.972656 L405.682814,352.750434 L401.238369,352.750434 L401.238369,348.30599 Z M401.238369,337.194878 L405.682814,337.194878 L405.682814,334.972656 L401.238369,334.972656 C400.010591,334.972656 399.016147,335.967101 399.016147,337.194878 L399.016147,341.639323 L401.238369,341.639323 L401.238369,337.194878 Z M416.793925,334.972656 L412.34948,334.972656 L412.34948,337.194878 L416.793925,337.194878 L416.793925,341.639323 L419.016147,341.639323 L419.016147,337.194878 C419.016147,335.967101 418.021702,334.972656 416.793925,334.972656 Z M416.793925,352.750434 L412.34948,352.750434 L412.34948,354.972656 L416.793925,354.972656 C418.021702,354.972656 419.016147,353.978212 419.016147,352.750434 L419.016147,348.30599 L416.793925,348.30599 L416.793925,352.750434 Z" id="ilab-imgix-focalpoint-black"></path>
        </g>
    </g>
</svg>