<?xml version="1.0" encoding="UTF-8"?>
<svg width="18px" height="21px" viewBox="0 0 18 21" version="1.1" xmlns="http://www.w3.org/2000/svg" xmlns:xlink="http://www.w3.org/1999/xlink">
    <!-- Generator: Sketch 46.2 (44496) - http://www.bohemiancoding.com/sketch -->
    <title>ilab-imgix-faces-black</title>
    <desc>Created with Sketch.</desc>
    <defs></defs>
    <g id="Page-1" stroke="none" stroke-width="1" fill="none" fill-rule="evenodd">
        <g id="Desktop-HD" transform="translate(-399.000000, -287.000000)" fill-rule="nonzero" fill="#000000">
            <g id="ilab-imgix-faces-black" transform="translate(399.016147, 287.273438)">
                <circle id="Oval" cx="6.12093117" cy="12.1572065" r="1"></circle>
                <path d="M10.5092308,15.1188664 C10.351417,15.0482186 10.1659919,15.1189069 10.0953036,15.2768421 C9.80793522,15.9188664 8.87465587,15.9687449 8.59546559,15.9687449 C7.45566802,15.9687449 7.13506073,15.3133603 7.11870445,15.278502 C7.0497166,15.1216194 6.86708502,15.0491903 6.70898785,15.1166397 C6.54991903,15.1846964 6.4759919,15.3687045 6.54392713,15.5278543 C6.56251012,15.571417 7.01793522,16.5953441 8.59546559,16.5953441 C10.0361943,16.5953441 10.524251,15.8522267 10.6672065,15.532753 C10.7379352,15.3748178 10.667166,15.1895142 10.5092308,15.1188664 Z" id="Shape"></path>
                <circle id="Oval" cx="11.3430364" cy="12.1572065" r="1"></circle>
                <path d="M17.3000405,5.65724696 C16.212834,5.72854251 15.7551012,5.20153846 14.6678947,3.62044534 C13.5806883,2.03935223 10.4336437,-0.849595142 6.7142915,0.263076923 C6.7142915,0.263076923 5.62708502,0.55582996 4.88319838,1.37562753 C4.88319838,1.37562753 -0.327044534,1.22315789 1.33785425,9.27659919 C0.545182186,9.75846154 0.0144129555,10.6301215 0.0144129555,11.6235628 C0.0144129555,12.971417 0.99097166,14.0954656 2.27364372,14.3253036 C2.45894737,14.9468016 2.69700405,15.5389474 2.98461538,16.0927935 C3.38226721,16.858664 3.86623482,17.5355466 4.42307692,18.1046559 C5.00089069,18.6952227 5.64425101,19.1565587 6.33526316,19.4759109 C7.06708502,19.8141296 7.83607287,19.9856275 8.62076923,19.9856275 C9.40408907,19.9856275 10.1717814,19.8146559 10.9024696,19.4776113 C11.5925101,19.1593522 12.2351012,18.6993927 12.8125101,18.1106478 C13.3689069,17.5432389 13.852753,16.8682996 14.2506478,16.1045749 C14.5544939,15.5215789 14.8032389,14.8959109 14.9933603,14.2381781 C15.4205668,14.1019838 15.8102429,13.861498 16.1297166,13.5312551 C16.6273279,13.0168421 16.9013765,12.3393522 16.9013765,11.6234818 C16.9013765,10.5731984 16.3098381,9.64437247 15.4169636,9.18421053 C15.4097976,8.73538462 15.4010121,8.29279352 15.3807287,7.8594332 C15.7652227,7.69222672 16.1396356,7.4911336 16.4988259,7.25101215 C16.4989069,7.25109312 18.387166,5.58595142 17.3000405,5.65724696 Z M15.9477328,11.6236032 C15.9477328,12.5910121 15.1806883,13.3788259 14.2215789,13.412996 C13.4823482,16.6676113 11.2544939,19.0319433 8.62080972,19.0319433 C5.98238866,19.0319433 3.75149798,16.6593522 3.01611336,13.3960324 C2.93218623,13.4081377 2.84651822,13.4146154 2.7591498,13.4146154 C1.77004049,13.4146154 0.968137652,12.612753 0.968137652,11.6236032 C0.968137652,10.7976518 1.52748988,10.1026316 2.28793522,9.89566802 L2.678583,11.9444939 C2.7054251,12.1929555 2.91052632,12.3746154 3.13676113,12.3502024 L3.15194332,12.348583 C3.18781377,12.3446964 3.22186235,12.3353441 3.2540081,12.3223077 C3.30497976,12.3208097 3.35295547,12.2940486 3.39165992,12.2276113 C3.47979757,12.1348988 3.52866397,11.9994737 3.51299595,11.8544534 L3.50259109,11.4954656 C3.52898785,10.761498 3.46222672,9.81226721 3.46222672,9.65194332 C4.31825911,9.65194332 5.51004049,9.9008502 5.75012146,7.43643725 C5.75012146,7.43643725 9.80279352,9.12080972 13.6207287,8.39408907 L13.5561538,11.8544534 C13.5293117,12.1029555 13.6909717,12.32417 13.9172065,12.348583 L13.9323887,12.3502024 C14.1586235,12.3746154 14.3637247,12.192915 14.3905668,11.9444939 L14.7723887,9.94194332 C15.4581781,10.1929555 15.9477328,10.8509312 15.9477328,11.6236032 Z" id="Shape"></path>
            </g>
        </g>
    </g>
</svg>