<?xml version="1.0" encoding="UTF-8"?>
<svg width="21px" height="15px" viewBox="0 0 21 15" version="1.1" xmlns="http://www.w3.org/2000/svg" xmlns:xlink="http://www.w3.org/1999/xlink">
    <!-- Generator: Sketch 46.2 (44496) - http://www.bohemiancoding.com/sketch -->
    <title>ilab-imgix-red-eye-black</title>
    <desc>Created with Sketch.</desc>
    <defs></defs>
    <g id="Page-1" stroke="none" stroke-width="1" fill="none" fill-rule="evenodd">
        <g id="Desktop-HD" transform="translate(-396.000000, -233.000000)" fill-rule="nonzero" fill="#000000">
            <path d="M406.667969,233.273438 C400.890391,233.273438 396.667969,238.77332 396.667969,240.080078 C396.667969,241.38625 400.890391,247.023438 406.667969,247.023438 C412.445547,247.023438 416.667969,241.386211 416.667969,240.080078 C416.667969,238.77332 412.445547,233.273438 406.667969,233.273438 Z M406.667969,245.148438 C403.906719,245.148438 401.667969,242.909648 401.667969,240.148438 C401.667969,237.387227 403.906758,235.148438 406.667969,235.148438 C409.429219,235.148438 411.667969,237.387227 411.667969,240.148438 C411.667969,242.909687 409.429219,245.148438 406.667969,245.148438 Z M409.576289,239.024766 C409.711172,239.374531 409.792969,239.751094 409.792969,240.148438 C409.792969,241.874531 408.394023,243.273438 406.667969,243.273438 C404.941914,243.273438 403.542969,241.874492 403.542969,240.148438 C403.542969,238.422383 404.941914,237.023438 406.667969,237.023438 C407.065313,237.023438 407.441914,237.105234 407.791016,237.240117 C407.471797,237.473281 407.261836,237.847422 407.261836,238.273438 C407.261836,238.98082 407.834961,239.55457 408.542969,239.55457 C408.968984,239.55457 409.34375,239.344609 409.576289,239.024766 Z" id="ilab-imgix-red-eye-black"></path>
        </g>
    </g>
</svg>