<?xml version="1.0" encoding="UTF-8"?>
<svg width="21px" height="21px" viewBox="0 0 21 21" version="1.1" xmlns="http://www.w3.org/2000/svg" xmlns:xlink="http://www.w3.org/1999/xlink">
    <!-- Generator: Sketch 46.2 (44496) - http://www.bohemiancoding.com/sketch -->
    <title>ilab-imgix-magic-wand-black</title>
    <desc>Created with Sketch.</desc>
    <defs></defs>
    <g id="Page-1" stroke="none" stroke-width="1" fill="none" fill-rule="evenodd">
        <g id="Desktop-HD" transform="translate(-396.000000, -185.000000)" fill-rule="nonzero" fill="#000000">
            <path d="M412.398121,190.55182 L414.028063,189.650424 L415.659433,190.55182 L415.348016,188.643317 L416.66654,187.289794 L414.845177,187.012661 L414.028777,185.273438 L413.213092,187.011947 L411.389586,187.28908 L412.709539,188.642603 L412.398121,190.55182 Z M398.25934,193.606711 L400.834963,192.185334 L403.409871,193.606711 L402.917746,190.593248 L405.000528,188.457609 L402.122774,188.017625 L400.834963,185.273438 L399.547152,188.017625 L396.667969,188.457609 L398.750752,190.593248 L398.25934,193.606711 Z M409.060383,189.960413 L405.561937,193.460288 L396.667969,202.351399 L399.587864,205.273438 L408.295411,196.565891 L411.980993,192.882451 L409.060383,189.960413 Z M406.421906,193.645996 L409.059669,191.007518 L410.933174,192.882451 L408.295411,195.5195 L406.421906,193.645996 Z M414.46019,200.987876 L413.472369,198.885808 L412.485975,200.987876 L410.278197,201.325721 L411.875997,202.962091 L411.498153,205.273438 L413.472369,204.182762 L415.448012,205.273438 L415.070169,202.962091 L416.667254,201.325721 L414.46019,200.987876 Z" id="ilab-imgix-magic-wand-black"></path>
        </g>
    </g>
</svg>