<?xml version="1.0" encoding="UTF-8"?>
<svg width="21px" height="21px" viewBox="0 0 21 21" version="1.1" xmlns="http://www.w3.org/2000/svg" xmlns:xlink="http://www.w3.org/1999/xlink">
    <!-- Generator: Sketch 46.2 (44496) - http://www.bohemiancoding.com/sketch -->
    <title>ilab-imgix-chaos-white</title>
    <desc>Created with Sketch.</desc>
    <defs></defs>
    <g id="Page-1" stroke="none" stroke-width="1" fill="none" fill-rule="evenodd">
        <g id="Desktop-HD" transform="translate(-451.000000, -501.000000)" fill-rule="nonzero" fill="#FFFFFF">
            <path d="M461.160914,501.09801 C461.881355,501.818451 462.606549,502.541268 463.325089,503.263135 C462.834657,503.262185 462.3447,503.261234 461.854743,503.26361 C461.853792,505.276188 461.855693,507.289242 461.853317,509.302295 C463.280893,507.878996 464.705142,506.452846 466.129392,505.027171 C465.780577,504.685484 465.440315,504.334768 465.091025,503.994031 C466.127966,503.99118 467.164907,503.994982 468.202323,503.99213 C468.202323,505.030022 468.20565,506.067913 468.200422,507.105805 C467.862537,506.754138 467.509445,506.416729 467.170135,506.066488 C465.743984,507.490737 464.317359,508.915462 462.894535,510.343038 C464.907113,510.340662 466.919691,510.342562 468.932269,510.341612 C468.93512,509.851655 468.933695,509.360748 468.933219,508.870791 C469.639404,509.574124 470.342262,510.281258 471.049396,510.984591 C471.077435,511.02451 471.160599,511.062528 471.097394,511.111952 C470.379804,511.831918 469.65271,512.557586 468.933219,513.276127 C468.933695,512.78617 468.93512,512.295262 468.932269,511.805305 C466.919691,511.804355 464.907113,511.806256 462.894535,511.803879 C464.317359,513.231455 465.743984,514.65618 467.170135,516.080429 C467.509445,515.730189 467.862537,515.392779 468.200422,515.041112 C468.20565,516.079004 468.202323,517.116895 468.202323,518.154787 C467.164907,518.151935 466.127966,518.155737 465.091025,518.152886 C465.440315,517.812149 465.780577,517.461433 466.129392,517.119747 C464.705142,515.694071 463.280893,514.267921 461.853317,512.844622 C461.855693,514.857675 461.853792,516.870729 461.854743,518.883307 C462.3447,518.885683 462.834657,518.884732 463.325089,518.883782 C462.622231,519.590917 461.914621,520.292824 461.212238,520.999959 C461.171369,521.027522 461.133351,521.115914 461.084878,521.048907 C460.364437,520.328466 459.639244,519.605649 458.920703,518.883782 C459.411136,518.884732 459.901093,518.885683 460.39105,518.883307 C460.392,516.870729 460.390099,514.857675 460.392475,512.844622 C458.964899,514.267921 457.54065,515.694071 456.116401,517.119747 C456.465216,517.461433 456.805477,517.811674 457.154767,518.152886 C456.117826,518.155737 455.080885,518.151935 454.043469,518.154787 C454.043469,517.116895 454.040142,516.079004 454.04537,515.041112 C454.383255,515.392779 454.736347,515.730189 455.075658,516.080429 C456.501808,514.65618 457.928434,513.231455 459.351257,511.803879 C457.338679,511.806256 455.326101,511.804355 453.313523,511.805305 C453.310672,512.295262 453.312098,512.78617 453.312573,513.276127 C452.606388,512.572793 451.903531,511.865659 451.196396,511.162326 C451.167882,511.121456 451.085668,511.085339 451.148398,511.034965 C451.865988,510.314999 452.593082,509.589331 453.312573,508.870791 C453.312098,509.360748 453.310672,509.851655 453.313523,510.341612 C455.326101,510.342562 457.338679,510.340662 459.351257,510.343038 C457.928434,508.915462 456.501808,507.490737 455.075658,506.066488 C454.736347,506.416729 454.383255,506.754138 454.04537,507.105805 C454.040142,506.067913 454.043469,505.030022 454.043469,503.99213 C455.080885,503.994982 456.117826,503.99118 457.154767,503.994031 C456.805477,504.334768 456.465216,504.685484 456.116401,505.027171 C457.54065,506.452846 458.964899,507.878996 460.392475,509.302295 C460.390099,507.289242 460.392,505.276188 460.39105,503.26361 C459.901093,503.261234 459.411136,503.262185 458.920703,503.263135 C459.623561,502.556 460.331171,501.854093 461.033554,501.147433 C461.074423,501.119395 461.111966,501.031003 461.160914,501.09801 Z" id="ilab-imgix-chaos-white"></path>
        </g>
    </g>
</svg>