<?xml version="1.0" encoding="UTF-8"?>
<svg width="21px" height="21px" viewBox="0 0 21 21" version="1.1" xmlns="http://www.w3.org/2000/svg" xmlns:xlink="http://www.w3.org/1999/xlink">
    <!-- Generator: Sketch 46.2 (44496) - http://www.bohemiancoding.com/sketch -->
    <title>ilab-imgix-magic-wand-white</title>
    <desc>Created with Sketch.</desc>
    <defs></defs>
    <g id="Page-1" stroke="none" stroke-width="1" fill="none" fill-rule="evenodd">
        <g id="Desktop-HD" transform="translate(-436.000000, -185.000000)" fill-rule="nonzero" fill="#FFFFFF">
            <path d="M452.398121,190.55182 L454.028063,189.650424 L455.659433,190.55182 L455.348016,188.643317 L456.66654,187.289794 L454.845177,187.012661 L454.028777,185.273438 L453.213092,187.011947 L451.389586,187.28908 L452.709539,188.642603 L452.398121,190.55182 Z M438.25934,193.606711 L440.834963,192.185334 L443.409871,193.606711 L442.917746,190.593248 L445.000528,188.457609 L442.122774,188.017625 L440.834963,185.273438 L439.547152,188.017625 L436.667969,188.457609 L438.750752,190.593248 L438.25934,193.606711 Z M449.060383,189.960413 L445.561937,193.460288 L436.667969,202.351399 L439.587864,205.273438 L448.295411,196.565891 L451.980993,192.882451 L449.060383,189.960413 Z M446.421906,193.645996 L449.059669,191.007518 L450.933174,192.882451 L448.295411,195.5195 L446.421906,193.645996 Z M454.46019,200.987876 L453.472369,198.885808 L452.485975,200.987876 L450.278197,201.325721 L451.875997,202.962091 L451.498153,205.273438 L453.472369,204.182762 L455.448012,205.273438 L455.070169,202.962091 L456.667254,201.325721 L454.46019,200.987876 Z" id="ilab-imgix-magic-wand-white"></path>
        </g>
    </g>
</svg>