<?xml version="1.0" encoding="utf-8"?>
<!-- Generator: Adobe Illustrator 21.1.0, SVG Export Plug-In . SVG Version: 6.00 Build 0)  -->
<svg version="1.1" id="Layer_1" xmlns="http://www.w3.org/2000/svg" xmlns:xlink="http://www.w3.org/1999/xlink" x="0px" y="0px"
	 viewBox="0 0 60 50" style="enable-background:new 0 0 60 50;" xml:space="preserve">
<style type="text/css">
	.st0{opacity:0.15;}
</style>
<g class="st0">
	<path d="M45,20.8c3.5,0,6.4-2.8,6.4-6.3S48.5,8.3,45,8.3s-6.4,2.8-6.4,6.2S41.5,20.8,45,20.8z"/>
	<path d="M56.2,0H3.8C1.7,0,0,1.7,0,3.7v42.6c0,2,1.7,3.7,3.8,3.7h52.5c2.1,0,3.8-1.7,3.8-3.7V3.7C60,1.7,58.3,0,56.2,0z M42.4,25.7
		c-0.4-0.5-1-0.8-1.7-0.8c-0.7,0-1.2,0.3-1.7,0.7l-2.5,2.1c-0.5,0.4-0.9,0.6-1.5,0.6c-0.6,0-1.1-0.2-1.5-0.5
		c-0.1-0.1-0.4-0.3-0.6-0.5l-7.2-7.6c-0.5-0.6-1.3-1-2.2-1c-0.9,0-1.7,0.4-2.2,1L4.3,39.6V5.7C4.4,4.8,5.1,4.2,6,4.2h47.9
		c0.9,0,1.7,0.7,1.7,1.6l0,33.9L42.4,25.7z"/>
</g>
</svg>
