<?xml version="1.0" encoding="UTF-8"?>
<svg width="21px" height="20px" viewBox="0 0 21 20" version="1.1" xmlns="http://www.w3.org/2000/svg" xmlns:xlink="http://www.w3.org/1999/xlink">
    <!-- Generator: Sketch 46.2 (44496) - http://www.bohemiancoding.com/sketch -->
    <title>ilab-imgix-edges-white</title>
    <desc>Created with Sketch.</desc>
    <defs></defs>
    <g id="Page-1" stroke="none" stroke-width="1" fill="none" fill-rule="evenodd">
        <g id="Desktop-HD" transform="translate(-461.000000, -576.000000)" fill-rule="nonzero" fill="#FFFFFF">
            <path d="M461.125367,578.698892 L461.125367,578.698892 L462.333826,578.698892 C462.6158,578.698892 462.837351,578.920443 462.837351,579.202417 C462.837351,579.484391 462.6158,579.705942 462.333826,579.705942 L461.125367,579.705942 L461.125367,579.705942 L461.125367,581.015106 L461.125367,581.015106 L463.340876,581.015106 C463.62285,581.015106 463.8444,581.236657 463.8444,581.51863 C463.8444,581.800604 463.62285,582.022155 463.340876,582.022155 L461.125367,582.022155 L461.125367,582.022155 L461.125367,583.331319 L461.125367,583.331319 L462.333826,583.331319 C462.6158,583.331319 462.837351,583.55287 462.837351,583.834844 C462.837351,584.116818 462.6158,584.338369 462.333826,584.338369 L461.125367,584.338369 L461.125367,584.338369 L461.125367,585.647533 L461.125367,585.647533 L463.340876,585.647533 C463.62285,585.647533 463.8444,585.869084 463.8444,586.151057 C463.8444,586.433031 463.62285,586.654582 463.340876,586.654582 L461.125367,586.654582 L461.125367,586.654582 L461.125367,587.963746 L461.125367,587.963746 L462.333826,587.963746 C462.6158,587.963746 462.837351,588.185297 462.837351,588.467271 C462.837351,588.749245 462.6158,588.970796 462.333826,588.970796 L461.125367,588.970796 L461.125367,588.970796 L461.125367,590.27996 L461.125367,590.27996 L463.340876,590.27996 C463.62285,590.27996 463.8444,590.501511 463.8444,590.783484 C463.8444,591.065458 463.62285,591.287009 463.340876,591.287009 L461.125367,591.287009 L461.125367,591.287009 L461.125367,592.596173 L461.125367,592.596173 L462.333826,592.596173 C462.6158,592.596173 462.837351,592.817724 462.837351,593.099698 C462.837351,593.381672 462.6158,593.603223 462.333826,593.603223 L461.125367,593.603223 L461.125367,593.603223 L461.125367,596 L481.125367,596 L461.125367,576 L461.125367,578.698892 Z M464.44863,584.056395 L473.068972,592.676737 L464.44863,592.676737 L464.44863,584.056395 Z" id="ilab-imgix-edges-white"></path>
        </g>
    </g>
</svg>