<?xml version="1.0" encoding="UTF-8"?>
<svg width="21px" height="21px" viewBox="0 0 21 21" version="1.1" xmlns="http://www.w3.org/2000/svg" xmlns:xlink="http://www.w3.org/1999/xlink">
    <!-- Generator: Sketch 46.2 (44496) - http://www.bohemiancoding.com/sketch -->
    <title>ilab-imgix-focalpoint-white</title>
    <desc>Created with Sketch.</desc>
    <defs></defs>
    <g id="Page-1" stroke="none" stroke-width="1" fill="none" fill-rule="evenodd">
        <g id="Desktop-HD" transform="translate(-439.000000, -334.000000)" fill-rule="nonzero" fill="#FFFFFF">
            <path d="M449.016147,340.528212 C446.560591,340.528212 444.571702,342.517101 444.571702,344.972656 C444.571702,347.428212 446.560591,349.417101 449.016147,349.417101 C451.471702,349.417101 453.460591,347.428212 453.460591,344.972656 C453.460591,342.517101 451.471702,340.528212 449.016147,340.528212 Z M441.238369,348.30599 L439.016147,348.30599 L439.016147,352.750434 C439.016147,353.978212 440.010591,354.972656 441.238369,354.972656 L445.682814,354.972656 L445.682814,352.750434 L441.238369,352.750434 L441.238369,348.30599 Z M441.238369,337.194878 L445.682814,337.194878 L445.682814,334.972656 L441.238369,334.972656 C440.010591,334.972656 439.016147,335.967101 439.016147,337.194878 L439.016147,341.639323 L441.238369,341.639323 L441.238369,337.194878 Z M456.793925,334.972656 L452.34948,334.972656 L452.34948,337.194878 L456.793925,337.194878 L456.793925,341.639323 L459.016147,341.639323 L459.016147,337.194878 C459.016147,335.967101 458.021702,334.972656 456.793925,334.972656 Z M456.793925,352.750434 L452.34948,352.750434 L452.34948,354.972656 L456.793925,354.972656 C458.021702,354.972656 459.016147,353.978212 459.016147,352.750434 L459.016147,348.30599 L456.793925,348.30599 L456.793925,352.750434 Z" id="ilab-imgix-focalpoint-white"></path>
        </g>
    </g>
</svg>