<?xml version="1.0" encoding="UTF-8"?>
<svg width="21px" height="15px" viewBox="0 0 21 15" version="1.1" xmlns="http://www.w3.org/2000/svg" xmlns:xlink="http://www.w3.org/1999/xlink">
    <!-- Generator: Sketch 46.2 (44496) - http://www.bohemiancoding.com/sketch -->
    <title>ilab-imgix-red-eye-white</title>
    <desc>Created with Sketch.</desc>
    <defs></defs>
    <g id="Page-1" stroke="none" stroke-width="1" fill="none" fill-rule="evenodd">
        <g id="Desktop-HD" transform="translate(-436.000000, -233.000000)" fill-rule="nonzero" fill="#FFFFFF">
            <path d="M446.667969,233.273438 C440.890391,233.273438 436.667969,238.77332 436.667969,240.080078 C436.667969,241.38625 440.890391,247.023438 446.667969,247.023438 C452.445547,247.023438 456.667969,241.386211 456.667969,240.080078 C456.667969,238.77332 452.445547,233.273438 446.667969,233.273438 Z M446.667969,245.148438 C443.906719,245.148438 441.667969,242.909648 441.667969,240.148438 C441.667969,237.387227 443.906758,235.148438 446.667969,235.148438 C449.429219,235.148438 451.667969,237.387227 451.667969,240.148438 C451.667969,242.909687 449.429219,245.148438 446.667969,245.148438 Z M449.576289,239.024766 C449.711172,239.374531 449.792969,239.751094 449.792969,240.148438 C449.792969,241.874531 448.394023,243.273438 446.667969,243.273438 C444.941914,243.273438 443.542969,241.874492 443.542969,240.148438 C443.542969,238.422383 444.941914,237.023438 446.667969,237.023438 C447.065313,237.023438 447.441914,237.105234 447.791016,237.240117 C447.471797,237.473281 447.261836,237.847422 447.261836,238.273438 C447.261836,238.98082 447.834961,239.55457 448.542969,239.55457 C448.968984,239.55457 449.34375,239.344609 449.576289,239.024766 Z" id="ilab-imgix-red-eye-white"></path>
        </g>
    </g>
</svg>