<?xml version="1.0" encoding="UTF-8"?>
<svg width="21px" height="20px" viewBox="0 0 21 20" version="1.1" xmlns="http://www.w3.org/2000/svg" xmlns:xlink="http://www.w3.org/1999/xlink">
    <!-- Generator: Sketch 46.2 (44496) - http://www.bohemiancoding.com/sketch -->
    <title>ilab-imgix-edges-black</title>
    <desc>Created with Sketch.</desc>
    <defs></defs>
    <g id="Page-1" stroke="none" stroke-width="1" fill="none" fill-rule="evenodd">
        <g id="Desktop-HD" transform="translate(-421.000000, -576.000000)" fill-rule="nonzero" fill="#000000">
            <path d="M421.125367,578.698892 L421.125367,578.698892 L422.333826,578.698892 C422.6158,578.698892 422.837351,578.920443 422.837351,579.202417 C422.837351,579.484391 422.6158,579.705942 422.333826,579.705942 L421.125367,579.705942 L421.125367,579.705942 L421.125367,581.015106 L421.125367,581.015106 L423.340876,581.015106 C423.62285,581.015106 423.8444,581.236657 423.8444,581.51863 C423.8444,581.800604 423.62285,582.022155 423.340876,582.022155 L421.125367,582.022155 L421.125367,582.022155 L421.125367,583.331319 L421.125367,583.331319 L422.333826,583.331319 C422.6158,583.331319 422.837351,583.55287 422.837351,583.834844 C422.837351,584.116818 422.6158,584.338369 422.333826,584.338369 L421.125367,584.338369 L421.125367,584.338369 L421.125367,585.647533 L421.125367,585.647533 L423.340876,585.647533 C423.62285,585.647533 423.8444,585.869084 423.8444,586.151057 C423.8444,586.433031 423.62285,586.654582 423.340876,586.654582 L421.125367,586.654582 L421.125367,586.654582 L421.125367,587.963746 L421.125367,587.963746 L422.333826,587.963746 C422.6158,587.963746 422.837351,588.185297 422.837351,588.467271 C422.837351,588.749245 422.6158,588.970796 422.333826,588.970796 L421.125367,588.970796 L421.125367,588.970796 L421.125367,590.27996 L421.125367,590.27996 L423.340876,590.27996 C423.62285,590.27996 423.8444,590.501511 423.8444,590.783484 C423.8444,591.065458 423.62285,591.287009 423.340876,591.287009 L421.125367,591.287009 L421.125367,591.287009 L421.125367,592.596173 L421.125367,592.596173 L422.333826,592.596173 C422.6158,592.596173 422.837351,592.817724 422.837351,593.099698 C422.837351,593.381672 422.6158,593.603223 422.333826,593.603223 L421.125367,593.603223 L421.125367,593.603223 L421.125367,596 L441.125367,596 L421.125367,576 L421.125367,578.698892 Z M424.44863,584.056395 L433.068972,592.676737 L424.44863,592.676737 L424.44863,584.056395 Z" id="ilab-imgix-edges-black"></path>
        </g>
    </g>
</svg>