<?xml version="1.0" encoding="utf-8"?>
<!-- Generator: Adobe Illustrator 21.1.0, SVG Export Plug-In . SVG Version: 6.00 Build 0)  -->
<svg version="1.1" id="Layer_1" xmlns="http://www.w3.org/2000/svg" xmlns:xlink="http://www.w3.org/1999/xlink" x="0px" y="0px"
	 viewBox="0 0 45 60" style="enable-background:new 0 0 45 60;" xml:space="preserve">
<style type="text/css">
	.st0{opacity:0.15;}
</style>
<g class="st0">
	<path d="M44.7,16.4c-0.1-0.3-0.3-0.7-0.5-1L31.1,1.1c-0.3-0.3-0.7-0.6-1-0.8c-0.5-0.2-1-0.3-1.5-0.3h-25C1.6,0,0,1.7,0,3.7v52.4
		C0,58.2,1.6,60,3.5,60h38c1.9,0,3.5-1.8,3.5-3.9V18C45,17.4,44.9,16.9,44.7,16.4z M7.5,17.8c0-0.2,0.3-0.3,0.5-0.3h11.1
		c0.2,0,0.4,0.1,0.4,0.3v1.7c0,0.2-0.2,0.5-0.4,0.5H8c-0.3,0-0.5-0.3-0.5-0.5V17.8z M7.5,37.8c0-0.2,0.3-0.3,0.5-0.3h19.1
		c0.2,0,0.4,0.1,0.4,0.3v1.7c0,0.2-0.1,0.5-0.4,0.5H8c-0.3,0-0.5-0.3-0.5-0.5V37.8z M32.5,49.5c0,0.2-0.1,0.5-0.4,0.5H8
		c-0.3,0-0.5-0.3-0.5-0.5v-1.7c0-0.2,0.3-0.3,0.5-0.3h24.1c0.2,0,0.4,0.1,0.4,0.3L32.5,49.5L32.5,49.5z M37.5,29.5
		c0,0.2-0.1,0.5-0.4,0.5H8c-0.3,0-0.5-0.3-0.5-0.5v-1.7c0-0.2,0.3-0.3,0.5-0.3h29.1c0.2,0,0.4,0.1,0.4,0.3L37.5,29.5L37.5,29.5z
		 M30.2,17.7c-0.9,0-1.7-0.8-1.7-1.8V5.6l11.1,12.1H30.2z"/>
</g>
</svg>
