<?xml version="1.0" encoding="UTF-8"?>
<svg width="1440px" height="101px" viewBox="0 0 1440 101" version="1.1" xmlns="http://www.w3.org/2000/svg" xmlns:xlink="http://www.w3.org/1999/xlink">
    <!-- Generator: Sketch 46.2 (44496) - http://www.bohemiancoding.com/sketch -->
    <title>settings-bg</title>
    <desc>Created with Sketch.</desc>
    <defs>
        <rect id="path-1" x="0" y="0" width="1440" height="100"></rect>
        <radialGradient cx="6.17757161%" cy="53.1103134%" fx="6.17757161%" fy="53.1103134%" r="93.3912501%" gradientTransform="translate(0.061776,0.531103),scale(0.069444,1.000000),rotate(0.359598),translate(-0.061776,-0.531103)" id="radialGradient-3">
            <stop stop-color="#E9E5E5" offset="0%"></stop>
            <stop stop-color="#E8E8E8" offset="37%"></stop>
            <stop stop-color="#E4E4E2" offset="100%"></stop>
        </radialGradient>
    </defs>
    <g id="Page-1" stroke="none" stroke-width="1" fill="none" fill-rule="evenodd">
        <g id="Desktop-HD" transform="translate(0.000000, -548.000000)">
            <g id="settings-bg" transform="translate(0.000000, 548.878906)">
                <g id="Group">
                    <mask id="mask-2" fill="white">
                        <use xlink:href="#path-1"></use>
                    </mask>
                    <use id="Mask" fill="#D8D8D8" xlink:href="#path-1"></use>
                    <g mask="url(#mask-2)">
                        <g transform="translate(0.000000, -34.000000)">
                            <rect id="Background" fill="url(#radialGradient-3)" fill-rule="nonzero" x="0" y="34" width="1440" height="100"></rect>
                            <g id="Grey-Clouds" stroke-width="1" fill="none" fill-rule="evenodd" transform="translate(28.785781, 30.500000)">
                                <path d="M157.33372,83.1457691 C155.037517,63.8464111 140.397083,48.3151107 121.266827,44.8842133 C102.13657,41.453316 83.0112944,50.9289379 74.151467,68.2275283 C63.5940581,64.492935 51.8848782,66.0625726 42.6837863,72.4458301 C33.4826943,78.8290877 27.9121733,89.2472425 27.7133632,100.443963 L25.9719343,100.443963 C11.5317924,101.065182 0.131085532,112.928574 0.084511665,127.381997 C0.0379377984,141.83542 11.3619529,153.772038 25.7977914,154.486306 L151.587005,154.486306 C164.621175,156.060452 177.471927,150.3769 185.076604,139.674732 C192.681281,128.972564 193.820842,114.967351 188.046349,103.17656 C182.271856,91.3857696 170.508967,83.6994806 157.391768,83.1457691 L157.33372,83.1457691 Z" id="Shape" fill="#FFFFFF" fill-rule="nonzero" opacity="0.39"></path>
                                <path d="M496.506021,13.8949468 C495.649103,7.05216508 490.420086,1.57353601 483.624668,0.398689661 C476.82925,-0.77615669 470.064356,2.62886889 466.959778,8.78675541 C463.175536,7.36926615 458.935657,7.90957344 455.627861,10.2308337 C452.320065,12.552094 450.370104,16.3555342 450.416203,20.3962814 L449.777679,20.3962814 C444.471944,20.3962814 440.170796,24.6974293 440.170796,30.0031641 C440.170796,35.3088989 444.471944,39.6100468 449.777679,39.6100468 L494.416306,39.6100468 L495.983592,39.6100468 C503.004474,39.7382821 508.799979,34.1506881 508.928214,27.1298064 C509.056449,20.1089247 503.468855,14.3134203 496.447973,14.185185 L496.506021,13.8949468 Z" id="Shape" fill="#FFFFFF" fill-rule="nonzero" opacity="0.17"></path>
                                <path d="M197.792918,28.2327114 C196.95941,21.4041868 191.770498,15.9173871 184.999077,14.7043964 C178.227657,13.4914057 171.456778,16.8358018 168.304722,22.9503771 C164.520481,21.5328878 160.280602,22.0731951 156.972806,24.3944554 C153.66501,26.7157157 151.715049,30.5191558 151.761148,34.559903 L151.122624,34.559903 C145.816889,34.559903 141.515741,38.8610509 141.515741,44.1667858 C141.515741,49.4725206 145.816889,53.7736685 151.122624,53.7736685 L195.761251,53.7736685 L197.27049,53.7736685 C204.291371,53.9179332 210.09987,48.3433336 210.244135,41.3224519 C210.3884,34.3015702 204.8138,28.4930713 197.792918,28.3488066 L197.792918,28.2327114 Z" id="Shape" fill="#FFFFFF" fill-rule="nonzero" opacity="0.21"></path>
                                <path d="M406.706338,59.810622 C404.71233,42.7979451 391.822543,29.0928325 374.963962,26.0604253 C358.105381,23.0280182 341.24769,31.3823563 333.450229,46.63381 C324.125164,43.1656628 313.694274,44.4677623 305.507951,50.1218754 C297.321627,55.7759885 292.410683,65.0701563 292.352507,75.019101 L290.785221,75.019101 C277.609046,75.0191014 266.927646,85.7005018 266.927646,98.8766768 C266.927646,112.052852 277.609046,122.734252 290.785221,122.734253 L401.656194,122.734253 C402.932095,122.810805 404.211437,122.810805 405.487338,122.734253 C422.454035,122.412427 436.132711,108.738551 436.460492,91.7719682 C436.788274,74.805385 423.647945,60.6133869 406.706338,59.6364791 L406.706338,59.810622 Z" id="Shape" fill="#FFFFFF" fill-rule="nonzero" opacity="0.31"></path>
                            </g>
                            <g id="Grey-Clouds-Copy" stroke-width="1" fill="none" fill-rule="evenodd" transform="translate(776.024062, 93.000000) scale(-1, 1) translate(-776.024062, -93.000000) translate(503.024062, 0.500000)">
                                <path d="M157.33372,83.1457691 C155.037517,63.8464111 140.397083,48.3151107 121.266827,44.8842133 C102.13657,41.453316 83.0112944,50.9289379 74.151467,68.2275283 C63.5940581,64.492935 51.8848782,66.0625726 42.6837863,72.4458301 C33.4826943,78.8290877 27.9121733,89.2472425 27.7133632,100.443963 L25.9719343,100.443963 C11.5317924,101.065182 0.131085532,112.928574 0.084511665,127.381997 C0.0379377984,141.83542 11.3619529,153.772038 25.7977914,154.486306 L151.587005,154.486306 C164.621175,156.060452 177.471927,150.3769 185.076604,139.674732 C192.681281,128.972564 193.820842,114.967351 188.046349,103.17656 C182.271856,91.3857696 170.508967,83.6994806 157.391768,83.1457691 L157.33372,83.1457691 Z" id="Shape" fill="#FFFFFF" fill-rule="nonzero" opacity="0.39"></path>
                                <path d="M519.55093,132.60235 C517.897246,118.584297 507.265216,107.299505 493.370429,104.814476 C479.475642,102.329447 465.591308,109.229581 459.181395,121.805491 C451.528335,118.978375 442.979188,120.041677 436.251828,124.657361 C429.524469,129.273046 425.455922,136.866823 425.339627,145.024542 L424.062579,145.024542 C413.625179,145.592052 405.452809,154.220847 405.452809,164.673665 C405.452809,175.126483 413.625179,183.755278 424.062579,184.322788 L515.429548,184.322788 C516.473429,184.386674 517.52024,184.386674 518.56412,184.322788 C527.89641,184.499064 536.613843,179.683234 541.432648,171.689372 C546.251452,163.695511 546.439537,153.738077 541.926053,145.567939 C537.412568,137.397801 528.883219,132.256198 519.55093,132.079921 L519.55093,132.60235 Z" id="Shape" fill="#FFFFFF" fill-rule="nonzero" opacity="0.47"></path>
                                <path d="M496.506021,13.8949468 C495.649103,7.05216508 490.420086,1.57353601 483.624668,0.398689661 C476.82925,-0.77615669 470.064356,2.62886889 466.959778,8.78675541 C463.175536,7.36926615 458.935657,7.90957344 455.627861,10.2308337 C452.320065,12.552094 450.370104,16.3555342 450.416203,20.3962814 L449.777679,20.3962814 C444.471944,20.3962814 440.170796,24.6974293 440.170796,30.0031641 C440.170796,35.3088989 444.471944,39.6100468 449.777679,39.6100468 L494.416306,39.6100468 L495.983592,39.6100468 C503.004474,39.7382821 508.799979,34.1506881 508.928214,27.1298064 C509.056449,20.1089247 503.468855,14.3134203 496.447973,14.185185 L496.506021,13.8949468 Z" id="Shape" fill="#FFFFFF" fill-rule="nonzero" opacity="0.17"></path>
                                <path d="M237.792918,48.2327114 C236.95941,41.4041868 231.770498,35.9173871 224.999077,34.7043964 C218.227657,33.4914057 211.456778,36.8358018 208.304722,42.9503771 C204.520481,41.5328878 200.280602,42.0731951 196.972806,44.3944554 C193.66501,46.7157157 191.715049,50.5191558 191.761148,54.559903 L191.122624,54.559903 C185.816889,54.559903 181.515741,58.8610509 181.515741,64.1667858 C181.515741,69.4725206 185.816889,73.7736685 191.122624,73.7736685 L235.761251,73.7736685 L237.27049,73.7736685 C244.291371,73.9179332 250.09987,68.3433336 250.244135,61.3224519 C250.3884,54.3015702 244.8138,48.4930713 237.792918,48.3488066 L237.792918,48.2327114 Z" id="Shape" fill="#FFFFFF" fill-rule="nonzero" opacity="0.21"></path>
                                <path d="M406.706338,59.810622 C404.71233,42.7979451 391.822543,29.0928325 374.963962,26.0604253 C358.105381,23.0280182 341.24769,31.3823563 333.450229,46.63381 C324.125164,43.1656628 313.694274,44.4677623 305.507951,50.1218754 C297.321627,55.7759885 292.410683,65.0701563 292.352507,75.019101 L290.785221,75.019101 C277.609046,75.0191014 266.927646,85.7005018 266.927646,98.8766768 C266.927646,112.052852 277.609046,122.734252 290.785221,122.734253 L401.656194,122.734253 C402.932095,122.810805 404.211437,122.810805 405.487338,122.734253 C422.454035,122.412427 436.132711,108.738551 436.460492,91.7719682 C436.788274,74.805385 423.647945,60.6133869 406.706338,59.6364791 L406.706338,59.810622 Z" id="Shape" fill="#FFFFFF" fill-rule="nonzero" opacity="0.31"></path>
                            </g>
                            <g id="Grey-Clouds-Copy-2" stroke-width="1" fill="none" fill-rule="evenodd" transform="translate(1103.024062, 30.500000)">
                                <path d="M157.33372,83.1457691 C155.037517,63.8464111 140.397083,48.3151107 121.266827,44.8842133 C102.13657,41.453316 83.0112944,50.9289379 74.151467,68.2275283 C63.5940581,64.492935 51.8848782,66.0625726 42.6837863,72.4458301 C33.4826943,78.8290877 27.9121733,89.2472425 27.7133632,100.443963 L25.9719343,100.443963 C11.5317924,101.065182 0.131085532,112.928574 0.084511665,127.381997 C0.0379377984,141.83542 11.3619529,153.772038 25.7977914,154.486306 L151.587005,154.486306 C164.621175,156.060452 177.471927,150.3769 185.076604,139.674732 C192.681281,128.972564 193.820842,114.967351 188.046349,103.17656 C182.271856,91.3857696 170.508967,83.6994806 157.391768,83.1457691 L157.33372,83.1457691 Z" id="Shape" fill="#FFFFFF" fill-rule="nonzero" opacity="0.39"></path>
                                <path d="M197.792918,28.2327114 C196.95941,21.4041868 191.770498,15.9173871 184.999077,14.7043964 C178.227657,13.4914057 171.456778,16.8358018 168.304722,22.9503771 C164.520481,21.5328878 160.280602,22.0731951 156.972806,24.3944554 C153.66501,26.7157157 151.715049,30.5191558 151.761148,34.559903 L151.122624,34.559903 C145.816889,34.559903 141.515741,38.8610509 141.515741,44.1667858 C141.515741,49.4725206 145.816889,53.7736685 151.122624,53.7736685 L195.761251,53.7736685 L197.27049,53.7736685 C204.291371,53.9179332 210.09987,48.3433336 210.244135,41.3224519 C210.3884,34.3015702 204.8138,28.4930713 197.792918,28.3488066 L197.792918,28.2327114 Z" id="Shape" fill="#FFFFFF" fill-rule="nonzero" opacity="0.21"></path>
                                <path d="M406.706338,59.810622 C404.71233,42.7979451 391.822543,29.0928325 374.963962,26.0604253 C358.105381,23.0280182 341.24769,31.3823563 333.450229,46.63381 C324.125164,43.1656628 313.694274,44.4677623 305.507951,50.1218754 C297.321627,55.7759885 292.410683,65.0701563 292.352507,75.019101 L290.785221,75.019101 C277.609046,75.0191014 266.927646,85.7005018 266.927646,98.8766768 C266.927646,112.052852 277.609046,122.734252 290.785221,122.734253 L401.656194,122.734253 C402.932095,122.810805 404.211437,122.810805 405.487338,122.734253 C422.454035,122.412427 436.132711,108.738551 436.460492,91.7719682 C436.788274,74.805385 423.647945,60.6133869 406.706338,59.6364791 L406.706338,59.810622 Z" id="Shape" fill="#FFFFFF" fill-rule="nonzero" opacity="0.31"></path>
                            </g>
                        </g>
                    </g>
                </g>
            </g>
        </g>
    </g>
</svg>