<svg width="1440" height="320" xmlns="http://www.w3.org/2000/svg"><defs><linearGradient x1="-93.348%" y1="-139.197%" x2="296.781%" y2="376.87%" id="b"><stop stop-color="#51AFE3" offset="0%"/><stop stop-color="#55B5E6" offset="100%"/></linearGradient><linearGradient x1="-167.957%" y1="-106.294%" x2="250.108%" y2="250.35%" id="c"><stop stop-color="#5BBEEC" offset="0%"/><stop stop-color="#57B8E9" offset="100%"/></linearGradient><linearGradient x1="-24.554%" y1="-69.719%" x2="132.965%" y2="128.502%" id="d"><stop stop-color="#58BAEA" offset="0%"/><stop stop-color="#5ABAEA" offset="100%"/></linearGradient><linearGradient x1="-29.091%" y1="10206%" x2="-21.558%" y2="10188%" id="e"><stop stop-color="#58BAEA" offset="0%"/><stop stop-color="#5ABAEA" offset="100%"/></linearGradient><linearGradient x1="-405.419%" y1="-706%" x2="525.616%" y2="716%" id="f"><stop stop-color="#57B3E5" offset="0%"/><stop stop-color="#59B8E8" offset="100%"/></linearGradient><linearGradient x1="-46.032%" y1="-10.704%" x2="168.254%" y2="145.159%" id="g"><stop stop-color="#59B5E6" offset="0%"/><stop stop-color="#5CBAEA" offset="100%"/></linearGradient><linearGradient x1="-150.127%" y1="-269.291%" x2="469.62%" y2="793.701%" id="h"><stop stop-color="#55B3E5" offset="0%"/><stop stop-color="#5BB6E7" offset="100%"/></linearGradient><linearGradient x1="-10.404%" y1="12.062%" x2="89.881%" y2="112.398%" id="i"><stop stop-color="#66C7F2" offset="0%"/><stop stop-color="#5CC3F0" offset="100%"/></linearGradient><linearGradient x1="9.516%" y1="-7.089%" x2="111.31%" y2="107.975%" id="j"><stop stop-color="#5AB9E9" offset="0%"/><stop stop-color="#54B1E4" offset="100%"/></linearGradient><linearGradient x1="-9.503%" y1="14.671%" x2="93.393%" y2="154.3%" id="k"><stop stop-color="#5DB9E9" offset="0%"/><stop stop-color="#51B3E5" offset="100%"/></linearGradient><linearGradient x1="-612.5%" y1="-136.437%" x2="206.5%" y2="100.482%" id="l"><stop stop-color="#63C6F1" offset="0%"/><stop stop-color="#5BBBEB" offset="100%"/></linearGradient><linearGradient x1="-64.201%" y1="-31.738%" x2="152.18%" y2="99.58%" id="m"><stop stop-color="#53B0E4" offset="0%"/><stop stop-color="#51AFE3" offset="100%"/></linearGradient><linearGradient x1="34.877%" y1="10269%" x2="39.728%" y2="10251%" id="n"><stop stop-color="#58BAEA" offset="0%"/><stop stop-color="#5ABAEA" offset="100%"/></linearGradient><linearGradient x1="-46.324%" y1="-102.092%" x2="85.995%" y2="128.87%" id="o"><stop stop-color="#5DB6E7" offset="0%"/><stop stop-color="#58B4E6" offset="100%"/></linearGradient><linearGradient x1="14.964%" y1="-17.061%" x2="115.273%" y2="83.277%" id="p"><stop stop-color="#4FAFE3" offset="0%"/><stop stop-color="#50ABE0" offset="100%"/></linearGradient><linearGradient x1="-52%" y1="2508.505%" x2="-34%" y2="2504.131%" id="q"><stop stop-color="#66C7F2" offset="0%"/><stop stop-color="#5CC3F0" offset="100%"/></linearGradient><linearGradient x1="-16.212%" y1="16.385%" x2="84.13%" y2="116.723%" id="r"><stop stop-color="#58B7E8" offset="0%"/><stop stop-color="#59B9E9" offset="100%"/></linearGradient><linearGradient x1="-272%" y1="5074.1%" x2="-254%" y2="5065.168%" id="s"><stop stop-color="#4FAFE3" offset="0%"/><stop stop-color="#50ABE0" offset="100%"/></linearGradient><linearGradient x1="16.342%" y1="-15.81%" x2="111.049%" y2="84.527%" id="t"><stop stop-color="#56BAEA" offset="0%"/><stop stop-color="#52B1E4" offset="100%"/></linearGradient><linearGradient x1="22.131%" y1="-33.071%" x2="628.279%" y2="1029.921%" id="u"><stop stop-color="#53B3E6" offset="0%"/><stop stop-color="#54B0E4" offset="100%"/></linearGradient><linearGradient x1="36.601%" y1="10386%" x2="38.414%" y2="10368%" id="v"><stop stop-color="#4FAFE3" offset="0%"/><stop stop-color="#50ABE0" offset="100%"/></linearGradient><linearGradient x1="-10.455%" y1="10.036%" x2="136.771%" y2="232.616%" id="w"><stop stop-color="#59B8E9" offset="0%"/><stop stop-color="#59B5E7" offset="100%"/></linearGradient><radialGradient cx="50%" cy="50%" fx="50%" fy="50%" r="50%" gradientTransform="matrix(.22222 0 0 1 .389 0)" id="a"><stop stop-color="#FFF" offset="0%"/><stop stop-color="#E8E8E8" offset="37%"/><stop stop-color="#C6C6C5" offset="100%"/></radialGradient></defs><g fill="none" fill-rule="evenodd"><path fill="url(#a)" fill-rule="nonzero" d="M0 13h1440v320H0z" transform="translate(0 -13)"/><g fill-rule="nonzero" fill="#FFF"><path d="M186.12 100.646c-2.297-19.3-16.937-34.83-36.067-38.262-19.13-3.43-38.256 6.045-47.116 23.344A34.829 34.829 0 0056.5 117.944h-1.741c-14.44.621-25.841 12.485-25.888 26.938-.046 14.453 11.278 26.39 25.714 27.104h125.789a35.815 35.815 0 105.805-71.34h-.058z" opacity=".39"/><path d="M548.337 150.102a32.042 32.042 0 00-60.37-10.797 25.135 25.135 0 00-33.842 23.22h-1.277c-10.437.567-18.61 9.196-18.61 19.649 0 10.452 8.173 19.081 18.61 19.649h91.367c1.044.064 2.091.064 3.135 0a26.126 26.126 0 00.987-52.243v.522z" opacity=".47"/><path d="M525.292 31.395a15.673 15.673 0 00-29.546-5.108 12.248 12.248 0 00-16.544 11.61h-.639a9.607 9.607 0 100 19.213h46.206c7.021.128 12.817-5.46 12.945-12.48.128-7.021-5.46-12.817-12.48-12.945l.058-.29z" opacity=".17"/><path d="M226.579 45.733a15.673 15.673 0 00-29.488-5.283 12.248 12.248 0 00-16.544 11.61h-.639a9.607 9.607 0 100 19.214h46.149c7.02.144 12.829-5.43 12.973-12.452.144-7.02-5.43-12.829-12.451-12.973v-.116z" opacity=".21"/><path d="M435.492 77.31c-1.994-17.012-14.884-30.717-31.742-33.75-16.859-3.032-33.717 5.322-41.514 20.574a30.475 30.475 0 00-41.098 28.385h-1.567c-13.176 0-23.858 10.682-23.858 23.858s10.682 23.857 23.858 23.857h110.871c1.276.077 2.555.077 3.831 0 16.967-.322 30.645-13.995 30.973-30.962.328-16.967-12.812-31.159-29.754-32.136v.175z" opacity=".31"/></g><g fill-rule="nonzero" fill="#FFF"><path d="M1251.69 70.646c2.297-19.3 16.937-34.83 36.067-38.262 19.13-3.43 38.256 6.045 47.116 23.344a34.829 34.829 0 0146.438 32.216h1.741c14.44.621 25.841 12.485 25.888 26.938.046 14.453-11.278 26.39-25.714 27.104h-125.789a35.815 35.815 0 11-5.805-71.34h.058z" opacity=".39"/><path d="M889.473 120.102a32.042 32.042 0 0160.37-10.797 25.135 25.135 0 0133.841 23.22h1.277c10.438.567 18.61 9.196 18.61 19.649 0 10.452-8.172 19.081-18.61 19.649h-91.366a25.618 25.618 0 01-3.135 0 26.126 26.126 0 01-.987-52.243v.522z" opacity=".47"/><path d="M912.518 1.395a15.673 15.673 0 0129.546-5.108 12.248 12.248 0 0116.544 11.61h.638a9.607 9.607 0 110 19.213H913.04c-7.02.128-12.816-5.46-12.944-12.48-.128-7.021 5.46-12.817 12.48-12.945l-.058-.29z" opacity=".17"/><path d="M1211.231 15.733a15.673 15.673 0 0129.488-5.283 12.248 12.248 0 0116.544 11.61h.638a9.607 9.607 0 110 19.214h-46.148c-7.02.144-12.829-5.43-12.973-12.452-.144-7.02 5.43-12.829 12.451-12.973v-.116z" opacity=".21"/><path d="M1002.318 47.31c1.994-17.012 14.884-30.717 31.742-33.75 16.859-3.032 33.716 5.322 41.514 20.574a30.475 30.475 0 0141.098 28.385h1.567c13.176 0 23.857 10.682 23.857 23.858s-10.681 23.857-23.857 23.857h-110.871a31.984 31.984 0 01-3.831 0c-16.967-.322-30.646-13.995-30.973-30.962-.328-16.967 12.812-31.159 29.754-32.136v.175z" opacity=".31"/></g><g fill-rule="nonzero"><path d="M369.733 152.999l-27.304 42.303a50.975 50.975 0 0027.304-42.303h0z" stroke="#53B2E4" fill="url(#b)" transform="translate(534.672 19.617)"/><path d="M242.237 40.21a67.38 67.38 0 00-13.652-20.097l-13.593 25.135 27.245-5.038z" stroke="#59BBEB" fill="url(#c)" transform="translate(534.672 19.617)"/><path d="M228.585 20.113a66.853 66.853 0 00-68.962-16.64l55.369 41.775 13.593-25.135z" stroke="#59BAEA" fill="url(#d)" transform="translate(534.672 19.617)"/><path d="M318.055 107.297l.703-5.86h-1.055v-2.46a50.155 50.155 0 00-71.072-45.35 66.677 66.677 0 00-4.335-13.417l-27.246 5.038 103.005 62.05z" stroke="#5ABAEA" fill="url(#e)" transform="translate(534.672 19.617)"/><path d="M330.008 102.375a49.393 49.393 0 00-9.317-.937h-1.875l-.703 5.86 11.895-4.923z" stroke="#58B6E7" fill="url(#f)" transform="translate(534.672 19.617)"/><path d="M330.008 102.375l-11.719 4.863 11.015 92.575h.41a47.928 47.928 0 0012.95-4.57l27.303-42.303v-2.285c-.005-23.598-16.778-43.864-39.96-48.28z" stroke="#5BB7E8" fill="url(#g)" transform="translate(534.672 19.617)"/><path stroke="#57B4E5" fill="url(#h)" d="M100.972 199.872h23.144l-5.8-7.441z" transform="translate(534.672 19.617)"/><path stroke="#60C5F1" fill="url(#i)" d="M221.32 167.178l96.735-59.88-103.063-62.05z" transform="translate(534.672 19.617)"/><path stroke="#58B6E7" fill="url(#j)" d="M221.32 167.178l77.165 32.694h30.585l-11.015-92.575z" transform="translate(534.672 19.617)"/><path stroke="#55B5E6" fill="url(#k)" d="M44.666 130.382l-5.274 69.49h61.58l17.343-7.441z" transform="translate(534.672 19.617)"/><path d="M40.506 95.93a71.482 71.482 0 00-7.793 32.05v4.453l11.718-2.05-3.925-34.453z" stroke="#5DBEED" fill="url(#l)" transform="translate(534.672 19.617)"/><path d="M33.123 132.726v2.168h-.41c-18.024 0-32.636 14.611-32.636 32.635 0 18.025 14.612 32.636 32.636 32.636h6.504l5.214-69.783-11.308 2.344z" stroke="#52AFE3" fill="url(#m)" transform="translate(534.672 19.617)"/><path d="M40.506 95.93l3.925 34.452 113.551-42.069L65.817 67.63a72.068 72.068 0 00-25.311 28.3z" stroke="#5ABAEA" fill="url(#n)" transform="translate(534.672 19.617)"/><path d="M116.968 46.127a66.97 66.97 0 00-2.637 10.43 70.31 70.31 0 00-48.514 10.84l92.458 20.74-41.307-42.01z" stroke="#59B4E6" fill="url(#o)" transform="translate(534.672 19.617)"/><path stroke="#50ADE2" fill="url(#p)" d="M44.666 130.382l73.65 62.049 39.9-104.06z" transform="translate(534.672 19.617)"/><path d="M155.287 5.054a67.38 67.38 0 00-38.32 41.015l41.015 42.186-2.695-83.2z" stroke="#5CC3F0" fill="url(#q)" transform="translate(534.672 19.617)"/><path stroke="#59B8E9" fill="url(#r)" d="M118.315 192.43l103.005-25.252-63.104-78.806z" transform="translate(534.672 19.617)"/><path d="M214.992 45.248l-55.37-41.776c-1.464.47-2.929.997-4.394 1.582l2.988 83.26 56.776-43.066z" stroke="#50ABE0" fill="url(#s)" transform="translate(534.672 19.617)"/><path stroke="#54B5E7" fill="url(#t)" d="M158.216 88.372l63.104 78.806-6.328-121.93z" transform="translate(534.672 19.617)"/><path stroke="#53B3E6" fill="url(#u)" d="M124.116 199.872h8.496l-14.297-7.441z" transform="translate(534.672 19.617)"/><path stroke="#50ABE0" fill="url(#v)" d="M118.315 192.43l14.297 7.442h83.493l5.215-32.694z" transform="translate(534.672 19.617)"/><path stroke="#59B6E8" fill="url(#w)" d="M216.105 199.872h82.38l-77.165-32.694z" transform="translate(534.672 19.617)"/></g><text font-family="Millar-Regular4, Millar" font-size="36" fill="#000" transform="translate(0 -13)"><tspan x="533.178" y="293.25">MEDIA CLOUD SETUP</tspan></text></g></svg>