<svg width="1440" height="100" xmlns="http://www.w3.org/2000/svg" xmlns:xlink="http://www.w3.org/1999/xlink"><defs><linearGradient x1="-93.348%" y1="-139.197%" x2="296.781%" y2="376.87%" id="d"><stop stop-color="#51AFE3" offset="0%"/><stop stop-color="#55B5E6" offset="100%"/></linearGradient><linearGradient x1="-167.957%" y1="-106.294%" x2="250.108%" y2="250.35%" id="e"><stop stop-color="#5BBEEC" offset="0%"/><stop stop-color="#57B8E9" offset="100%"/></linearGradient><linearGradient x1="-24.554%" y1="-69.719%" x2="132.965%" y2="128.502%" id="f"><stop stop-color="#58BAEA" offset="0%"/><stop stop-color="#5ABAEA" offset="100%"/></linearGradient><linearGradient x1="-29.091%" y1="10206%" x2="-21.558%" y2="10188%" id="g"><stop stop-color="#58BAEA" offset="0%"/><stop stop-color="#5ABAEA" offset="100%"/></linearGradient><linearGradient x1="-405.419%" y1="-706%" x2="525.616%" y2="716%" id="h"><stop stop-color="#57B3E5" offset="0%"/><stop stop-color="#59B8E8" offset="100%"/></linearGradient><linearGradient x1="-46.032%" y1="-10.704%" x2="168.254%" y2="145.159%" id="i"><stop stop-color="#59B5E6" offset="0%"/><stop stop-color="#5CBAEA" offset="100%"/></linearGradient><linearGradient x1="-150.127%" y1="-269.291%" x2="469.62%" y2="793.701%" id="j"><stop stop-color="#55B3E5" offset="0%"/><stop stop-color="#5BB6E7" offset="100%"/></linearGradient><linearGradient x1="-10.404%" y1="12.062%" x2="89.881%" y2="112.398%" id="k"><stop stop-color="#66C7F2" offset="0%"/><stop stop-color="#5CC3F0" offset="100%"/></linearGradient><linearGradient x1="9.516%" y1="-7.089%" x2="111.31%" y2="107.975%" id="l"><stop stop-color="#5AB9E9" offset="0%"/><stop stop-color="#54B1E4" offset="100%"/></linearGradient><linearGradient x1="-9.503%" y1="14.671%" x2="93.393%" y2="154.3%" id="m"><stop stop-color="#5DB9E9" offset="0%"/><stop stop-color="#51B3E5" offset="100%"/></linearGradient><linearGradient x1="-612.5%" y1="-136.437%" x2="206.5%" y2="100.482%" id="n"><stop stop-color="#63C6F1" offset="0%"/><stop stop-color="#5BBBEB" offset="100%"/></linearGradient><linearGradient x1="-64.201%" y1="-31.738%" x2="152.18%" y2="99.58%" id="o"><stop stop-color="#53B0E4" offset="0%"/><stop stop-color="#51AFE3" offset="100%"/></linearGradient><linearGradient x1="34.877%" y1="10269%" x2="39.728%" y2="10251%" id="p"><stop stop-color="#58BAEA" offset="0%"/><stop stop-color="#5ABAEA" offset="100%"/></linearGradient><linearGradient x1="-46.324%" y1="-102.092%" x2="85.995%" y2="128.87%" id="q"><stop stop-color="#5DB6E7" offset="0%"/><stop stop-color="#58B4E6" offset="100%"/></linearGradient><linearGradient x1="14.964%" y1="-17.061%" x2="115.273%" y2="83.277%" id="r"><stop stop-color="#4FAFE3" offset="0%"/><stop stop-color="#50ABE0" offset="100%"/></linearGradient><linearGradient x1="-52%" y1="2508.505%" x2="-34%" y2="2504.131%" id="s"><stop stop-color="#66C7F2" offset="0%"/><stop stop-color="#5CC3F0" offset="100%"/></linearGradient><linearGradient x1="-16.212%" y1="16.385%" x2="84.13%" y2="116.723%" id="t"><stop stop-color="#58B7E8" offset="0%"/><stop stop-color="#59B9E9" offset="100%"/></linearGradient><linearGradient x1="-272%" y1="5074.1%" x2="-254%" y2="5065.168%" id="u"><stop stop-color="#4FAFE3" offset="0%"/><stop stop-color="#50ABE0" offset="100%"/></linearGradient><linearGradient x1="16.342%" y1="-15.81%" x2="111.049%" y2="84.527%" id="v"><stop stop-color="#56BAEA" offset="0%"/><stop stop-color="#52B1E4" offset="100%"/></linearGradient><linearGradient x1="22.131%" y1="-33.071%" x2="628.279%" y2="1029.921%" id="w"><stop stop-color="#53B3E6" offset="0%"/><stop stop-color="#54B0E4" offset="100%"/></linearGradient><linearGradient x1="36.601%" y1="10386%" x2="38.414%" y2="10368%" id="x"><stop stop-color="#4FAFE3" offset="0%"/><stop stop-color="#50ABE0" offset="100%"/></linearGradient><linearGradient x1="-10.455%" y1="10.036%" x2="136.771%" y2="232.616%" id="y"><stop stop-color="#59B8E9" offset="0%"/><stop stop-color="#59B5E7" offset="100%"/></linearGradient><radialGradient cx="6.178%" cy="53.11%" fx="6.178%" fy="53.11%" r="93.391%" gradientTransform="matrix(.06944 .00628 -.00044 .99998 .058 0)" id="c"><stop stop-color="#E9E5E5" offset="0%"/><stop stop-color="#E8E8E8" offset="37%"/><stop stop-color="#E4E4E2" offset="100%"/></radialGradient><path id="a" d="M0 0h1440v100H0z"/></defs><g fill="none" fill-rule="evenodd"><mask id="b" fill="#fff"><use xlink:href="#a"/></mask><use fill="#D8D8D8" xlink:href="#a"/><g mask="url(#b)"><path fill="url(#c)" fill-rule="nonzero" d="M0 34h1440v100H0z" transform="translate(0 -34)"/><g fill="#FFF" fill-rule="nonzero"><path d="M186.12 79.646c-2.297-19.3-16.937-34.83-36.067-38.262-19.13-3.43-38.256 6.045-47.116 23.344A34.829 34.829 0 0056.5 96.944h-1.741c-14.44.621-25.841 12.485-25.888 26.938-.046 14.453 11.278 26.39 25.714 27.104h125.789a35.815 35.815 0 105.805-71.34h-.058z" opacity=".39"/><path d="M525.292 10.395a15.673 15.673 0 00-29.546-5.108 12.248 12.248 0 00-16.544 11.61h-.639a9.607 9.607 0 100 19.213h46.206c7.021.128 12.817-5.46 12.945-12.48.128-7.021-5.46-12.817-12.48-12.945l.058-.29z" opacity=".17"/><path d="M226.579 24.733a15.673 15.673 0 00-29.488-5.283 12.248 12.248 0 00-16.544 11.61h-.639a9.607 9.607 0 100 19.214h46.149c7.02.144 12.829-5.43 12.973-12.452.144-7.02-5.43-12.829-12.451-12.973v-.116z" opacity=".21"/><path d="M435.492 56.31c-1.994-17.012-14.884-30.717-31.742-33.75-16.859-3.032-33.717 5.322-41.514 20.574a30.475 30.475 0 00-41.098 28.385h-1.567c-13.176 0-23.858 10.682-23.858 23.858s10.682 23.857 23.858 23.857h110.871c1.276.077 2.555.077 3.831 0 16.967-.322 30.645-13.995 30.973-30.962.328-16.967-12.812-31.159-29.754-32.136v.175z" opacity=".31"/></g><g fill="#FFF" fill-rule="nonzero"><path d="M891.69 49.646c2.297-19.3 16.937-34.83 36.067-38.262 19.13-3.43 38.256 6.045 47.116 23.344a34.829 34.829 0 0146.438 32.216h1.741c14.44.621 25.841 12.485 25.888 26.938.046 14.453-11.278 26.39-25.714 27.104H897.437a35.815 35.815 0 11-5.805-71.34h.058z" opacity=".39"/><path d="M529.473 99.102a32.042 32.042 0 0160.37-10.797 25.135 25.135 0 0133.841 23.22h1.277c10.438.567 18.61 9.196 18.61 19.649 0 10.452-8.172 19.081-18.61 19.649h-91.366a25.618 25.618 0 01-3.135 0 26.126 26.126 0 01-.987-52.243v.522z" opacity=".47"/><path d="M552.518-19.605a15.673 15.673 0 0129.546-5.108 12.248 12.248 0 0116.544 11.61h.638a9.607 9.607 0 110 19.213H553.04c-7.02.128-12.816-5.46-12.944-12.48-.128-7.021 5.46-12.817 12.48-12.945l-.058-.29z" opacity=".17"/><path d="M811.231 14.733A15.673 15.673 0 01840.72 9.45a12.248 12.248 0 0116.544 11.61h.638a9.607 9.607 0 110 19.214h-46.149c-7.02.144-12.829-5.43-12.973-12.452-.144-7.02 5.43-12.829 12.451-12.973v-.116z" opacity=".21"/><path d="M642.318 26.31c1.994-17.012 14.884-30.717 31.742-33.75 16.859-3.032 33.716 5.322 41.514 20.574a30.475 30.475 0 0141.098 28.385h1.567c13.176 0 23.857 10.682 23.857 23.858s-10.681 23.857-23.857 23.857H647.368a31.984 31.984 0 01-3.831 0c-16.967-.322-30.646-13.995-30.973-30.962-.328-16.967 12.812-31.159 29.754-32.136v.175z" opacity=".31"/></g><g fill="#FFF" fill-rule="nonzero"><path d="M1260.358 79.646c-2.296-19.3-16.937-34.83-36.067-38.262-19.13-3.43-38.256 6.045-47.115 23.344a34.829 34.829 0 00-46.439 32.216h-1.741c-14.44.621-25.84 12.485-25.887 26.938-.047 14.453 11.277 26.39 25.713 27.104h125.79a35.815 35.815 0 105.804-71.34h-.058z" opacity=".39"/><path d="M1300.817 24.733a15.673 15.673 0 00-29.488-5.283 12.248 12.248 0 00-16.544 11.61h-.638a9.607 9.607 0 100 19.214h46.148c7.02.144 12.829-5.43 12.973-12.452.144-7.02-5.43-12.829-12.451-12.973v-.116z" opacity=".21"/><path d="M1509.73 56.31c-1.994-17.012-14.883-30.717-31.742-33.75-16.859-3.032-33.716 5.322-41.514 20.574a30.475 30.475 0 00-41.097 28.385h-1.568c-13.176 0-23.857 10.682-23.857 23.858s10.681 23.857 23.857 23.857h110.871c1.276.077 2.555.077 3.831 0 16.967-.322 30.646-13.995 30.974-30.962.327-16.967-12.813-31.159-29.755-32.136v.175z" opacity=".31"/></g><g fill-rule="nonzero"><path d="M123.948 51.29l-9.153 14.183a17.089 17.089 0 009.153-14.182h0z" stroke="#53B2E4" fill="url(#d)" transform="translate(28.786 15)"/><path d="M81.207 13.48a22.589 22.589 0 00-4.577-6.738l-4.557 8.427 9.134-1.69z" stroke="#59BBEB" fill="url(#e)" transform="translate(28.786 15)"/><path d="M76.63 6.742a22.412 22.412 0 00-23.118-5.578L72.073 15.17l4.557-8.427z" stroke="#59BAEA" fill="url(#f)" transform="translate(28.786 15)"/><path d="M106.624 35.97l.236-1.964h-.354v-.825A16.814 16.814 0 0082.68 17.978a22.353 22.353 0 00-1.453-4.498l-9.134 1.689 34.531 20.801z" stroke="#5ABAEA" fill="url(#g)" transform="translate(28.786 15)"/><path d="M110.631 34.32a16.558 16.558 0 00-3.123-.314h-.629l-.235 1.964 3.987-1.65z" stroke="#58B6E7" fill="url(#h)" transform="translate(28.786 15)"/><path d="M110.631 34.32l-3.928 1.63 3.692 31.035h.138c1.513-.3 2.975-.816 4.34-1.532l9.154-14.182v-.766a16.48 16.48 0 00-13.396-16.185z" stroke="#5BB7E8" fill="url(#i)" transform="translate(28.786 15)"/><path stroke="#57B4E5" fill="url(#j)" d="M33.85 67.005h7.758l-1.944-2.495z" transform="translate(28.786 15)"/><path stroke="#60C5F1" fill="url(#k)" d="M74.195 56.044l32.429-20.074-34.55-20.801z" transform="translate(28.786 15)"/><path stroke="#58B6E7" fill="url(#l)" d="M74.195 56.044l25.869 10.96h10.253l-3.693-31.034z" transform="translate(28.786 15)"/><path stroke="#55B5E6" fill="url(#m)" d="M14.974 43.71l-1.768 23.295H33.85l5.814-2.495z" transform="translate(28.786 15)"/><path d="M13.579 32.16a23.963 23.963 0 00-2.612 10.744v1.493l3.928-.688-1.316-11.55z" stroke="#5DBEED" fill="url(#n)" transform="translate(28.786 15)"/><path d="M11.104 44.495v.727h-.137C4.924 45.222.026 50.12.026 56.162c0 6.043 4.898 10.94 10.94 10.94h2.18l1.749-23.393-3.79.786z" stroke="#52AFE3" fill="url(#o)" transform="translate(28.786 15)"/><path d="M13.579 32.16l1.316 11.55 38.067-14.104-30.898-6.934a24.16 24.16 0 00-8.485 9.487z" stroke="#5ABAEA" fill="url(#p)" transform="translate(28.786 15)"/><path d="M39.212 15.464a22.451 22.451 0 00-.884 3.496 23.57 23.57 0 00-16.264 3.634l30.996 6.953-13.848-14.083z" stroke="#59B4E6" fill="url(#q)" transform="translate(28.786 15)"/><path stroke="#50ADE2" fill="url(#r)" d="M14.974 43.71l24.69 20.8L53.04 29.626z" transform="translate(28.786 15)"/><path d="M52.058 1.694a22.589 22.589 0 00-12.846 13.75l13.75 14.142-.904-27.892z" stroke="#5CC3F0" fill="url(#s)" transform="translate(28.786 15)"/><path stroke="#59B8E9" fill="url(#t)" d="M39.664 64.51l34.53-8.466L53.04 29.626z" transform="translate(28.786 15)"/><path d="M72.073 15.169L53.512 1.164c-.492.157-.983.334-1.474.53l1.002 27.912 19.033-14.437z" stroke="#50ABE0" fill="url(#u)" transform="translate(28.786 15)"/><path stroke="#54B5E7" fill="url(#v)" d="M53.04 29.626l21.155 26.418-2.122-40.875z" transform="translate(28.786 15)"/><path stroke="#53B3E6" fill="url(#w)" d="M41.608 67.005h2.849l-4.793-2.495z" transform="translate(28.786 15)"/><path stroke="#50ABE0" fill="url(#x)" d="M39.664 64.51l4.793 2.495h27.99l1.748-10.96z" transform="translate(28.786 15)"/><path stroke="#59B6E8" fill="url(#y)" d="M72.447 67.005h27.617l-25.87-10.96z" transform="translate(28.786 15)"/></g><text font-family="Millar-Regular4, Millar" font-size="28" transform="translate(0 -34)"><tspan x="184.694" y="91.25" fill="#000">MEDIA CLOUD SETUP</tspan></text></g></g></svg>