<svg width="67" height="81" xmlns="http://www.w3.org/2000/svg"><g fill="none"><path fill="#8C3123" d="M5.607 14.65l-5.3 2.7v46.36l5.3 2.7L18.62 40.481z"/><path fill="#E05243" d="M33.174 59.662L5.607 66.41V14.65l27.567 6.65 13.012 19.278z"/><path fill="#8C3123" d="M33.174 59.662L60.74 66.41l4.723-25.253L60.74 14.65 33.174 21.3z"/><path fill="#E05243" d="M60.74 14.65l5.301 2.7v46.36l-5.301 2.7z"/><path fill="#8C3123" d="M21.125 49.06l12.049 1.542 9.542-10.024-9.542-10.024-12.049 1.542z"/><path fill="#5E1F18" d="M45.222 23.903L33.174 26.12l-12.049-2.217L33.174.867z"/><path fill="#F2B0A9" d="M45.222 57.253l-12.048-2.217-12.049 2.217 12.049 23.036z"/><path fill="#E05243" d="M45.222 23.903l-12.048-2.988V.867L45.222 6.94z"/><path fill="#8C3123" d="M21.125 23.903l12.049-2.988V.867L21.125 6.94z"/><path fill="#E05243" d="M33.174 80.289l12.048-6.072V57.253L33.174 60.24z"/><path fill="#8C3123" d="M33.174 80.289l-12.049-6.072V57.253l12.049 2.988z"/><path fill="#E05243" d="M45.222 49.06l-12.048 1.542V30.554l12.048 1.542z"/></g></svg>