<svg width="126" height="94" xmlns="http://www.w3.org/2000/svg"><defs><linearGradient x1="-93.348%" y1="-139.197%" x2="296.781%" y2="376.87%" id="a"><stop stop-color="#51AFE3" offset="0%"/><stop stop-color="#55B5E6" offset="100%"/></linearGradient><linearGradient x1="-167.957%" y1="-106.294%" x2="250.108%" y2="250.35%" id="b"><stop stop-color="#5BBEEC" offset="0%"/><stop stop-color="#57B8E9" offset="100%"/></linearGradient><linearGradient x1="-24.554%" y1="-69.719%" x2="132.965%" y2="128.502%" id="c"><stop stop-color="#58BAEA" offset="0%"/><stop stop-color="#5ABAEA" offset="100%"/></linearGradient><linearGradient x1="-29.091%" y1="10206%" x2="-21.558%" y2="10188%" id="d"><stop stop-color="#58BAEA" offset="0%"/><stop stop-color="#5ABAEA" offset="100%"/></linearGradient><linearGradient x1="-405.419%" y1="-706%" x2="525.616%" y2="716%" id="e"><stop stop-color="#57B3E5" offset="0%"/><stop stop-color="#59B8E8" offset="100%"/></linearGradient><linearGradient x1="-46.032%" y1="-10.704%" x2="168.254%" y2="145.159%" id="f"><stop stop-color="#59B5E6" offset="0%"/><stop stop-color="#5CBAEA" offset="100%"/></linearGradient><linearGradient x1="-150.127%" y1="-269.291%" x2="469.62%" y2="793.701%" id="g"><stop stop-color="#55B3E5" offset="0%"/><stop stop-color="#5BB6E7" offset="100%"/></linearGradient><linearGradient x1="-10.404%" y1="12.062%" x2="89.881%" y2="112.398%" id="h"><stop stop-color="#66C7F2" offset="0%"/><stop stop-color="#5CC3F0" offset="100%"/></linearGradient><linearGradient x1="9.516%" y1="-7.089%" x2="111.31%" y2="107.975%" id="i"><stop stop-color="#5AB9E9" offset="0%"/><stop stop-color="#54B1E4" offset="100%"/></linearGradient><linearGradient x1="-9.503%" y1="14.671%" x2="93.393%" y2="154.3%" id="j"><stop stop-color="#5DB9E9" offset="0%"/><stop stop-color="#51B3E5" offset="100%"/></linearGradient><linearGradient x1="-612.5%" y1="-136.437%" x2="206.5%" y2="100.482%" id="k"><stop stop-color="#63C6F1" offset="0%"/><stop stop-color="#5BBBEB" offset="100%"/></linearGradient><linearGradient x1="-64.201%" y1="-31.738%" x2="152.18%" y2="99.58%" id="l"><stop stop-color="#53B0E4" offset="0%"/><stop stop-color="#51AFE3" offset="100%"/></linearGradient><linearGradient x1="34.877%" y1="10269%" x2="39.728%" y2="10251%" id="m"><stop stop-color="#58BAEA" offset="0%"/><stop stop-color="#5ABAEA" offset="100%"/></linearGradient><linearGradient x1="-46.324%" y1="-102.092%" x2="85.995%" y2="128.87%" id="n"><stop stop-color="#5DB6E7" offset="0%"/><stop stop-color="#58B4E6" offset="100%"/></linearGradient><linearGradient x1="14.964%" y1="-17.061%" x2="115.273%" y2="83.277%" id="o"><stop stop-color="#4FAFE3" offset="0%"/><stop stop-color="#50ABE0" offset="100%"/></linearGradient><linearGradient x1="-52%" y1="2508.505%" x2="-34%" y2="2504.131%" id="p"><stop stop-color="#66C7F2" offset="0%"/><stop stop-color="#5CC3F0" offset="100%"/></linearGradient><linearGradient x1="-16.212%" y1="16.385%" x2="84.13%" y2="116.723%" id="q"><stop stop-color="#58B7E8" offset="0%"/><stop stop-color="#59B9E9" offset="100%"/></linearGradient><linearGradient x1="-272%" y1="5074.1%" x2="-254%" y2="5065.168%" id="r"><stop stop-color="#4FAFE3" offset="0%"/><stop stop-color="#50ABE0" offset="100%"/></linearGradient><linearGradient x1="16.342%" y1="-15.81%" x2="111.049%" y2="84.527%" id="s"><stop stop-color="#56BAEA" offset="0%"/><stop stop-color="#52B1E4" offset="100%"/></linearGradient><linearGradient x1="22.131%" y1="-33.071%" x2="628.279%" y2="1029.921%" id="t"><stop stop-color="#53B3E6" offset="0%"/><stop stop-color="#54B0E4" offset="100%"/></linearGradient><linearGradient x1="36.601%" y1="10386%" x2="38.414%" y2="10368%" id="u"><stop stop-color="#4FAFE3" offset="0%"/><stop stop-color="#50ABE0" offset="100%"/></linearGradient><linearGradient x1="-10.455%" y1="10.036%" x2="136.771%" y2="232.616%" id="v"><stop stop-color="#59B8E9" offset="0%"/><stop stop-color="#59B5E7" offset="100%"/></linearGradient></defs><g fill="none" fill-rule="evenodd"><g fill-rule="nonzero"><path d="M123.948 51.29l-9.153 14.183a17.089 17.089 0 009.153-14.182z" stroke="#53B2E4" fill="url(#a)" transform="translate(1 1)"/><path d="M81.207 13.48a22.589 22.589 0 00-4.577-6.738l-4.557 8.427 9.134-1.69z" stroke="#59BBEB" fill="url(#b)" transform="translate(1 1)"/><path d="M76.63 6.742a22.412 22.412 0 00-23.118-5.578L72.073 15.17l4.557-8.427z" stroke="#59BAEA" fill="url(#c)" transform="translate(1 1)"/><path d="M106.624 35.97l.236-1.964h-.354v-.825A16.814 16.814 0 0082.68 17.978a22.353 22.353 0 00-1.453-4.498l-9.134 1.689 34.531 20.801z" stroke="#5ABAEA" fill="url(#d)" transform="translate(1 1)"/><path d="M110.631 34.32a16.558 16.558 0 00-3.123-.314h-.629l-.235 1.964 3.987-1.65z" stroke="#58B6E7" fill="url(#e)" transform="translate(1 1)"/><path d="M110.631 34.32l-3.928 1.63 3.692 31.035h.138c1.513-.3 2.975-.816 4.34-1.532l9.154-14.182v-.766a16.48 16.48 0 00-13.396-16.185z" stroke="#5BB7E8" fill="url(#f)" transform="translate(1 1)"/><path stroke="#57B4E5" fill="url(#g)" d="M33.85 67.005h7.758l-1.944-2.495z" transform="translate(1 1)"/><path stroke="#60C5F1" fill="url(#h)" d="M74.195 56.044l32.429-20.074-34.55-20.801z" transform="translate(1 1)"/><path stroke="#58B6E7" fill="url(#i)" d="M74.195 56.044l25.869 10.96h10.253l-3.693-31.034z" transform="translate(1 1)"/><path stroke="#55B5E6" fill="url(#j)" d="M14.974 43.71l-1.768 23.295H33.85l5.814-2.495z" transform="translate(1 1)"/><path d="M13.579 32.16a23.963 23.963 0 00-2.612 10.744v1.493l3.928-.688-1.316-11.55z" stroke="#5DBEED" fill="url(#k)" transform="translate(1 1)"/><path d="M11.104 44.495v.727h-.137C4.924 45.222.026 50.12.026 56.162c0 6.043 4.898 10.94 10.94 10.94h2.18l1.749-23.393-3.79.786z" stroke="#52AFE3" fill="url(#l)" transform="translate(1 1)"/><path d="M13.579 32.16l1.316 11.55 38.067-14.104-30.898-6.934a24.16 24.16 0 00-8.485 9.487z" stroke="#5ABAEA" fill="url(#m)" transform="translate(1 1)"/><path d="M39.212 15.464a22.451 22.451 0 00-.884 3.496 23.57 23.57 0 00-16.264 3.634l30.996 6.953-13.848-14.083z" stroke="#59B4E6" fill="url(#n)" transform="translate(1 1)"/><path stroke="#50ADE2" fill="url(#o)" d="M14.974 43.71l24.69 20.8L53.04 29.626z" transform="translate(1 1)"/><path d="M52.058 1.694a22.589 22.589 0 00-12.846 13.75l13.75 14.142-.904-27.892z" stroke="#5CC3F0" fill="url(#p)" transform="translate(1 1)"/><path stroke="#59B8E9" fill="url(#q)" d="M39.664 64.51l34.53-8.466L53.04 29.626z" transform="translate(1 1)"/><path d="M72.073 15.169L53.512 1.164c-.492.157-.983.334-1.474.53l1.002 27.912 19.033-14.437z" stroke="#50ABE0" fill="url(#r)" transform="translate(1 1)"/><path stroke="#54B5E7" fill="url(#s)" d="M53.04 29.626l21.155 26.418-2.122-40.875z" transform="translate(1 1)"/><path stroke="#53B3E6" fill="url(#t)" d="M41.608 67.005h2.849l-4.793-2.495z" transform="translate(1 1)"/><path stroke="#50ABE0" fill="url(#u)" d="M39.664 64.51l4.793 2.495h27.99l1.748-10.96z" transform="translate(1 1)"/><path stroke="#59B6E8" fill="url(#v)" d="M72.447 67.005h27.617l-25.87-10.96z" transform="translate(1 1)"/></g><text font-family="BentonSans-Light, BentonSans" font-size="19" font-weight="300" fill="#000" transform="translate(-1 1)"><tspan x=".245" y="92">MEDIA CLOUD</tspan></text></g></svg>