<svg width="51" height="80" xmlns="http://www.w3.org/2000/svg"><g fill="none"><path d="M26.692 76.31l-5.274 3.337V45.202c-.539-.216-1.077-.323-1.615-.539-7.427-2.475-12.164-6.673-13.348-11.84-.969-4.198.538-8.612 4.198-12.056 3.337-3.23 7.858-6.89 11.626-9.795 1.291-1.077 2.475-1.938 3.444-2.8.861-.753.646-1.83.215-2.26-.645-.753-1.722-.646-2.475-.107L21.31 7.419l-3.23-4.305s2.046-1.507 2.153-1.615c3.122-2.26 7.32-1.83 9.688.969 1.184 1.4 1.723 3.23 1.615 5.059-.215 1.83-1.077 3.552-2.476 4.736-.969.754-2.153 1.723-3.444 2.799-3.66 2.906-8.074 6.458-11.195 9.472-2.26 2.153-3.23 4.737-2.691 7.105.753 3.23 4.198 6.028 9.795 7.965V22.382c14.855 5.166 25.511 22.82 28.956 32.615 0 0-15.5-5.274-23.789-8.073V76.31zm0-34.876c4.629 1.507 10.01 3.445 14.101 4.736-4.413-7.857-10.333-12.7-14.101-15.177v10.441z" fill="#4D4D4D"/><path fill="#000" d="M26.692 50.476l-5.274-1.83v-3.444l5.274 1.83z"/><path d="M1.18 20.336c-.107.108-.214 0-.322 0-.108-.107 0-.215 0-.323 1.83-1.722 9.15-8.826 17.223-16.792l3.229 4.306c0-.108-19.914 12.594-20.13 12.81z" fill="#F15A24"/></g></svg>