<svg xmlns="http://www.w3.org/2000/svg" viewBox="0 0 126 94"><defs><linearGradient x1="-93.348%" y1="-139.197%" x2="296.781%" y2="376.87%" id="a"><stop stop-color="#51AFE3" offset="0%"/><stop stop-color="#55B5E6" offset="100%"/></linearGradient><linearGradient x1="-167.957%" y1="-106.294%" x2="250.108%" y2="250.35%" id="b"><stop stop-color="#5BBEEC" offset="0%"/><stop stop-color="#57B8E9" offset="100%"/></linearGradient><linearGradient x1="-24.554%" y1="-69.719%" x2="132.965%" y2="128.502%" id="c"><stop stop-color="#58BAEA" offset="0%"/><stop stop-color="#5ABAEA" offset="100%"/></linearGradient><linearGradient x1="-29.091%" y1="10206%" x2="-21.558%" y2="10188%" id="d"><stop stop-color="#58BAEA" offset="0%"/><stop stop-color="#5ABAEA" offset="100%"/></linearGradient><linearGradient x1="-405.419%" y1="-706%" x2="525.616%" y2="716%" id="e"><stop stop-color="#57B3E5" offset="0%"/><stop stop-color="#59B8E8" offset="100%"/></linearGradient><linearGradient x1="-46.032%" y1="-10.704%" x2="168.254%" y2="145.159%" id="f"><stop stop-color="#59B5E6" offset="0%"/><stop stop-color="#5CBAEA" offset="100%"/></linearGradient><linearGradient x1="-150.127%" y1="-269.291%" x2="469.62%" y2="793.701%" id="g"><stop stop-color="#55B3E5" offset="0%"/><stop stop-color="#5BB6E7" offset="100%"/></linearGradient><linearGradient x1="-10.404%" y1="12.062%" x2="89.881%" y2="112.398%" id="h"><stop stop-color="#66C7F2" offset="0%"/><stop stop-color="#5CC3F0" offset="100%"/></linearGradient><linearGradient x1="9.516%" y1="-7.089%" x2="111.31%" y2="107.975%" id="i"><stop stop-color="#5AB9E9" offset="0%"/><stop stop-color="#54B1E4" offset="100%"/></linearGradient><linearGradient x1="-9.503%" y1="14.671%" x2="93.393%" y2="154.3%" id="j"><stop stop-color="#5DB9E9" offset="0%"/><stop stop-color="#51B3E5" offset="100%"/></linearGradient><linearGradient x1="-612.5%" y1="-136.437%" x2="206.5%" y2="100.482%" id="k"><stop stop-color="#63C6F1" offset="0%"/><stop stop-color="#5BBBEB" offset="100%"/></linearGradient><linearGradient x1="-64.201%" y1="-31.738%" x2="152.18%" y2="99.58%" id="l"><stop stop-color="#53B0E4" offset="0%"/><stop stop-color="#51AFE3" offset="100%"/></linearGradient><linearGradient x1="34.877%" y1="10269%" x2="39.728%" y2="10251%" id="m"><stop stop-color="#58BAEA" offset="0%"/><stop stop-color="#5ABAEA" offset="100%"/></linearGradient><linearGradient x1="-46.324%" y1="-102.092%" x2="85.995%" y2="128.87%" id="n"><stop stop-color="#5DB6E7" offset="0%"/><stop stop-color="#58B4E6" offset="100%"/></linearGradient><linearGradient x1="14.964%" y1="-17.061%" x2="115.273%" y2="83.277%" id="o"><stop stop-color="#4FAFE3" offset="0%"/><stop stop-color="#50ABE0" offset="100%"/></linearGradient><linearGradient x1="-52%" y1="2508.505%" x2="-34%" y2="2504.131%" id="p"><stop stop-color="#66C7F2" offset="0%"/><stop stop-color="#5CC3F0" offset="100%"/></linearGradient><linearGradient x1="-16.212%" y1="16.385%" x2="84.13%" y2="116.723%" id="q"><stop stop-color="#58B7E8" offset="0%"/><stop stop-color="#59B9E9" offset="100%"/></linearGradient><linearGradient x1="-272%" y1="5074.1%" x2="-254%" y2="5065.168%" id="r"><stop stop-color="#4FAFE3" offset="0%"/><stop stop-color="#50ABE0" offset="100%"/></linearGradient><linearGradient x1="16.342%" y1="-15.81%" x2="111.049%" y2="84.527%" id="s"><stop stop-color="#56BAEA" offset="0%"/><stop stop-color="#52B1E4" offset="100%"/></linearGradient><linearGradient x1="22.131%" y1="-33.071%" x2="628.279%" y2="1029.921%" id="t"><stop stop-color="#53B3E6" offset="0%"/><stop stop-color="#54B0E4" offset="100%"/></linearGradient><linearGradient x1="36.601%" y1="10386%" x2="38.414%" y2="10368%" id="u"><stop stop-color="#4FAFE3" offset="0%"/><stop stop-color="#50ABE0" offset="100%"/></linearGradient><linearGradient x1="-10.455%" y1="10.036%" x2="136.771%" y2="232.616%" id="v"><stop stop-color="#59B8E9" offset="0%"/><stop stop-color="#59B5E7" offset="100%"/></linearGradient></defs><g fill="none"><path d="M123.922 51.283l-9.153 14.182a17.089 17.089 0 009.153-14.182z" stroke="#53B2E4" fill="url(#a)" transform="translate(.785 1.008)"/><path d="M81.181 13.472a22.589 22.589 0 00-4.577-6.737l-4.556 8.426 9.133-1.69z" stroke="#59BBEB" fill="url(#b)" transform="translate(.785 1.008)"/><path d="M76.604 6.735a22.412 22.412 0 00-23.118-5.579l18.562 14.005 4.556-8.426z" stroke="#59BAEA" fill="url(#c)" transform="translate(.785 1.008)"/><path d="M106.598 35.962l.236-1.964h-.354v-.825A16.814 16.814 0 0082.654 17.97a22.353 22.353 0 00-1.453-4.498l-9.134 1.69 34.531 20.8z" stroke="#5ABAEA" fill="url(#d)" transform="translate(.785 1.008)"/><path d="M110.605 34.312a16.558 16.558 0 00-3.123-.314h-.629l-.235 1.964 3.987-1.65z" stroke="#58B6E7" fill="url(#e)" transform="translate(.785 1.008)"/><path d="M110.605 34.312l-3.928 1.63 3.692 31.035h.138c1.513-.3 2.975-.816 4.34-1.532l9.154-14.182v-.766a16.48 16.48 0 00-13.396-16.185z" stroke="#5BB7E8" fill="url(#f)" transform="translate(.785 1.008)"/><path stroke="#57B4E5" fill="url(#g)" d="M33.824 66.997h7.758l-1.944-2.495z" transform="translate(.785 1.008)"/><path stroke="#60C5F1" fill="url(#h)" d="M74.169 56.036l32.429-20.074-34.55-20.801z" transform="translate(.785 1.008)"/><path stroke="#58B6E7" fill="url(#i)" d="M74.169 56.036l25.869 10.961h10.253l-3.693-31.035z" transform="translate(.785 1.008)"/><path stroke="#55B5E6" fill="url(#j)" d="M14.948 43.701L13.18 66.997h20.644l5.814-2.495z" transform="translate(.785 1.008)"/><path d="M13.553 32.152a23.963 23.963 0 00-2.612 10.744v1.493l3.928-.688-1.316-11.55z" stroke="#5DBEED" fill="url(#k)" transform="translate(.785 1.008)"/><path d="M11.078 44.487v.727h-.137C4.898 45.214 0 50.112 0 56.154c0 6.043 4.898 10.941 10.94 10.941h2.181l1.748-23.394-3.79.786z" stroke="#52AFE3" fill="url(#l)" transform="translate(.785 1.008)"/><path d="M13.553 32.152l1.316 11.55 38.067-14.104-30.897-6.934a24.16 24.16 0 00-8.486 9.488z" stroke="#5ABAEA" fill="url(#m)" transform="translate(.785 1.008)"/><path d="M39.186 15.456a22.451 22.451 0 00-.884 3.496 23.57 23.57 0 00-16.263 3.634l30.995 6.953-13.848-14.083z" stroke="#59B4E6" fill="url(#n)" transform="translate(.785 1.008)"/><path stroke="#50ADE2" fill="url(#o)" d="M14.948 43.701l24.69 20.801 13.376-34.884z" transform="translate(.785 1.008)"/><path d="M52.032 1.687a22.589 22.589 0 00-12.846 13.749l13.75 14.142-.904-27.891z" stroke="#5CC3F0" fill="url(#p)" transform="translate(.785 1.008)"/><path stroke="#59B8E9" fill="url(#q)" d="M39.638 64.502l34.531-8.466-21.155-26.418z" transform="translate(.785 1.008)"/><path d="M72.048 15.161L53.486 1.156c-.491.157-.982.334-1.474.53l1.002 27.912 19.034-14.437z" stroke="#50ABE0" fill="url(#r)" transform="translate(.785 1.008)"/><path stroke="#54B5E7" fill="url(#s)" d="M53.014 29.618l21.155 26.418-2.121-40.875z" transform="translate(.785 1.008)"/><path stroke="#53B3E6" fill="url(#t)" d="M41.582 66.997h2.849l-4.793-2.495z" transform="translate(.785 1.008)"/><path stroke="#50ABE0" fill="url(#u)" d="M39.638 64.502l4.793 2.495h27.99l1.748-10.961z" transform="translate(.785 1.008)"/><path stroke="#59B6E8" fill="url(#v)" d="M72.421 66.997h27.617L74.169 56.036z" transform="translate(.785 1.008)"/><path d="M2.886 93h1.56V82.656H4.5L8.777 93h1.41l4.277-10.344h.056V93h1.558V79.613H14.15L9.51 90.894h-.056l-4.638-11.28h-1.93zm15.79 0h8.294v-1.503h-6.624v-4.602h6.281v-1.484h-6.28v-4.295h6.623v-1.503h-8.294zm10.494 0h4.499c3.98 0 6.318-2.477 6.318-6.698v-.019c0-4.202-2.357-6.67-6.318-6.67h-4.5V93zm1.67-1.503V81.116h2.717c3.034 0 4.723 1.846 4.723 5.186v.018c0 3.322-1.689 5.177-4.723 5.177H30.84zM42.064 93h1.67V79.613h-1.67zm3.201 0h1.754l1.354-3.832h5.39L55.118 93h1.753L51.9 79.613h-1.652L45.265 93zm5.79-11.383h.037l2.17 6.132h-4.378l2.17-6.132zm16.838 11.606c2.802 0 4.945-1.661 5.455-4.222l.018-.092h-1.688l-.028.083c-.584 1.763-1.883 2.69-3.757 2.69-2.663 0-4.398-2.124-4.398-5.38v-.01c0-3.256 1.726-5.362 4.398-5.362 1.883 0 3.2.946 3.72 2.57l.065.204h1.688l-.018-.093c-.51-2.532-2.672-4.22-5.455-4.22-3.73 0-6.114 2.69-6.114 6.901v.01c0 4.212 2.394 6.92 6.114 6.92zm7.44-.223h8.127v-1.503h-6.457V79.613h-1.67zm15.067.223c3.794 0 6.16-2.663 6.16-6.912v-.019c0-4.24-2.375-6.902-6.16-6.902-3.795 0-6.18 2.663-6.18 6.902v.019c0 4.25 2.376 6.912 6.18 6.912zm0-1.54c-2.746 0-4.472-2.079-4.472-5.372v-.019c0-3.293 1.735-5.362 4.472-5.362 2.727 0 4.453 2.078 4.453 5.362v.019c0 3.266-1.698 5.372-4.453 5.372zm13.563 1.54c3.321 0 5.307-2.004 5.307-4.917v-8.693h-1.67v8.581c0 2.06-1.318 3.489-3.637 3.489-2.32 0-3.655-1.43-3.655-3.489v-8.581h-1.67v8.693c0 2.913 2.004 4.917 5.325 4.917zm7.904-.223h4.5c3.98 0 6.318-2.477 6.318-6.698v-.019c0-4.202-2.357-6.67-6.318-6.67h-4.5V93zm1.67-1.503V81.116h2.719c3.033 0 4.722 1.846 4.722 5.186v.018c0 3.322-1.689 5.177-4.722 5.177h-2.719z" fill="#000"/></g></svg>