<?xml version="1.0" encoding="UTF-8"?>
<svg width="225px" height="225px" viewBox="0 0 225 225" version="1.1" xmlns="http://www.w3.org/2000/svg" xmlns:xlink="http://www.w3.org/1999/xlink">
    <!-- Generator: Sketch 52.3 (67297) - http://www.bohemiancoding.com/sketch -->
    <title>icon-success</title>
    <desc>Created with Sketch.</desc>
    <g id="Page-1" stroke="none" stroke-width="1" fill="none" fill-rule="evenodd">
        <g id="icon-success" fill="#009429">
            <path d="M111.834184,0 L113.248469,0 L113.360969,0.00229591837 C128.697704,0.1125 143.970153,3.37040816 157.982143,9.60612245 C171.137755,15.4354592 183.127041,23.8270408 193.15102,34.144898 C203.866071,45.1653061 212.305867,58.3691327 217.740306,72.7484694 C222.428571,85.0706633 224.846173,98.1987245 225,111.377296 L225,113.707653 C224.841582,125.908163 222.76148,138.067347 218.709184,149.581378 C214.229847,162.420153 207.355867,174.420918 198.599235,184.821429 C189.739286,195.366582 178.932398,204.277041 166.883418,210.953571 C152.478827,218.964031 136.297194,223.718878 119.846939,224.752041 C117.619898,224.910459 115.395153,224.965561 113.165816,225 L111.751531,225 C94.7709184,224.882908 77.8545918,220.904082 62.6533163,213.327551 C52.2688776,208.18699 42.7132653,201.420918 34.3813776,193.373724 C25.1219388,184.431122 17.3846939,173.890561 11.6678571,162.355867 C4.14413265,147.2625 0.169897959,130.483929 0,113.625 L0,111.292347 C0.165306122,97.2413265 2.92729592,83.2431122 8.24693878,70.2321429 C13.6423469,56.9272959 21.6459184,44.6969388 31.6239796,34.3790816 C38.8033163,26.9494898 47.0043367,20.4956633 55.9308673,15.2908163 C72.8081633,5.39081633 92.2706633,0.0964285714 111.834184,0 Z M126.50051,19.7793367 C112.731888,17.7153061 98.5293367,18.7186224 85.2107143,22.7915816 C73.6140306,26.3135204 62.7428571,32.1405612 53.352551,39.797449 C44.7221939,46.8321429 37.3454082,55.3890306 31.6928571,64.9836735 C23.4114796,78.9612245 18.9068878,95.1038265 18.7484694,111.352041 C18.5165816,127.575 22.6056122,143.804847 30.5265306,157.966071 C37.4280612,170.38699 47.2063776,181.205357 58.8512755,189.344388 C70.7992347,197.733673 84.7216837,203.266837 99.1813776,205.305612 C118.434949,208.104337 138.494388,204.736224 155.725255,195.681122 C170.513265,187.9875 183.156888,176.282908 191.996173,162.151531 C196.493878,154.983673 200.018112,147.198214 202.415051,139.082143 C208.219133,119.5875 207.433929,98.240051 200.165051,79.2390306 C193.435714,61.4755102 181.164031,45.9298469 165.503571,35.1918367 C153.890816,27.1859694 140.455102,21.8571429 126.50051,19.7793367 Z" id="Combined-Shape"></path>
            <path d="M172.453316,72.9803571 C174.921429,75.5471939 175.683673,79.452551 174.38648,82.7678571 C173.885969,84.0788265 173.080102,85.2359694 172.079082,86.2117347 C150.651276,107.639541 129.221173,129.069643 107.793367,150.497449 C107.207908,151.059949 106.670663,151.670663 106.096684,152.246939 C104.342602,153.982653 101.902041,155.07551 99.4132653,154.995153 C97.3216837,155.080102 95.202551,154.294898 93.5701531,153.004592 C92.5760204,152.240051 91.8321429,151.26199 90.9091837,150.391837 C78.2494898,137.718367 65.5806122,125.054082 52.9255102,112.382908 C51.6007653,111.106378 50.6479592,109.478571 50.2438776,107.680867 C49.4816327,104.445918 50.5538265,100.933163 53.015051,98.6992347 C55.8091837,96.0681122 60.1369898,95.4459184 63.5579082,97.1931122 C65.2683673,98.015051 66.3497449,99.3214286 67.6744898,100.618622 C78.0061224,110.947959 88.3377551,121.279592 98.6693878,131.611224 C98.9127551,131.852296 99.140051,132.12551 99.4155612,132.332143 L99.5946429,132.203571 C119.337245,112.454082 139.084439,92.7091837 158.831633,72.9665816 C160.154082,71.605102 161.816327,70.6431122 163.678316,70.2390306 C166.858163,69.5456633 170.235459,70.6017857 172.453316,72.9803571 Z" id="Path"></path>
        </g>
    </g>
</svg>