<svg width="78" height="80" xmlns="http://www.w3.org/2000/svg"><g fill="none"><g fill="#F05C56"><path d="M40.572.168a18.53 18.53 0 017.312 2.526 18.757 18.757 0 016.626 6.823 18.535 18.535 0 012.382 8.524 18.571 18.571 0 01-1.438 7.83c-1.176 2.803-3.117 5.3-5.435 7.254-.77-.424-1.589-.966-2.03-1.751-.337-.59-.333-1.283-.083-1.904.4-1.032 1.164-1.672 1.785-2.559a14.098 14.098 0 002.634-9.278 14.02 14.02 0 00-2.537-7.086 14.168 14.168 0 00-6.5-5.06c-1.984-.768-4.122-1.042-6.24-.883a14.029 14.029 0 00-6.996 2.507 14.168 14.168 0 00-5.034 6.354 14.082 14.082 0 00-.89 6.875 14.058 14.058 0 003.22 7.4c.53.624 1.067 1.293 1.26 2.106.143.58.024 1.18-.308 1.673-.479.71-1.197 1.188-1.929 1.606a20.12 20.12 0 01-4.576-5.49c-2.044-3.663-2.75-8.006-2.042-12.137a18.543 18.543 0 013.742-8.385 18.671 18.671 0 017.698-5.752c2.965-1.2 6.21-1.577 9.38-1.193z"/><path d="M41.904 8.174a11.101 11.101 0 016.263 5.473 11.052 11.052 0 011.16 5.87c-.15 2.04-.89 4.023-2.096 5.673-.346.474-.744.891-1.134 1.327-.62.71-1.14 1.559-1.386 2.473-.307 1.127-.19 2.346.284 3.41a5.392 5.392 0 002.329 2.52c-1.324.73-2.732 1.3-4.191 1.694-2.083-1.521-3.309-4.105-3.124-6.684a10.32 10.32 0 012.191-5.832c.563-.712 1.29-1.407 1.745-2.195a6.458 6.458 0 00.796-4.27 6.547 6.547 0 00-1.937-3.708 6.52 6.52 0 00-3.87-1.793c-.956-.091-1.92-.016-2.834.287a6.569 6.569 0 00-3.414 2.573 6.543 6.543 0 00-1.116 3.787 6.365 6.365 0 001.132 3.526c.533.743 1.207 1.382 1.735 2.122a10.298 10.298 0 011.914 5.096c.109 1.112.016 2.235-.34 3.297-.504 1.495-1.47 2.864-2.75 3.792a18.98 18.98 0 01-4.192-1.693 5.516 5.516 0 001.5-1.215 5.26 5.26 0 001.253-3.936c-.092-.931-.455-1.797-.986-2.563-.47-.692-1.067-1.205-1.57-1.87a11.126 11.126 0 01-1.827-3.682 11.139 11.139 0 01.117-6.384 11.094 11.094 0 013.603-5.248 11.148 11.148 0 015.722-2.394c1.693-.18 3.413-.02 5.023.547z"/><path d="M37.64 15.197a3.7 3.7 0 012.056.278 3.69 3.69 0 012.174 3.223c.06 1.386-.717 2.725-1.94 3.375-1.286.7-2.935.54-4.06-.396a3.677 3.677 0 01-1.255-3.698c.332-1.437 1.566-2.57 3.025-2.782z"/></g><path d="M58.406 42.451c.887-.225 1.865.027 2.503.687 1.085 1.102.907 3-.363 3.877-1.223.857-2.943.49-3.692-.808-.84-1.443-.067-3.343 1.552-3.756z" fill="#585C60"/><path d="M48.996 47.398c.806.445 1.105 1.196 1.337 2.04-.12 1.024-.348 1.595-1.085 2.314-.894.427-1.82.622-2.737.126-1.231-.628-1.654-2.192-1.07-3.413.635-1.292 2.31-1.784 3.555-1.067z" fill="#F68A11"/><path d="M69.285 47.356c.981-.388 2.177-.237 2.909.566 1.028 1.052.902 2.9-.274 3.793-1.189.931-3.037.598-3.781-.727-.746-1.327-.245-2.997 1.146-3.632zm-18.952 2.083c4.779 1.06 9.42 2.463 13.892 4.467a98.653 98.653 0 019.41 4.821c.835-.247 1.583-.486 2.428-.103 1.513.595 2.012 2.66.999 3.909-.95 1.223-2.805 1.326-3.87.197-.773-.766-.7-1.65-.633-2.659-5.564-3.239-11.561-6.053-17.778-7.778 3.205 2.014 6.61 4.257 9.17 7.072 2.775 3.01 4.885 6.52 6.54 10.252.742.242 1.421.403 1.893 1.082.939 1.236.531 3.14-.877 3.823-1.502.758-3.427-.139-3.672-1.834-.208-1.104.301-1.855 1.013-2.617-1.989-4.415-4.754-8.66-8.485-11.8a52.648 52.648 0 00-7.233-4.953c4.703 6.114 6.963 13.741 7.287 21.387.593.55 1.11 1.077 1.186 1.932.21 1.62-1.193 3.037-2.82 2.841-1.682-.163-2.71-1.915-2.097-3.479.346-.966 1.122-1.3 2.001-1.672-.205-5.743-1.759-11.468-4.573-16.482-1.285-2.288-2.86-4.388-4.866-6.093.737-.72.964-1.29 1.085-2.313zM42.35 58.5c1.21-.334 2.525.274 3.019 1.433.514 1.164.062 2.592-1.03 3.24-1.266.724-2.985.266-3.61-1.078-.658-1.46.044-3.177 1.62-3.595zm4.697 11.34c1.144-.273 2.394.197 2.94 1.267.655 1.265.166 2.881-1.131 3.499-1.515.741-3.445-.2-3.645-1.905a2.538 2.538 0 011.836-2.862z" fill="#585C60"/><path d="M16.297 42.414c2.501 2.363 5.701 3.986 6.364 7.981l-.1-.038c-1.647-5.762-9.513-7.416-12.421-6.416-4.164.91 4.113-1.241 9.47 5.363-3.185-2.091-6.426-3.868-10.162-3.134-4.45 1.07-7.236 4.526-7.589 9.29 1.848-3.25 7.002-6.576 10.564-5.454-5.95.05-10.265 4.35-11.12 8.198-.498 1.687-.518 5.13-.102 5.28 2.832-8.793 9.188-9.805 12.042-10.917-3.78 1.669-7.69 3.6-9.26 7.058-.915 1.752-1.451 3.846-1.084 5.833.433 2.347 2.622 4.15 5.141 4.976-2.334-7.311-.062-12.471 5.84-15.509-9.775 6.275-6.53 18.717 2.79 18.666-4.043-5.38-6.86-10.724-1.592-16.602-5.141 10.374.788 12.74 6.498 17.556 2.016 1.51 2.159 3.616 2.443 3.106.463-1.033-1.456-2.853-1.156-3.895.543-1.163 3.92 2.461 4.23 3.952.26 1.241.788 3.667.54.746-.999-8.25-10.309-7.161-11.77-13.76-.002-.01 0-.018 0-.028 2.283 3.808 7.11 5.433 10.212 7.253 1.359.891 2.91 2.459 2.515 3.671-.307.892.643.08.658-.998-.18-4.902-13.1-8.334-8.144-13.097-.17.93-.572 1.923-.4 2.789 1.327 2.734 5.604 3.971 7.045 4.517.414.094.871.287 1.223-.21.506-.519 1.87-3.248 1.297-3.693-.066-.044-.663.103-.663.103l-.11-.691-.607.562s-2.192.11-3.25-.124c-.798-.177-1.814-.896-1.855-1.563.024-.327.423-.89.423-.89s.532-.725.929-.885c1.424-.316 3.445.568 4.05 1.264l-.176 1.053.916-.294c.444.965.016.03.356.786l.382-.531.689.077c.69-.613 1.422-1.015 1.792-1.973-.784-2.745-3.18-5.315-5.9-5.324-.728.072-1.929.31-2.163-.385-.094-.278.287-.598.593-.644.696-.106 1.674.117 2.33-.07.27-.077-.196-.641 0-.844.139-.144.453-.156.6-.02.418.511-.624 1.167-.4 1.496 2.575 1.15 4.212 2.365 4.907 4.661.4.194 1.206-1.264 1.421-1.604-.034-.878-.61-1.496-1.746-2.154-.779-.565-2.248-1.008-2.464-1.659-.117-.356.095-.957-1.77-2.154 0 0-.712-.37-1.098-.464-.703-.171-1.439-.158-2.162-.168-.702-.01-1.93.08-2.345.111.165-1.04 1.966-.398 2.077-1.19.577-4.13-4.874-8.794-8.727-8.966zm1.685 7.731c1.146-.042 2.45.516 3.072 1.553.096.218.191.573 0 .715-.574.197-2.483-2.353-4.667-1.097a1.81 1.81 0 00-.766.942c-.253.768.101 1.39.591 1.739.405.288 1.21.869 1.21.869-1.792-.455-2.559-1.742-2.33-2.982.205-1.106 1.767-1.697 2.89-1.739zm-.036 1.75c.26 0 .524.042.745.108.602.179 1.189.66 1.341 1.245.014.117.004.299-.118.33-.33-.008-.902-1.512-2.24-1.312a.937.937 0 00-.551.299c-.257.31-.174.657.023.903.163.202.485.611.485.611-.855-.52-1.042-1.246-.72-1.777.18-.296.6-.408 1.035-.408zm2.571 2.163c.855 1.146.218 5.431-1.614 6.36-.197.483 1.038-3.23-.89-2.967-1.353.512.059 2.691.657 3.706-.17.296-1.55-1.421-2.123-.908-.466.419-.418 1.513.158 2.508.656.14 1.13-.609 1.243-.325.17.422-.695.7-1.07.748.637.933 1.652 1.939 2.174 2.247-1.03-.555-2.025-1.392-2.652-2.167-.777-.238-1.57-.948-1.547-.937 0 0 .765.337 1.295.467-.806-1.207-1.382-2.999-.17-3.34.595-.168 2.31 1.488 1.707.405-.043-.035-1.061-1.949-.436-2.869.168-.22 1.395-.994 2.216 1.066.503.578 1.506-2.574 1.052-3.994zm6.021 1.437c-.631.147-.385.984 0 .986.526-.059.43-.918 0-.986z" stroke="#000" fill="#000"/></g></svg>