<?xml version="1.0" encoding="UTF-8"?>
<svg width="225px" height="225px" viewBox="0 0 225 225" version="1.1" xmlns="http://www.w3.org/2000/svg" xmlns:xlink="http://www.w3.org/1999/xlink">
    <!-- Generator: Sketch 52.3 (67297) - http://www.bohemiancoding.com/sketch -->
    <title>icon-error</title>
    <desc>Created with Sketch.</desc>
    <g id="Page-1" stroke="none" stroke-width="1" fill="none" fill-rule="evenodd">
        <g id="icon-error" fill="#E2574C">
            <path d="M106.32,0 L115.22,0 L115.79,0.02 C128.63,0.56 141.26,2.92 153.23,7.65 C173.49,15.49 191.27,29.36 203.88,47.03 C213.64,60.66 220.33,76.46 223.16,92.99 C224.31,98.71 224.35,104.46 225,110.23 L225,117.15 C224.19,127.69 222.67,138.04 219.2,148.07 C211.09,172.5 194.32,193.84 172.55,207.55 C160.23,215.39 146.38,220.71 132.01,223.26 C127.59,224.2 123.08,224.18 118.65,225 L106.01,225 C103.36,224.41 100.69,224.31 98,224.05 C74.3,221.08 51.59,210.2 34.47,193.53 C18.62,178.39 7.39,158.41 2.7,137 C1.06,130.35 0.63,123.61 0,116.82 L0,104 C1,98.33 1.32,92.61 2.8,87 C8.63,61.73 23.51,38.88 44.11,23.16 C59.44,11.37 77.84,3.74 96.99,1.07 C100.11,0.72 103.23,0.57 106.32,0 Z M101.51,21.73 C82.32,23.89 63.9,32.62 49.86,45.85 C38.18,56.74 29.46,70.72 24.85,86 C16.16,114.19 22.36,146.22 40.74,169.26 C50.97,182.11 64.6,192.2 79.98,198.02 C97.17,204.59 116.27,205.7 134.13,201.33 C150.11,197.46 164.9,189.13 176.6,177.6 C190.44,164.09 199.77,146.11 202.76,126.99 C204.98,113.93 203.87,100.26 200.37,87.52 C195.35,69.62 184.72,53.44 170.3,41.71 C151.3,26.02 125.96,18.62 101.51,21.73 Z" id="Combined-Shape"></path>
            <path d="M106.27,50.34 C112.2,48.58 119.72,49.11 124.14,53.9 C127.47,57.42 126.48,62.59 126.63,67 C126.61,85.32 126.65,103.69 126.62,122.01 C126.66,124.92 125.77,127.61 123.62,129.63 C119.75,133.3 114.08,134.04 108.99,133.3 C105.29,132.73 101.44,130.8 99.56,127.44 C98.28,125.17 98.42,122.52 98.37,120 C98.44,100.01 98.33,79.96 98.42,59.98 C98.39,55.18 101.95,51.75 106.27,50.34 Z" id="Path"></path>
            <path d="M108.25,148.33 C116.15,145.85 124.7,150.81 126.2,158.98 C127.94,166.95 122.03,174.79 114.02,175.64 C106.45,176.62 99.08,170.62 98.58,163.01 C97.8,156.49 102.08,150.31 108.25,148.33 Z" id="Path"></path>
        </g>
    </g>
</svg>