<svg width="14" height="14" xmlns="http://www.w3.org/2000/svg"><path d="M9.76.028c.665.067 1.315.356 1.866.724a5.783 5.783 0 011.52 1.496c.354.516.64 1.126.718 1.75.054.423.009.882-.221 1.25-.21.344-.562.574-.953.659-.472.107-.967.038-1.424-.105-.7.76-1.392 1.527-2.09 2.288.253.475.45.968.547 1.5.09.49.09 1.016-.097 1.486a1.752 1.752 0 01-.747.877c-.422.247-.913.313-1.395.28-.814-.058-1.623-.391-2.313-.816a7.863 7.863 0 01-1.896-1.659A6.598 6.598 0 012.174 7.9c-.204-.548-.33-1.164-.25-1.748.055-.428.236-.843.552-1.142.314-.304.736-.47 1.166-.515.597-.069 1.222.062 1.78.27.129.045.25.107.378.151.719-.796 1.448-1.587 2.17-2.382-.124-.405-.186-.831-.11-1.252.07-.399.287-.765.628-.989.374-.248.833-.306 1.272-.264zM2.783 9.684c.389.593.9 1.157 1.515 1.52-1.43.924-2.86 1.853-4.293 2.776.923-1.434 1.852-2.864 2.778-4.296z" fill-rule="evenodd"/></svg>