<svg width="90" height="80" xmlns="http://www.w3.org/2000/svg"><defs><linearGradient x1="11.949%" y1="60.07%" x2="40.836%" y2="42.062%" id="a"><stop stop-color="#2D3079" stop-opacity=".2" offset="0%"/><stop stop-color="#2D3079" stop-opacity="0" offset="66%"/></linearGradient><linearGradient x1="-16.04%" y1="9.717%" x2="84.356%" y2="79.22%" id="b"><stop stop-color="#2D3079" stop-opacity=".2" offset="0%"/><stop stop-color="#2D3079" stop-opacity=".04" offset="100%"/></linearGradient><linearGradient x1="79.633%" y1="74.213%" x2="52.539%" y2="53.554%" id="c"><stop stop-color="#BE3A26" stop-opacity=".15" offset="0%"/><stop stop-color="#BE3A26" stop-opacity="0" offset="66%"/></linearGradient><linearGradient x1="50.123%" y1=".831%" x2="50.123%" y2="36.594%" id="d"><stop stop-color="#A52822" stop-opacity=".2" offset="0%"/><stop stop-color="#A52822" stop-opacity="0" offset="66%"/></linearGradient><linearGradient x1="-10.315%" y1="36.159%" x2="62.657%" y2="82.138%" id="e"><stop stop-color="#3E2723" stop-opacity=".15" offset="0%"/><stop stop-color="#3E2723" stop-opacity="0" offset="100%"/></linearGradient><linearGradient x1="50.31%" y1=".295%" x2="50.31%" y2="99.006%" id="f"><stop stop-color="#3E2723" stop-opacity=".15" offset="0%"/><stop stop-color="#462823" stop-opacity=".145" offset="3.547%"/><stop stop-color="#712E24" stop-opacity=".112" offset="25.22%"/><stop stop-color="#923325" stop-opacity=".081" offset="46.25%"/><stop stop-color="#AA3726" stop-opacity=".051" offset="66.19%"/><stop stop-color="#B93926" stop-opacity=".023" offset="84.59%"/><stop stop-color="#BE3A26" stop-opacity="0" offset="100%"/></linearGradient><radialGradient cx="6391.57%" cy="-14841.84%" fx="6391.57%" fy="-14841.84%" r="99.906%" gradientTransform="matrix(.89017 0 0 1 7.02 0)" id="g"><stop stop-color="#FFF" stop-opacity=".1" offset="0%"/><stop stop-color="#FFF" stop-opacity="0" offset="100%"/></radialGradient></defs><g fill="none"><path d="M31.034 16.007H76.73L69.243 3.098C68.211 1.291 66.403 0 64.08 0H25.354c-2.065 0-4.13 1.033-5.163 3.098L8.315 24.01l22.72 39.5V16.007z" fill="#547DBF"/><path d="M31.198 16.007h45.696L69.407 3.098C68.375 1.291 66.567 0 64.244 0H25.518c-2.065 0-4.13 1.033-5.163 3.098L8.48 24.01l22.72 39.5V16.007z" fill="url(#a)" transform="translate(-.164)"/><path fill="url(#b)" d="M8.48 24.01l11.617 11.36-2.065 5.42z" transform="translate(-.164)"/><path fill-opacity=".1" fill="#2D3079" d="M18.384 40.533L9.606 25.3l-1.29-1.291 9.551 16.78z"/><path d="M31.034 63.51L8.315 24.01.828 36.918c-1.032 1.807-1.032 4.131 0 5.938l19.363 33.562c1.033 1.807 3.098 3.098 5.163 3.098h24.01l22.977-39.758L31.034 63.51z" fill="#FFCE40"/><path d="M31.198 63.51L8.48 24.01.992 36.918c-1.032 1.807-1.032 4.131 0 5.938l19.363 33.562c1.033 1.807 3.098 3.098 5.163 3.098h24.01l22.977-39.758L31.198 63.51z" fill="url(#c)" transform="translate(-.164)"/><path d="M76.73 16.007H31.034l41.05 23.751-22.978 39.758H64.08c2.065 0 4.13-1.032 5.163-3.098l19.363-33.82c1.033-1.807 1.033-4.13 0-5.938L76.73 16.007z" fill="#DB4436"/><path d="M76.894 16.007H31.198l41.05 23.751L49.27 79.516h14.974c2.065 0 4.13-1.032 5.163-3.098l19.363-33.82c1.033-1.807 1.033-4.13 0-5.938L76.894 16.007z" fill="url(#d)" transform="translate(-.164)"/><path fill="url(#e)" d="M58.564 16.007l30.98 30.98v32.53H49.529l9.036-16.007z" transform="translate(-.164)"/><path fill-opacity=".05" fill="#3E2723" d="M58.142 16.007h19.363v1H58.142z"/><path fill="#EEE" d="M58.4 16.007l13.683 23.751L58.4 63.51H31.034L17.351 39.758l13.683-23.751H58.4"/><path d="M31.034 16.007H76.73L69.243 3.098C68.211 1.291 66.403 0 64.08 0H25.354c-2.065 0-4.13 1.033-5.163 3.098L8.315 24.01l22.72 39.5V16.007z" fill="#547DBF"/><path fill="#EEE" d="M58.4 16.007l13.683 23.751L58.4 63.51H31.034L17.351 39.758l13.683-23.751H58.4"/><path fill="#EEE" d="M58.4 16.007l13.683 23.751L58.4 63.51H31.034L17.351 39.758l13.683-23.751H58.4"/><path fill-opacity=".4" fill="#FFF" d="M58.4 16.523l13.425 23.235h.516l-13.94-23.751H31.033L17.351 39.758h.258l13.425-23.235z"/><path fill-opacity=".05" fill="#262626" d="M71.825 39.758L58.4 62.993H31.034L17.61 39.758h-.258L31.034 63.51H58.4l13.941-23.752z"/><path fill-opacity=".05" fill="#BE3A26" d="M72.341 39.758L58.401 63.51H31.033L17.351 39.758v.516l13.683 23.752H58.4l13.941-23.752z"/><path d="M44.459 27.366c-6.454 0-11.876 5.422-11.876 11.876h23.752c.258-6.454-5.164-11.876-11.876-11.876zM32.583 40.274c0 6.455 5.422 11.876 11.876 11.876s11.876-5.421 11.876-11.876H32.583z" fill-opacity=".1" fill="#262626"/><path fill="url(#f)" d="M31.198 63.51l16.007 16.006h2.323l9.036-16.006z" transform="translate(-.164)"/><path d="M8.315 24.526L20.191 3.614C21.224 1.807 23.289.516 25.354.516H64.08c2.065 0 4.13 1.033 5.163 3.098l7.487 12.909 11.876 20.912c.516.774.775 1.807.775 2.84 0-1.033-.259-2.324-.775-3.099L76.73 16.265 69.243 3.356C68.211 1.291 66.403 0 64.08 0H25.354c-2.065 0-4.13 1.033-5.163 3.098L8.315 24.01.828 36.918c-.516 1.033-.774 2.066-.774 3.098 0-1.032.258-1.807.774-2.84l7.487-12.65zM25.355 79c-2.066 0-4.131-1.033-5.164-3.098L8.315 54.99.828 42.082c-.516-.775-.774-1.808-.774-2.84 0 1.032.258 2.323.774 3.098l7.487 12.908 11.876 21.17c1.033 1.807 3.098 3.098 5.163 3.098h24.01l.258-.516H25.354zM89.38 39.5c0 1.033-.259 1.807-.775 2.84L76.73 63.252 69.243 76.16c-1.032 1.807-3.098 3.098-5.163 3.098H49.622l-.258.516H64.08c2.065 0 4.13-1.032 5.163-3.098l7.487-12.908 11.876-20.912c.516-1.032.775-2.323.775-3.356z" fill-opacity=".2" fill="#FFF"/><path d="M88.77 36.66L76.894 15.748 69.407 2.84C68.375 1.29 66.567 0 64.244 0H25.518c-2.065 0-4.13 1.033-5.163 3.098L8.48 24.01.992 36.918c-1.032 1.807-1.032 4.131 0 5.938l19.363 33.562c1.033 1.807 3.098 3.098 5.163 3.098h38.726c2.065 0 4.13-1.032 5.163-3.098l19.363-33.82c1.033-1.807 1.033-3.873 0-5.938zM44.623 51.634c-6.454 0-11.876-5.422-11.876-11.876s5.422-11.876 11.876-11.876 11.876 5.422 11.876 11.876-5.164 11.876-11.876 11.876z" fill="url(#g)" transform="translate(-.164)"/></g></svg>