<svg width="18" height="18" xmlns="http://www.w3.org/2000/svg"><path d="M16.879 14.22l-5.224-5.221 5.22-5.224c.602-.6.602-1.565.002-2.167l-.485-.486a1.509 1.509 0 00-1.085-.451h-.002c-.41 0-.795.161-1.083.45L9 6.347l-5.224-5.22a1.527 1.527 0 00-2.165-.003l-.486.481a1.514 1.514 0 00-.453 1.086c0 .411.161.798.45 1.086l5.226 5.222-5.221 5.224a1.53 1.53 0 00-.002 2.169l.485.485a1.535 1.535 0 002.171.001l5.221-5.225 5.222 5.219c.296.299.69.45 1.085.45.391 0 .783-.149 1.082-.447l.485-.484c.294-.285.453-.675.453-1.085a1.519 1.519 0 00-.448-1.086h-.002z"/></svg>