<svg width="81" height="81" xmlns="http://www.w3.org/2000/svg"><g transform="translate(.836 .543)" fill="none" fill-rule="evenodd"><path d="M40 78.431c21.225 0 38.431-17.206 38.431-38.431C78.431 18.775 61.225 1.569 40 1.569 18.775 1.569 1.569 18.775 1.569 40c0 21.225 17.206 38.431 38.431 38.431zM40 80C17.909 80 0 62.091 0 40S17.909 0 40 0s40 17.909 40 40-17.909 40-40 40z" fill="#046CFF" fill-rule="nonzero"/><circle fill="#ABD0FF" cx="40" cy="40" r="21.176"/><circle fill="#046CFF" cx="32.941" cy="30.355" r="2.353"/><circle fill="#046CFF" cx="40" cy="40" r="2.353"/><circle fill="#046CFF" cx="51.373" cy="36.546" r="2.353"/><circle fill="#046CFF" cx="32.941" cy="49.98" r="2.353"/><circle fill="#046CFF" cx="40" cy="27.451" r="1.569"/><circle fill="#046CFF" cx="47.074" cy="30.486" r="1.569"/><circle fill="#046CFF" cx="51.614" cy="43.961" r="1.569"/><circle fill="#046CFF" cx="46.986" cy="50.232" r="1.569"/><circle fill="#046CFF" cx="40.064" cy="52.532" r="1.569"/><circle fill="#046CFF" cx="28.525" cy="43.637" r="1.569"/><circle fill="#046CFF" cx="28.687" cy="36.372" r="1.569"/></g></svg>