<?xml version="1.0" encoding="UTF-8"?>
<svg width="225px" height="225px" viewBox="0 0 225 225" version="1.1" xmlns="http://www.w3.org/2000/svg" xmlns:xlink="http://www.w3.org/1999/xlink">
    <!-- Generator: Sketch 52.3 (67297) - http://www.bohemiancoding.com/sketch -->
    <title>icon-warning</title>
    <desc>Created with Sketch.</desc>
    <g id="Page-1" stroke="none" stroke-width="1" fill="none" fill-rule="evenodd">
        <g id="icon-warning" fill="#E98E11">
            <path d="M106.32,0 L115.22,0 L115.79,0.02 C128.63,0.56 141.26,2.92 153.23,7.65 C173.49,15.49 191.27,29.36 203.88,47.03 C213.64,60.66 220.33,76.46 223.16,92.99 C224.31,98.71 224.35,104.46 225,110.23 L225,117.15 C224.19,127.69 222.67,138.04 219.2,148.07 C211.09,172.5 194.32,193.84 172.55,207.55 C160.23,215.39 146.38,220.71 132.01,223.26 C127.59,224.2 123.08,224.18 118.65,225 L106.01,225 C103.36,224.41 100.69,224.31 98,224.05 C74.3,221.08 51.59,210.2 34.47,193.53 C18.62,178.39 7.39,158.41 2.7,137 C1.06,130.35 0.63,123.61 0,116.82 L0,104 C1,98.33 1.32,92.61 2.8,87 C8.63,61.73 23.51,38.88 44.11,23.16 C59.44,11.37 77.84,3.74 96.99,1.07 C100.11,0.72 103.23,0.57 106.32,0 Z M101.51,21.73 C82.32,23.89 63.9,32.62 49.86,45.85 C38.18,56.74 29.46,70.72 24.85,86 C16.16,114.19 22.36,146.22 40.74,169.26 C50.97,182.11 64.6,192.2 79.98,198.02 C97.17,204.59 116.27,205.7 134.13,201.33 C150.11,197.46 164.9,189.13 176.6,177.6 C190.44,164.09 199.77,146.11 202.76,126.99 C204.98,113.93 203.87,100.26 200.37,87.52 C195.35,69.62 184.72,53.44 170.3,41.71 C151.3,26.02 125.96,18.62 101.51,21.73 Z" id="Combined-Shape-Copy"></path>
            <path d="M70,84.0729537 C70,78.6073274 71.7486492,73.0698679 75.246,67.4604093 C78.7433508,61.8509506 83.8459665,57.2052379 90.554,53.5231317 C97.2620335,49.8410255 105.087955,48 114.032,48 C122.345375,48 129.683968,49.5389822 136.048,52.6169929 C142.412032,55.6950035 147.328316,59.8804599 150.797,65.1734875 C154.265684,70.4665152 156,76.2197198 156,82.433274 C156,87.3235713 155.01101,91.6097088 153.033,95.2918149 C151.05499,98.9739211 148.704347,102.152567 145.981,104.827847 C143.257653,107.503127 138.370035,112.00501 131.318,118.33363 C129.368657,120.11715 127.806339,121.684898 126.631,123.036922 C125.455661,124.388945 124.581336,125.625884 124.008,126.747776 C123.434664,127.869668 122.990335,128.991542 122.675,130.113434 C122.359665,131.235326 121.88667,133.205798 121.256,136.024911 C120.166661,142.008334 116.755362,145 111.022,145 C108.040652,145 105.532344,144.021955 103.497,142.065836 C101.461656,140.109717 100.444,137.204349 100.444,133.349644 C100.444,128.51688 101.189326,124.331423 102.68,120.793149 C104.170674,117.254876 106.148654,114.148145 108.614,111.472865 C111.079346,108.797584 114.404646,105.618939 118.59,101.936833 C122.259352,98.7149898 124.910992,96.2842609 126.545,94.644573 C128.179008,93.004885 129.554994,91.1782426 130.673,89.1645907 C131.791006,87.1509389 132.35,84.9647212 132.35,82.6058719 C132.35,78.0032391 130.64435,74.119826 127.233,70.955516 C123.82165,67.791206 119.42136,66.2090747 114.032,66.2090747 C107.725302,66.2090747 103.081348,67.805589 100.1,70.9986655 C97.1186518,74.1917419 94.5960103,78.8949867 92.532,85.1085409 C90.5826569,91.6097597 86.8846939,94.8603203 81.438,94.8603203 C78.2273173,94.8603203 75.5183444,93.7240624 73.311,91.4515125 C71.1036556,89.1789625 70,86.7194676 70,84.0729537 Z M112.129568,178 C108.616815,178 105.550401,176.855084 102.930233,174.565217 C100.310064,172.275351 99,169.072484 99,164.956522 C99,161.30433 100.266875,158.231897 102.800664,155.73913 C105.334453,153.246364 108.444057,152 112.129568,152 C115.757493,152 118.809511,153.246364 121.285714,155.73913 C123.761917,158.231897 125,161.30433 125,164.956522 C125,169.014513 123.704332,172.202887 121.112957,174.521739 C118.521582,176.840591 115.527149,178 112.129568,178 Z" id="?"></path>
        </g>
    </g>
</svg>