<?xml version="1.0" encoding="UTF-8"?>
<svg width="16px" height="18px" viewBox="0 0 16 18" version="1.1" xmlns="http://www.w3.org/2000/svg" xmlns:xlink="http://www.w3.org/1999/xlink">
    <!-- Generator: Sketch 46.2 (44496) - http://www.bohemiancoding.com/sketch -->
    <title>ilab-s3-logo</title>
    <desc>Created with Sketch.</desc>
    <defs></defs>
    <g id="Page-1" stroke="none" stroke-width="1" fill="none" fill-rule="evenodd">
        <g id="ilab-s3-logo" fill-rule="nonzero">
            <polygon id="Shape" fill="#8C3123" points="7.58225 13.3385 13.828 14.84975 13.828 3.123 7.58225 4.63525"></polygon>
            <polygon id="Shape" fill="#E05243" points="13.82825 3.123 15.0285 3.723 15.0285 14.25325 13.82825 14.853"></polygon>
            <polygon id="Shape" fill="#E05243" points="10.3065 5.214 7.58225 4.54 7.58225 0 10.3065 1.362"></polygon>
            <polygon id="Shape" fill="#E05243" points="7.58225 18 10.30625 16.6385 10.30625 12.7865 7.58225 13.46025"></polygon>
            <polygon id="Shape" fill="#E05243" points="10.3065 10.9285 7.58225 11.27525 7.58225 6.735 10.3065 7.07675"></polygon>
            <polygon id="Shape" fill="#E05243" points="7.58225 13.3385 1.33625 14.84975 1.33625 3.123 7.58225 4.63525"></polygon>
            <polygon id="Shape" fill="#8C3123" points="1.33625 3.123 0.1365 3.723 0.1365 14.25325 1.33625 14.853"></polygon>
            <polygon id="Shape" fill="#8C3123" points="4.85875 5.214 7.58225 4.54 7.58225 0 4.85875 1.362"></polygon>
            <polygon id="Shape" fill="#8C3123" points="7.58225 18 4.8585 16.6385 4.8585 12.7865 7.58225 13.46025"></polygon>
            <polygon id="Shape" fill="#8C3123" points="4.85875 10.9285 7.58225 11.27525 7.58225 6.735 4.85875 7.07675"></polygon>
            <polygon id="Shape" fill="#5E1F18" points="10.3065 5.214 7.58225 5.7105 4.85875 5.214 7.58225 4.54"></polygon>
            <polygon id="Shape" fill="#F2B0A9" points="10.3065 12.78625 7.58225 12.2865 4.85875 12.78625 7.58225 13.4645"></polygon>
        </g>
    </g>
</svg>