<svg width="428" height="428" xmlns="http://www.w3.org/2000/svg"><path d="M200.445 0h3.31l.543.217c1.672.77 3.168 1.74 4.473 3.052 49.972 50.616 99.97 101.206 149.958 151.814 1.722 1.814 3.854 3.553 5.116 5.726.67 1.33.402 2.7-.978 3.386-2.859 1.137-6.512.51-9.555.618-27.477.026-54.954-.041-82.423.042.075 32.568 2.742 65.086 10.048 96.885 7.515 33.003 20.08 64.627 38.679 92.973 16.61 25.496 37.592 47.607 61.475 66.399 2.675 2.182 5.425 3.553 6.854 6.888h-3.51c-6.195-1.747-12.506-3.001-18.709-4.731-45.901-12.197-90.064-32.042-127.464-61.592-26.072-20.53-48.45-45.65-65.554-74.098-22.77-37.584-35.82-79.405-41.997-122.757-28.606-.017-57.27.008-85.868-.017-1.856-.1-4.99-.058-5.066-2.625.26-2.44 3.068-4.556 4.64-6.294C94.857 104.893 145.23 53.843 195.655 2.826c1.354-1.355 3.017-2.157 4.79-2.826z" fill-rule="evenodd"/></svg>