<svg width="34" height="41" xmlns="http://www.w3.org/2000/svg"><defs><filter x="-30.8%" y="-25%" width="161.5%" height="150%" filterUnits="objectBoundingBox" id="a"><feOffset in="SourceAlpha" result="shadowOffsetOuter1"/><feGaussianBlur stdDeviation="2" in="shadowOffsetOuter1" result="shadowBlurOuter1"/><feColorMatrix values="0 0 0 0 0 0 0 0 0 0 0 0 0 0 0 0 0 0 0.5 0" in="shadowBlurOuter1" result="shadowMatrixOuter1"/><feMerge><feMergeNode in="shadowMatrixOuter1"/><feMergeNode in="SourceGraphic"/></feMerge></filter></defs><g filter="url(#a)" transform="translate(4 4.5)" fill="none"><path d="M12.965 0c5.717 0 10.38 4.508 10.531 10.114l.004.281v1.424l.15.08a4.183 4.183 0 012.136 3.216l.018.232.004.203v12.26c0 2.25-1.787 4.08-4.041 4.186L21.56 32H4.248C1.967 32 .112 30.236.005 28.012L0 27.81V15.55c0-1.562.862-2.922 2.143-3.643l.185-.098.132-.063v-1.35C2.46 4.853 6.873.306 12.4.014l.281-.011.284-.004zm0 1.973c-4.593 0-8.365 3.64-8.5 8.17l-.005.252v2.938h-.212l-.155.005a2.225 2.225 0 00-2.087 2.053l-.006.16v12.258l.005.152a2.227 2.227 0 002.081 2.06l.162.006H21.56l.154-.006a2.227 2.227 0 002.088-2.053l.005-.16V15.55l-.005-.152a2.227 2.227 0 00-2.08-2.06l-.162-.005h-.06v-2.938l-.005-.252c-.135-4.53-3.909-8.17-8.531-8.17z" fill="#000"/><path d="M12.995 5.736a4.81 4.81 0 014.8 4.8v2.976h-9.6v-2.977a4.81 4.81 0 014.8-4.799zm0 2a2.81 2.81 0 00-2.794 2.63l-.005.17v.975h5.598v-.976a2.81 2.81 0 00-2.629-2.794l-.17-.005z" fill="#000"/><path d="M4.423 10.406v2.932h-.21A2.209 2.209 0 002 15.55v12.235C2 29.013 2.987 30 4.214 30h17.051a2.209 2.209 0 002.214-2.214V15.551a2.209 2.209 0 00-2.214-2.213h-.06v-2.932C21.205 5.769 17.435 2 12.8 2c-4.607 0-8.376 3.77-8.376 8.406zm3.68 0a4.737 4.737 0 014.726-4.727 4.737 4.737 0 014.727 4.727v2.932H8.103v-2.932z" fill="#FFF"/></g></svg>