<svg width="21" height="21" xmlns="http://www.w3.org/2000/svg"><path d="M5.334 20.372a4.728 4.728 0 01-3.308-1.312A4.883 4.883 0 01.504 15.7c-.053-1.313.42-2.52 1.312-3.465l9.975-10.71c1.838-1.943 4.883-2.048 6.825-.21.945.892 1.47 2.1 1.523 3.36.052 1.312-.42 2.52-1.313 3.465-.42.42-1.05.42-1.47.052-.42-.42-.42-1.05-.052-1.47a2.882 2.882 0 00.735-1.942 2.54 2.54 0 00-.84-1.89c-1.103-1.05-2.835-.945-3.833.105L3.34 13.652a2.882 2.882 0 00-.735 1.943c0 .735.315 1.417.84 1.89 1.102 1.05 2.835.945 3.832-.105l7.14-7.613c.158-.157.21-.367.21-.577 0-.21-.105-.42-.262-.578-.315-.315-.84-.315-1.103 0-1.68 1.785-5.04 5.46-5.04 5.513-.367.42-1.05.472-1.47.052a1.015 1.015 0 01-.052-1.47c.157-.157 3.36-3.727 5.145-5.512 1.102-1.103 2.94-1.155 4.042-.105.578.525.893 1.26.945 2.047 0 .788-.262 1.523-.787 2.1L8.851 18.85a4.9 4.9 0 01-3.517 1.522z" fill="#FFF"/></svg>