<svg width="21" height="20" xmlns="http://www.w3.org/2000/svg"><path d="M.125 2.699h1.209c.282 0 .503.221.503.503a.499.499 0 01-.503.504H.125v1.31h2.216c.282 0 .503.22.503.503a.499.499 0 01-.503.503H.125v1.31h1.209c.282 0 .503.22.503.503a.499.499 0 01-.503.503H.125v1.31h2.216c.282 0 .503.221.503.503a.499.499 0 01-.503.504H.125v1.309h1.209c.282 0 .503.221.503.503a.499.499 0 01-.503.504H.125v1.309h2.216c.282 0 .503.222.503.503a.499.499 0 01-.503.504H.125v1.31h1.209c.282 0 .503.22.503.503a.499.499 0 01-.503.503H.125V20h20l-20-20v2.699zM3.45 8.056l8.62 8.62H3.45v-8.62z" fill="#FFF"/></svg>