<svg xmlns="http://www.w3.org/2000/svg" viewBox="0 0 60 50"><g opacity=".15"><path d="M45 20.8c3.5 0 6.4-2.8 6.4-6.3S48.5 8.3 45 8.3s-6.4 2.8-6.4 6.2 2.9 6.3 6.4 6.3z"/><path d="M56.2 0H3.8C1.7 0 0 1.7 0 3.7v42.6c0 2 1.7 3.7 3.8 3.7h52.5c2.1 0 3.8-1.7 3.8-3.7V3.7C60 1.7 58.3 0 56.2 0zM42.4 25.7c-.4-.5-1-.8-1.7-.8s-1.2.3-1.7.7l-2.5 2.1c-.5.4-.9.6-1.5.6s-1.1-.2-1.5-.5c-.1-.1-.4-.3-.6-.5l-7.2-7.6c-.5-.6-1.3-1-2.2-1-.9 0-1.7.4-2.2 1l-17 19.9V5.7c.1-.9.8-1.5 1.7-1.5h47.9c.9 0 1.7.7 1.7 1.6v33.9l-13.2-14z"/></g></svg>