<svg width="21" height="22" xmlns="http://www.w3.org/2000/svg"><g fill="#FFF"><path d="M16.407 4.241H13.41a.582.582 0 100 1.166h1.592l-3.018 3.018a.586.586 0 000 .826.586.586 0 00.827 0l3.018-3.017v1.591a.582.582 0 101.165 0V4.828a.59.59 0 00-.587-.587z"/><path d="M19.251.5H1.75C.785.5 0 1.285 0 2.249v17.498c0 .968.785 1.753 1.749 1.753h17.498c.963 0 1.749-.785 1.749-1.749V2.25A1.746 1.746 0 0019.25.5zM9.917 19.751c0 .323-.26.583-.583.583H1.75a.582.582 0 01-.583-.583v-7.585c0-.323.26-.583.583-.583h7.58c.323 0 .583.26.583.583v7.585h.004zm9.917 0c0 .323-.26.583-.583.583H10.98c.066-.182.103-.376.103-.583v-7.585c0-.963-.786-1.749-1.749-1.749H1.75c-.207 0-.401.037-.583.103V7.416H2.92a.582.582 0 100-1.166H1.166V4.853h3.501a.582.582 0 100-1.166H1.166V2.25c0-.323.26-.583.583-.583h17.498c.323 0 .583.26.583.583v17.5h.004z"/></g></svg>