<svg width="428" height="428" xmlns="http://www.w3.org/2000/svg"><g fill="none" fill-rule="evenodd"><path d="M94 .68c53-.03 106 .01 159-.02 5.78-.08 11.45.97 16.53 3.81 4.1 2.13 7.31 5.23 10.48 8.53 28.32 28.34 56.66 56.66 84.99 85 6.04 6.06 9.48 14.43 9.32 23 .03 91.33-.01 182.67.03 274 .1 10.54-5.09 20.62-13.76 26.61-5.44 3.82-11.94 5.74-18.59 5.74-85.31-.05-170.69.02-256.01-.04-13.29.05-25.61-8.89-29.88-21.43-2.14-5.95-1.81-11.68-1.79-17.88.02-118.67-.02-237.35.02-356.03.19-13.94 10-26.52 23.45-30.15C83.27.27 88.41.68 94 .68z" fill="#000"/><path d="M88 21.99c52.77.08 105.55-.06 158.32.07.02 24.98-.02 49.98.01 74.95.03 8.97 4.15 17.87 10.95 23.72 5.92 5.31 13.78 8.04 21.71 7.96 24.67-.03 49.35-.01 74.02-.01-.04 88.09-.02 176.22-.01 264.32-.03 3.23-.05 6.17-2.18 8.81-2.41 3.19-5.92 4.32-9.82 4.17-84.67.03-169.35-.01-254.02.02-6.25.24-11.51-4.64-11.29-10.99-.04-118.65.02-237.36-.03-356.01.13-4.56-.73-9.22 2.36-13.01 2.5-3.16 6.08-4.09 9.98-4z" fill="#FDFDFD"/><path d="M267.69 30.91c.75.73 1.49 1.46 2.23 2.2 24.73 24.73 49.5 49.42 74.18 74.2-21.68.02-43.42.02-65.11.01-3.88.12-7.42-1.5-9.57-4.77-1.54-2.31-1.74-4.84-1.77-7.55.06-21.36-.01-42.73.04-64.09z" fill="#FDFDFD"/><path d="M128.98 107.35c18.66-.07 37.36 0 56.02-.03 3.4.07 6.93-.24 10.29.28 5.22.97 8.86 6.17 8.33 11.39-.41 5.46-5.12 9.74-10.6 9.66-21.33.04-42.71.05-64.04 0-5.91.01-10.66-4.75-10.64-10.65-.05-5.84 4.8-10.69 10.64-10.65zm1.02 42.64h162c4.91.15 10.5-1.03 14.53 2.5 5.05 4.08 5.03 12.02.16 16.22-4.02 3.67-9.73 2.45-14.69 2.63-52.33 0-104.67-.04-157 .02-4.23-.14-8.7.66-12.29-2.07-4.77-3.28-5.76-10.29-2.34-14.9 2.29-3.16 5.79-4.53 9.63-4.4zm6 42.66c52.33.03 104.67.04 157-.01 4.43.15 9.41-.78 13.13 2.2 4.57 3.3 5.52 10.04 2.29 14.6-2.15 3.11-5.65 4.67-9.4 4.56-53.65.02-107.37.01-161.02 0-5.3-.22-12.05 1.27-16.19-2.79-4.8-4.2-4.55-12.04.34-16.06 3.87-3.4 9.11-2.34 13.85-2.5zm-6.03 42.66c56.35.04 112.71 0 169.07.02 2.91-.03 5.68.81 7.86 2.79 3.95 3.54 4.56 9.92 1.39 14.17-2.17 3-5.59 4.46-9.25 4.38-53.68.01-107.36.01-161.04 0-4.15-.18-8.92.62-12.88-.73-5.18-2-8.05-7.82-6.3-13.14 1.54-4.88 6.1-7.72 11.15-7.49zM137 278c53.99-.02 108.04-.02 162.02.01 4.01-.13 7.78 1.66 9.81 5.19 2.91 4.8 1.44 11.32-3.27 14.37-3.3 2.24-6.78 1.69-10.56 1.77-55.33-.02-110.68-.01-166.01 0-3.01.02-5.82-1.27-7.86-3.46-4.2-4.54-3.61-11.74 1.23-15.56 4.07-3.42 9.74-2.12 14.64-2.32zm-8.01 42.67c56.68 0 113.37-.01 170.05.01 3.62-.1 6.94 1.23 9.12 4.19 3.58 4.63 2.63 11.69-2.17 15.1-4.02 3.2-11.11 1.68-15.99 2.03-53 .03-106-.01-159 .02-2.94-.02-5.64-.06-8.09-1.91-4.1-2.83-5.72-8.38-3.77-12.97 1.68-3.93 5.55-6.53 9.85-6.47z" fill="#000"/></g></svg>