<?xml version="1.0" encoding="UTF-8"?>
<svg width="40px" height="28px" viewBox="0 0 40 28" version="1.1" xmlns="http://www.w3.org/2000/svg" xmlns:xlink="http://www.w3.org/1999/xlink">
    <!-- Generator: Sketch 46.2 (44496) - http://www.bohemiancoding.com/sketch -->
    <title>ilab-cloud-icon</title>
    <desc>Created with Sketch.</desc>
    <defs>
        <filter x="-18.8%" y="-30.0%" width="137.5%" height="160.0%" filterUnits="objectBoundingBox" id="filter-1">
            <feOffset dx="0" dy="0" in="SourceAlpha" result="shadowOffsetOuter1"></feOffset>
            <feGaussianBlur stdDeviation="2" in="shadowOffsetOuter1" result="shadowBlurOuter1"></feGaussianBlur>
            <feColorMatrix values="0 0 0 0 0   0 0 0 0 0   0 0 0 0 0  0 0 0 0.5 0" type="matrix" in="shadowBlurOuter1" result="shadowMatrixOuter1"></feColorMatrix>
            <feMerge>
                <feMergeNode in="shadowMatrixOuter1"></feMergeNode>
                <feMergeNode in="SourceGraphic"></feMergeNode>
            </feMerge>
        </filter>
    </defs>
    <g id="Page-1" stroke="none" stroke-width="1" fill="none" fill-rule="evenodd">
        <g id="ilab-cloud-icon" filter="url(#filter-1)" transform="translate(4.000000, 4.000000)">
            <path d="M0,14 C0,11.7828376 1.20753986,9.8416411 3.00211353,8.8029948 C3.10690617,3.92340284 7.0952729,0 12,0 C15.2334975,0 18.0687212,1.7052115 19.6554697,4.26543304 C20.2402063,4.09270499 20.8592769,4 21.5,4 C24.2845531,4 26.6601501,5.7509485 27.5858427,8.2118973 C30.129704,8.9074543 32,11.2353674 32,14 C32,17.3069658 29.3136299,20 25.9998243,20 L6.00017566,20 C2.68697795,20 0,17.3137085 0,14 Z M25.9725356,10 C25.7238035,7.7500155 23.8162709,6 21.5,6 C20.4427534,6 19.4706636,6.3645993 18.7026063,6.974922 C17.8340685,4.0963276 15.1618462,2 12,2 C8.13400656,2 5,5.1340066 5,9 C5,9.3757911 5.0296122,9.7446659 5.08663046,10.1044183 C3.31778819,10.5175755 2,12.1080834 2,14 C2,16.209139 3.79412025,18 5.99683887,18 L26.0031611,18 C28.2105543,18 30,16.2046438 30,14 C30,11.790861 28.2058797,10 26.0031611,10 L25.9725356,10 Z" id="Rectangle-1-copy-2" fill="#000000" fill-rule="nonzero"></path>
            <path d="M25.9725356,10 C25.7238035,7.7500155 23.8162709,6 21.5,6 C20.4427534,6 19.4706636,6.3645993 18.7026063,6.974922 C17.8340685,4.0963276 15.1618462,2 12,2 C8.13400656,2 5,5.1340066 5,9 C5,9.3757911 5.0296122,9.7446659 5.08663046,10.1044183 C3.31778819,10.5175755 2,12.1080834 2,14 C2,16.209139 3.79412025,18 5.99683887,18 L26.0031611,18 C28.2105543,18 30,16.2046438 30,14 C30,11.790861 28.2058797,10 26.0031611,10 L25.9725356,10 Z" id="Rectangle-1-copy-2-path" fill="#FFFFFF" opacity="0.876641757"></path>
        </g>
    </g>
</svg>