<svg width="428" height="428" xmlns="http://www.w3.org/2000/svg"><g fill="none" fill-rule="evenodd"><path d="M32.99 43.31c35.26.04 70.79-.01 106.04.03 3.31-.01 5.86 1.12 8.2 3.43 12.98 13.08 26.12 26.02 39.05 39.16 69.87.16 139.85-.02 209.73.09 13.21.13 25.26 8.99 29.56 21.44 1.5 4.07 1.8 8.24 1.77 12.54-.01 74.67 0 149.33-.01 224-.03 6.44.52 12.56-1.63 18.76-3.27 9.92-11.47 17.81-21.52 20.66-5.45 1.63-10.57 1.23-16.18 1.26-118.66-.01-237.33.01-356-.01-12.25-.17-23.73-7.83-28.6-19.07C1.16 360.67.43 355.39.66 350 .67 258.39.68 166.6.65 74.99c.09-8.73 3.85-17.18 10.26-23.1 5.94-5.56 13.95-8.64 22.08-8.58z" fill="#000"/><path d="M34 64.66c33.65.05 67.31-.02 100.96.04 12.69 12.76 25.48 25.41 38.14 38.21 2.43 2.59 5.19 4.44 8.88 4.4 70.92.05 142.08.01 213.03.02 5.93-.22 11 4.73 10.97 10.64.01 77.94.03 156.11-.01 234.04.39 6.24-4.7 11.53-10.96 11.3-119 .04-238.01-.01-357.01.03-4.35-.12-8.41.64-12.02-2.36-3.16-2.49-4.1-6.09-3.98-9.97 0-90 .04-180.01-.01-270.01.1-3.73-.49-8.14 1.68-11.37 2.24-3.62 6.18-5.14 10.33-4.97z" fill="#FDFDFD"/></g></svg>