<svg width="512" height="512" xmlns="http://www.w3.org/2000/svg"><path d="M222.16 0h68.9l.7.14c6.04 1.56 10.54 5.76 12.42 11.71 4.74 16.26 9.5 32.63 14.2 48.89 10.28 4.09 20.56 8.06 30.57 12.83 15.69-8.51 31.48-16.86 47.22-25.3 6.03-3.26 13.73-1.75 18.43 3.12 14 14 28 28.01 42 42 2.44 2.43 4.81 4.52 6.21 7.76 2.34 5.09 1.85 10.95-.87 15.78-8.17 15.01-16.02 30.22-24.3 45.16.5 1.23 1.01 2.46 1.63 3.64 4.56 8.6 8.21 17.7 11.07 27 16.57 5.12 33.22 10.01 49.81 15.08 5.95 1.92 10.69 7.14 11.85 13.31v68.03c-1.13 6.59-5.78 11.6-12.13 13.54-16.47 4.93-32.92 9.97-49.41 14.85-3.35 10.44-7.2 20.63-12.05 30.46 8.44 15.76 16.82 31.56 25.3 47.3 3.25 6 1.81 13.67-3.01 18.39-15.17 15.17-30.33 30.35-45.5 45.51-3.48 3.51-8.22 5.54-13.21 4.98-3.01-.24-5.6-1.5-8.21-2.94-14.59-7.93-29.38-15.54-43.89-23.61-2.14.87-4.14 1.99-6.16 3.1-7.82 3.99-16.07 7.04-24.46 9.6-5.3 17.14-10.35 34.38-15.61 51.53-1.95 5.72-7.1 9.07-12.86 10.14h-68.91c-6.42-1.24-11.32-5.63-13.28-11.86-5.03-16.54-10.02-33.17-15.02-49.74-10.65-3.23-20.44-8.21-30.54-12.78-15 8.17-30.16 16.09-45.18 24.25-4.9 2.82-10.99 2.88-16.02.37-2.89-1.36-4.93-3.72-7.16-5.93-14.16-14.17-28.33-28.35-42.49-42.51-3.49-3.36-5-8.02-4.39-12.81.37-3.29 1.85-5.96 3.38-8.81 7.76-14.41 15.4-28.88 23.2-43.25-5.41-9.79-9.49-19.84-12.81-30.51-17.12-5.23-34.35-10.33-51.46-15.57C4.37 300.87.98 295.66 0 289.84v-68.08c.59-6.61 4.75-11.63 11.01-13.68 16.86-5.17 33.81-10.15 50.66-15.35 3.88-10.38 8.1-20.56 12.7-30.63-8.3-14.93-16.13-30.14-24.3-45.15-1.03-1.95-2.05-3.73-2.47-5.92-1.02-5.36.87-10.88 4.79-14.63 13.67-13.66 27.34-27.34 41.01-41 2.81-2.79 5.08-5.56 8.84-7.13 5.02-2.21 10.76-1.69 15.48 1.01 14.54 7.81 29.14 15.53 43.67 23.38.98.43 1.63 1.08 2.73.52 9.68-4.26 19.34-8.48 29.47-11.59 5.08-16.89 10.19-33.71 15.25-50.59 1.73-6.17 7.17-10 13.32-11zm71.66 147.26c-18.12-6.42-37.87-8.08-56.83-4.88-19.05 3.11-37.28 11.27-52.41 23.24-10.22 8.44-19.44 18.19-26.41 29.51-12.81 20.45-18.79 44.81-17.1 68.87 1.91 29.18 15.37 57.23 37.15 76.78 23.28 21.94 55.97 32.84 87.77 29.98 22.27-1.9 43.78-10.6 61.27-24.5 10.48-8.69 19.74-18.55 26.85-30.2 11.46-18.52 17.51-40.28 17.07-62.06-.4-27.25-11.07-54.54-29.59-74.58-12.86-14.56-29.42-25.74-47.77-32.16z" fill="#010101" fill-rule="evenodd"/></svg>