<svg width="16" height="16" xmlns="http://www.w3.org/2000/svg"><path d="M1.812.042h12.376c-1.747 1.75-3.5 3.5-5.248 5.25-.05.056-.08.056-.152.056-.54-.001-1.08.001-1.619-.002-.077.01-.139-.091-.192-.136C5.257 3.486 3.532 1.766 1.812.042zM.047 7.116c5.298-.003 10.612.004 15.908-.003.006.59.007 1.182 0 1.773-5.303-.003-10.608-.003-15.911 0-.001-.588-.01-1.182.003-1.77zm7.123 3.537c.525-.003 1.05.002 1.576-.001.055.005.134-.012.173.035 1.752 1.754 3.519 3.517 5.27 5.271-4.126.001-8.253.002-12.377 0 1.72-1.723 3.445-3.444 5.165-5.168.054-.045.115-.145.192-.137zm.498 1.33c-.889.875-1.769 1.768-2.655 2.647 1.991.003 3.983.002 5.975.001-.886-.883-1.769-1.77-2.655-2.652-.221.002-.444-.003-.665.003z" fill="#FFF"/></svg>