<svg viewBox="0 0 482 489" xmlns="http://www.w3.org/2000/svg"><path d="M218 .76c16 0 32-.05 48 .02 7.62.11 15.02 2.29 20.71 7.5 6.7 6.2 9.98 15.76 10.28 24.71.04 53.21-.03 106.6.04 159.79 18.66-.07 37.32-.03 55.97-.02 7.25.03 15.42.76 21.92 4.23 4.52 2.41 8.08 6.66 8.07 11.98-1.15 1.76-2.84 3.2-4.26 4.75C332.82 262.1 286.9 310.46 241 358.83c-46.98-49.67-95.14-100.39-141.9-150.03-.5-4.82 3.3-9.31 7.3-11.52 6.6-3.73 15.14-4.46 22.58-4.51 18.67-.12 37.36.13 56.03-.12-.05-52.86-.01-105.79-.02-158.65 0-9.86 3.95-20.93 11.97-27.09C203.08 2.17 210.4.74 218 .76z"/><path d="M43.99 273.05c6.23 2.71 11.25 7.51 14.64 13.35 4.74 8.06 6.32 17.36 6.36 26.6.07 37.26-.03 74.52.04 111.78 117.29-.05 234.65-.06 351.93 0 .04-36.92.02-73.86.01-110.78.02-8.71 1.12-17.23 5.03-25.11 3.32-6.74 8.56-12.44 15.45-15.6 7.93-3.72 17.57-3.27 25.18 1.07 5.91 3.34 10.44 8.55 13.38 14.63 3.69 7.45 4.91 15.77 4.99 24.01.02 47.67 0 95.34.01 143-.17 9.36-3.75 19.74-11.08 25.91-6.22 5.24-13.95 6.91-21.93 6.84H34c-8.22.12-16.21-1.74-22.47-7.31C4.52 475.12 1.19 465.25.98 456c.03-45.62 0-91.36.02-137-.1-7.87-.01-15.37 2.27-22.98 2.5-8.69 7.55-16.58 15.43-21.29 7.54-4.57 17.21-5.24 25.29-1.68z"/></svg>