<svg width="17" height="16" xmlns="http://www.w3.org/2000/svg"><path d="M1.902.044h12.996c-1.835 1.838-3.676 3.675-5.51 5.513-.053.058-.084.058-.16.058-.567 0-1.134.002-1.7-.001-.081.01-.146-.097-.203-.144C5.52 3.66 3.708 1.854 1.902.044zM.05 7.472c5.562-.003 11.142.004 16.703-.003.006.62.007 1.24 0 1.861-5.569-.003-11.139-.003-16.707 0-.001-.617-.01-1.24.004-1.857zm7.478 2.914c.551-.003 1.104.001 1.655-.001.058.004.141-.013.182.036 1.84 1.843 3.695 3.694 5.533 5.535-4.331.001-8.665.002-12.996 0 1.807-1.81 3.618-3.616 5.424-5.426.056-.047.12-.153.202-.144zm.523 1.395c-.933.92-1.857 1.858-2.788 2.781 2.092.003 4.183.001 6.274 0-.93-.926-1.857-1.857-2.787-2.784-.233.002-.466-.004-.7.003z" fill="#010101"/></svg>