<svg width="21" height="21" xmlns="http://www.w3.org/2000/svg"><path d="M10.16.098c.721.72 1.447 1.443 2.165 2.165-.49 0-.98-.002-1.47 0-.001 2.013 0 4.026-.002 6.04 1.428-1.424 2.852-2.85 4.276-4.276-.348-.342-.689-.692-1.038-1.033 1.037-.003 2.074.001 3.111-.002 0 1.038.004 2.076-.002 3.114-.337-.352-.69-.69-1.03-1.04a2590.787 2590.787 0 00-4.275 4.277c2.012-.002 4.025 0 6.037-.001.003-.49.002-.981.001-1.471.706.703 1.41 1.41 2.116 2.114.028.04.112.078.048.127-.717.72-1.444 1.446-2.164 2.164 0-.49.002-.98 0-1.47-2.013-.002-4.026 0-6.038-.002 1.422 1.427 2.849 2.852 4.275 4.276.34-.35.693-.687 1.03-1.039.006 1.038.002 2.076.002 3.114-1.037-.003-2.074 0-3.111-.002.35-.34.69-.692 1.038-1.033-1.424-1.426-2.848-2.852-4.276-4.275.003 2.013 0 4.026.002 6.038.49.003.98.002 1.47 0-.703.708-1.41 1.41-2.113 2.117-.04.028-.079.116-.127.049-.72-.72-1.446-1.443-2.164-2.165.49 0 .98.002 1.47 0l.001-6.04c-1.427 1.424-2.851 2.85-4.276 4.276.35.341.69.692 1.039 1.033-1.037.003-2.074-.001-3.112.002 0-1.038-.003-2.076.002-3.114.338.352.691.69 1.03 1.04 1.427-1.425 2.853-2.85 4.276-4.277-2.012.002-4.025 0-6.037.001-.003.49-.002.981-.001 1.471-.707-.703-1.41-1.41-2.117-2.114-.028-.04-.11-.077-.048-.127.718-.72 1.445-1.446 2.165-2.164 0 .49-.002.98 0 1.47 2.013.002 4.026 0 6.038.002-1.423-1.428-2.85-2.852-4.275-4.277-.34.35-.693.688-1.03 1.04-.006-1.038-.003-2.076-.003-3.114 1.038.003 2.075 0 3.112.002-.35.34-.69.691-1.039 1.033C6.541 5.453 7.965 6.88 9.392 8.302c-.002-2.013 0-4.026 0-6.038-.49-.003-.98-.002-1.471 0 .703-.708 1.41-1.41 2.113-2.117.04-.028.078-.116.127-.049z"/></svg>