<svg width="21" height="21" xmlns="http://www.w3.org/2000/svg"><path d="M16.398 5.552l1.63-.902 1.631.902-.311-1.909 1.319-1.353-1.822-.277-.816-1.74-.816 1.739-1.823.277 1.32 1.354-.312 1.909zM2.26 8.607l2.576-1.422L7.41 8.607l-.492-3.014L9 3.458l-2.878-.44L4.835.273 3.547 3.018l-2.879.44 2.083 2.135-.492 3.014zm10.8-3.647l-3.498 3.5-8.894 8.891 2.92 2.922 8.707-8.707 3.686-3.684-2.92-2.922zm-2.638 3.686l2.638-2.638 1.873 1.874-2.638 2.637-1.873-1.873zm8.038 7.342l-.988-2.102-.986 2.102-2.208.338 1.598 1.636-.378 2.311 1.974-1.09 1.976 1.09-.378-2.31 1.597-1.637-2.207-.338z"/></svg>