<svg width="306" height="422" xmlns="http://www.w3.org/2000/svg"><path d="M94.58 1.09c9.44-.43 18.96-.04 28.42-.17 29.62 0 59.25-.01 88.86.01 0 9.24.01 18.49 0 27.73-39.11 0-78.22.01-117.33-.01.04-9.18-.09-18.38.05-27.56zM.66 50c101.68 0 203.39-.04 305.07.02-.01 17.06-.01 34.11 0 51.17-101.67-.02-203.41.03-305.07-.02C.64 84.11.65 67.05.66 50zm23.55 70.45c83.47-.16 168.19.01 251.79-.08 2.11-.01 4.21.06 6.32.13-.12 89.49-.02 179.01-.05 268.5.06 12.77-7.23 25.24-19.27 30.11-6.33 2.67-12.31 2.02-19 2.09-62.66-.04-125.35.03-188-.04-17.05-.01-32.01-15.11-31.88-32.16 0-87 .01-174 0-261 .01-2.51-.09-5.04.09-7.55zm194.95 47c-4.4.9-7.63 5.02-7.31 9.55.03 61.99.01 124.01.01 186-.03 3.33.77 6.5 3.2 8.89 3.95 4.24 11.75 2.38 14.47-2.36 1.94-3.11 1.47-7.02 1.55-10.53-.05-58.67-.01-117.33-.02-176-.04-2.93.22-5.98-.24-8.88-1.36-4.86-6.93-7.32-11.66-6.67zm-54.94 5.4c-3.51-7.02-15.09-7.37-19.38-.97-1.08 1.55-1.22 3.28-1.25 5.12.01 60.64.02 121.36-.01 182 .07 3.58-.42 7.58 1.65 10.72 3.8 6.18 14.63 6.07 18.21-.28 1.59-2.6 1.42-5.49 1.49-8.44-.04-59.33.02-118.67-.03-178-.15-3.22.58-7.14-.68-10.15zm-68.97-1.16c-4.1-5.85-14.41-5.81-18.53.01-1.18 1.59-1.39 3.37-1.4 5.3.04 58.99-.01 118.01.02 177 .24 4.67-.8 10.29 1.04 14.65 3.14 7.01 14.37 7.54 18.51 1.26 2.33-3.37 1.69-8 1.78-11.91-.03-60.27-.03-120.73 0-181-.01-1.94-.24-3.71-1.42-5.31z" fill="#C30000" fill-rule="evenodd"/></svg>