<svg width="21" height="21" xmlns="http://www.w3.org/2000/svg"><path d="M16.405 5.507l3.752-3.752a.644.644 0 10-.911-.912l-3.753 3.753H5.905V2.627a.656.656 0 00-.656-.656H3.936a.656.656 0 00-.656.656v1.969H1.31a.656.656 0 00-.656.656v1.312c0 .363.294.657.656.657h1.97v9.843c0 .363.294.657.656.657h9.844v1.968c0 .363.293.657.656.657h1.313a.656.656 0 00.656-.657v-1.968h1.969a.656.656 0 00.656-.657v-1.312a.656.656 0 00-.656-.656h-1.97v-9.59zM12.868 7.22l-6.963 6.964V7.22h6.963zm-6.05 7.875l6.962-6.963v6.963H6.817z" fill="#FFF"/></svg>