<svg width="18" height="21" xmlns="http://www.w3.org/2000/svg"><g transform="translate(.016 .273)" fill="#FFF"><circle cx="6.121" cy="12.157" r="1"/><path d="M10.51 15.119a.313.313 0 00-.415.158c-.287.642-1.22.692-1.5.692-1.14 0-1.46-.656-1.476-.69a.313.313 0 00-.575.249c.019.043.474 1.067 2.051 1.067 1.441 0 1.93-.743 2.072-1.062a.313.313 0 00-.158-.414z"/><circle cx="11.343" cy="12.157" r="1"/><path d="M17.3 5.657c-1.087.072-1.545-.455-2.632-2.037C13.58 2.04 10.434-.85 6.714.263c0 0-1.087.293-1.83 1.113 0 0-5.211-.153-3.546 7.9a2.746 2.746 0 00.936 5.05c.185.62.423 1.213.71 1.767a8.4 8.4 0 001.44 2.012 6.496 6.496 0 001.911 1.37 5.39 5.39 0 004.567.003 6.492 6.492 0 001.91-1.367 8.393 8.393 0 001.439-2.006c.303-.583.552-1.21.742-1.867a2.735 2.735 0 001.137-.707 2.73 2.73 0 00.771-1.908 2.74 2.74 0 00-1.484-2.439 43.253 43.253 0 00-.036-1.325 7.107 7.107 0 001.118-.608s1.888-1.665.801-1.594zm-1.352 5.967a1.79 1.79 0 01-1.726 1.789c-.74 3.255-2.968 5.619-5.601 5.619-2.639 0-4.87-2.373-5.605-5.636a1.791 1.791 0 01-.728-3.5l.39 2.048c.027.249.233.43.459.406l.015-.001a.38.38 0 00.102-.027c.051-.001.099-.028.138-.094a.468.468 0 00.121-.374l-.01-.359c.026-.734-.04-1.683-.04-1.843.855 0 2.047.249 2.287-2.216 0 0 4.053 1.685 7.87.958l-.064 3.46c-.027.249.135.47.361.495l.015.001c.227.025.432-.157.459-.406l.381-2.002a1.791 1.791 0 011.176 1.682z"/></g></svg>