<svg viewBox="0 0 512 448" xmlns="http://www.w3.org/2000/svg"><path d="M293 1.42c24.68-1.89 49.76 2.59 72.15 13.17 26.13 12.22 48.36 32.48 62.97 57.36 13.36 22.53 20.28 48.75 19.85 74.94 17.28 10.07 32.27 24.19 43.25 40.92 12.54 18.84 19.47 40.84 20.78 63.39v10.99c-1.18 24.03-8.84 47.46-22.59 67.23-16.56 24.05-41.36 42.2-69.4 50.4-12 3.58-24.5 5.23-37.01 5.21-10.33-.08-20.66.02-30.99-.03-.04-10.67-.02-21.33-.01-32 6.33-.08 12.67.04 19 0 9.11-.14 17.96.47 27.02-1.04 29.4-4.15 55.99-22.78 70.14-48.85 9.57-17.26 13.54-37.52 11.17-57.12-3.02-25.36-16.77-48.79-36.95-64.34-8.19-6.52-17.87-10.89-26.45-16.64-.27-5.32-.08-10.68-.13-16.01 1.01-19.08-3.56-38.53-12.33-55.47-9.81-18.88-25.05-34.86-43.48-45.5-19.21-11.19-41.8-16.39-63.97-14.73-19.97 1.34-39.5 8.31-55.8 19.92-13.41 9.53-24.56 22-32.76 36.24-5.1 8.77-10.04 17.65-15.23 26.37-8.64-4.44-17.38-8.71-26.07-13.06-4.44-2.29-9.11-4.05-14.03-4.98-12.44-2.44-25.89.85-36.12 8.24-11.85 8.47-19.45 22.39-19.93 36.97.11 7.32.26 14.69-.01 22.01-8.38 5.6-17.83 9.91-25.87 16.2-14.38 10.99-25.69 25.85-32.1 42.8C31.91 240.2 30.41 258 33.7 275c3.4 18.11 12.23 35.04 24.97 48.33 17.42 18.31 42.04 29.25 67.33 29.65 11.33.02 22.67.01 34 .01.02 10.67.01 21.34 0 32.01-12.66-.05-25.34.16-38-.14-27.75-1.22-54.81-11.89-76.03-29.78-19.29-16.12-33.71-37.94-40.78-62.07C2.06 282.56.46 271.76 0 260.88v-10.01c.92-11.89 2.87-23.61 6.89-34.88 9.96-28.99 30.7-53.64 57.08-69.1-.36-18.37 5.52-36.53 16.87-51.01 12.03-15.5 29.81-26.34 49.17-29.65 13.41-2.45 27.32-1.26 40.12 3.4 3.33 1.09 6.4 2.77 9.73 3.86 7.48-13.65 17.81-25.88 29.35-36.28C232.24 16.53 262.11 3.69 293 1.42z"/><path d="M256.02 161.07c32.06 42.54 63.97 85.25 95.96 127.85-21.32.2-42.64.03-63.96.09.01 53.33.05 106.66-.02 159.98-21.33.04-42.67.02-64.01.01.01-53.34-.01-106.67.01-160-21.32-.04-42.66.12-63.98-.08 32.05-42.56 63.94-85.31 96-127.85z"/></svg>