<svg width="21" height="21" xmlns="http://www.w3.org/2000/svg"><path d="M10.016 6.528a4.443 4.443 0 00-4.444 4.445 4.443 4.443 0 004.444 4.444 4.443 4.443 0 004.445-4.444 4.443 4.443 0 00-4.445-4.445zm-7.778 7.778H.016v4.444c0 1.228.995 2.223 2.222 2.223h4.445V18.75H2.238v-4.444zm0-11.111h4.445V.973H2.238A2.222 2.222 0 00.016 3.195v4.444h2.222V3.195zM17.794.973h-4.445v2.222h4.445v4.444h2.222V3.195A2.222 2.222 0 0017.794.973zm0 17.777h-4.445v2.223h4.445a2.222 2.222 0 002.222-2.223v-4.444h-2.222v4.444z"/></svg>