<svg width="16" height="16" xmlns="http://www.w3.org/2000/svg"><path d="M7.115.051A.255.255 0 017.21.039c.56.007 1.12-.005 1.677.007-.008 1.186 0 2.374-.003 3.56.003 4.115-.004 8.232.003 12.346-.184.015-.37.004-.555.007-.407-.003-.814.007-1.22-.006.01-1.214 0-2.428.004-3.642-.001-4.086.001-8.174-.001-12.26zM.042 1.815c1.76 1.75 3.514 3.513 5.271 5.266.05.041.03.115.035.173-.002.525 0 1.051 0 1.576.007.072-.055.104-.097.152-1.737 1.731-3.47 3.474-5.209 5.203-.002-4.123-.001-8.247 0-12.37zm15.915 0c.003 4.121.002 8.249 0 12.37-1.76-1.75-3.512-3.513-5.27-5.266-.05-.038-.03-.117-.035-.173 0-.497.002-.995 0-1.492.005-.056-.014-.134.035-.173 1.757-1.753 3.511-3.515 5.27-5.266zM14.63 5.013c-.88.888-1.77 1.768-2.65 2.655-.001.22 0 .442-.002.664.882.887 1.77 1.768 2.652 2.655.003-1.99.004-3.983 0-5.974z" fill="#FFF"/></svg>