<svg width="21" height="22" xmlns="http://www.w3.org/2000/svg"><path d="M5.487 21.185a4.728 4.728 0 01-3.307-1.313 4.883 4.883 0 01-1.523-3.36c-.052-1.312.42-2.52 1.313-3.465l9.975-10.71C13.783.396 16.828.29 18.77 2.128c.945.893 1.47 2.1 1.523 3.36.052 1.313-.42 2.52-1.313 3.466-.42.42-1.05.42-1.47.052-.42-.42-.42-1.05-.053-1.47a2.882 2.882 0 00.735-1.942c0-.736-.314-1.418-.84-1.89-1.102-1.05-2.835-.946-3.832.105L3.493 14.465a2.882 2.882 0 00-.736 1.943c0 .734.315 1.417.84 1.89 1.103 1.05 2.836.945 3.833-.105l7.14-7.613c.157-.158.21-.367.21-.578 0-.21-.105-.42-.262-.577-.316-.315-.84-.315-1.103 0-1.68 1.785-5.04 5.46-5.04 5.512-.367.42-1.05.473-1.47.053a1.015 1.015 0 01-.053-1.47c.158-.157 3.36-3.727 5.146-5.512 1.102-1.103 2.94-1.155 4.042-.105.578.525.893 1.26.945 2.047 0 .788-.262 1.523-.787 2.1l-7.193 7.613a4.9 4.9 0 01-3.518 1.522z"/></svg>