<svg width="26" height="26" xmlns="http://www.w3.org/2000/svg" xmlns:xlink="http://www.w3.org/1999/xlink"><defs><path id="b" d="M21.664 11.099h-5.103V12.9h7.359v-1.8z"/><path d="M13.802 19.111v1.894a9.197 9.197 0 007.168-7.165h-1.893a7.353 7.353 0 01-5.275 5.271z" id="c"/><path id="d" d="M11.043 18.517v5.441h1.802v-7.357h-1.803z"/><path d="M4.854 13.84H2.956a9.2 9.2 0 007.167 7.169v-1.896a7.351 7.351 0 01-5.27-5.273z" id="e"/><path id="f" d="M5.486 12.9h1.953v-1.8H.08v1.8h4.585z"/><path d="M10.123 4.892V2.994a9.199 9.199 0 00-7.168 7.167h1.893a7.347 7.347 0 015.275-5.269z" id="g"/><path id="h" d="M12.863 6.577V.042h-1.801V7.4h1.801z"/><path d="M19.076 10.161h1.893a9.197 9.197 0 00-7.168-7.166v1.897a7.347 7.347 0 015.275 5.269z" id="i"/><circle id="a" cx="11.963" cy="12.001" r="1.839"/></defs><g fill="none"><g transform="translate(1 1)"><use fill="#FFF" fill-rule="evenodd" xlink:href="#a"/><circle stroke-opacity=".5" stroke="#000" cx="11.963" cy="12.001" r="2.34"/></g><g transform="translate(1 1)"><use fill="#FFF" fill-rule="evenodd" xlink:href="#b"/><path stroke-opacity=".5" stroke="#000" d="M16.061 10.599h8.359V13.4h-8.359v-2.8z"/></g><g transform="translate(1 1)"><use fill="#FFF" fill-rule="evenodd" xlink:href="#c"/><path stroke-opacity=".5" stroke="#000" d="M13.677 18.627a6.853 6.853 0 004.915-4.912l.097-.375h2.893l-.122.6a9.697 9.697 0 01-7.558 7.555l-.6.122v-2.893l.375-.097z"/></g><g transform="translate(1 1)"><use fill="#FFF" fill-rule="evenodd" xlink:href="#d"/><path stroke-opacity=".5" stroke="#000" d="M10.543 24.458v-8.357h2.802v8.357h-2.803z"/></g><g transform="translate(1 1)"><use fill="#FFF" fill-rule="evenodd" xlink:href="#e"/><path stroke-opacity=".5" stroke="#000" d="M5.338 13.715a6.851 6.851 0 004.91 4.913l.375.097v2.896l-.6-.122a9.7 9.7 0 01-7.557-7.56l-.122-.599h2.897l.097.375z"/></g><g transform="translate(1 1)"><use fill="#FFF" fill-rule="evenodd" xlink:href="#f"/><path stroke-opacity=".5" stroke="#000" d="M7.939 13.4H-.42v-2.8h8.359v2.8z"/></g><g transform="translate(1 1)"><use fill="#FFF" fill-rule="evenodd" xlink:href="#g"/><path stroke-opacity=".5" stroke="#000" d="M10.248 5.376a6.847 6.847 0 00-4.915 4.91l-.097.375H2.343l.122-.6a9.699 9.699 0 017.558-7.556l.6-.122v2.896l-.375.097z"/></g><g transform="translate(1 1)"><use fill="#FFF" fill-rule="evenodd" xlink:href="#h"/><path stroke-opacity=".5" stroke="#000" d="M13.363-.459v8.36h-2.801v-8.36h2.801z"/></g><g transform="translate(1 1)"><use fill="#FFF" fill-rule="evenodd" xlink:href="#i"/><path stroke-opacity=".5" stroke="#000" d="M18.592 10.286a6.847 6.847 0 00-4.915-4.91l-.375-.097V2.383l.599.122a9.697 9.697 0 017.559 7.557l.121.599H18.69l-.097-.375z"/></g></g></svg>