<svg xmlns="http://www.w3.org/2000/svg" viewBox="0 0 45 60"><path d="M44.7 16.4c-.1-.3-.3-.7-.5-1L31.1 1.1c-.3-.3-.7-.6-1-.8-.5-.2-1-.3-1.5-.3h-25C1.6 0 0 1.7 0 3.7v52.4C0 58.2 1.6 60 3.5 60h38c1.9 0 3.5-1.8 3.5-3.9V18c0-.6-.1-1.1-.3-1.6zM7.5 17.8c0-.2.3-.3.5-.3h11.1c.2 0 .4.1.4.3v1.7c0 .2-.2.5-.4.5H8c-.3 0-.5-.3-.5-.5v-1.7zm0 20c0-.2.3-.3.5-.3h19.1c.2 0 .4.1.4.3v1.7c0 .2-.1.5-.4.5H8c-.3 0-.5-.3-.5-.5v-1.7zm25 11.7c0 .2-.1.5-.4.5H8c-.3 0-.5-.3-.5-.5v-1.7c0-.2.3-.3.5-.3h24.1c.2 0 .4.1.4.3v1.7zm5-20c0 .2-.1.5-.4.5H8c-.3 0-.5-.3-.5-.5v-1.7c0-.2.3-.3.5-.3h29.1c.2 0 .4.1.4.3v1.7zm-7.3-11.8c-.9 0-1.7-.8-1.7-1.8V5.6l11.1 12.1h-9.4z" opacity=".15"/></svg>