<svg width="42" height="41" xmlns="http://www.w3.org/2000/svg" xmlns:xlink="http://www.w3.org/1999/xlink"><defs><filter x="-23.6%" y="-23.8%" width="147.2%" height="147.6%" filterUnits="objectBoundingBox" id="a"><feOffset in="SourceAlpha" result="shadowOffsetOuter1"/><feGaussianBlur stdDeviation="2.5" in="shadowOffsetOuter1" result="shadowBlurOuter1"/><feComposite in="shadowBlurOuter1" in2="SourceAlpha" operator="out" result="shadowBlurOuter1"/><feColorMatrix values="0 0 0 0 0 0 0 0 0 0 0 0 0 0 0 0 0 0 0.5 0" in="shadowBlurOuter1"/></filter><path d="M26.993 0a4.862 4.862 0 014.864 5.147l.002-.065.001 21.58c0 2.447-1.812 4.485-4.228 4.819l-.22.025-.201.015-.218.005a4.866 4.866 0 01-4.867-4.864V16.594l-2.698 2.692a4.857 4.857 0 01-3.202 1.418l-.24.006a4.896 4.896 0 01-3.246-1.238l-.197-.185L9.82 16.57v10.092c0 2.522-1.924 4.609-4.45 4.845l-.2.014-.217.005c-2.589 0-4.72-2.024-4.862-4.646l-.005-.218V4.864C.085 2.276 2.11.146 4.735.005L4.971 0C6.14 0 7.276.418 8.215 1.238l.197.185 7.573 7.552 7.405-7.381A4.86 4.86 0 0126.749.006z" id="b"/></defs><g fill="none"><g transform="translate(5 5)"><use fill="#000" filter="url(#a)" xlink:href="#b"/><use fill-opacity="0" fill="red" xlink:href="#b"/></g><path d="M9.972 5l-.238.005c-2.623.141-4.65 2.271-4.65 4.859v21.798l.006.218c.141 2.622 2.273 4.646 4.862 4.646l.217-.005.2-.014c2.526-.236 4.45-2.323 4.45-4.845V21.57l2.724 2.717.197.185a4.896 4.896 0 003.247 1.238l.24-.006a4.857 4.857 0 003.2-1.418l2.698-2.692v10.068a4.866 4.866 0 004.868 4.864l.218-.005.2-.015c2.525-.235 4.45-2.323 4.45-4.844l-.001-21.596-.003.08A4.862 4.862 0 0031.993 5l-.244.007a4.86 4.86 0 00-3.359 1.588l-7.405 7.381-7.573-7.552-.197-.185A4.893 4.893 0 009.972 5zm0 1.778c.724 0 1.45.253 2.03.76l.154.144 8.83 8.804 8.72-8.696a3.083 3.083 0 012.287-1.012 3.085 3.085 0 013.09 3.266v21.618a3.088 3.088 0 01-2.92 3.082l-.17.005a3.088 3.088 0 01-3.09-3.087V17.31l-5.732 5.718a3.081 3.081 0 01-2.184.904 3.084 3.084 0 01-2.034-.76l-.154-.144-5.758-5.742v14.376a3.088 3.088 0 01-2.92 3.082l-.17.005a3.088 3.088 0 01-3.084-2.917l-.005-.17V9.864a3.088 3.088 0 012.92-3.082l.19-.004z" fill="#000"/><g fill="red"><path d="M18.799 23.028a3.092 3.092 0 004.369 0 3.084 3.084 0 000-4.364L12.156 7.682a3.092 3.092 0 00-4.369 0 3.084 3.084 0 000 4.364L18.8 23.028zm16.284 8.634a3.088 3.088 0 01-3.09 3.087 3.088 3.088 0 01-3.09-3.087V9.864a3.088 3.088 0 013.09-3.086 3.088 3.088 0 013.09 3.086v21.798z" opacity=".5"/><path d="M34.183 7.682a3.092 3.092 0 00-4.37 0l-11.01 10.982a3.084 3.084 0 000 4.364 3.092 3.092 0 004.368 0l11.012-10.982a3.084 3.084 0 000-4.364M9.952 6.778a3.088 3.088 0 00-3.09 3.086v21.798a3.088 3.088 0 003.09 3.087 3.088 3.088 0 003.09-3.087V9.864a3.088 3.088 0 00-3.09-3.086m25.131 24.884a3.088 3.088 0 01-3.09 3.087 3.088 3.088 0 01-3.09-3.087 3.088 3.088 0 013.09-3.086 3.088 3.088 0 013.09 3.086"/></g></g></svg>