<svg width="26" height="11" xmlns="http://www.w3.org/2000/svg"><g fill="none"><path fill="#FFF" d="M3.432.646H.114v9.676h3.318V6.84h2.496v3.482h3.319V.646H5.929v3.425H3.43z"/><path fill="#000" d="M8.574 1.319v8.33H6.601V6.168H2.76v3.481H.786V1.32H2.76v3.425h3.842V1.32z"/><path fill="#FFF" d="M13.14.646H9.822v9.676h6.85V7.553H13.14z"/><path fill="#000" d="M12.467 1.319v6.907H16v1.423h-5.505V1.32z"/><path d="M20.933.484c-2.352 0-4.03 1.31-4.03 3.294 0 1.571 1.1 2.605 3.048 2.951l1.038.187.234.048.102.023.176.045.075.022.125.044c.163.067.225.134.236.215l.001.034c0 .232-.33.437-.942.437-.617 0-1.073-.25-1.138-.546l-.071-.321h-3.058l.025.472c.104 1.966 1.695 3.095 4.21 3.095 2.627 0 4.267-1.288 4.267-3.38 0-1.628-1.022-2.547-3.121-2.927l-1.038-.187-.232-.05c-.492-.114-.644-.225-.644-.362 0-.223.242-.394.768-.394.579 0 .935.219.964.503l.036.365h3.09l-.023-.49c-.086-1.934-1.59-3.078-4.098-3.078z" fill="#FFF"/><path d="M21.128 1.16c1.924.048 3.022.833 3.207 2.16l.006.059h-1.797l-.013-.039c-.202-.523-.809-.828-1.567-.828-.858 0-1.44.412-1.44 1.066 0 .6.435.877 1.418 1.071l1.049.19c1.81.328 2.568 1.01 2.568 2.264 0 1.681-1.309 2.709-3.595 2.709l-.19-.003c-1.949-.048-3.12-.836-3.322-2.187l-.004-.033h1.821l.037.074c.269.497.926.793 1.69.793.894 0 1.553-.384 1.61-1.017l.005-.099c0-.645-.451-.896-1.636-1.11l-.906-.163c-1.655-.294-2.493-1.082-2.493-2.29 0-1.57 1.345-2.62 3.357-2.62l.195.002z" fill="#000"/></g></svg>