<svg viewBox="0 0 220 220" xmlns="http://www.w3.org/2000/svg"><g fill-rule="evenodd"><path d="M97 122.98c7.125 7.117 18.678 7.117 25.804 0 7.126-7.12 7.126-18.66 0-25.779L57.766 32.34c-7.126-7.119-18.679-7.119-25.805 0-7.126 7.118-7.126 18.66 0 25.778L97 122.98zm96.175 50.994c0 10.066-8.169 18.228-18.247 18.228-10.077 0-18.247-8.162-18.247-18.228V45.227c0-10.066 8.17-18.227 18.247-18.227 10.078 0 18.247 8.161 18.247 18.227v128.747z" opacity=".7"/><path d="M187.863 32.339c-7.126-7.118-18.68-7.118-25.806 0L97.02 97.2c-7.126 7.119-7.126 18.659 0 25.778s18.679 7.119 25.805 0l65.038-64.862c7.125-7.118 7.125-18.66 0-25.778M44.746 27C34.669 27 26.5 35.161 26.5 45.228v128.746c0 10.068 8.169 18.23 18.246 18.23 10.078 0 18.248-8.162 18.248-18.23V45.228C62.994 35.161 54.824 27 44.746 27m148.429 146.974c0 10.066-8.169 18.228-18.247 18.228-10.077 0-18.247-8.162-18.247-18.228 0-10.067 8.17-18.228 18.247-18.228 10.078 0 18.247 8.161 18.247 18.228"/></g></svg>