<svg width="98" height="98" xmlns="http://www.w3.org/2000/svg"><path d="M49 .1C22 .1.1 22 .1 49S22 97.9 49 97.9 97.9 76 97.9 49 76 .1 49 .1zm5.3 76.6c0 1.7-1.4 3.1-3.1 3.1h-7.9c-1.7 0-3.1-1.4-3.1-3.1v-5.1c0-1.7 1.4-3.1 3.1-3.1h7.9c1.7 0 3.1 1.4 3.1 3.1v5.1zm12.5-30.4c-2.1 2.9-4.7 5.2-7.9 6.9-1.8 1.2-3 2.4-3.6 3.8-.4.9-.7 2.1-.9 3.5-.1 1.1-1.1 1.9-2.2 1.9h-9.7c-1.3 0-2.3-1.1-2.2-2.3.2-2.7.9-4.8 2-6.4 1.4-1.9 3.9-4.2 7.5-6.7 1.9-1.2 3.3-2.6 4.4-4.3 1.1-1.7 1.6-3.7 1.6-6s-.6-4.2-1.9-5.6c-1.3-1.4-3-2.1-5.3-2.1-1.9 0-3.4.6-4.7 1.7-.8.7-1.3 1.6-1.6 2.8-.4 1.4-1.7 2.3-3.2 2.3l-9-.2c-1.1 0-2-1-1.9-2.1.3-4.8 2.2-8.4 5.5-11 3.8-2.9 8.7-4.4 14.9-4.4 6.6 0 11.8 1.7 15.6 5 3.8 3.3 5.7 7.8 5.7 13.5 0 3.6-1.1 6.8-3.1 9.7z" fill="#3A5674"/></svg>