<svg width="1440" height="101" xmlns="http://www.w3.org/2000/svg" xmlns:xlink="http://www.w3.org/1999/xlink"><defs><radialGradient cx="6.178%" cy="53.11%" fx="6.178%" fy="53.11%" r="93.391%" gradientTransform="matrix(.06944 .00628 -.00044 .99998 .058 0)" id="c"><stop stop-color="#E9E5E5" offset="0%"/><stop stop-color="#E8E8E8" offset="37%"/><stop stop-color="#E4E4E2" offset="100%"/></radialGradient><path id="a" d="M0 0h1440v100H0z"/></defs><g transform="translate(0 .879)" fill="none" fill-rule="evenodd"><mask id="b" fill="#fff"><use xlink:href="#a"/></mask><use fill="#D8D8D8" xlink:href="#a"/><g fill-rule="nonzero" mask="url(#b)"><path fill="url(#c)" d="M0 34h1440v100H0z" transform="translate(0 -34)"/><g fill="#FFF"><path d="M186.12 79.646c-2.297-19.3-16.937-34.83-36.067-38.262-19.13-3.43-38.256 6.045-47.116 23.344A34.829 34.829 0 0056.5 96.944h-1.741c-14.44.621-25.841 12.485-25.888 26.938-.046 14.453 11.278 26.39 25.714 27.104h125.789a35.815 35.815 0 105.805-71.34h-.058z" opacity=".39"/><path d="M525.292 10.395a15.673 15.673 0 00-29.546-5.108 12.248 12.248 0 00-16.544 11.61h-.639a9.607 9.607 0 100 19.213h46.206c7.021.128 12.817-5.46 12.945-12.48.128-7.021-5.46-12.817-12.48-12.945l.058-.29z" opacity=".17"/><path d="M226.579 24.733a15.673 15.673 0 00-29.488-5.283 12.248 12.248 0 00-16.544 11.61h-.639a9.607 9.607 0 100 19.214h46.149c7.02.144 12.829-5.43 12.973-12.452.144-7.02-5.43-12.829-12.451-12.973v-.116z" opacity=".21"/><path d="M435.492 56.31c-1.994-17.012-14.884-30.717-31.742-33.75-16.859-3.032-33.717 5.322-41.514 20.574a30.475 30.475 0 00-41.098 28.385h-1.567c-13.176 0-23.858 10.682-23.858 23.858s10.682 23.857 23.858 23.857h110.871c1.276.077 2.555.077 3.831 0 16.967-.322 30.645-13.995 30.973-30.962.328-16.967-12.812-31.159-29.754-32.136v.175z" opacity=".31"/></g><g fill="#FFF"><path d="M891.69 49.646c2.297-19.3 16.937-34.83 36.067-38.262 19.13-3.43 38.256 6.045 47.116 23.344a34.829 34.829 0 0146.438 32.216h1.741c14.44.621 25.841 12.485 25.888 26.938.046 14.453-11.278 26.39-25.714 27.104H897.437a35.815 35.815 0 11-5.805-71.34h.058z" opacity=".39"/><path d="M529.473 99.102a32.042 32.042 0 0160.37-10.797 25.135 25.135 0 0133.841 23.22h1.277c10.438.567 18.61 9.196 18.61 19.649 0 10.452-8.172 19.081-18.61 19.649h-91.366a25.618 25.618 0 01-3.135 0 26.126 26.126 0 01-.987-52.243v.522z" opacity=".47"/><path d="M552.518-19.605a15.673 15.673 0 0129.546-5.108 12.248 12.248 0 0116.544 11.61h.638a9.607 9.607 0 110 19.213H553.04c-7.02.128-12.816-5.46-12.944-12.48-.128-7.021 5.46-12.817 12.48-12.945l-.058-.29z" opacity=".17"/><path d="M811.231 14.733A15.673 15.673 0 01840.72 9.45a12.248 12.248 0 0116.544 11.61h.638a9.607 9.607 0 110 19.214h-46.149c-7.02.144-12.829-5.43-12.973-12.452-.144-7.02 5.43-12.829 12.451-12.973v-.116z" opacity=".21"/><path d="M642.318 26.31c1.994-17.012 14.884-30.717 31.742-33.75 16.859-3.032 33.716 5.322 41.514 20.574a30.475 30.475 0 0141.098 28.385h1.567c13.176 0 23.857 10.682 23.857 23.858s-10.681 23.857-23.857 23.857H647.368a31.984 31.984 0 01-3.831 0c-16.967-.322-30.646-13.995-30.973-30.962-.328-16.967 12.812-31.159 29.754-32.136v.175z" opacity=".31"/></g><g fill="#FFF"><path d="M1260.358 79.646c-2.296-19.3-16.937-34.83-36.067-38.262-19.13-3.43-38.256 6.045-47.115 23.344a34.829 34.829 0 00-46.439 32.216h-1.741c-14.44.621-25.84 12.485-25.887 26.938-.047 14.453 11.277 26.39 25.713 27.104h125.79a35.815 35.815 0 105.804-71.34h-.058z" opacity=".39"/><path d="M1300.817 24.733a15.673 15.673 0 00-29.488-5.283 12.248 12.248 0 00-16.544 11.61h-.638a9.607 9.607 0 100 19.214h46.148c7.02.144 12.829-5.43 12.973-12.452.144-7.02-5.43-12.829-12.451-12.973v-.116z" opacity=".21"/><path d="M1509.73 56.31c-1.994-17.012-14.883-30.717-31.742-33.75-16.859-3.032-33.716 5.322-41.514 20.574a30.475 30.475 0 00-41.097 28.385h-1.568c-13.176 0-23.857 10.682-23.857 23.858s10.681 23.857 23.857 23.857h110.871c1.276.077 2.555.077 3.831 0 16.967-.322 30.646-13.995 30.974-30.962.327-16.967-12.813-31.159-29.755-32.136v.175z" opacity=".31"/></g></g></g></svg>