<svg viewBox="0 0 63 57" xmlns="http://www.w3.org/2000/svg"><path d="M59.701 56.118H22.498A3.018 3.018 0 0119.48 53.1v-1.2a3.018 3.018 0 013.018-3.018h37.203a3.018 3.018 0 013.018 3.018v1.2a3.018 3.018 0 01-3.018 3.018zm0-24H22.498A3.018 3.018 0 0119.48 29.1v-1.2a3.018 3.018 0 013.018-3.018h37.203a3.018 3.018 0 013.018 3.018v1.2a3.018 3.018 0 01-3.018 3.018zm0-24H22.498A3.018 3.018 0 0119.48 5.1V3.9A3.018 3.018 0 0122.498.882h37.203A3.018 3.018 0 0162.719 3.9v1.2a3.018 3.018 0 01-3.018 3.018zm-50.4 48H3.298A3.018 3.018 0 01.281 53.1v-1.2a3.018 3.018 0 013.017-3.018h6.003a3.018 3.018 0 013.018 3.018v1.2a3.018 3.018 0 01-3.018 3.018zm0-24H3.298A3.018 3.018 0 01.281 29.1v-1.2a3.018 3.018 0 013.017-3.018h6.003a3.018 3.018 0 013.018 3.018v1.2a3.018 3.018 0 01-3.018 3.018zm.001-24H3.298A3.018 3.018 0 01.281 5.1V3.9A3.018 3.018 0 013.298.882h6.004A3.018 3.018 0 0112.319 3.9v1.2a3.018 3.018 0 01-3.017 3.018z"/></svg>