<svg viewBox="0 0 2492 966" xmlns="http://www.w3.org/2000/svg"><g fill="none"><path d="M321.45 924.734l-146.348-52.52v-214.5l146.347 49.863v217.158m26.846 0l146.348-52.51V657.714l-146.348 49.863v217.158M190.14 641.668l148.115-41.7L475.6 644.257l-137.344 46.63-148.115-49.218m-42.93-16.611L.863 572.557V358.035l146.348 49.863v217.159m26.846 0l146.357-52.5V358.035l-146.357 49.863v217.159M15.902 341.98l148.125-41.689 137.344 44.287-137.344 46.631L15.902 341.99m472.803 283.067l-146.357-52.5V358.035l146.357 49.863v217.159m26.846 0l146.357-52.5V358.035l-146.357 49.863v217.159M357.406 341.98l148.115-41.689 137.334 44.287-137.334 46.631-148.115-49.219m305.537-16.63l-146.357-52.481V58.357l146.357 49.854v217.148m26.846 0l146.348-52.48V58.357l-146.358 49.854v217.148M531.635 42.313L679.76.612 817.094 44.89 679.76 91.53 531.635 42.312m472.812 283.047L858.09 272.88V58.357l146.357 49.854v217.148m26.836 0l146.358-52.48V58.357l-146.358 49.854v217.148M873.13 42.313l148.125-41.7 137.334 44.278-137.334 46.63L873.13 42.303" fill="#F90"/><path fill="#000" d="M929.994 784.988l-49.16 170.791h-21.357l-38.282-126.855-35.088 126.855H764.33l-51.123-170.79h26.416l37.217 127.275 35.43-127.276h19.492l38.515 127.686 38.252-127.686h21.455z"/><path stroke="#000" stroke-width="9.766" fill="#000" d="M929.994 784.988l-49.16 170.791h-21.357l-38.282-126.855-35.088 126.855H764.33l-51.123-170.79h26.416l37.217 127.275 35.43-127.276h19.492l38.515 127.686 38.252-127.686h21.455z"/><path d="M1065.99 904.832l24.746 5.078c-4.502 14.6-13.28 26.7-26.318 36.26-13.066 9.57-28.418 14.355-46.094 14.355-23.29 0-42.138-8.203-56.543-24.629-14.414-16.406-21.611-37.949-21.611-64.58 0-27.197 7.49-49.17 22.451-65.927 14.961-16.758 33.76-25.137 56.387-25.137 22.295 0 40.205 7.715 53.77 23.144 13.554 15.43 20.507 38.516 20.849 69.258H969.672c0 25.83 5.39 43.242 16.191 52.276 10.791 9.013 22.207 13.525 34.239 13.525 21.709 0 37.011-11.21 45.888-33.623zm-1.445-51.973c-.225-9.57-1.797-18.086-4.727-25.527-2.93-7.432-7.87-13.77-14.843-19.014-6.973-5.234-15.362-7.851-25.147-7.851-13.154 0-24.316 4.726-33.486 14.199-9.17 9.473-14.307 22.188-15.43 38.184h93.633v.01z" fill="#000"/><path d="M1065.99 904.832l24.746 5.078c-4.502 14.6-13.28 26.7-26.318 36.26-13.066 9.57-28.418 14.355-46.094 14.355-23.29 0-42.138-8.203-56.543-24.629-14.414-16.406-21.611-37.949-21.611-64.58 0-27.197 7.49-49.17 22.451-65.927 14.961-16.758 33.76-25.137 56.387-25.137 22.295 0 40.205 7.715 53.77 23.144 13.554 15.43 20.507 38.516 20.849 69.258H969.672c0 25.83 5.39 43.242 16.191 52.276 10.791 9.013 22.207 13.525 34.239 13.525 21.709 0 37.011-11.21 45.888-33.623h0zm-1.445-51.973c-.225-9.57-1.797-18.086-4.727-25.527-2.93-7.432-7.87-13.77-14.843-19.014-6.973-5.234-15.362-7.851-25.147-7.851-13.154 0-24.316 4.726-33.486 14.199-9.17 9.473-14.307 22.188-15.43 38.184h93.633v.01z" stroke="#000" stroke-width="9.766" fill="#000"/><path d="M1141.371 955.78h-12.793V725.183h26.611v88.28c12.149-22.148 28.897-33.212 50.254-33.212 19.551 0 35.938 7.725 49.15 23.193 13.214 15.46 19.825 37.91 19.825 67.364 0 25.39-6.504 46.68-19.492 63.896-13.008 17.217-29.912 25.82-50.733 25.82-23.183 0-40.957-11.005-53.33-33.007l-9.492 28.261zm13.818-66.964c1.24 17.54 6.622 30.254 16.133 38.184 9.512 7.91 19.57 11.875 30.147 11.875 13.515 0 24.414-5.87 32.685-17.607 8.282-11.729 12.403-27.803 12.403-48.223 0-21.982-3.985-39.277-11.983-51.856-7.998-12.578-19.092-18.876-33.271-18.876-11.143 0-21.192 4.492-30.147 13.427-8.955 8.965-14.277 20.537-15.967 34.727v38.35z" fill="#000"/><path d="M1141.371 955.78h-12.793V725.183h26.611v88.28c12.149-22.148 28.897-33.212 50.254-33.212 19.551 0 35.938 7.725 49.15 23.193 13.214 15.46 19.825 37.91 19.825 67.364 0 25.39-6.504 46.68-19.492 63.896-13.008 17.217-29.912 25.82-50.733 25.82-23.183 0-40.957-11.005-53.33-33.007l-9.492 28.261h0zm13.818-66.964c1.24 17.54 6.622 30.254 16.133 38.184 9.512 7.91 19.57 11.875 30.147 11.875 13.515 0 24.414-5.87 32.685-17.607 8.282-11.729 12.403-27.803 12.403-48.223 0-21.982-3.985-39.277-11.983-51.856-7.998-12.578-19.092-18.876-33.271-18.876-11.143 0-21.192 4.492-30.147 13.427-8.955 8.965-14.277 20.537-15.967 34.727v38.35h0z" stroke="#000" stroke-width="9.766" fill="#000"/><path d="M1342.22 911.521l25.362-5.244c5.645 21.455 23.467 32.178 53.457 32.178 11.035 0 20.41-2.47 28.066-7.422 7.676-4.941 11.504-11.914 11.504-20.908 0-13.379-9.755-21.865-29.277-25.459l-35.967-6.846c-14.092-2.705-25.293-8.008-33.633-15.898-8.33-7.89-12.5-18.32-12.5-31.29 0-14.306 5.684-26.288 17.061-35.927 11.367-9.639 26.69-14.453 45.947-14.453 37.051 0 59.922 14.482 68.584 43.437l-24.336 5.235c-6.982-17.735-21.328-26.611-43.047-26.611-10.81 0-19.677 2.226-26.601 6.65-6.914 4.433-10.381 10.625-10.381 18.594 0 12.548 8.848 20.449 26.533 23.71l33.252 6.124c34.815 6.308 52.207 23.203 52.207 50.634 0 15.684-6.474 28.37-19.433 38.008-12.96 9.668-30.206 14.492-51.739 14.492-40.459 0-65.488-16.337-75.058-49.004z" fill="#000"/><path d="M1342.22 911.521l25.362-5.244c5.645 21.455 23.467 32.178 53.457 32.178 11.035 0 20.41-2.47 28.066-7.422 7.676-4.941 11.504-11.914 11.504-20.908 0-13.379-9.755-21.865-29.277-25.459l-35.967-6.846c-14.092-2.705-25.293-8.008-33.633-15.898-8.33-7.89-12.5-18.32-12.5-31.29 0-14.306 5.684-26.288 17.061-35.927 11.367-9.639 26.69-14.453 45.947-14.453 37.051 0 59.922 14.482 68.584 43.437l-24.336 5.235c-6.982-17.735-21.328-26.611-43.047-26.611-10.81 0-19.677 2.226-26.601 6.65-6.914 4.433-10.381 10.625-10.381 18.594 0 12.548 8.848 20.449 26.533 23.71l33.252 6.124c34.815 6.308 52.207 23.203 52.207 50.634 0 15.684-6.474 28.37-19.433 38.008-12.96 9.668-30.206 14.492-51.739 14.492-40.459 0-65.488-16.337-75.058-49.004h0z" stroke="#000" stroke-width="9.766" fill="#000"/><path d="M1629.955 904.832l24.746 5.078c-4.492 14.6-13.271 26.7-26.328 36.26-13.047 9.57-28.418 14.355-46.074 14.355-23.301 0-42.158-8.203-56.553-24.629-14.414-16.406-21.601-37.949-21.601-64.58 0-27.197 7.47-49.17 22.46-65.927 14.961-16.758 33.75-25.137 56.377-25.137 22.276 0 40.206 7.715 53.77 23.144 13.564 15.43 20.508 38.516 20.84 69.258h-123.955c0 25.83 5.4 43.242 16.191 52.276 10.8 9.013 22.217 13.525 34.248 13.525 21.7 0 37.002-11.21 45.88-33.623zm-1.445-51.973c-.215-9.57-1.797-18.086-4.717-25.527-2.93-7.432-7.871-13.77-14.844-19.014-6.972-5.234-15.37-7.851-25.146-7.851-13.155 0-24.317 4.726-33.496 14.199-9.16 9.473-14.317 22.188-15.43 38.184h93.633v.01z" fill="#000"/><path d="M1629.955 904.832l24.746 5.078c-4.492 14.6-13.271 26.7-26.328 36.26-13.047 9.57-28.418 14.355-46.074 14.355-23.301 0-42.158-8.203-56.553-24.629-14.414-16.406-21.601-37.949-21.601-64.58 0-27.197 7.47-49.17 22.46-65.927 14.961-16.758 33.75-25.137 56.377-25.137 22.276 0 40.206 7.715 53.77 23.144 13.564 15.43 20.508 38.516 20.84 69.258h-123.955c0 25.83 5.4 43.242 16.191 52.276 10.8 9.013 22.217 13.525 34.248 13.525 21.7 0 37.002-11.21 45.88-33.623h0zm-1.445-51.973c-.215-9.57-1.797-18.086-4.717-25.527-2.93-7.432-7.871-13.77-14.844-19.014-6.972-5.234-15.37-7.851-25.146-7.851-13.155 0-24.317 4.726-33.496 14.199-9.16 9.473-14.317 22.188-15.43 38.184h93.633v.01z" stroke="#000" stroke-width="9.766" fill="#000"/><path d="M1712.816 955.78h-26.61V784.987h23.32v39.815c8.212-18.653 16.464-30.733 24.736-36.25 8.271-5.537 16.748-8.301 25.43-8.301 2.695 0 6.19.205 10.468.615v25.371h-5.39c-14.63 0-26.768 5.44-36.426 16.3-9.678 10.858-14.844 25.126-15.528 42.821v90.42z" fill="#000"/><path d="M1712.816 955.78h-26.61V784.987h23.32v39.815c8.212-18.653 16.464-30.733 24.736-36.25 8.271-5.537 16.748-8.301 25.43-8.301 2.695 0 6.19.205 10.468.615v25.371h-5.39c-14.63 0-26.768 5.44-36.426 16.3-9.678 10.858-14.844 25.126-15.528 42.821v90.42h0z" stroke="#000" stroke-width="9.766" fill="#000"/><path fill="#000" d="M1935.414 784.988L1876.45 955.78h-27.568l-60.938-170.79h29.434l47.402 138.818 47.041-138.819z"/><path stroke="#000" stroke-width="9.766" fill="#000" d="M1935.414 784.988L1876.45 955.78h-27.568l-60.938-170.79h29.434l47.402 138.818 47.041-138.819z"/><path d="M1956.684 725.184h28.466v29.492h-28.466v-29.492zm1.24 59.804h26.601V955.78h-26.601V784.99z" fill="#000"/><path d="M1956.684 725.184h28.466v29.492h-28.466v-29.492zm1.24 59.804h26.601V955.78h-26.601V784.99z" stroke="#000" stroke-width="9.766" fill="#000"/><path d="M2123.54 895.965l23.915 4.219c-3.379 18.877-10.87 33.652-22.47 44.326-11.602 10.674-26.075 16.015-43.419 16.015-23.535 0-41.484-8.691-53.808-26.074-12.324-17.373-18.506-38.584-18.506-63.642 0-25.957 6.514-47.53 19.521-64.746 12.998-17.208 30.713-25.811 53.125-25.811 18.594 0 33.487 5.557 44.688 16.69 11.22 11.113 18.164 25.488 20.87 43.095l-23.927 4.56c-4.502-28.173-18.115-42.284-40.85-42.284-14.628 0-25.878 6.22-33.75 18.662-7.88 12.45-11.816 28.584-11.816 48.398 0 21.856 3.907 38.818 11.719 50.928 7.832 12.1 18.828 18.154 33.008 18.154 21.933 0 35.84-14.16 41.7-42.48v-.01z" fill="#000"/><path d="M2123.54 895.965l23.915 4.219c-3.379 18.877-10.87 33.652-22.47 44.326-11.602 10.674-26.075 16.015-43.419 16.015-23.535 0-41.484-8.691-53.808-26.074-12.324-17.373-18.506-38.584-18.506-63.642 0-25.957 6.514-47.53 19.521-64.746 12.998-17.208 30.713-25.811 53.125-25.811 18.594 0 33.487 5.557 44.688 16.69 11.22 11.113 18.164 25.488 20.87 43.095l-23.927 4.56c-4.502-28.173-18.115-42.284-40.85-42.284-14.628 0-25.878 6.22-33.75 18.662-7.88 12.45-11.816 28.584-11.816 48.398 0 21.856 3.907 38.818 11.719 50.928 7.832 12.1 18.828 18.154 33.008 18.154 21.933 0 35.84-14.16 41.7-42.48v-.01z" stroke="#000" stroke-width="9.766" fill="#000"/><path d="M2297.504 904.832l24.746 5.078c-4.492 14.6-13.281 26.7-26.328 36.26-13.047 9.57-28.418 14.355-46.084 14.355-23.3 0-42.149-8.203-56.553-24.629-14.404-16.406-21.601-37.949-21.601-64.58 0-27.197 7.48-49.17 22.46-65.927 14.961-16.758 33.76-25.137 56.387-25.137 22.266 0 40.205 7.715 53.76 23.144 13.574 15.43 20.508 38.516 20.85 69.258h-123.965c0 25.83 5.4 43.242 16.191 52.276 10.81 9.013 22.207 13.525 34.258 13.525 21.69 0 36.992-11.21 45.879-33.623zm-1.445-51.973c-.225-9.57-1.807-18.086-4.727-25.527-2.93-7.432-7.871-13.77-14.844-19.014-6.972-5.234-15.361-7.851-25.146-7.851-13.164 0-24.326 4.726-33.496 14.199-9.16 9.473-14.317 22.188-15.43 38.184h93.643v.01z" fill="#000"/><path d="M2297.504 904.832l24.746 5.078c-4.492 14.6-13.281 26.7-26.328 36.26-13.047 9.57-28.418 14.355-46.084 14.355-23.3 0-42.149-8.203-56.553-24.629-14.404-16.406-21.601-37.949-21.601-64.58 0-27.197 7.48-49.17 22.46-65.927 14.961-16.758 33.76-25.137 56.387-25.137 22.266 0 40.205 7.715 53.76 23.144 13.574 15.43 20.508 38.516 20.85 69.258h-123.965c0 25.83 5.4 43.242 16.191 52.276 10.81 9.013 22.207 13.525 34.258 13.525 21.69 0 36.992-11.21 45.879-33.623h0zm-1.445-51.973c-.225-9.57-1.807-18.086-4.727-25.527-2.93-7.432-7.871-13.77-14.844-19.014-6.972-5.234-15.361-7.851-25.146-7.851-13.164 0-24.326 4.726-33.496 14.199-9.16 9.473-14.317 22.188-15.43 38.184h93.643v.01z" stroke="#000" stroke-width="9.766" fill="#000"/><path d="M2340.16 911.521l25.39-5.244c5.626 21.455 23.438 32.178 53.429 32.178 11.054 0 20.41-2.47 28.076-7.422 7.666-4.941 11.504-11.914 11.504-20.908 0-13.379-9.756-21.865-29.278-25.459l-35.967-6.846c-14.091-2.705-25.293-8.008-33.632-15.898-8.33-7.89-12.5-18.32-12.5-31.29 0-14.306 5.673-26.288 17.06-35.927 11.367-9.639 26.68-14.453 45.947-14.453 37.051 0 59.913 14.482 68.584 43.437l-24.336 5.235c-6.982-17.735-21.328-26.611-43.046-26.611-10.81 0-19.678 2.226-26.592 6.65-6.934 4.433-10.39 10.625-10.39 18.594 0 12.548 8.847 20.449 26.542 23.71l33.242 6.124c34.805 6.308 52.217 23.203 52.217 50.634 0 15.684-6.474 28.37-19.443 38.008-12.96 9.668-30.215 14.492-51.738 14.492-40.46 0-65.489-16.337-75.069-49.004z" fill="#000"/><path d="M2340.16 911.521l25.39-5.244c5.626 21.455 23.438 32.178 53.429 32.178 11.054 0 20.41-2.47 28.076-7.422 7.666-4.941 11.504-11.914 11.504-20.908 0-13.379-9.756-21.865-29.278-25.459l-35.967-6.846c-14.091-2.705-25.293-8.008-33.632-15.898-8.33-7.89-12.5-18.32-12.5-31.29 0-14.306 5.673-26.288 17.06-35.927 11.367-9.639 26.68-14.453 45.947-14.453 37.051 0 59.913 14.482 68.584 43.437l-24.336 5.235c-6.982-17.735-21.328-26.611-43.046-26.611-10.81 0-19.678 2.226-26.592 6.65-6.934 4.433-10.39 10.625-10.39 18.594 0 12.548 8.847 20.449 26.542 23.71l33.242 6.124c34.805 6.308 52.217 23.203 52.217 50.634 0 15.684-6.474 28.37-19.443 38.008-12.96 9.668-30.215 14.492-51.738 14.492-40.46 0-65.489-16.337-75.069-49.004h0z" stroke="#000" stroke-width="9.766" fill="#000"/><path d="M1740.434 419.979v-41.016a10.137 10.137 0 0110.4-10.4l183.867-.02c5.889 0 10.606 4.277 10.615 10.352l-.01 35.195c-.048 5.898-5.019 13.603-13.847 25.82l-95.234 135.986c35.351-.83 72.754 4.463 104.873 22.52 7.246 4.063 9.18 10.098 9.746 16.016v43.77c0 6.034-6.592 13.007-13.535 9.374-56.592-29.639-131.7-32.89-194.268.361-6.396 3.418-13.086-3.466-13.086-9.501v-41.612c0-6.66.117-18.047 6.836-28.203l110.352-158.3-96.084-.01c-5.87 0-10.577-4.2-10.616-10.332h-.01zm-658.008 256.22h-55.947c-5.323-.342-9.57-4.345-10-9.443l.039-287.11c0-5.732 4.834-10.332 10.79-10.332l52.09-.01c5.46.274 9.834 4.395 10.176 9.64v37.49h1.055c13.574-36.25 39.16-53.174 73.613-53.174 34.99 0 56.914 16.924 72.588 53.174 13.574-36.25 44.375-53.174 77.275-53.174 23.497 0 49.082 9.668 64.747 31.416 17.753 24.16 14.101 59.209 14.101 90.02l-.039 181.171c0 5.742-4.834 10.342-10.791 10.342h-55.87c-5.614-.361-10.048-4.814-10.048-10.313V513.69c0-12.08 1.035-42.285-1.582-53.76-4.18-19.335-16.7-24.775-32.89-24.775-13.575 0-27.676 9.063-33.419 23.565-5.752 14.502-5.224 38.662-5.224 54.98v152.168c0 5.742-4.834 10.342-10.781 10.342h-55.88c-5.615-.361-10.038-4.814-10.038-10.313l-.059-152.207c0-32.011 5.225-79.14-34.453-79.14-40.215 0-38.643 45.918-38.643 79.14l-.029 152.178c0 5.742-4.824 10.342-10.781 10.342v-.01zm997.959-312.94c82.363 0 126.914 71.29 126.914 161.915 0 87.597-49.21 157.08-126.914 157.08-80.81 0-124.844-71.29-124.844-160.098 0-89.424 44.56-158.886 124.844-158.886v-.01zm.517 65.997c-40.927 0-43.515 56.182-43.515 91.22 0 35.04-.518 102.569 42.998 102.569 42.998 0 45.068-53.027 45.068-89.873 0-24.17-1.025-53.174-8.281-76.123-6.23-19.942-18.652-27.793-36.27-27.793zm245.596 246.943h-55.723c-5.605-.351-10.039-4.804-10.039-10.303l-.097-287.207c.478-5.253 5.117-9.375 10.752-9.375l51.884-.01c4.883.245 8.916 3.585 9.942 8.038v43.916h1.054c15.665-39.268 37.588-57.998 76.23-57.998 25.06 0 49.61 9.062 65.274 33.838 14.62 22.949 14.62 61.62 14.62 89.414v180.644c-.625 5.098-5.186 9.053-10.713 9.053h-56.084c-5.176-.342-9.356-4.14-9.961-9.053V511.277c0-31.416 3.662-77.334-34.98-77.334-13.595 0-26.114 9.063-32.374 22.96-7.832 17.519-8.887 35.038-8.887 54.374v154.59c-.097 5.742-4.931 10.342-10.898 10.342v-.01zm-669.893-.713c-3.71 3.32-9.043 3.545-13.222 1.309-18.574-15.45-21.904-22.588-32.06-37.285-30.714 31.289-52.452 40.664-92.227 40.664-47.09 0-83.721-29.063-83.721-87.188 0-45.41 24.59-76.289 59.648-91.425 30.352-13.32 72.745-15.743 105.176-19.375v-7.266c0-13.32 1.055-29.063-6.797-40.566-6.797-10.293-19.882-14.532-31.396-14.532-21.338 0-40.303 10.938-44.961 33.594-.967 5.04-4.649 10.02-9.717 10.273l-54.219-5.859c-4.58-1.035-9.668-4.707-8.35-11.69 12.462-65.78 71.866-85.654 125.098-85.654 27.207 0 62.793 7.266 84.248 27.852 27.207 25.43 24.59 59.336 24.59 96.27v87.148c0 26.21 10.899 37.715 21.123 51.846 3.565 5.078 4.375 11.132-.195 14.853-11.426 9.57-31.719 27.217-42.89 37.158l-.128-.127zm-726.953 0c-3.71 3.32-9.052 3.545-13.222 1.309-18.584-15.45-21.914-22.588-32.07-37.285-30.704 31.289-52.452 40.664-92.217 40.664-47.1 0-83.73-29.063-83.73-87.188 0-45.41 24.589-76.289 59.657-91.425 30.352-13.32 72.744-15.743 105.176-19.375v-7.266c0-13.32 1.045-29.063-6.797-40.566-6.806-10.293-19.892-14.532-31.396-14.532-21.338 0-40.313 10.938-44.971 33.594-.967 5.04-4.639 10.02-9.717 10.273l-54.209-5.859c-4.58-1.035-9.668-4.707-8.35-11.69 12.462-65.78 71.856-85.654 125.098-85.654 27.207 0 62.793 7.266 84.248 27.852 27.207 25.43 24.59 59.336 24.59 96.27v87.148c0 26.21 10.889 37.715 21.113 51.846 3.575 5.078 4.375 11.132-.175 14.853-11.426 9.57-31.739 27.217-42.9 37.158l-.128-.127zM1600.2 539.1h.01v-12.11c-40.469 0-83.203 8.672-83.203 56.309 0 24.219 12.558 40.566 34.004 40.566 15.703 0 29.834-9.678 38.74-25.43 10.977-19.374 10.45-37.529 10.45-59.335zm-726.953 0v-12.11c-40.459 0-83.193 8.672-83.193 56.309 0 24.219 12.549 40.566 34.004 40.566 15.703 0 29.834-9.678 38.73-25.43 10.986-19.374 10.46-37.529 10.46-59.335z" fill="#000"/></g></svg>