<svg viewBox="0 0 1786 1024" xmlns="http://www.w3.org/2000/svg" xmlns:xlink="http://www.w3.org/1999/xlink"><defs><linearGradient x1="13.07%" y1="44.588%" x2="29.701%" y2="63.975%" id="c"><stop stop-color="#62C5F1" offset="0%"/><stop stop-color="#50ADE2" offset="100%"/></linearGradient><linearGradient x1="28.165%" y1="44.033%" x2="36.966%" y2="63.247%" id="e"><stop stop-color="#6DD2FF" offset="0%"/><stop stop-color="#77BCE4" offset="100%"/></linearGradient><linearGradient x1="27.153%" y1="29.184%" x2="47.958%" y2="89.459%" id="h"><stop stop-color="#6DD2FF" offset="0%"/><stop stop-color="#77BCE4" offset="100%"/></linearGradient><path id="a" d="M0 0h789.442v566H0z"/><path d="M912.617.741C498.412 10.857 131.857 524.801.353 780.507l2105.4-281.944C1481.646 483.878 1430.376-11.904 912.618.74z" id="d"/><path d="M912.617.741C498.412 10.857 131.857 524.801.353 780.507l2105.4-281.944C1481.646 483.878 1430.376-11.904 912.618.74z" id="g"/></defs><g fill="none" fill-rule="evenodd"><path fill="#3A5674" d="M0 0h1786v1024H0z"/><g transform="translate(996.184 722)"><mask id="b" fill="#fff"><use xlink:href="#a"/></mask><g mask="url(#b)"><path d="M912.617.741C498.412 10.857 131.857 524.801.353 780.507l2105.4-281.944C1481.646 483.878 1430.376-11.904 912.618.74z" fill="url(#c)" fill-rule="nonzero" transform="translate(-373.352 28.155)"/><g transform="translate(-373.352 28.155)" opacity=".6"><mask id="f" fill="#fff"><use xlink:href="#d"/></mask><path d="M1555.49 240.933C834.902-166.479 397.726 408.571 269.21 747.021l40.39 150.805c378.002 74.515 1141.599 220.52 1171.955 208.39 30.356-12.127 649.084-333.835 954.65-493.175l-3.874-537.402-136.477 198.423c53.458 158.711-19.774 374.281-740.363-33.129z" fill="url(#e)" fill-rule="nonzero" mask="url(#f)"/></g><g transform="translate(-373.352 28.155)" opacity=".8"><mask id="i" fill="#fff"><use xlink:href="#g"/></mask><path d="M1570.117 218.816c-666.72-260.43-941.243 212.13-995.164 480.962l38.972 415.546 531.396 539.826 1415.112-849.621-89.494-954.26-248.784-19.595c60.454 237.559 14.683 647.571-652.038 387.142z" fill="url(#h)" fill-rule="nonzero" mask="url(#i)"/></g></g></g></g></svg>