<svg viewBox="0 0 3047 422" xmlns="http://www.w3.org/2000/svg"><g fill="none"><path d="M541.543 61.472H652.09c107.049 0 197.305 45.478 197.305 167.92 0 107.748-88.158 165.82-187.51 165.82H541.543V61.472zm73.465 265.173h38.481c68.567 0 119.643-25.887 119.643-101.451 0-65.769-52.475-95.854-114.745-95.854h-43.38v197.305zm272.169-160.923h70.666v37.082h.7c15.393-27.986 34.983-42.68 65.768-42.68 7.697 0 16.792.7 23.789 2.1v64.37c-9.795-2.8-19.59-4.899-30.086-4.899-53.874 0-60.17 30.786-60.17 76.964v95.854h-70.667v-228.79zm400.908 189.609c-22.39 28.687-59.471 45.479-96.554 45.479-70.666 0-127.339-46.878-127.339-120.343 0-72.765 56.673-120.342 127.34-120.342 65.768 0 107.048 46.877 107.048 120.342v22.39h-163.722c5.598 26.587 25.888 44.078 53.175 44.078 23.089 0 38.482-11.894 50.376-27.986l49.676 36.382zm-60.171-101.451c.7-23.789-18.191-43.38-43.38-43.38-30.785 0-48.276 20.99-49.676 43.38h93.056zm249.08 111.946h-.7c-15.392 24.489-44.078 34.284-72.764 34.284-42.68 0-81.161-24.488-81.161-70.666 0-79.062 95.854-80.462 154.625-80.462 0-25.188-20.99-41.28-45.478-41.28-23.089 0-42.68 10.495-57.372 27.287l-37.782-38.481c25.887-24.489 63.67-37.083 100.752-37.083 82.56 0 104.25 41.98 104.25 118.244v116.144h-65.07v-27.987h.7zm-17.491-71.365c-21.69 0-69.967 2.099-69.967 32.884 0 16.792 18.192 25.188 33.584 25.188 27.987 0 53.874-14.693 53.874-42.68v-15.392h-17.491zm126.639-128.739h67.868v30.786h.7c9.095-18.192 32.184-37.083 67.167-37.083 32.185 0 58.072 13.294 70.666 41.28 16.792-29.385 38.482-41.28 72.765-41.28 62.27 0 81.161 44.08 81.161 99.353v135.035h-71.365V260.877c0-20.99-7.697-39.182-30.786-39.182-32.184 0-42.68 23.09-42.68 51.076v121.042h-70.665V273.47c0-16.792.7-51.076-31.485-51.076-37.082 0-42.68 28.686-42.68 58.072v114.046h-70.666v-228.79zm404.406-104.25h73.465v123.84h142.732V61.473h73.465v333.74h-73.465v-144.83h-142.732v144.13h-73.465zm448.485 98.653c70.667 0 127.34 46.877 127.34 120.342 0 72.765-56.673 120.343-127.34 120.343-70.666 0-127.339-46.878-127.339-120.343s56.673-120.342 127.34-120.342zm0 177.715c34.984 0 56.673-23.789 56.673-58.072 0-34.284-20.99-58.073-56.673-58.073-34.983 0-56.672 23.789-56.672 58.073 0 34.983 21.69 58.072 56.672 58.072zm288.962-104.95c-10.495-12.594-23.789-19.59-41.28-19.59-11.895 0-25.888 4.897-25.888 18.89 0 33.584 118.943 4.898 118.943 92.356 0 58.072-56.673 75.564-105.65 75.564-32.184 0-67.167-7.696-90.256-30.785l42.68-47.578c13.293 16.093 28.686 25.188 49.676 25.188 16.092 0 32.184-4.198 32.184-16.792 0-37.082-118.943-5.597-118.943-93.055 0-53.874 48.277-76.963 95.854-76.963 30.086 0 63.67 7.696 84.66 30.086l-41.98 42.68zm242.084-10.495h-62.27v76.264c0 24.488 2.798 42.68 33.584 42.68 7.696 0 22.389-.7 28.686-6.298v58.772c-15.393 5.597-32.884 6.997-49.676 6.997-46.878 0-83.26-19.591-83.26-69.267V222.395h-45.479v-56.673h45.479V97.855h70.666v67.867h62.27v56.673zM414.903 318.25c-34.283 18.89-73.464 29.385-115.444 28.685-124.54-2.798-222.494-102.85-220.395-224.592.7-41.28 13.294-79.762 34.284-111.946C46.88 47.479 1.402 116.746.002 197.207-2.796 318.25 95.856 419.001 219.697 421.8c82.56 1.399 154.626-39.881 195.206-103.55" fill="#071C26"/><path d="M232.99.601c-33.583 0-65.068 8.396-93.055 23.789-17.491 28.686-27.287 61.57-28.686 95.154-2.099 105.65 83.96 193.108 191.008 195.207 32.185 0 68.568-7.696 96.554-23.09 16.792-28.685 26.587-62.27 26.587-97.952C426.798 87.359 340.04.6 232.991.6z" fill="#0073EC"/><path d="M2994.567 62.872c0-3.499.7-6.997 2.1-10.495 1.398-3.499 3.497-5.598 5.596-8.396 2.1-2.1 4.898-4.198 8.396-5.598 2.8-1.399 6.297-2.099 9.796-2.099 3.498 0 6.996.7 9.795 2.1 2.799 1.399 5.597 2.798 8.396 5.597 2.099 2.099 4.198 4.897 5.597 8.396 1.4 3.498 2.1 6.297 2.1 10.495 0 3.498-.7 6.996-2.1 10.495-1.399 2.798-3.498 5.597-5.597 8.395-2.099 2.1-4.898 4.198-8.396 5.598-2.799 1.4-6.297 2.099-9.795 2.099-3.499 0-6.997-.7-9.796-2.1-2.798-1.399-5.597-2.798-8.396-5.596-2.099-2.1-4.198-4.898-5.597-8.396-1.4-3.499-2.099-6.997-2.099-10.495zm4.898 0c0 2.798.7 6.297 1.4 8.396 1.398 2.798 2.798 4.897 4.197 6.996 2.1 2.1 4.198 3.499 6.997 4.898 2.798 1.4 5.597 1.4 8.396 1.4 2.798 0 5.597-.7 8.396-1.4 2.798-1.4 4.897-2.799 6.996-4.898 2.1-2.099 3.499-4.198 4.198-6.996 1.4-2.8 1.4-5.598 1.4-8.396 0-2.8-.7-6.297-1.4-8.396-1.399-2.8-2.798-4.898-4.198-6.997-2.099-2.1-4.198-3.498-6.996-4.898-2.799-1.4-5.598-1.4-8.396-1.4-2.799 0-5.598.7-8.396 1.4-2.799 1.4-4.898 2.799-6.997 4.898-2.099 2.099-3.498 4.198-4.198 6.997-1.4 2.099-1.4 4.897-1.4 8.396zm11.194-15.393h11.195c6.997 0 10.495 2.799 10.495 8.396 0 2.799-.7 4.898-2.099 6.297-1.4 1.4-3.498 2.099-5.597 2.099l8.396 13.294h-4.898l-8.396-13.294h-4.898v13.294h-4.897l.7-30.086zm4.198 13.294h7.697c.7 0 2.099 0 2.798-.7.7 0 1.4-.7 2.1-1.4.7-.7.7-1.399.7-2.798 0-.7 0-2.1-.7-2.799-.7-.7-.7-1.4-1.4-1.4s-1.4-.699-2.099-.699h-8.396l-.7 9.796z" fill="#071C26"/></g></svg>