<svg viewBox="0 0 2500 422" xmlns="http://www.w3.org/2000/svg"><g fill="#0080FF"><path d="M209.98 421.657V339.62c86.976 0 154.067-85.754 120.534-176.497a122.255 122.255 0 00-73.303-73.304 129.59 129.59 0 00-175.2 120.534H0c0-136.726 132.96-244.86 278.318-200.1 63.402 19.915 113.056 69.58 132.96 132.985 44.735 145.434-63.374 278.418-201.298 278.418z"/><path d="M211.228 339.62h-82.011v-80.788h82.01v80.789zm-82.011 63.399H67.09v-63.398h62.126v63.398zM67.09 339.621H14.97v-52.196h52.12v52.196zm682.16-217.515c-23.602-16.168-54.665-24.95-89.47-24.95h-75.774V339.52h75.798c34.797 0 64.621-8.7 89.471-26.098A95.085 95.085 0 00780.34 274.9c7.485-16.167 11.178-36.053 11.178-57.185 0-21.133-3.718-41.018-11.178-55.939-7.485-18.537-17.415-30.963-31.088-39.67zm-120.508 16.167h23.602c26.098 0 48.453 4.99 65.844 16.168 18.637 11.178 27.445 32.435 27.445 63.398s-9.98 53.443-27.445 65.869c-16.143 9.98-37.276 16.167-64.621 16.167h-24.825V138.273zm216.192-44.735a25.274 25.274 0 00-18.638 7.485 22.455 22.455 0 00-8.707 18.638c0 14.413 11.684 26.097 26.098 26.097 14.413 0 26.097-11.684 26.097-26.097a25.3 25.3 0 00-7.485-18.638c-3.717-4.99-9.98-7.485-17.465-7.485h.1zm-22.555 74.576h43.488v170.284h-43.313V168.114h-.175zm198.977 14.97c-12.475-11.178-27.445-18.638-43.488-18.638a76.896 76.896 0 00-58.408 24.95 86.552 86.552 0 00-23.603 60.903c0 23.628 7.485 44.736 22.455 60.904 14.97 16.167 34.78 23.627 58.409 23.627a68.763 68.763 0 0042.24-13.672v3.717c0 13.673-3.717 24.95-11.178 32.435-7.46 7.485-17.465 11.178-31.062 11.178-19.96 0-32.31-7.485-47.206-28.593l-29.94 28.593 1.247 1.248c6.213 8.707 16.143 17.465 28.568 26.097 12.425 8.633 28.568 12.475 47.206 12.475 26.098 0 45.983-7.485 60.878-23.627 14.895-16.143 23.603-36.053 23.603-62.151V168.114h-42.19v14.97h2.494-.025zm-11.152 100.673c-7.485 8.708-17.465 12.476-29.94 12.476-12.476 0-22.456-3.718-29.94-12.476-7.486-8.757-11.178-19.96-11.178-33.557 0-13.598 3.967-24.926 11.452-33.633 7.485-8.708 17.465-12.475 29.94-12.475 12.475 0 22.455 3.717 29.94 12.475 7.485 8.757 11.178 19.96 11.178 33.558 0 13.598-3.718 24.95-11.178 33.558l-.274.074zm90.968-115.668h43.488v170.284h-43.763v-170.26l.275-.024zm20.858-74.551a25.474 25.474 0 00-26.098 26.098c0 14.413 11.685 26.098 26.098 26.098 14.413 0 26.098-11.685 26.098-26.098a25.474 25.474 0 00-26.123-26.098h.025zm115.494 28.568h-42.19v46.008h-24.95v38.523h24.95v70.858c0 22.455 4.99 38.523 13.672 47.23 8.683 8.708 24.95 13.673 45.983 13.673a120.51 120.51 0 0021.133-1.247h2.495v-38.548l-14.97 1.247c-9.98 0-17.465-1.247-19.96-4.99-3.718-3.717-4.99-11.177-4.99-22.455v-64.52h39.77v-38.549h-39.646l-1.297-47.23zm241.043-24.95h43.488V339.52h-43.438V97.305l-.05-.15zm477.195 181.611a144.112 144.112 0 01-21.132 19.96 42.89 42.89 0 01-22.455 6.213 42.415 42.415 0 01-30.938-13.797c-8.708-9.98-12.476-21.133-12.476-36.053 0-14.92 3.718-26.098 12.476-36.053a38.199 38.199 0 0131.062-13.673c13.673 0 28.568 8.708 40.993 23.628l28.568-27.445c-18.637-23.628-42.24-34.805-70.833-34.805-23.603 0-43.488 8.707-60.878 26.097a90.32 90.32 0 00-24.95 63.399c0 24.95 8.707 47.23 24.95 63.398a80.813 80.813 0 0060.878 26.098c31.063 0 55.913-13.673 73.303-38.523l-28.568-28.593v.15zm175.2-85.903a65.42 65.42 0 00-24.95-19.96 81.088 81.088 0 00-36.028-7.485c-23.603 0-43.488 8.708-58.408 26.098a99.8 99.8 0 00-21.133 63.398c0 26.098 7.485 47.23 23.603 63.398 16.118 16.168 36.028 24.95 62.126 24.95 28.568 0 52.195-11.177 70.833-34.805l1.247-1.247-28.567-27.446c-2.495 3.718-6.213 6.213-9.98 9.98a37.874 37.874 0 01-12.475 8.708 40.818 40.818 0 01-21.133 4.99 47.83 47.83 0 01-29.94-9.98c-7.485-6.213-11.178-14.97-12.475-26.098h114.321v-16.167a92.714 92.714 0 00-4.99-32.436 56.362 56.362 0 00-12.475-26.097l.424.2zm-93.189 39.87a44.012 44.012 0 0111.178-19.96 29.94 29.94 0 0122.455-8.707c9.98 0 18.638 2.495 23.603 8.707 4.99 4.99 7.485 12.476 8.708 19.96h-65.944zm258.459-50.973c-12.476-11.177-31.063-16.167-53.419-16.167a108.758 108.758 0 00-39.72 8.732c-11.178 6.213-22.455 14.97-28.568 27.445l27.445 26.098c11.178-18.637 23.603-24.95 40.993-24.95a34.68 34.68 0 0122.455 7.485 22.455 22.455 0 018.708 18.638v8.708a95.135 95.135 0 00-31.063-4.99c-21.125 0-38.523 4.99-52.196 14.97-13.672 9.98-19.96 24.95-19.96 42.265 0 16.168 4.99 28.593 16.143 38.523 11.153 9.93 24.95 13.673 40.993 13.673 16.043 0 31.063-6.213 45.983-17.465v13.672h42.24V229.017c0-19.96-6.212-36.053-19.96-47.23l-.074-.026zm-75.724 91.991c4.99-3.717 11.178-4.99 19.96-4.99a105.714 105.714 0 0132.31 6.213v16.168a54.89 54.89 0 01-37.275 13.672c-7.485 0-13.673-1.247-17.465-4.99-3.792-3.742-6.213-7.485-6.213-12.475a20.384 20.384 0 018.708-13.672l-.025.074zm260.853-89.496c-12.475-13.672-28.568-19.96-49.7-19.96-17.399 0-31.063 4.99-40.993 14.97v-9.98h-42.266v170.285h43.488V245.16c0-12.475 2.495-23.628 8.708-31.063a31.287 31.287 0 0124.95-11.178 27.295 27.295 0 0122.455 9.98 44.91 44.91 0 018.708 27.445v99.426H2500v-99.575c-1.247-23.62-7.46-42.266-18.638-55.939zM1425.2 181.761c-12.475-11.177-31.063-16.167-53.419-16.167a108.757 108.757 0 00-39.77 8.707c-11.178 6.213-22.455 14.97-28.568 27.446l27.445 26.097c11.178-18.637 23.603-24.95 40.993-24.95a34.68 34.68 0 0122.455 7.485 22.455 22.455 0 018.708 18.638v8.708a95.135 95.135 0 00-31.063-4.99c-21.124 0-38.523 4.99-52.196 14.97-13.672 9.98-19.96 24.95-19.96 42.265 0 16.168 4.99 28.593 16.143 38.523 11.153 9.93 24.95 13.673 40.993 13.673 16.043 0 31.063-6.213 45.983-17.465v13.672h42.24V229.017c0-19.96-7.484-36.053-19.96-47.23l-.024-.026zm-77.021 91.991c4.99-3.717 11.177-4.99 19.96-4.99a105.714 105.714 0 0132.31 6.213v16.168a54.89 54.89 0 01-37.275 13.672c-7.485 0-13.673-1.247-17.465-4.99-3.793-3.742-6.213-7.485-6.213-12.475a37.026 37.026 0 018.708-13.672l-.025.074zm329.366 69.536c-50.28.02-95.62-30.252-114.875-76.698-19.255-46.447-8.633-99.92 26.913-135.48 35.546-35.56 89.014-46.204 135.469-26.967 46.454 19.236 76.744 64.564 76.744 114.844-.246 68.528-55.723 124.028-124.251 124.301zm0-206.312c-32.683-.05-62.176 19.596-74.723 49.774-12.547 30.178-5.675 64.943 17.41 88.079 23.086 23.135 57.836 30.082 88.041 17.6 30.206-12.481 49.915-41.932 49.936-74.615a80.614 80.614 0 00-80.764-80.788l.1-.05z"/></g></svg>