<svg viewBox="0 0 2964 584" xmlns="http://www.w3.org/2000/svg"><g fill="none"><circle fill="#FF5806" cx="288" cy="288" r="288"/><path d="M575.1 385.5L400.5 210.9l-188.8 17.3-36.6 36.5 31.1 31.1-30.8 54.7 233 232.9 56.4.1z" fill="#000" opacity=".07"/><path d="M396.4 209.4H180.1c-3.5 0-6.3 2.8-6.3 6.3v44.7c0 3.5 2.8 6.3 6.3 6.3h216.3c3.5 0 6.3-2.8 6.3-6.3v-44.7c0-3.4-2.8-6.3-6.3-6.3M362.9 251c-7.1 0-12.9-5.8-12.9-12.9 0-7.2 5.8-12.9 12.9-12.9 7.1 0 12.9 5.8 12.9 12.9.1 7.1-5.7 12.9-12.9 12.9m33.5 44.4H180.1c-3.5 0-6.3 2.9-6.3 6.3v44.7c0 3.5 2.8 6.3 6.3 6.3h216.3c3.5 0 6.3-2.9 6.3-6.3v-44.7c0-3.5-2.8-6.3-6.3-6.3M362.9 337c-7.1 0-12.9-5.8-12.9-12.9 0-7.2 5.8-12.9 12.9-12.9 7.1 0 12.9 5.8 12.9 12.9.1 7.1-5.7 12.9-12.9 12.9" fill="#FFF"/><path d="M891.88 402.08h-40.64l-52.48-219.84h41.28c14.72 66.88 28.8 136.64 33.6 175.68h.32c7.04-37.12 29.44-122.56 41.6-175.68h35.52c11.2 44.8 34.24 136.64 40.64 173.76h.32c6.72-45.76 29.12-135.68 37.12-173.76h38.08l-56.32 219.84h-40.64c-11.2-49.6-31.68-128.64-38.4-165.44h-.32c-7.36 38.08-28.48 119.68-39.68 165.44zm205.44 0V182.24h78.4c41.28 0 75.52 21.12 75.52 64 0 44.8-32.64 67.52-79.04 67.52h-35.84v88.32h-39.04zm39.04-188.8v69.76h33.6c25.28 0 41.92-9.28 41.92-35.84 0-23.68-16.96-33.92-40.96-33.92h-34.56zm138.88 90.24h80.96v32h-80.96v-32zm105.6 34.56h38.4c3.52 23.04 18.88 36.16 43.2 36.16 25.28 0 37.12-11.84 37.12-30.4 0-21.44-11.84-30.4-46.08-40.32-49.28-14.08-66.56-31.36-66.56-63.04 0-38.72 30.4-61.12 72-61.12 50.88 0 72.32 27.52 74.88 61.44h-38.08c-3.2-18.24-12.8-31.36-37.44-31.36-21.76 0-32.64 10.24-32.64 27.2 0 17.92 11.2 23.68 43.84 33.28 55.36 16.64 69.76 38.4 69.76 69.44 0 36.16-24.32 65.28-78.72 65.28-47.04 0-76.8-24.32-79.68-66.56zm236.48 64V214.56h-61.44v-32.32h161.6v32.32h-61.12v187.52h-39.04zm238.72-57.28h-75.52l-17.6 57.28h-38.08c7.04-21.44 60.48-195.52 68.48-219.84h49.92l72 219.84h-40.96l-18.24-57.28zm-67.84-32.32h59.52c-15.36-48.96-25.6-80.64-30.4-100.16h-.32c-5.44 24.96-16 59.2-28.8 100.16zm195.84 89.6V214.56h-61.44v-32.32h161.6v32.32h-61.12v187.52h-39.04zm264-130.88v32.32h-96.96v66.56h106.88l-4.8 32h-139.84V182.24h138.88v32.32h-101.12v56.64h96.96zm43.84 130.88V182.24h38.72v187.84h100.8l-4.48 32h-135.04zm301.76-130.88v32.32h-96.96v66.56h106.88l-4.8 32h-139.84V182.24h138.88v32.32h-101.12v56.64h96.96zm30.08 66.88h38.4c3.52 23.04 18.88 36.16 43.2 36.16 25.28 0 37.12-11.84 37.12-30.4 0-21.44-11.84-30.4-46.08-40.32-49.28-14.08-66.56-31.36-66.56-63.04 0-38.72 30.4-61.12 72-61.12 50.88 0 72.32 27.52 74.88 61.44h-38.08c-3.2-18.24-12.8-31.36-37.44-31.36-21.76 0-32.64 10.24-32.64 27.2 0 17.92 11.2 23.68 43.84 33.28 55.36 16.64 69.76 38.4 69.76 69.44 0 36.16-24.32 65.28-78.72 65.28-47.04 0-76.8-24.32-79.68-66.56zm181.44 0h38.4c3.52 23.04 18.88 36.16 43.2 36.16 25.28 0 37.12-11.84 37.12-30.4 0-21.44-11.84-30.4-46.08-40.32-49.28-14.08-66.56-31.36-66.56-63.04 0-38.72 30.4-61.12 72-61.12 50.88 0 72.32 27.52 74.88 61.44h-38.08c-3.2-18.24-12.8-31.36-37.44-31.36-21.76 0-32.64 10.24-32.64 27.2 0 17.92 11.2 23.68 43.84 33.28 55.36 16.64 69.76 38.4 69.76 69.44 0 36.16-24.32 65.28-78.72 65.28-47.04 0-76.8-24.32-79.68-66.56z" fill="#000"/></g></svg>