<svg viewBox="0 0 3186 506" xmlns="http://www.w3.org/2000/svg"><defs><filter x="-14.2%" y="-14.2%" width="128.4%" height="128.5%" filterUnits="objectBoundingBox" id="a"><feOffset dy="2" in="SourceAlpha" result="shadowOffsetOuter1"/><feGaussianBlur stdDeviation="15.5" in="shadowOffsetOuter1" result="shadowBlurOuter1"/><feColorMatrix values="0 0 0 0 0 0 0 0 0 0 0 0 0 0 0 0 0 0 0.33003715 0" in="shadowBlurOuter1" result="shadowMatrixOuter1"/><feMerge><feMergeNode in="shadowMatrixOuter1"/><feMergeNode in="SourceGraphic"/></feMerge></filter></defs><g fill="none"><g filter="url(#a)" transform="translate(29.786 28.248)"><path d="M130.209 139.417a4.578 4.578 0 11-2.65-8.765 4.578 4.578 0 012.65 8.765zm120.423-33.934a7.207 7.207 0 11-3.668-13.94 7.207 7.207 0 013.668 13.94zm60.846 128.497a64.723 64.723 0 01-2.722 23.23c5.227-1.793 11.383-2.134 17.632-.587 14.6 3.588 24.128 16.023 21.25 27.778l-46.183-11.383-.804-.217.804.217a65.27 65.27 0 01-16.796 17.817 63.723 63.723 0 0144.822 41.018 65.27 65.27 0 0140.554 39.47 207.965 207.965 0 01-146.315 60.104c-115.148-.12-208.464-93.435-208.583-208.583 0-28.304 5.691-55.31 15.961-79.932 1.64-3.99 3.434-7.888 5.32-11.724 4.424 1.918 8.631 4.362 12.436 7.362a21.963 21.963 0 016.31 5.878c.96 1.082 1.918 2.165 2.784 3.31 26.362-14.22 59.251-4.968 74.333 20.91h10.363c-1.886-24.814 12.979-47.85 36.366-56.355 23.387-8.507 49.577-.404 64.074 19.823 6.063.217 11.94 1.609 17.416 3.99 19.24 7.92 41.203 24.593 51.133 45.627h.03v.062l.62 1.361c2.134 4.424 9.155 17.292 16.889 10.085l.03-.031a27.716 27.716 0 017.27-13.209c-12.93-4.454-26.386-13.92-37.43-27.469-22.519-27.654-26.478-61.835-8.815-76.343l15.188 18.622a27.654 27.654 0 0111.569-13.828l54.721 95.244.031.062a25.984 25.984 0 016.032 6.032 27.747 27.747 0 01-15.529 44.266 27.407 27.407 0 01-21.467-3.96s-22.025 2.351-29.294 11.353zM223.72 0C134.284.41 53.64 53.92 18.508 136.169A220.593 220.593 0 001 222.72c0 122.805 99.915 222.72 222.72 222.72a221.669 221.669 0 00153.46-61.526 220.745 220.745 0 0069.26-161.194C446.44 99.915 346.526 0 223.72 0z" fill="#FFF"/><path d="M264.738 252.818l-4.98-4.392 4.98 4.392zm-9.96 5.66a34.088 34.088 0 01-4.827 5.043c-.773-.31-1.577-.557-2.381-.804a30.69 30.69 0 012.381.804 34.097 34.097 0 004.826-5.042zm-120.58-44.265h8.755-8.754zm160.421-19.89l-1.206-1.33c-.68-.742-1.392-1.423-2.104-2.103.712.68 1.423 1.36 2.104 2.103l1.206 1.33zm-22.952-16.58c-14.199-5.94-29.634-5.94-42.41.31 12.776-6.25 28.211-6.25 42.41-.31zm-52.185 94.408c-.433.557-.804 1.145-1.175 1.702-.372.65-.743 1.299-1.052 1.98.31-.681.68-1.33 1.052-1.98.37-.557.742-1.145 1.175-1.702zm-3.217 15.838l.464-.154 15.962-5.32-15.962 5.289-.464.185zm41.358-13.61c15.528-5.785 18.529-11.477 18.529-11.477s-3.031 5.692-18.53 11.477zM75.209 214.213H56.34h18.87c3.124 0 5.692 2.568 5.692 5.692v.031a5.723 5.723 0 00-5.692-5.723zm61.34-34.181h59.764a5.692 5.692 0 010 11.383h-80.705a5.66 5.66 0 00-4.67 2.475 5.63 5.63 0 014.67-2.444h80.705a5.723 5.723 0 000-11.414H56.556h79.994zm2.909 22.798h70.033a5.692 5.692 0 110 11.383h-26.82a5.723 5.723 0 00-5.722 5.723c0 1.052.34 2.042.866 2.908a5.692 5.692 0 014.856-8.63h26.82a5.723 5.723 0 005.691-5.692 5.723 5.723 0 00-5.691-5.692h-93.883 23.85zm111.483 29.325l3.372 3.031 40.46 36.161-40.46-36.16-3.372-3.032zm-50.204-6.527h16.116-34.182 18.066zm-94.409 79.715h-5.599l5.599.03 2.227.094c-.742-.031-1.485-.124-2.227-.093v-.031zm7.362-11.384h15.405-27.624 12.22zm-.897-11.414h-37.43 53.732-16.302zM193.9 132.828a15.683 15.683 0 013.31-8.785l11.94 9.558-11.94-9.558a15.683 15.683 0 00-3.31 8.785z" fill="#FFF"/><path d="M195.942 164.163c1.516-4.145 3.588-7.98 6.094-11.538l.526-.773a31.088 31.088 0 01-3.28-3.434 22.89 22.89 0 01-5.382-15.59 15.776 15.776 0 013.31-8.785l11.94 9.558 7.022 5.63 2.042-1.145a47.14 47.14 0 0111.012-4.423c.433-.124.897-.278 1.392-.371a47.59 47.59 0 0112.466-1.176c-14.497-20.227-40.687-28.33-64.074-19.823-23.387 8.506-38.252 31.541-36.366 56.356h51.875a44.46 44.46 0 011.423-4.486zm80.21 98.74s-3 5.691-18.53 11.476a96.79 96.79 0 01-9.217 2.97l-.928.247-14.786 4.918-15.962 5.29-.464.185a14.631 14.631 0 01-.742-5.382c.102-2.354.692-4.66 1.732-6.774l1.052-1.98a24.994 24.994 0 016.96-7.146 28.15 28.15 0 0114.755-4.856 24.19 24.19 0 019.93 1.67 34.097 34.097 0 004.825-5.042 27.654 27.654 0 004.98-10.053l4.98 4.392 11.415 10.084zm-107.679 14.105l-.093.866a5.568 5.568 0 01-2.907 4.083 5.506 5.506 0 01-2.692.743 5.444 5.444 0 01-2.722-.743 5.66 5.66 0 01-2.908-4.083l-.092-.866a5.723 5.723 0 015.722-5.723 5.723 5.723 0 015.692 5.723zm-25.52-51.38H134.2a4.764 4.764 0 01-.928-.124 5.692 5.692 0 01-4.764-5.568c0-.278.124-.526.155-.773a5.63 5.63 0 015.537-4.95h8.754a5.754 5.754 0 015.692 5.723 5.723 5.723 0 01-5.692 5.692zm151.82 45.75v-.03l-40.46-36.162-3.372-3.031a48.627 48.627 0 01-33.934-6.434l-.154-.093H182.67a5.63 5.63 0 01-4.856-2.784 5.537 5.537 0 01-.866-2.908 5.73 5.73 0 015.722-5.723h26.82a5.692 5.692 0 100-11.383h-93.883a5.66 5.66 0 01-4.67-8.94 5.66 5.66 0 014.67-2.475h80.705a5.692 5.692 0 000-11.383H56.525l.495 1.825c2.506 11.074 2.135 22.117-.68 32.356h18.87c3.123 0 5.69 2.568 5.69 5.723a5.497 5.497 0 01-1.484 3.774 5.568 5.568 0 01-3.588 1.856H42.234a5.692 5.692 0 00-4.98 2.97c-.155.278-.248.587-.371.897a5.042 5.042 0 00-.372 1.825 5.723 5.723 0 005.723 5.691h132.178c3.155 0 5.723 2.568 5.723 5.692a5.723 5.723 0 01-5.723 5.723H38.027a5.692 5.692 0 000 11.383h66.723a5.723 5.723 0 015.692 5.692 5.413 5.413 0 01-.959 3.124 5.692 5.692 0 01-4.702 2.568l-.03.03H74.96h.062l-.742.124a6.62 6.62 0 00-1.052.279 5.66 5.66 0 00-3.557 5.29l.062.309c0 .37.03.742.124 1.082.205.71.53 1.38.959 1.98l.37.464c1.052 1.145 2.537 1.856 4.177 1.856h53.73a5.66 5.66 0 015.693 5.692c0 1.546-.619 2.97-1.64 3.99l-.03.062-.063.031a5.568 5.568 0 01-3.96 1.64H101.47h.031-.773a5.754 5.754 0 00-5.692 5.691 5.692 5.692 0 005.692 5.692h5.599v.03l2.227.094.96.03 1.793.248a30.16 30.16 0 0124.747 23.107l.124.557 1.237-.216a34.6 34.6 0 016.774-.403 59.02 59.02 0 0123.757-12.868l2.599-.68a59.701 59.701 0 0132.882 1.763l.37.124a59.794 59.794 0 0128.521 21.127l3.774-.062a99.605 99.605 0 0117.385 1.176l3.062.556a111.25 111.25 0 017.734 1.733c.99.247 2.01.464 3 .773l.371.093c.17.07.346.122.526.154a64.96 64.96 0 0123.386-11.816l2.691-.712a65.084 65.084 0 0135.202 1.702 63.568 63.568 0 00-44.791-41.018 65.27 65.27 0 0016.796-17.817l-.804-.217-5.877-1.423zm16.705-37.398a64.28 64.28 0 00-16.24-38.945l-.619-.712-1.206-1.33c-.68-.742-1.392-1.423-2.104-2.103a62.887 62.887 0 00-19.642-13.147c-14.199-5.94-29.634-5.94-42.41.31-.464.216-.928.401-1.361.649a52.587 52.587 0 0116.828-.557c12.682 1.578 25.83 7.424 37.027 17.446 6.372 5.692 11.445 12.157 15.22 18.932 5.907 10.672 8.568 22.117 7.702 32.758-.403 4.95-1.547 9.713-3.496 14.106l.619-.433a19.457 19.457 0 015.506-3.156l1.454-.587c2.258-7.393 3.248-15.22 2.722-23.231zM132.28 168.649c-15.082-25.879-47.97-35.131-74.333-20.911-.866-1.145-1.825-2.228-2.784-3.31a21.963 21.963 0 00-6.31-5.878 56.051 56.051 0 00-12.435-7.362c-1.887 3.836-3.681 7.734-5.32 11.724 9.032 6.527 16.518 15.25 21.374 25.737h79.808zm115.134-77.21a7.222 7.222 0 103.248 14.075 7.222 7.222 0 00-3.248-14.075zm-119.248 39.038a4.585 4.585 0 102.042 8.94 4.585 4.585 0 00-2.042-8.94z" fill="#EC705E"/><path d="M142.953 214.213H134.2a5.63 5.63 0 00-5.537 4.95c-.031.247-.155.495-.155.773a5.692 5.692 0 004.764 5.568c.31.062.619.124.928.124h8.754a5.723 5.723 0 000-11.415m19.828 57.072a5.723 5.723 0 00-5.722 5.692c0 .31.062.619.092.897a5.692 5.692 0 008.322 4.114 5.692 5.692 0 002.907-4.114c.031-.278.093-.588.093-.897a5.723 5.723 0 00-5.692-5.692" fill="#4E0D34"/><path d="M369.694 200.788c1.656.998 3.78.73 5.135-.65a4.238 4.238 0 001.021-3.742 4.393 4.393 0 00-1.392-2.227l-.433-.31a4.083 4.083 0 00-6.125 2.63.433.433 0 00-.062.185v.062a4.021 4.021 0 001.64 3.774c.093.093.124.216.216.278" fill="#EC705E"/><path d="M264.738 252.818l-4.98-4.392a27.469 27.469 0 01-4.98 10.053 34.088 34.088 0 01-4.827 5.042 24.375 24.375 0 00-9.96-1.67 27.778 27.778 0 00-14.755 4.856 25.458 25.458 0 00-5.754 5.444c-.433.557-.804 1.145-1.175 1.702-.372.65-.743 1.299-1.052 1.98a15.343 15.343 0 00-.99 12.156l.464-.185 15.962-5.29 14.786-4.918.928-.248 1.67-.464.743-.216a96.788 96.788 0 006.805-2.29c15.498-5.784 18.498-11.476 18.529-11.476v-.03l-11.414-10.054z" fill="#4E0D34"/><path d="M371.705 176.227l-54.721-95.244a27.654 27.654 0 00-11.57 13.828l66.291 81.416z" fill="#EC705E"/><path d="M367.838 196.674l.062-.185a4.083 4.083 0 016.125-2.63l.433.31a4.269 4.269 0 011.392 2.227 4.238 4.238 0 01-1.02 3.743 4.114 4.114 0 01-5.136.65c-.092-.063-.123-.186-.216-.28a4.021 4.021 0 01-1.64-3.773v-.062zm-27.066 25.984v-.03a27.407 27.407 0 0021.467 3.959 27.747 27.747 0 0015.529-44.266 25.984 25.984 0 00-6.032-6.032l-.03-.062-66.291-81.416-15.188-18.622c-17.663 14.508-13.704 48.689 8.816 76.343 11.043 13.55 24.499 23.015 37.429 27.47a27.716 27.716 0 00-7.27 13.208l-.03.03c-7.734 7.208-14.755-5.66-16.89-10.084l-.588-1.33-.03-.093h-.031c-9.93-21.034-31.893-37.707-51.133-45.626h-.031a47.575 47.575 0 00-29.85-2.815c-.496.093-.929.247-1.393.37a48.534 48.534 0 00-11.012 4.424l-2.042 1.145-7.022-5.63-11.94-9.558a15.776 15.776 0 00-3.31 8.785 22.89 22.89 0 005.383 15.59 31.084 31.084 0 003.279 3.434l-.526.773a50.205 50.205 0 00-7.548 16.024H52.473a66.043 66.043 0 00-21.375-25.737 207.193 207.193 0 00-15.962 79.932c.12 115.148 93.436 208.464 208.584 208.583a207.965 207.965 0 00146.315-60.103A65.27 65.27 0 00268.17 342.71l-.526-.185-.37-.093c-.99-.31-2.012-.526-3.001-.773a95.862 95.862 0 00-7.734-1.702c-1.02-.216-2.01-.433-3.062-.587a104.493 104.493 0 00-17.385-1.176l-3.774.062a61.031 61.031 0 00-18.621-16.58 58.433 58.433 0 00-9.9-4.547l-.37-.124a59.98 59.98 0 00-32.882-1.763l-2.599.68-.711.186a59.083 59.083 0 00-23.077 12.682 34.583 34.583 0 00-6.743.403l-1.237.216-.124-.557a30.16 30.16 0 00-24.747-23.107l-1.794-.247-.959-.031a26.819 26.819 0 00-2.227-.093h-5.599a5.568 5.568 0 01-4.021-1.701 5.692 5.692 0 014.021-9.714h28.366a5.568 5.568 0 003.96-1.639l.061-.062.062-.03a5.754 5.754 0 00.619-7.177 5.66 5.66 0 00-4.702-2.506h-53.73a5.599 5.599 0 01-4.176-1.856l-.371-.464a5.877 5.877 0 01-.96-1.98 4.145 4.145 0 01-.123-1.082 1.114 1.114 0 01-.062-.31 5.66 5.66 0 015.351-5.66l-.092-.031h29.85v-.031a5.692 5.692 0 004.702-2.568 5.66 5.66 0 00-4.733-8.816H38.027a5.723 5.723 0 01-5.722-5.692c0-3.124 2.567-5.691 5.722-5.691h136.385a5.707 5.707 0 000-11.415H42.203a5.723 5.723 0 01-5.692-5.691c0-.65.155-1.269.372-1.825.123-.31.216-.62.37-.898a5.692 5.692 0 014.95-2.97h33.625a5.568 5.568 0 003.588-1.855 5.506 5.506 0 001.485-3.774 5.723 5.723 0 00-5.692-5.723H56.34c2.816-10.239 3.187-21.282.681-32.356-.154-.619-.34-1.206-.464-1.825h139.757a5.723 5.723 0 010 11.414h-80.705a5.63 5.63 0 00-4.67 2.444 5.723 5.723 0 004.67 8.94h93.883a5.692 5.692 0 110 11.383h-26.82a5.707 5.707 0 000 11.415h34.182a48.627 48.627 0 0034.088 6.527l3.372 3.031 40.46 36.161v.031l5.878 1.423.804.217L347.64 284.4c2.877-11.755-6.65-24.19-21.251-27.778a31.335 31.335 0 00-17.632.588c-.495.154-.96.402-1.454.587a24.654 24.654 0 00-5.506 3.156c-.217.154-.433.278-.619.464 1.949-4.424 3.093-9.188 3.496-14.137a58.526 58.526 0 00-7.703-32.758 72.693 72.693 0 00-15.22-18.932 68.981 68.981 0 00-36.995-17.446 52.772 52.772 0 00-16.859.557c.433-.248.897-.433 1.361-.65 12.776-6.248 28.242-6.248 42.41-.31 6.65 2.785 13.054 6.868 18.745 12.25l.897.898c.712.68 1.423 1.36 2.104 2.103l1.206 1.33.619.712 1.547 1.887a64.28 64.28 0 0114.693 37.058c7.27-9.002 29.294-11.322 29.294-11.322z" fill="#4E0D34"/></g><path d="M627.72 248.32c0-64 50.88-115.52 114.88-115.52 64 0 115.2 51.52 115.2 115.52 0 64-51.2 114.88-115.2 114.88s-114.88-50.88-114.88-114.88zm32 0c0 45.76 37.44 82.88 82.88 82.88 45.76 0 83.2-37.12 83.2-82.88 0-45.44-37.44-83.52-83.2-83.52-45.44 0-82.88 38.08-82.88 83.52zm243.84 105.6V142.08c0-3.2 2.56-6.08 6.08-6.08h128c3.52 0 6.08 2.88 6.08 6.08V160c0 3.2-2.56 6.08-6.08 6.08H936.52V240h85.44c3.2 0 6.08 2.88 6.08 6.08v17.6c0 3.2-2.88 6.08-6.08 6.08h-85.44v84.16c0 3.2-2.88 6.08-6.08 6.08h-20.8c-3.52 0-6.08-2.88-6.08-6.08zm181.12 0V142.08c0-3.2 2.56-6.08 6.08-6.08h128c3.52 0 6.08 2.88 6.08 6.08V160c0 3.2-2.56 6.08-6.08 6.08h-101.12V240h85.44c3.2 0 6.08 2.88 6.08 6.08v17.6c0 3.2-2.88 6.08-6.08 6.08h-85.44v84.16c0 3.2-2.88 6.08-6.08 6.08h-20.8c-3.52 0-6.08-2.88-6.08-6.08zm181.12 0V142.08c0-3.2 2.56-6.08 6.08-6.08H1293c3.2 0 6.08 2.88 6.08 6.08v188.16h86.72c3.52 0 6.08 2.88 6.08 6.08v17.6c0 3.2-2.56 6.08-6.08 6.08h-113.92c-3.52 0-6.08-2.88-6.08-6.08zm143.36-105.6c0-64 50.88-115.52 114.88-115.52 64 0 115.2 51.52 115.2 115.52 0 64-51.2 114.88-115.2 114.88s-114.88-50.88-114.88-114.88zm32 0c0 45.76 37.44 82.88 82.88 82.88 45.76 0 83.2-37.12 83.2-82.88 0-45.44-37.44-83.52-83.2-83.52-45.44 0-82.88 38.08-82.88 83.52zM1660.36 360c-4.8 0-7.36-4.16-5.44-8.32l98.24-215.36c.96-1.92 3.84-3.52 5.44-3.52h3.2c1.6 0 4.48 1.6 5.44 3.52l97.6 215.36c1.92 4.16-.64 8.32-5.44 8.32h-20.16c-3.84 0-6.08-1.92-7.36-4.8l-19.84-43.84H1707.4c-6.4 14.72-13.12 29.12-19.52 43.84-.96 2.24-3.52 4.8-7.36 4.8h-20.16zm59.52-76.16h80l-39.36-87.68h-1.6l-39.04 87.68zm176.96 70.08V142.08c0-3.2 2.56-6.08 5.76-6.08h73.6c61.76 0 112.32 50.24 112.32 111.68 0 62.08-50.56 112.32-112.32 112.32h-73.6c-3.2 0-5.76-2.88-5.76-6.08zm32.64-24.32h42.24c47.04 0 81.28-34.56 81.28-81.92 0-47.04-34.24-81.28-81.28-81.28h-42.24v163.2zm260.16 23.04l39.68-215.04c.64-2.56 3.2-4.8 5.76-4.8h5.12c1.92 0 4.8 1.6 5.44 3.52l66.88 163.52h1.28l66.56-163.52c.64-1.92 3.2-3.52 5.44-3.52h5.12c2.56 0 5.12 2.24 5.76 4.8l39.36 215.04c.96 4.48-1.28 7.36-5.76 7.36h-20.8c-2.88 0-5.44-2.24-6.08-4.48l-23.68-143.04h-.96l-57.6 147.2c-.64 1.92-2.56 3.52-5.44 3.52h-5.76c-2.56 0-4.8-1.6-5.44-3.52l-57.92-147.2h-1.28l-23.04 143.04c-.32 2.24-3.2 4.48-5.76 4.48h-20.8c-4.48 0-6.72-2.88-6.08-7.36zm293.44 1.28V142.08c0-3.2 2.56-6.08 6.08-6.08h128c3.52 0 6.08 2.88 6.08 6.08V160c0 3.2-2.56 6.08-6.08 6.08h-101.12v65.28h85.44c3.2 0 6.08 2.88 6.08 6.08v17.92c0 3.52-2.88 6.08-6.08 6.08h-85.44v68.8h101.12c3.52 0 6.08 2.88 6.08 6.08v17.6c0 3.2-2.56 6.08-6.08 6.08h-128c-3.52 0-6.08-2.88-6.08-6.08zm188.48 0V142.08c0-3.2 2.56-6.08 5.76-6.08h73.6c61.76 0 112.32 50.24 112.32 111.68 0 62.08-50.56 112.32-112.32 112.32h-73.6c-3.2 0-5.76-2.88-5.76-6.08zm32.64-24.32h42.24c47.04 0 81.28-34.56 81.28-81.92 0-47.04-34.24-81.28-81.28-81.28h-42.24v163.2zm205.12 24.32V142.08c0-3.2 2.88-6.08 6.08-6.08h21.12c3.2 0 6.08 2.88 6.08 6.08v211.84c0 3.2-2.88 6.08-6.08 6.08h-21.12c-3.2 0-6.08-2.88-6.08-6.08zm70.72 6.08c-4.8 0-7.36-4.16-5.44-8.32l98.24-215.36c.96-1.92 3.84-3.52 5.44-3.52h3.2c1.6 0 4.48 1.6 5.44 3.52l97.6 215.36c1.92 4.16-.64 8.32-5.44 8.32h-20.16c-3.84 0-6.08-1.92-7.36-4.8l-19.84-43.84h-104.64c-6.4 14.72-13.12 29.12-19.52 43.84-.96 2.24-3.52 4.8-7.36 4.8h-20.16zm59.52-76.16h80l-39.36-87.68h-1.6l-39.04 87.68z" fill="#EC705E"/></g></svg>