<svg viewBox="0 0 3335 584" xmlns="http://www.w3.org/2000/svg"><g fill="none"><g fill="#D24632"><path d="M927.16 362.608c-5.99 2.616-8.668 3.685-16.628 3.74-13.512.095-21.498-11.09-24.108-19.497-5.847-18.848-1.166-51.364.705-73.318 2.417-28.339 3.57-39.462 4.03-45.39 1.078-13.833-4.101-28.117-19.837-28.01-14.624.103-33.699 16.527-42.127 34.176 2.055-22.604-4.24-40.655-21.458-40.535-17.217.117-34.852 24.587-40.232 35.595 1.088-10.284 1.685-14.597 2.152-20.153.469-5.559.281-9.577-5.524-10.146-3.527-.346-10.178.87-14.148 1.544-5.087.866-6.737 4.496-7.675 12.365-.982 8.248-4.28 51.965-6.477 77.161-2.2 25.195-5.105 63.617-4.983 71.391.092 5.925 3.091 8.312 7.536 8.28 4.44-.03 12.157-1.572 14.918-2.518 2.265-.776 4.075-1.81 5.31-3.739 1.115-1.745 1.704-4.36 1.915-7.79.566-9.265 2.092-31.38 3.532-45.829 1.441-14.451 2.871-27.034 5.475-38.182 5.25-22.447 16.027-46.767 25.838-46.834 6.295-.044 6.498 11.81 4.718 28.115-1.783 16.306-6.589 75.96-6.478 83.18.1 6.295 1.956 9.614 7.37 9.576 4.441-.03 12.614-.66 15.926-1.983 2.084-.83 3.63-1.6 4.698-3.464.94-1.64 1.505-4.126 1.736-8.244.533-9.465 3.973-47.681 6.979-59.758 5.743-23.035 17.75-38.44 24.415-38.484 6.665-.046 4.59 16.355 2.845 35.07-3.463 37.144-7.57 70.358 3.067 94.237 8.062 18.092 24.995 25.835 42.351 25.835 13.516 0 22.355-3.895 27.77-8.614 2.463-2.148 3.468-5.356 3.37-7.437-.2-4.303-3.35-7.97-6.981-10.34zm-362.798-64.127c-2.222 10.922-5.238 20.919-12.366 20.919-6.85 0-10.07-6.851-10.07-20.736 0-17.958 6.7-39.201 18.567-39.201 3.841 0 5.886 1.666 8.646 4.212-.648 9.673-2.555 23.882-4.777 34.806zm-443.62 81.347c-7.22 0-13.33-7.498-13.33-20.552 0-23.801 18.868-41.066 38.887-50.948-1.261 13.96-3.21 27.455-4.58 36.666-2.486 16.709-9.036 34.834-20.977 34.834zm585.037-60.76c-2.316 1.203-5.278 2.223-7.778 2.223-4.054 0-5.556-3.657-5.556-8.47 0-5.36.893-12.998 2-22.301 1.244-11.759 2.546-24.128 2.546-31.844 0-11.663-7.711-21.104-18.957-21.104-11.108 0-23.826 8.236-32.99 19.623.369-3.333.553-6.11.739-8.702.241-3.35-1.299-6.109-4.63-6.109-3.332 0-10.03.28-15.087 1.342-3.518.74-6.11 2.779-6.665 7.776-1.597 14.37-4.62 44.28-6.043 59.993-4.114 3.996-9.085 7.905-13.079 7.905-4.257 0-6.803-3.054-6.803-8.885 0-10.184 5.248-48.971 5.804-57.58.224-3.463-1.666-6.942-5.832-6.942-3.612 0-8.203 1.76-13.942 3.427-5.185-4.444-12.33-10.183-23.439-10.183-27.353 0-43.727 27.585-43.727 60.539 0 6.583.64 12.519 1.845 17.773-4.42 3.353-8.621 5.681-11.546 5.681-4.165 0-7.22-3.24-7.22-8.976 0-4.75 1.574-16.733 2.5-24.902 1.11-9.812 2.683-19.713 2.683-24.9 0-11.108-7.146-19.105-17.034-19.105-12.31 0-24.101 8.643-32.97 17.623-2.036-9.997-7.868-16.477-16.756-16.477-11.108 0-24.065 9.071-32.212 19.996.372-3.333.573-6.203.85-10.182.233-3.351-1.296-6.11-4.628-6.11-3.333 0-11.088 1.529-16.143 2.59-3.519.742-6.11 2.78-6.665 7.777-1.476 13.289-4.694 41.164-6.46 58.127-5.114 7.238-9.595 11.984-13.85 11.984-4.72 0-5.833-4.909-5.833-12.126 0-7.22 5.37-49.805 5.926-55.542.642-6.634-2.501-8.292-6.387-8.146-4.907.184-13.701 1.482-18.514 2.407-4.57.878-4.936 6.127-5.369 11.107-.555 6.388-3.072 31.892-4.537 41.286-2.22 14.254-8.7 22.678-15.273 22.678-6.571 0-7.332-7.776-7.332-14.993 0-7.221 4.388-41.381 4.388-47.768 0-6.386-.88-10.732-8.331-11.571-7.573-.853-25.516-.69-46.222 1.512 2.282-22.87 6.477-53.213 7.712-63.209.744-6.005.168-9.775-6.053-10.513-3.537-.42-14.466 1.116-17.797 1.663-5.482.899-7.568 5.57-8.262 9.21-2.857 14.981-5.574 40.665-7.37 67.666-12.186 2.37-24.734 5.32-35.834 8.293 1.194-21.289 2.001-45.425 1.266-57.2-1.04-16.63-10.553-27.549-25.18-27.549-15.58 0-33.564 8.376-44.848 17.912-7.379 6.232-11.529 13.451-11.529 19.161 0 5.832 2.92 11.111 10.633 11.111 5.968-8.158 21.585-22.472 30.306-22.472 7.848 0 9.85 6.81 9.85 13.753 0 5.675-1.138 33.287-2.247 55.505-30.482 12.305-66.397 35.669-66.397 77.643 0 25.825 17.767 43.885 40.36 43.885 29.558 0 45.721-27.884 50.56-57.15 2.436-14.736 4.316-33.77 5.612-50.402 11.408-3.481 24.322-7.034 36.136-9.672-1.759 33.673-2.633 64.176 6.393 86.314 7.652 18.772 23.886 32.308 49.33 32.119 17.496-.134 33.802-7.158 41.104-13.771 2.433-2.204 3.442-5.252 3.364-7.333-.167-4.301-2.895-7.807-6.505-10.172-7.235 4.115-15.25 7.579-26.625 8.016-11.377.438-26.834-5.769-33.185-26.553-5.27-17.238-3.864-50.958-2.517-73.707 10.924-1.17 18.576-1.324 25.915-1.322-2.22 23.048-3.42 46.723-1.889 58.391 1.482 11.292 7.592 22.086 22.31 22.086 13.608 0 24.919-11.387 31.768-20.828 3.89 8.701 9.165 14.44 18.793 14.44 8.04 0 17.35-5.522 24.237-13.05-.183 3.437-.164 5.77.237 7.274.764 2.861 2.777 3.889 6.11 3.889 3.193 0 13.19-1.807 18.328-3.333 3.593-1.068 3.886-3.732 4.305-9.858.416-6.112 1.917-28.095 3.768-40.5 1.742-11.679 11.505-24.25 17.262-24.25 3.027 0 4.88 2.915 4.88 6.666 0 4.812-5.416 51.416-5.416 59.193 0 5.556 2.064 6.942 6.137 6.942 4.074 0 12.08-.552 17.634-1.664 1.778-.356 3.052-1.183 3.75-2.685.902-1.942.976-4.878 1.34-7.96.763-6.434 2.611-33.885 4.213-41.702 2.297-11.204 10.897-20.04 16.034-20.04 3.423 0 5.242 4.323 4.83 8.887-.461 5.138-3.906 33.553-3.906 43.272 0 13.424 7.963 21.479 21.06 21.479 13.152 0 24.8-8.285 32.682-15.458 5.422 8.583 13.522 13.197 23.533 13.197 11.664 0 20.125-8.516 26.584-20.92 1.667 9.628 8.813 18.33 19.737 18.33 7.82 0 16.067-5.133 22.164-10.533-.07 2.526-.012 4.367.219 5.763.48 2.922 2.777 3.892 6.11 3.892 3.332 0 13.43-.048 18.217-1.668 3.55-1.203 3.884-3.732 4.304-9.858.415-6.109 2.158-29.994 4.006-42.398 1.746-11.68 10.851-22.4 17.516-22.4 3.76 0 5.386 3.518 5.386 7.268 0 2.356-1.054 11.06-2.053 21.082-.997 10.024-1.957 19.74-1.957 24.543 0 15.553 6.353 25.458 22.32 25.458 9.953 0 19.39-5.668 22.394-9.573 1.389-1.804 2.081-3.61 2.081-5.695 0-4.302-1.803-7.078-4.691-9.356z"/><path d="M1146.156 279.882c4.722 0 7.564 3.75 7.564 7.914 0 11.36-7.59 20.76-21.83 20.76-2.195 0-4.137-.167-5.918-.489 2.176-14.56 9.909-28.185 20.184-28.185zm-94.305 31.24c-1.97 10.129-6.277 16.787-12.982 16.787-7.963 0-10.641-6.875-10.496-19.232.217-18.464 7.424-40.055 20.892-40.055 3.336 0 6.252 1.817 8.543 4.502-1.444 12.919-3.987 27.872-5.957 37.998zm-97.954-5.72c-1.78 10.184-7.095 17.035-13.435 17.035-7.958 0-10.79-7.454-10.874-19.81-.129-18.469 7.468-41.842 21.353-41.842 3.888 0 6.535 2.037 8.552 4.257-1.203 12.96-3.817 30.177-5.596 40.36zm245.921 27.476c-15.183 0-38.767 12.106-56.726 12.106-12.15 0-18.156-10.784-18.07-21.442 4.517.861 9.425 1.261 14.813 1.261 19.253 0 39.06-12.474 39.06-34.693 0-15.366-11.478-30.363-33.322-30.363-32.214 0-50.577 32.4-50.577 62.765 0 2.613.128 5.139.382 7.58-2.843 1.796-6.061 3.25-8.498 3.18-5.274-.157-6.76-3.811-6.693-9.364.066-5.552 5.608-40.557 7.5-53.236 2.102-14.07 8.484-51.238 8.484-56.605 0-3.054-1.444-4.814-5.151-5.554-3.713-.74-12.808-1.388-15.397-1.388-4.076 0-6.676 1.728-7.753 7.545-1.066 5.713-3.607 24.297-6.245 40.218-4.584-4.026-10.414-7.636-18.608-7.636-27.074 0-44.484 28.186-44.484 64.07 0 3.396.206 6.634.598 9.708-3.244 2.373-7.149 4.645-9.705 4.645-5.278 0-6.83-3.61-6.868-9.163-.04-5.553 5.75-44.175 7.204-56.93.374-3.267.535-5.614-.142-7.13-1.067-2.393-3.666-2.844-6.498-2.59-3.045.275-6.285.924-11.093 2.036-5.552-6.202-12.956-12.312-24.06-12.312-29.717 0-48.427 29.021-48.168 66.56.175 24.807 10.847 41.655 29.176 41.655 14.255 0 19.56-7.546 27.126-17.682 1.614 12.217 10.015 18.33 19.458 18.33 8.28 0 18.306-5.126 27.682-12.283 4.811 10.502 13.151 16.76 24.334 16.76 12.583 0 19.33-7.498 27.393-17.126 2.882 12.22 8.22 19.828 20.208 19.828 9.227 0 16.109-3.943 24.157-9.909 5.922 13.451 17.952 21.595 36.353 21.595 20.736 0 42.285-6.482 52.465-6.482 11.48 0 19.625 2.407 28.327 6.295 2.776-2.22 5.738-7.963 5.738-15.18 0-9.628-7.22-19.069-22.4-19.069z"/></g><path d="M1436.729 398.3c-39.36 0-67.84-13.76-86.72-33.92l20.8-28.8c14.72 15.68 37.76 29.44 67.52 29.44 30.72 0 42.88-15.04 42.88-29.12 0-44.8-124.48-16.96-124.48-95.68 0-35.2 31.04-62.4 77.76-62.4 33.28 0 60.16 10.56 80 29.76l-21.44 27.84c-16.64-16.64-39.36-24.32-61.76-24.32-22.08 0-36.16 10.56-36.16 26.56 0 39.68 124.16 15.04 124.16 94.72 0 35.52-24.96 65.92-82.56 65.92zm182.72 0c-38.08 0-66.24-15.36-80.64-34.56l20.16-24.64c13.76 16 36.48 25.92 59.2 25.92 28.16 0 44.48-12.8 44.48-32.64 0-21.12-16.96-30.08-47.36-30.08-8.96 0-21.44 0-24.64.32v-33.6c3.84.32 16.32.32 24.64.32 24.96 0 43.84-8.64 43.84-28.16 0-19.84-19.2-30.08-43.2-30.08-21.76 0-39.68 8.32-55.04 23.68l-19.2-23.36c16.32-19.2 42.24-33.6 77.76-33.6 46.08 0 77.12 21.76 77.12 57.6 0 28.48-24.32 45.12-46.4 48.96 20.8 1.92 49.6 18.88 49.6 51.84 0 36.16-31.04 62.08-80.32 62.08zm292.8 0c-62.08 0-92.48-35.52-92.48-88V181.02h37.76v128c0 33.92 18.88 56 54.72 56 35.52 0 54.4-22.08 54.4-56v-128h37.76v128.96c0 53.12-30.4 88.32-92.16 88.32zm175.04-3.84h-37.44V181.02h93.76c44.8 0 69.76 30.72 69.76 66.88s-25.28 66.88-69.76 66.88h-56.32v79.68zm51.2-112.64c21.12 0 36.48-13.44 36.48-33.92 0-20.48-15.36-33.92-36.48-33.92h-51.2v67.84h51.2zm237.44 112.64h-131.52V181.02h37.44V361.5h94.08v32.96zm133.44 3.84c-64 0-109.12-46.72-109.12-110.4 0-63.68 45.12-110.4 109.12-110.4s109.12 46.72 109.12 110.4c0 63.68-45.12 110.4-109.12 110.4zm0-33.28c42.88 0 70.72-33.28 70.72-77.12 0-44.16-27.84-77.12-70.72-77.12-43.2 0-70.72 32.96-70.72 77.12 0 43.84 27.52 77.12 70.72 77.12zm337.28 29.44h-42.56l-15.68-40.96h-97.92l-15.68 40.96h-42.56l83.84-213.44h46.72l83.84 213.44zm-68.8-73.92l-38.4-101.76-38.4 101.76h76.8zm171.52 73.92h-79.36V181.02h79.36c66.56 0 111.68 44.16 111.68 106.88s-45.12 106.56-111.68 106.56zm0-32.96c46.4 0 73.28-33.28 73.28-73.6 0-41.28-25.6-73.92-73.28-73.92h-41.92V361.5h41.92zm220.8 36.8c-39.36 0-67.84-13.76-86.72-33.92l20.8-28.8c14.72 15.68 37.76 29.44 67.52 29.44 30.72 0 42.88-15.04 42.88-29.12 0-44.8-124.48-16.96-124.48-95.68 0-35.2 31.04-62.4 77.76-62.4 33.28 0 60.16 10.56 80 29.76l-21.44 27.84c-16.64-16.64-39.36-24.32-61.76-24.32-22.08 0-36.16 10.56-36.16 26.56 0 39.68 124.16 15.04 124.16 94.72 0 35.52-24.96 65.92-82.56 65.92z" fill="#000"/></g></svg>