<svg viewBox="0 0 2485 390" xmlns="http://www.w3.org/2000/svg"><g fill="none"><path d="M292.845 102.06h14.043l40.023-40.023 1.967-16.992c-46.614-41.143-111.168-55.3-170.72-37.44-59.554 17.86-105.663 65.206-121.942 125.21a21.767 21.767 0 0114.043-.842l80.047-13.201s4.073-6.74 6.179-6.32c35.607-39.105 95.53-43.662 136.64-10.392h-.28z" fill="#EA4335"/><path d="M403.927 132.815a180.315 180.315 0 00-54.347-87.63l-56.173 56.173a99.847 99.847 0 0136.653 79.204v9.97c27.61 0 49.994 22.384 49.994 49.995 0 27.61-22.384 49.994-49.994 49.994h-99.988l-9.971 10.111v59.965l9.97 9.97h99.989c57.329.447 108.187-36.704 125.197-91.453 17.01-54.75-3.841-114.18-51.33-146.299z" fill="#4285F4"/><path d="M129.943 370.006h99.988v-80.047h-99.988a49.713 49.713 0 01-20.643-4.494l-14.044 4.354-40.304 40.023-3.51 14.043a129.338 129.338 0 0078.501 26.12z" fill="#34A853"/><path d="M129.943 110.346c-55.54.332-104.738 35.9-122.463 88.537-17.726 52.637-.064 110.72 43.962 144.58l57.998-57.998c-20.264-9.155-32.045-30.594-28.91-52.608 3.134-22.014 20.432-39.311 42.446-42.446 22.014-3.135 43.453 8.647 52.608 28.91l57.998-57.998a129.9 129.9 0 00-103.639-50.977z" fill="#FBBC05"/><path d="M727.343 314.114a127.934 127.934 0 01-92.685-38.058 123.58 123.58 0 01-38.9-91.562 123.721 123.721 0 0138.9-91.562 127.934 127.934 0 0192.685-38.759 124.142 124.142 0 0188.894 35.81l-24.997 25.419a90.017 90.017 0 00-63.897-25.278 89.034 89.034 0 00-66.003 28.086 91.702 91.702 0 00-27.104 66.706 91.702 91.702 0 0027.104 65.862c36.162 36.038 94.446 36.723 131.445 1.545a74.71 74.71 0 0019.239-43.674h-84.26v-35.951h119.228a114.031 114.031 0 011.404 21.907 112.346 112.346 0 01-30.755 82.856 119.508 119.508 0 01-90.298 36.653zm277.214-23.874c-33.246 31.868-85.701 31.868-118.947 0a80.047 80.047 0 01-24.294-59.684 80.187 80.187 0 0124.294-59.684c33.275-31.796 85.673-31.796 118.947 0a80.187 80.187 0 0124.295 59.684 80.047 80.047 0 01-24.436 59.684h.14zm-92.686-23.452a45.5 45.5 0 0066.425 0 49.994 49.994 0 0014.043-36.232 50.134 50.134 0 00-14.043-36.372 46.202 46.202 0 00-66.706 0 50.134 50.134 0 00-14.043 36.372 49.994 49.994 0 0014.184 36.232h.14zM1187.4 290.24c-33.245 31.868-85.701 31.868-118.946 0a80.047 80.047 0 01-24.295-59.684 80.187 80.187 0 0124.295-59.684c33.245-31.867 85.7-31.867 118.946 0a80.187 80.187 0 0124.295 59.684 80.047 80.047 0 01-24.295 59.684zm-92.686-23.452a45.5 45.5 0 0066.425 0 49.994 49.994 0 0014.043-36.232 50.134 50.134 0 00-14.043-36.372 46.202 46.202 0 00-66.705 0 50.134 50.134 0 00-14.044 36.372 49.994 49.994 0 0014.184 36.232h.14zm212.896 122.316a73.587 73.587 0 01-46.764-14.885 86.085 86.085 0 01-27.244-34.547l32.019-13.34a53.926 53.926 0 0015.869 20.924 40.023 40.023 0 0026.26 8.847 42.13 42.13 0 0032.721-12.64 51.258 51.258 0 0011.656-36.512v-12.077h-1.264a53.505 53.505 0 01-43.955 18.959 76.255 76.255 0 01-56.173-24.436 80.749 80.749 0 01-24.014-58.84 81.591 81.591 0 0124.014-59.263 76.114 76.114 0 0156.173-24.576 60.386 60.386 0 0125.84 5.758 51.96 51.96 0 0118.256 13.34h1.264v-13.34h34.827v149.56a87.209 87.209 0 01-22.329 65.301 78.642 78.642 0 01-57.156 21.767zm2.528-107.852a40.866 40.866 0 0031.738-14.043 51.96 51.96 0 0012.779-35.95 53.083 53.083 0 00-12.78-36.654 40.725 40.725 0 00-31.737-14.043 43.394 43.394 0 00-32.861 14.043 51.258 51.258 0 00-14.044 36.372 50.275 50.275 0 0014.044 35.951 43.534 43.534 0 0032.86 14.324zm138.888-217.67v245.476h-36.653V63.582h36.653zm100.55 250.532a79.766 79.766 0 01-59.123-24.014 81.31 81.31 0 01-23.733-59.544 82.293 82.293 0 0122.89-60.105A75.272 75.272 0 011545.785 147a70.918 70.918 0 0128.086 5.477 66.144 66.144 0 0121.486 14.043 98.303 98.303 0 0114.043 16.992 100.409 100.409 0 018.286 16.43l3.792 9.55-112.346 46.203a42.13 42.13 0 0040.444 25.277 47.887 47.887 0 0041.147-23.17l28.086 18.957a92.545 92.545 0 01-26.963 25.56 76.395 76.395 0 01-42.27 11.796zm-46.905-86.086l74.71-31.035a25.84 25.84 0 00-11.656-12.78 38.057 38.057 0 00-19.24-4.915 43.394 43.394 0 00-30.192 13.341 44.517 44.517 0 00-13.622 35.39zm310.777 86.086a115.716 115.716 0 01-117.683-118.385 115.716 115.716 0 01117.683-118.385 104.761 104.761 0 0183.276 37.075l-20.222 19.66a76.395 76.395 0 00-62.914-28.789 85.804 85.804 0 00-62.492 24.997 87.63 87.63 0 00-25.418 65.442 87.63 87.63 0 0025.418 65.441 85.804 85.804 0 0062.492 24.997 89.315 89.315 0 0070.217-32.86l20.222 20.222a110.38 110.38 0 01-38.9 29.63 119.087 119.087 0 01-51.68 10.955zm144.926-5.056h-29.07V82.259h29.07v226.799zm47.466-136.5c31.708-31.49 82.886-31.49 114.593 0a82.153 82.153 0 0122.47 58.981 82.153 82.153 0 01-22.47 58.982c-31.707 31.49-82.885 31.49-114.593 0a82.153 82.153 0 01-22.469-58.982 82.153 82.153 0 0122.47-58.981zm21.627 99.707a49.011 49.011 0 0071.2 0 56.173 56.173 0 0015.026-40.726 56.173 56.173 0 00-15.027-40.725 49.01 49.01 0 00-71.199 0 56.173 56.173 0 00-15.026 40.725 56.173 56.173 0 0015.166 40.585l-.14.14zm276.512 36.793h-28.087v-21.486h-.843a54.067 54.067 0 01-20.503 19.38 57.296 57.296 0 01-28.788 7.723 54.628 54.628 0 01-44.096-17.694 70.216 70.216 0 01-15.026-47.466V154.02h29.07v90.158c0 28.93 12.778 43.394 38.337 43.394a35.67 35.67 0 0029.491-14.043 52.943 52.943 0 0011.375-33.564V154.02h29.07v155.038zm98.724 5.056a68.25 68.25 0 01-51.96-23.734 84.26 84.26 0 01-21.767-58.84 84.26 84.26 0 0121.767-58.842 68.25 68.25 0 0151.96-23.733 65.863 65.863 0 0131.737 7.583 53.786 53.786 0 0121.065 18.959h1.264l-1.264-21.487V82.26h29.07v226.798h-28.087v-21.486h-1.264a53.786 53.786 0 01-21.065 18.958 65.863 65.863 0 01-31.456 7.584zm4.774-26.542a46.343 46.343 0 0034.968-15.167 56.875 56.875 0 0014.043-40.866 56.875 56.875 0 00-14.043-40.866 47.466 47.466 0 00-70.216 0 56.173 56.173 0 00-14.044 40.726 56.173 56.173 0 0014.044 40.725 46.343 46.343 0 0035.248 15.448z" fill="#5F6368"/></g></svg>