<svg viewBox="0 0 360 216" fill="none" xmlns="http://www.w3.org/2000/svg"><mask id="a" maskUnits="userSpaceOnUse" x="0" y="0" width="360" height="216"><path fill="#C4C4C4" d="M0 0h360v216H0z"/></mask><g mask="url(#a)"><path d="M245.915 11.028C57.03 14.888-110.126 211.022-170.094 308.606l960.101-107.597C505.402 195.405 482.022 6.202 245.915 11.028z" fill="url(#paint0_linear)"/><g opacity=".6"><mask id="b" maskUnits="userSpaceOnUse" x="-198" y="-48" width="989" height="357"><path d="M245.915 11.028C57.03 14.888-110.126 211.022-170.094 308.606l960.101-107.597C505.402 195.405 482.022 6.202 245.915 11.028z" fill="url(#paint1_linear)"/></mask><g mask="url(#b)"><path d="M539.077 102.691C210.475-52.788 11.115 166.666-47.49 295.827l18.418 57.551c172.376 28.437 520.59 84.156 534.433 79.527 13.843-4.628 295.994-127.4 435.338-188.208l-1.767-205.086-62.236 75.723c24.378 60.568-9.017 142.835-337.619-12.643z" fill="url(#paint2_linear)"/></g></g><g opacity=".8"><mask id="c" maskUnits="userSpaceOnUse" x="-198" y="-48" width="989" height="357"><path d="M245.915 11.028C57.03 14.888-110.126 211.022-170.094 308.606l960.101-107.597C505.402 195.405 482.022 6.202 245.915 11.028z" fill="url(#paint3_linear)"/></mask><g mask="url(#c)"><path d="M545.747 94.25C241.71-5.136 116.523 175.205 91.934 277.798l17.772 158.583 242.326 206.011 645.317-324.237-40.811-364.17-113.45-7.478c27.568 90.659 6.696 247.13-297.341 147.743z" fill="url(#paint4_linear)"/></g></g></g><defs><linearGradient id="paint0_linear" x1="-44.607" y1="42.406" x2="115.064" y2="462.851" gradientUnits="userSpaceOnUse"><stop stop-color="#62C5F1"/><stop offset="1" stop-color="#50ADE2"/></linearGradient><linearGradient id="paint1_linear" x1="87.731" y1="74.622" x2="131.424" y2="285.161" gradientUnits="userSpaceOnUse"><stop stop-color="#6DD2FF"/><stop offset="1" stop-color="#77BCE4"/></linearGradient><linearGradient id="paint2_linear" x1="230.835" y1="132.713" x2="317.8" y2="466.578" gradientUnits="userSpaceOnUse"><stop stop-color="#6DD2FF"/><stop offset="1" stop-color="#77BCE4"/></linearGradient><linearGradient id="paint3_linear" x1="87.731" y1="74.622" x2="131.424" y2="285.161" gradientUnits="userSpaceOnUse"><stop stop-color="#6DD2FF"/><stop offset="1" stop-color="#77BCE4"/></linearGradient><linearGradient id="paint4_linear" x1="337.779" y1="122.714" x2="526.154" y2="619.999" gradientUnits="userSpaceOnUse"><stop stop-color="#6DD2FF"/><stop offset="1" stop-color="#77BCE4"/></linearGradient></defs></svg>