<svg width="147" height="24" xmlns="http://www.w3.org/2000/svg"><g fill="none"><path d="M12.414 20.787l-5.415 2.708a.82.82 0 01-.748.004L.457 20.602a.828.828 0 01-.457-.74v-6.62c0-.294.152-.588.457-.74l5.336-2.669V3.724c0-.294.153-.588.458-.74L12.044.087a.828.828 0 01.74 0l5.793 2.897a.818.818 0 01.457.74v6.11L24.37 12.5a.818.818 0 01.458.74v6.621c0 .314-.178.6-.458.74l-5.785 2.893a.82.82 0 01-.748.004l-5.423-2.712zm-1.85-7.546l-3.943-1.97-3.943 1.97 3.943 1.972 3.942-1.972zm-8.909 1.34v4.77l4.138 2.069v-4.77l-4.138-2.07zm9.931 0l-4.138 2.068v4.77l4.138-2.068v-4.77zm10.563-1.34l-3.942-1.97-3.943 1.97 3.943 1.972 3.942-1.972zm-8.908 1.34v4.77l4.138 2.069v-4.77l-4.138-2.07zm9.931 0l-4.138 2.068v4.77l4.138-2.068v-4.77zM16.356 3.723l-3.942-1.971L8.47 3.724l3.943 1.971 3.942-1.97zm-8.908 1.34v4.77l4.138 2.068v-4.77L7.448 5.063zm9.931 0l-4.138 2.068v4.77l4.138-2.069v-4.77z" fill="#50ADE2"/><path d="M33.28 14.973h1.894c.174 1.243 1.356 1.99 3.024 1.99 1.59 0 2.728-.817 2.728-1.938 0-.973-.66-1.58-2.337-1.946l-1.364-.286c-2.511-.53-3.65-1.695-3.65-3.502 0-2.146 1.886-3.623 4.553-3.623 2.659 0 4.475 1.503 4.536 3.693h-1.886c-.121-1.26-1.155-2.033-2.676-2.033-1.468 0-2.545.712-2.545 1.86 0 .911.643 1.52 2.267 1.867l1.373.287c2.624.556 3.701 1.607 3.701 3.432 0 2.363-1.86 3.848-4.778 3.848-2.833 0-4.718-1.416-4.84-3.649zm13.917-2.267v-1.512h1.469c1.433 0 2.406-.843 2.406-2.016 0-1.172-.756-1.937-2.232-1.937-1.39 0-2.398.738-2.494 1.99h-1.824c.156-2.19 1.867-3.589 4.318-3.589 2.554 0 4.126 1.4 4.126 3.267 0 1.573-1.103 2.624-2.64 2.945v.044c1.841.165 3.075 1.286 3.075 3.04 0 2.207-1.929 3.71-4.544 3.71-2.685 0-4.483-1.485-4.605-3.64h1.868c.096 1.225 1.164 2.016 2.737 2.016 1.529 0 2.554-.87 2.563-2.085.009-1.434-1.025-2.233-2.702-2.233h-1.52zm17.166 5.916c-3.519 0-5.743-2.484-5.743-6.481 0-3.97 2.241-6.473 5.743-6.473 2.84 0 4.987 1.747 5.317 4.362h-1.93c-.348-1.607-1.686-2.659-3.388-2.659-2.277 0-3.754 1.868-3.754 4.77 0 2.928 1.46 4.778 3.762 4.778 1.747 0 2.989-.894 3.38-2.406h1.937c-.477 2.589-2.44 4.11-5.325 4.11zm10.798-.034c-2.615 0-4.336-1.799-4.336-4.744 0-2.937 1.73-4.735 4.336-4.735 2.606 0 4.335 1.798 4.335 4.735 0 2.945-1.72 4.744-4.335 4.744zm0-1.547c1.477 0 2.424-1.164 2.424-3.197 0-2.024-.956-3.189-2.424-3.189-1.469 0-2.424 1.165-2.424 3.189 0 2.033.955 3.197 2.424 3.197zm5.802 1.373v-9.14h1.79v1.538h.043c.409-1.017 1.364-1.694 2.598-1.694 1.268 0 2.19.651 2.554 1.79h.044c.469-1.113 1.546-1.79 2.85-1.79 1.806 0 2.988 1.199 2.988 3.014v6.282h-1.885v-5.83c0-1.181-.634-1.86-1.747-1.86-1.112 0-1.885.826-1.885 1.982v5.708h-1.842v-5.969c0-1.051-.669-1.72-1.729-1.72-1.112 0-1.902.869-1.902 2.042v5.647h-1.877zm19.451-9.288c2.32 0 3.85 1.825 3.85 4.718s-1.521 4.726-3.815 4.726c-1.312 0-2.354-.643-2.876-1.66h-.043v4.527h-1.877V9.274h1.816v1.573h.035c.539-1.052 1.59-1.72 2.91-1.72zm-.495 7.854c1.486 0 2.415-1.216 2.415-3.136 0-1.911-.93-3.136-2.415-3.136-1.433 0-2.398 1.25-2.398 3.136 0 1.903.956 3.136 2.398 3.136zm9 .105c1.312 0 2.337-.904 2.337-2.094v-.721l-2.25.139c-1.121.078-1.755.573-1.755 1.355 0 .8.66 1.32 1.668 1.32zm-.521 1.485c-1.79 0-3.041-1.112-3.041-2.754 0-1.599 1.225-2.58 3.397-2.702l2.502-.148v-.703c0-1.017-.686-1.625-1.833-1.625-1.086 0-1.764.521-1.929 1.338h-1.772c.104-1.65 1.511-2.867 3.77-2.867 2.216 0 3.632 1.173 3.632 3.006v6.299h-1.799V16.91h-.043c-.53 1.016-1.686 1.66-2.884 1.66zm7.105-11.46h1.885v2.164h1.738v1.486h-1.738v5.039c0 .79.348 1.147 1.112 1.147.192 0 .496-.018.617-.044v1.486c-.208.052-.625.087-1.042.087-1.85 0-2.572-.704-2.572-2.468V10.76h-1.33V9.274h1.33V7.111zm5.238 11.304v-9.14h1.876v9.14h-1.876zm.938-10.617c-.6 0-1.086-.487-1.086-1.077 0-.6.487-1.078 1.086-1.078.6 0 1.077.478 1.077 1.078 0 .59-.477 1.077-1.077 1.077zm7.74 10.773c-1.338 0-2.372-.651-2.937-1.711h-.034v1.555h-1.825V5.877h1.877v4.952h.043c.548-1.06 1.59-1.703 2.885-1.703 2.302 0 3.805 1.825 3.805 4.718 0 2.902-1.494 4.726-3.814 4.726zm-.504-7.862c-1.425 0-2.424 1.25-2.424 3.136 0 1.903 1 3.136 2.424 3.136 1.477 0 2.39-1.199 2.39-3.136 0-1.92-.913-3.136-2.39-3.136zm5.863 7.706V5.877h1.877v12.537h-1.877zm7.645-7.793c-1.312 0-2.233.999-2.329 2.38h4.57c-.043-1.399-.93-2.38-2.241-2.38zm2.232 5.108h1.781c-.26 1.668-1.841 2.859-3.935 2.859-2.685 0-4.31-1.816-4.31-4.7 0-2.868 1.651-4.78 4.232-4.78 2.536 0 4.118 1.79 4.118 4.562v.643h-6.456v.113c0 1.59.956 2.641 2.46 2.641 1.068 0 1.858-.539 2.11-1.338z" fill="#000"/></g></svg>