<?xml version="1.0" encoding="UTF-8"?>
<svg width="54px" height="64px" viewBox="0 0 54 64" version="1.1" xmlns="http://www.w3.org/2000/svg" xmlns:xlink="http://www.w3.org/1999/xlink">
    <!-- Generator: Sketch 52.2 (67145) - http://www.bohemiancoding.com/sketch -->
    <title>Group</title>
    <desc>Created with Sketch.</desc>
    <g id="Page-1" stroke="none" stroke-width="1" fill="none" fill-rule="evenodd">
        <g id="Group" transform="translate(0.056604, 0.000000)" fill="#000000">
            <path d="M43.2122252,58.0820209 L41.8150632,58.0820209 L41.8150632,50.4974271 L42.813036,50.4974271 C44.1104007,50.4974271 45.1083736,49.4994542 45.1083736,48.2020895 L45.1083736,43.511617 L8.78216123,43.511617 L8.78216123,48.2020895 C8.78216123,49.4994542 9.7801341,50.4974271 11.0774988,50.4974271 L12.0754717,50.4974271 L12.0754717,58.0820209 L10.6783097,58.0820209 C8.78216123,58.0820209 7.28520193,59.6787775 7.28520193,61.5749259 L7.28520193,62.8722907 C7.28520193,63.4710744 7.68439108,63.8702635 8.2831748,63.8702635 L17.065336,63.8702635 C17.6641198,63.8702635 18.0633089,63.4710744 18.0633089,62.8722907 L18.0633089,50.4974271 L35.8272259,50.4974271 L35.8272259,62.8722907 C35.8272259,63.4710744 36.2264151,63.8702635 36.8251988,63.8702635 L45.60736,63.8702635 C46.2061438,63.8702635 46.6053329,63.4710744 46.6053329,62.8722907 L46.6053329,61.4751286 C46.6053329,59.5789802 45.1083736,58.0820209 43.2122252,58.0820209 Z M30.1387806,47.8029004 L23.8515515,47.8029004 C23.3525651,47.8029004 22.8535787,47.4037112 22.8535787,46.8049275 C22.8535787,46.3059411 23.3525651,45.8069546 23.8515515,45.8069546 L30.1387806,45.8069546 C30.637767,45.8069546 31.1367535,46.3059411 31.1367535,46.8049275 C31.1367535,47.3039139 30.637767,47.8029004 30.1387806,47.8029004 Z" id="Shape" fill-rule="nonzero"></path>
            <path d="M31.9351318,16.4665523 C31.1367535,16.4665523 30.4381725,17.1651333 30.4381725,17.9635116 C30.4381725,18.7618899 31.1367535,19.4604709 31.9351318,19.4604709 C32.7335101,19.4604709 33.4320911,18.7618899 33.4320911,17.9635116 C33.4320911,17.1651333 32.7335101,16.4665523 31.9351318,16.4665523 Z" id="Path"></path>
            <path d="M21.9554031,16.4665523 C21.1570248,16.4665523 20.4584438,17.1651333 20.4584438,17.9635116 C20.4584438,18.7618899 21.1570248,19.4604709 21.9554031,19.4604709 C22.7537814,19.4604709 23.4523624,18.7618899 23.4523624,17.9635116 C23.4523624,17.1651333 22.8535787,16.4665523 21.9554031,16.4665523 Z" id="Path"></path>
            <path d="M52.3935755,31.1367535 L45.1083736,31.1367535 L45.1083736,29.8393887 C45.1083736,27.7436457 43.4118197,25.9472946 41.2162794,25.9472946 L40.018712,25.9472946 L40.018712,23.5521597 C41.6154686,23.0531732 42.813036,21.3566194 42.813036,19.2608763 C42.813036,17.1651333 41.6154686,15.4685794 40.018712,14.969593 L40.018712,13.7720256 C40.018712,11.3768907 38.0227663,9.38094496 35.6276314,9.38094496 L27.9432403,9.38094496 L27.9432403,7.08560736 C29.4401996,6.68641821 30.5379697,5.2892562 30.5379697,3.59270232 C30.5379697,1.59675659 28.9412132,0 26.9452674,0 C24.9493217,0 23.3525651,1.59675659 23.3525651,3.59270232 C23.3525651,5.18945891 24.4503353,6.58662093 25.9472946,7.08560736 L25.9472946,9.48074224 L18.1631062,9.48074224 C15.7679713,9.48074224 13.7720256,11.3768907 13.7720256,13.8718229 L13.7720256,14.969593 C12.175269,15.4685794 10.8779043,17.1651333 10.8779043,19.2608763 C10.8779043,21.3566194 12.0754717,23.0531732 13.7720256,23.5521597 L13.7720256,25.9472946 L12.5744581,25.9472946 C10.4787151,25.9472946 8.68236395,27.6438484 8.68236395,29.8393887 L8.68236395,31.1367535 L1.4969593,31.1367535 C0.898175581,31.1367535 0.498986434,31.5359426 0.498986434,32.1347263 L0.498986434,51.9943864 C0.498986434,52.5931701 0.898175581,52.9923593 1.4969593,52.9923593 L5.48885077,52.9923593 C6.08763449,52.9923593 6.48682364,52.5931701 6.48682364,51.9943864 C6.48682364,51.4954 6.08763449,50.9964135 5.48885077,50.9964135 L2.49493217,50.9964135 L2.49493217,48.9006705 L5.48885077,48.9006705 C6.08763449,48.9006705 6.48682364,48.5014814 6.48682364,47.9026976 L6.48682364,37.224388 L8.78216123,37.224388 L8.78216123,41.415874 L45.1083736,41.415874 L45.1083736,37.224388 L47.4037112,37.224388 L47.4037112,47.9026976 C47.4037112,48.5014814 47.9026976,48.9006705 48.4016841,48.9006705 L51.3956027,48.9006705 L51.3956027,50.9964135 L48.4016841,50.9964135 C47.9026976,50.9964135 47.4037112,51.4954 47.4037112,51.9943864 C47.4037112,52.5931701 47.9026976,52.9923593 48.4016841,52.9923593 L52.3935755,52.9923593 C52.9923593,52.9923593 53.3915484,52.5931701 53.3915484,51.9943864 L53.3915484,32.1347263 C53.3915484,31.6357399 52.9923593,31.1367535 52.3935755,31.1367535 Z M21.9554031,21.4564167 C20.0592546,21.4564167 18.4624981,19.8596601 18.4624981,17.9635116 C18.4624981,16.0673632 20.0592546,14.4706066 21.9554031,14.4706066 C23.8515515,14.4706066 25.4483081,16.0673632 25.4483081,17.9635116 C25.4483081,19.8596601 23.9513488,21.4564167 21.9554031,21.4564167 Z M31.9351318,21.4564167 C30.0389833,21.4564167 28.4422267,19.8596601 28.4422267,17.9635116 C28.4422267,16.0673632 30.0389833,14.4706066 31.9351318,14.4706066 C33.8312802,14.4706066 35.4280368,16.0673632 35.4280368,17.9635116 C35.4280368,19.8596601 33.8312802,21.4564167 31.9351318,21.4564167 Z" id="Shape" fill-rule="nonzero"></path>
        </g>
    </g>
</svg>