<?xml version="1.0" encoding="UTF-8"?>
<svg width="579px" height="127px" viewBox="0 0 579 127" version="1.1" xmlns="http://www.w3.org/2000/svg" xmlns:xlink="http://www.w3.org/1999/xlink">
    <!-- Generator: Sketch 51.2 (57519) - http://www.bohemiancoding.com/sketch -->
    <title>xandr-logo</title>
    <desc>Created with Sketch.</desc>
    <defs>
        <polygon id="path-1" points="0.0200126316 0.500754348 96.7045074 0.500754348 96.7045074 94 0.0200126316 94"></polygon>
        <polygon id="path-3" points="0.790125 0.370758065 97.6233125 0.370758065 97.6233125 126.999693 0.790125 126.999693"></polygon>
        <polygon id="path-5" points="0 0.836605 46.1117 0.836605 46.1117 40.459005 0 40.459005"></polygon>
    </defs>
    <g id="Symbols" stroke="none" stroke-width="1" fill="none" fill-rule="evenodd">
        <g id="XANDR_LOGO_01" transform="translate(-7.000000, -3.000000)">
            <g id="xandr-logo" transform="translate(7.000000, 3.000000)">
                <path d="M176.480822,120.515957 L156.329338,94.510136 L136.009754,120.547535 C133.904405,123.349807 130.592633,125 127.074836,125 L109,125 L144.669972,79.4994907 L110.543649,34 L128.799909,34 C132.311557,34 135.618204,35.6450999 137.723552,38.4382045 L156.843887,64.8586108 L175.964222,38.4382045 C178.06957,35.6450999 181.374168,34 184.885815,34 L202.457376,34 L168.161928,79.5137516 L204,125 L185.439315,125 C181.905117,125 178.58207,123.336565 176.480822,120.515957" id="Fill-1" fill="#211F1F"></path>
                <g id="Group-5" transform="translate(198.000000, 32.000000)">
                    <mask id="mask-2" fill="white">
                        <use xlink:href="#path-1"></use>
                    </mask>
                    <g id="Clip-4"></g>
                    <path d="M68.0068021,67.8476674 C73.1324863,62.6061457 75.6932863,55.7104283 75.6932863,47.1635804 C75.6932863,38.6167326 73.1324863,31.7251022 68.0068021,26.481537 C62.8821389,21.2420587 56.3923284,18.6182326 48.5343074,18.6182326 C40.6742442,18.6182326 34.20996,21.2420587 29.1445179,26.481537 C24.0770337,31.7251022 21.5448232,38.6167326 21.5448232,47.1635804 C21.5448232,55.7104283 24.0770337,62.6061457 29.1445179,67.8476674 C34.20996,73.0891891 40.6742442,75.7109717 48.5343074,75.7109717 C56.3923284,75.7109717 62.8821389,73.0891891 68.0068021,67.8476674 Z M96.7045074,1.52453696 L96.7045074,92.8026239 L87.4803179,92.8026239 C81.3478758,92.8026239 76.3784126,87.8287978 76.3784126,81.6942761 L76.3784126,81.0086891 C72.8455705,85.3429065 68.4887389,88.5889717 63.3089389,90.7519935 C58.1270968,92.9150152 52.4040968,94.0001022 46.14096,94.0001022 C37.2598442,94.0001022 29.3180968,92.0639065 22.3136758,88.1874283 C15.3082337,84.3170804 9.84253895,78.8477109 5.91454947,71.7782978 C1.98451789,64.7139935 0.0200126316,56.51045 0.0200126316,47.1635804 C0.0200126316,37.8218196 1.98451789,29.6427978 5.91454947,22.6346891 C9.84253895,15.6286239 15.3082337,10.1847978 22.3136758,6.31036304 C29.3180968,2.43797174 37.2598442,0.500754348 46.14096,0.500754348 C52.0620442,0.500754348 57.5011916,1.52453696 62.4553389,3.57516739 C67.4074442,5.62681957 71.7070968,8.64912391 75.3532758,12.63595 C75.3532758,6.49938478 80.32376,1.52453696 86.4551811,1.52453696 L96.7045074,1.52453696 Z" id="Fill-3" fill="#211F1F" mask="url(#mask-2)"></path>
                </g>
                <path d="M390.562831,43.1588939 C397.516512,49.9349215 401,59.9795433 401,73.2979067 L401,126 L390.732608,126 C384.589968,126 379.611218,120.989528 379.611218,114.80648 L379.611218,76.0558797 C379.611218,68.0187409 377.729357,61.9612894 373.964613,57.885584 C370.198845,53.8119375 364.83861,51.7704816 357.880838,51.7704816 C350.00975,51.7704816 343.79245,54.1557833 339.230983,58.9191804 C334.665424,63.6836069 332.386736,70.5430222 332.386736,79.4994853 L332.386736,114.80648 C332.386736,120.989528 327.406964,126 321.264324,126 L311,126 L311,34.0315375 L320.238505,34.0315375 C326.380122,34.0315375 331.359895,39.0430388 331.359895,45.2260868 L331.359895,45.9148079 C334.895543,41.6671796 339.342462,38.4521182 344.705766,36.2706532 C350.066002,34.0891883 356.110457,33 362.844246,33 C374.363486,33 383.601991,36.3869843 390.562831,43.1588939" id="Fill-6" fill="#211F1F"></path>
                <g id="Group-10" transform="translate(411.000000, 0.000000)">
                    <mask id="mask-4" fill="white">
                        <use xlink:href="#path-3"></use>
                    </mask>
                    <g id="Clip-9"></g>
                    <path d="M63.29575,105.153644 C67.3943958,102.812338 70.639625,99.4714185 73.0304167,95.1288379 C75.4212083,90.790354 76.6166042,85.7656605 76.6166042,80.0506605 C76.6166042,74.3418056 75.4212083,69.3160879 73.0304167,64.9735073 C70.639625,60.632975 67.3943958,57.2930798 63.29575,54.9487008 C59.1960833,52.6084185 54.5849792,51.4377653 49.4624375,51.4377653 C44.338875,51.4377653 39.7287917,52.6084185 35.629125,54.9487008 C31.5294583,57.2930798 28.2862708,60.632975 25.8954792,64.9735073 C23.501625,69.3160879 22.3062292,74.3418056 22.3062292,80.0506605 C22.3062292,85.7656605 23.501625,90.790354 25.8954792,95.1288379 C28.2862708,99.4714185 31.5294583,102.812338 35.629125,105.153644 C39.7287917,107.496999 44.338875,108.665604 49.4624375,108.665604 C54.5849792,108.665604 59.1960833,107.496999 63.29575,105.153644 Z M97.6233125,0.370450806 L97.6233125,125.800362 L88.2285833,125.800362 C82.0995,125.800362 77.1290625,120.814588 77.1290625,114.663281 L77.1290625,113.977072 C73.5969792,118.320677 69.2421042,121.575564 64.0634167,123.744806 C58.8816667,125.910975 53.1598958,126.999693 46.899125,126.999693 C38.1301667,126.999693 30.2493333,125.058846 23.2464167,121.175104 C16.2465625,117.294435 10.7514167,111.781201 6.76710417,104.639499 C2.77870833,97.499846 0.790125,89.3042492 0.790125,80.0506605 C0.790125,70.7991202 2.77870833,62.633225 6.76710417,55.547854 C10.7514167,48.4696524 16.2465625,42.985096 23.2464167,39.101354 C30.2493333,35.2186363 38.1301667,33.2747169 46.899125,33.2747169 C52.9342917,33.2747169 58.4529167,34.3030073 63.4662292,36.3585637 C68.4764792,38.4151444 72.7445833,41.5000153 76.2756458,45.6111282 L76.2756458,0.370450806 L97.6233125,0.370450806 Z" id="Fill-8" fill="#211F1F" mask="url(#mask-4)"></path>
                </g>
                <path d="M579,33 L579,53.493375 C577.168914,53.1485073 575.512119,52.9755587 574.023465,52.9755587 C565.675926,52.9755587 559.157423,55.4163982 554.472057,60.2960183 C549.78259,65.1776973 547.438882,72.2099093 547.438882,81.3936838 L547.438882,114.806728 C547.438882,120.989639 542.446968,126 536.291401,126 L526,126 L526,34.0335735 L546.409537,34.0335735 L546.409537,47.4648823 C552.584583,37.8209411 563.447045,33 579,33" id="Fill-11" fill="#211F1F"></path>
                <g id="Group-15" transform="translate(0.000000, 37.000000)">
                    <mask id="mask-6" fill="white">
                        <use xlink:href="#path-5"></use>
                    </mask>
                    <g id="Clip-14"></g>
                    <path d="M23.3075043,0.836605 C22.5544826,1.572555 21.8944391,2.41613 21.3539391,3.35503 L-0.000408695652,40.459005 L46.1117,40.459005 L23.3075043,0.836605 Z" id="Fill-13" fill="#E10500" mask="url(#mask-6)"></path>
                </g>
                <path d="M74,34.4370075 C72.9787396,34.1504452 71.9111051,34 70.8218294,34 L31.1781706,34 C30.0888949,34 29.0212604,34.1504452 28,34.4370075 L51.0005153,74 L74,34.4370075 Z" id="Fill-16" fill="#F73232"></path>
                <path d="M0,83 L21.3018834,120.457575 C21.8410813,121.405422 22.4995347,122.257036 23.2517616,123 L46,83 L0,83 Z" id="Fill-18" fill="#FC5047"></path>
                <path d="M80.6981166,120.457575 L102,83 L56,83 L78.7492577,123 C79.5004653,122.257036 80.1589187,121.405422 80.6981166,120.457575" id="Fill-20" fill="#FF7061"></path>
                <path d="M28,125.562993 C29.0212604,125.849555 30.0888949,126 31.1781706,126 L70.8218294,126 C71.9111051,126 72.9787396,125.849555 74,125.562993 L51.0005153,86 L28,125.562993 Z" id="Fill-22" fill="#FC8D7E"></path>
                <path d="M102,77 L80.6981166,39.5424255 C80.1589187,38.5945778 79.5004653,37.7429636 78.7482384,37 L56,77 L102,77 Z" id="Fill-24" fill="#FC5047"></path>
            </g>
        </g>
    </g>
</svg>